G04 #@! TF.GenerationSoftware,KiCad,Pcbnew,(5.0.0-rc2-dev-444-g2974a2c10)*
G04 #@! TF.CreationDate,2019-10-20T12:44:52-07:00*
G04 #@! TF.ProjectId,Waveform_Gen_ADSR,57617665666F726D5F47656E5F414453,v00*
G04 #@! TF.SameCoordinates,Original*
G04 #@! TF.FileFunction,Soldermask,Top*
G04 #@! TF.FilePolarity,Negative*
%FSLAX46Y46*%
G04 Gerber Fmt 4.6, Leading zero omitted, Abs format (unit mm)*
G04 Created by KiCad (PCBNEW (5.0.0-rc2-dev-444-g2974a2c10)) date 10/20/19 12:44:52*
%MOMM*%
%LPD*%
G01*
G04 APERTURE LIST*
%ADD10C,0.140000*%
%ADD11C,0.010000*%
%ADD12C,0.150000*%
%ADD13C,0.100000*%
%ADD14C,3.101600*%
%ADD15C,2.601600*%
%ADD16C,1.801600*%
%ADD17R,1.501600X0.401600*%
%ADD18R,1.351600X1.101600*%
%ADD19R,0.801600X1.401600*%
%ADD20O,1.801600X1.801600*%
%ADD21R,1.801600X1.801600*%
%ADD22C,1.721600*%
%ADD23R,1.721600X1.721600*%
%ADD24R,2.101600X1.901600*%
%ADD25R,1.101600X1.351600*%
%ADD26R,1.661600X0.751600*%
%ADD27R,1.161600X0.501600*%
G04 APERTURE END LIST*
D10*
X96946666Y-111001666D02*
X97280000Y-111001666D01*
X96880000Y-111201666D02*
X97113333Y-110501666D01*
X97346666Y-111201666D01*
X97580000Y-111201666D02*
X97580000Y-110735000D01*
X97580000Y-110801666D02*
X97613333Y-110768333D01*
X97680000Y-110735000D01*
X97780000Y-110735000D01*
X97846666Y-110768333D01*
X97880000Y-110835000D01*
X97880000Y-111201666D01*
X97880000Y-110835000D02*
X97913333Y-110768333D01*
X97980000Y-110735000D01*
X98080000Y-110735000D01*
X98146666Y-110768333D01*
X98180000Y-110835000D01*
X98180000Y-111201666D01*
X98513333Y-110735000D02*
X98513333Y-111435000D01*
X98513333Y-110768333D02*
X98580000Y-110735000D01*
X98713333Y-110735000D01*
X98780000Y-110768333D01*
X98813333Y-110801666D01*
X98846666Y-110868333D01*
X98846666Y-111068333D01*
X98813333Y-111135000D01*
X98780000Y-111168333D01*
X98713333Y-111201666D01*
X98580000Y-111201666D01*
X98513333Y-111168333D01*
X99246666Y-111201666D02*
X99180000Y-111168333D01*
X99146666Y-111101666D01*
X99146666Y-110501666D01*
X99513333Y-111201666D02*
X99513333Y-110735000D01*
X99513333Y-110501666D02*
X99480000Y-110535000D01*
X99513333Y-110568333D01*
X99546666Y-110535000D01*
X99513333Y-110501666D01*
X99513333Y-110568333D01*
X99746666Y-110735000D02*
X100013333Y-110735000D01*
X99846666Y-110501666D02*
X99846666Y-111101666D01*
X99880000Y-111168333D01*
X99946666Y-111201666D01*
X100013333Y-111201666D01*
X100546666Y-110735000D02*
X100546666Y-111201666D01*
X100246666Y-110735000D02*
X100246666Y-111101666D01*
X100280000Y-111168333D01*
X100346666Y-111201666D01*
X100446666Y-111201666D01*
X100513333Y-111168333D01*
X100546666Y-111135000D01*
X101180000Y-111201666D02*
X101180000Y-110501666D01*
X101180000Y-111168333D02*
X101113333Y-111201666D01*
X100980000Y-111201666D01*
X100913333Y-111168333D01*
X100880000Y-111135000D01*
X100846666Y-111068333D01*
X100846666Y-110868333D01*
X100880000Y-110801666D01*
X100913333Y-110768333D01*
X100980000Y-110735000D01*
X101113333Y-110735000D01*
X101180000Y-110768333D01*
X101780000Y-111168333D02*
X101713333Y-111201666D01*
X101580000Y-111201666D01*
X101513333Y-111168333D01*
X101480000Y-111101666D01*
X101480000Y-110835000D01*
X101513333Y-110768333D01*
X101580000Y-110735000D01*
X101713333Y-110735000D01*
X101780000Y-110768333D01*
X101813333Y-110835000D01*
X101813333Y-110901666D01*
X101480000Y-110968333D01*
X98046666Y-112325000D02*
X98013333Y-112358333D01*
X97913333Y-112391666D01*
X97846666Y-112391666D01*
X97746666Y-112358333D01*
X97680000Y-112291666D01*
X97646666Y-112225000D01*
X97613333Y-112091666D01*
X97613333Y-111991666D01*
X97646666Y-111858333D01*
X97680000Y-111791666D01*
X97746666Y-111725000D01*
X97846666Y-111691666D01*
X97913333Y-111691666D01*
X98013333Y-111725000D01*
X98046666Y-111758333D01*
X98446666Y-112391666D02*
X98380000Y-112358333D01*
X98346666Y-112325000D01*
X98313333Y-112258333D01*
X98313333Y-112058333D01*
X98346666Y-111991666D01*
X98380000Y-111958333D01*
X98446666Y-111925000D01*
X98546666Y-111925000D01*
X98613333Y-111958333D01*
X98646666Y-111991666D01*
X98680000Y-112058333D01*
X98680000Y-112258333D01*
X98646666Y-112325000D01*
X98613333Y-112358333D01*
X98546666Y-112391666D01*
X98446666Y-112391666D01*
X98980000Y-111925000D02*
X98980000Y-112391666D01*
X98980000Y-111991666D02*
X99013333Y-111958333D01*
X99080000Y-111925000D01*
X99180000Y-111925000D01*
X99246666Y-111958333D01*
X99280000Y-112025000D01*
X99280000Y-112391666D01*
X99513333Y-111925000D02*
X99780000Y-111925000D01*
X99613333Y-111691666D02*
X99613333Y-112291666D01*
X99646666Y-112358333D01*
X99713333Y-112391666D01*
X99780000Y-112391666D01*
X100013333Y-112391666D02*
X100013333Y-111925000D01*
X100013333Y-112058333D02*
X100046666Y-111991666D01*
X100080000Y-111958333D01*
X100146666Y-111925000D01*
X100213333Y-111925000D01*
X100546666Y-112391666D02*
X100480000Y-112358333D01*
X100446666Y-112325000D01*
X100413333Y-112258333D01*
X100413333Y-112058333D01*
X100446666Y-111991666D01*
X100480000Y-111958333D01*
X100546666Y-111925000D01*
X100646666Y-111925000D01*
X100713333Y-111958333D01*
X100746666Y-111991666D01*
X100780000Y-112058333D01*
X100780000Y-112258333D01*
X100746666Y-112325000D01*
X100713333Y-112358333D01*
X100646666Y-112391666D01*
X100546666Y-112391666D01*
X101180000Y-112391666D02*
X101113333Y-112358333D01*
X101080000Y-112291666D01*
X101080000Y-111691666D01*
X108586666Y-101840000D02*
X108553333Y-101873333D01*
X108453333Y-101906666D01*
X108386666Y-101906666D01*
X108286666Y-101873333D01*
X108220000Y-101806666D01*
X108186666Y-101740000D01*
X108153333Y-101606666D01*
X108153333Y-101506666D01*
X108186666Y-101373333D01*
X108220000Y-101306666D01*
X108286666Y-101240000D01*
X108386666Y-101206666D01*
X108453333Y-101206666D01*
X108553333Y-101240000D01*
X108586666Y-101273333D01*
X109153333Y-101873333D02*
X109086666Y-101906666D01*
X108953333Y-101906666D01*
X108886666Y-101873333D01*
X108853333Y-101806666D01*
X108853333Y-101540000D01*
X108886666Y-101473333D01*
X108953333Y-101440000D01*
X109086666Y-101440000D01*
X109153333Y-101473333D01*
X109186666Y-101540000D01*
X109186666Y-101606666D01*
X108853333Y-101673333D01*
X109786666Y-101906666D02*
X109786666Y-101206666D01*
X109786666Y-101873333D02*
X109720000Y-101906666D01*
X109586666Y-101906666D01*
X109520000Y-101873333D01*
X109486666Y-101840000D01*
X109453333Y-101773333D01*
X109453333Y-101573333D01*
X109486666Y-101506666D01*
X109520000Y-101473333D01*
X109586666Y-101440000D01*
X109720000Y-101440000D01*
X109786666Y-101473333D01*
X110420000Y-101906666D02*
X110420000Y-101540000D01*
X110386666Y-101473333D01*
X110320000Y-101440000D01*
X110186666Y-101440000D01*
X110120000Y-101473333D01*
X110420000Y-101873333D02*
X110353333Y-101906666D01*
X110186666Y-101906666D01*
X110120000Y-101873333D01*
X110086666Y-101806666D01*
X110086666Y-101740000D01*
X110120000Y-101673333D01*
X110186666Y-101640000D01*
X110353333Y-101640000D01*
X110420000Y-101606666D01*
X110753333Y-101906666D02*
X110753333Y-101440000D01*
X110753333Y-101573333D02*
X110786666Y-101506666D01*
X110820000Y-101473333D01*
X110886666Y-101440000D01*
X110953333Y-101440000D01*
X109136666Y-102430000D02*
X109070000Y-102396666D01*
X108970000Y-102396666D01*
X108870000Y-102430000D01*
X108803333Y-102496666D01*
X108770000Y-102563333D01*
X108736666Y-102696666D01*
X108736666Y-102796666D01*
X108770000Y-102930000D01*
X108803333Y-102996666D01*
X108870000Y-103063333D01*
X108970000Y-103096666D01*
X109036666Y-103096666D01*
X109136666Y-103063333D01*
X109170000Y-103030000D01*
X109170000Y-102796666D01*
X109036666Y-102796666D01*
X109470000Y-103096666D02*
X109470000Y-102630000D01*
X109470000Y-102763333D02*
X109503333Y-102696666D01*
X109536666Y-102663333D01*
X109603333Y-102630000D01*
X109670000Y-102630000D01*
X110003333Y-103096666D02*
X109936666Y-103063333D01*
X109903333Y-103030000D01*
X109870000Y-102963333D01*
X109870000Y-102763333D01*
X109903333Y-102696666D01*
X109936666Y-102663333D01*
X110003333Y-102630000D01*
X110103333Y-102630000D01*
X110170000Y-102663333D01*
X110203333Y-102696666D01*
X110236666Y-102763333D01*
X110236666Y-102963333D01*
X110203333Y-103030000D01*
X110170000Y-103063333D01*
X110103333Y-103096666D01*
X110003333Y-103096666D01*
X110470000Y-102630000D02*
X110636666Y-103096666D01*
X110803333Y-102630000D01*
X111336666Y-103063333D02*
X111270000Y-103096666D01*
X111136666Y-103096666D01*
X111070000Y-103063333D01*
X111036666Y-102996666D01*
X111036666Y-102730000D01*
X111070000Y-102663333D01*
X111136666Y-102630000D01*
X111270000Y-102630000D01*
X111336666Y-102663333D01*
X111370000Y-102730000D01*
X111370000Y-102796666D01*
X111036666Y-102863333D01*
X108520000Y-104253333D02*
X108620000Y-104286666D01*
X108786666Y-104286666D01*
X108853333Y-104253333D01*
X108886666Y-104220000D01*
X108920000Y-104153333D01*
X108920000Y-104086666D01*
X108886666Y-104020000D01*
X108853333Y-103986666D01*
X108786666Y-103953333D01*
X108653333Y-103920000D01*
X108586666Y-103886666D01*
X108553333Y-103853333D01*
X108520000Y-103786666D01*
X108520000Y-103720000D01*
X108553333Y-103653333D01*
X108586666Y-103620000D01*
X108653333Y-103586666D01*
X108820000Y-103586666D01*
X108920000Y-103620000D01*
X109120000Y-103820000D02*
X109386666Y-103820000D01*
X109220000Y-103586666D02*
X109220000Y-104186666D01*
X109253333Y-104253333D01*
X109320000Y-104286666D01*
X109386666Y-104286666D01*
X109920000Y-103820000D02*
X109920000Y-104286666D01*
X109620000Y-103820000D02*
X109620000Y-104186666D01*
X109653333Y-104253333D01*
X109720000Y-104286666D01*
X109820000Y-104286666D01*
X109886666Y-104253333D01*
X109920000Y-104220000D01*
X110553333Y-104286666D02*
X110553333Y-103586666D01*
X110553333Y-104253333D02*
X110486666Y-104286666D01*
X110353333Y-104286666D01*
X110286666Y-104253333D01*
X110253333Y-104220000D01*
X110220000Y-104153333D01*
X110220000Y-103953333D01*
X110253333Y-103886666D01*
X110286666Y-103853333D01*
X110353333Y-103820000D01*
X110486666Y-103820000D01*
X110553333Y-103853333D01*
X110886666Y-104286666D02*
X110886666Y-103820000D01*
X110886666Y-103586666D02*
X110853333Y-103620000D01*
X110886666Y-103653333D01*
X110920000Y-103620000D01*
X110886666Y-103586666D01*
X110886666Y-103653333D01*
X111320000Y-104286666D02*
X111253333Y-104253333D01*
X111220000Y-104220000D01*
X111186666Y-104153333D01*
X111186666Y-103953333D01*
X111220000Y-103886666D01*
X111253333Y-103853333D01*
X111320000Y-103820000D01*
X111420000Y-103820000D01*
X111486666Y-103853333D01*
X111520000Y-103886666D01*
X111553333Y-103953333D01*
X111553333Y-104153333D01*
X111520000Y-104220000D01*
X111486666Y-104253333D01*
X111420000Y-104286666D01*
X111320000Y-104286666D01*
X111820000Y-104253333D02*
X111886666Y-104286666D01*
X112020000Y-104286666D01*
X112086666Y-104253333D01*
X112120000Y-104186666D01*
X112120000Y-104153333D01*
X112086666Y-104086666D01*
X112020000Y-104053333D01*
X111920000Y-104053333D01*
X111853333Y-104020000D01*
X111820000Y-103953333D01*
X111820000Y-103920000D01*
X111853333Y-103853333D01*
X111920000Y-103820000D01*
X112020000Y-103820000D01*
X112086666Y-103853333D01*
X104590000Y-97376666D02*
X104923333Y-97376666D01*
X104523333Y-97576666D02*
X104756666Y-96876666D01*
X104990000Y-97576666D01*
X105223333Y-97576666D02*
X105223333Y-96876666D01*
X105390000Y-96876666D01*
X105490000Y-96910000D01*
X105556666Y-96976666D01*
X105590000Y-97043333D01*
X105623333Y-97176666D01*
X105623333Y-97276666D01*
X105590000Y-97410000D01*
X105556666Y-97476666D01*
X105490000Y-97543333D01*
X105390000Y-97576666D01*
X105223333Y-97576666D01*
X105956666Y-97576666D02*
X106090000Y-97576666D01*
X106156666Y-97543333D01*
X106190000Y-97510000D01*
X106256666Y-97410000D01*
X106290000Y-97276666D01*
X106290000Y-97010000D01*
X106256666Y-96943333D01*
X106223333Y-96910000D01*
X106156666Y-96876666D01*
X106023333Y-96876666D01*
X105956666Y-96910000D01*
X105923333Y-96943333D01*
X105890000Y-97010000D01*
X105890000Y-97176666D01*
X105923333Y-97243333D01*
X105956666Y-97276666D01*
X106023333Y-97310000D01*
X106156666Y-97310000D01*
X106223333Y-97276666D01*
X106256666Y-97243333D01*
X106290000Y-97176666D01*
X106690000Y-97176666D02*
X106623333Y-97143333D01*
X106590000Y-97110000D01*
X106556666Y-97043333D01*
X106556666Y-97010000D01*
X106590000Y-96943333D01*
X106623333Y-96910000D01*
X106690000Y-96876666D01*
X106823333Y-96876666D01*
X106890000Y-96910000D01*
X106923333Y-96943333D01*
X106956666Y-97010000D01*
X106956666Y-97043333D01*
X106923333Y-97110000D01*
X106890000Y-97143333D01*
X106823333Y-97176666D01*
X106690000Y-97176666D01*
X106623333Y-97210000D01*
X106590000Y-97243333D01*
X106556666Y-97310000D01*
X106556666Y-97443333D01*
X106590000Y-97510000D01*
X106623333Y-97543333D01*
X106690000Y-97576666D01*
X106823333Y-97576666D01*
X106890000Y-97543333D01*
X106923333Y-97510000D01*
X106956666Y-97443333D01*
X106956666Y-97310000D01*
X106923333Y-97243333D01*
X106890000Y-97210000D01*
X106823333Y-97176666D01*
X107190000Y-96876666D02*
X107623333Y-96876666D01*
X107390000Y-97143333D01*
X107490000Y-97143333D01*
X107556666Y-97176666D01*
X107590000Y-97210000D01*
X107623333Y-97276666D01*
X107623333Y-97443333D01*
X107590000Y-97510000D01*
X107556666Y-97543333D01*
X107490000Y-97576666D01*
X107290000Y-97576666D01*
X107223333Y-97543333D01*
X107190000Y-97510000D01*
X107856666Y-96876666D02*
X108290000Y-96876666D01*
X108056666Y-97143333D01*
X108156666Y-97143333D01*
X108223333Y-97176666D01*
X108256666Y-97210000D01*
X108290000Y-97276666D01*
X108290000Y-97443333D01*
X108256666Y-97510000D01*
X108223333Y-97543333D01*
X108156666Y-97576666D01*
X107956666Y-97576666D01*
X107890000Y-97543333D01*
X107856666Y-97510000D01*
X103840000Y-98766666D02*
X103840000Y-98066666D01*
X104106666Y-98066666D01*
X104173333Y-98100000D01*
X104206666Y-98133333D01*
X104240000Y-98200000D01*
X104240000Y-98300000D01*
X104206666Y-98366666D01*
X104173333Y-98400000D01*
X104106666Y-98433333D01*
X103840000Y-98433333D01*
X104940000Y-98766666D02*
X104706666Y-98433333D01*
X104540000Y-98766666D02*
X104540000Y-98066666D01*
X104806666Y-98066666D01*
X104873333Y-98100000D01*
X104906666Y-98133333D01*
X104940000Y-98200000D01*
X104940000Y-98300000D01*
X104906666Y-98366666D01*
X104873333Y-98400000D01*
X104806666Y-98433333D01*
X104540000Y-98433333D01*
X105240000Y-98400000D02*
X105473333Y-98400000D01*
X105573333Y-98766666D02*
X105240000Y-98766666D01*
X105240000Y-98066666D01*
X105573333Y-98066666D01*
X106273333Y-98700000D02*
X106240000Y-98733333D01*
X106140000Y-98766666D01*
X106073333Y-98766666D01*
X105973333Y-98733333D01*
X105906666Y-98666666D01*
X105873333Y-98600000D01*
X105840000Y-98466666D01*
X105840000Y-98366666D01*
X105873333Y-98233333D01*
X105906666Y-98166666D01*
X105973333Y-98100000D01*
X106073333Y-98066666D01*
X106140000Y-98066666D01*
X106240000Y-98100000D01*
X106273333Y-98133333D01*
X106573333Y-98766666D02*
X106573333Y-98066666D01*
X106873333Y-98733333D02*
X106973333Y-98766666D01*
X107140000Y-98766666D01*
X107206666Y-98733333D01*
X107240000Y-98700000D01*
X107273333Y-98633333D01*
X107273333Y-98566666D01*
X107240000Y-98500000D01*
X107206666Y-98466666D01*
X107140000Y-98433333D01*
X107006666Y-98400000D01*
X106940000Y-98366666D01*
X106906666Y-98333333D01*
X106873333Y-98266666D01*
X106873333Y-98200000D01*
X106906666Y-98133333D01*
X106940000Y-98100000D01*
X107006666Y-98066666D01*
X107173333Y-98066666D01*
X107273333Y-98100000D01*
X107573333Y-98766666D02*
X107573333Y-98066666D01*
X108040000Y-98066666D02*
X108173333Y-98066666D01*
X108240000Y-98100000D01*
X108306666Y-98166666D01*
X108340000Y-98300000D01*
X108340000Y-98533333D01*
X108306666Y-98666666D01*
X108240000Y-98733333D01*
X108173333Y-98766666D01*
X108040000Y-98766666D01*
X107973333Y-98733333D01*
X107906666Y-98666666D01*
X107873333Y-98533333D01*
X107873333Y-98300000D01*
X107906666Y-98166666D01*
X107973333Y-98100000D01*
X108040000Y-98066666D01*
X108640000Y-98766666D02*
X108640000Y-98066666D01*
X109040000Y-98766666D01*
X109040000Y-98066666D01*
X100556666Y-99256666D02*
X100723333Y-99956666D01*
X100856666Y-99456666D01*
X100990000Y-99956666D01*
X101156666Y-99256666D01*
X101390000Y-99756666D02*
X101723333Y-99756666D01*
X101323333Y-99956666D02*
X101556666Y-99256666D01*
X101790000Y-99956666D01*
X101923333Y-99256666D02*
X102156666Y-99956666D01*
X102390000Y-99256666D01*
X102623333Y-99590000D02*
X102856666Y-99590000D01*
X102956666Y-99956666D02*
X102623333Y-99956666D01*
X102623333Y-99256666D01*
X102956666Y-99256666D01*
X103490000Y-99590000D02*
X103256666Y-99590000D01*
X103256666Y-99956666D02*
X103256666Y-99256666D01*
X103590000Y-99256666D01*
X103990000Y-99256666D02*
X104123333Y-99256666D01*
X104190000Y-99290000D01*
X104256666Y-99356666D01*
X104290000Y-99490000D01*
X104290000Y-99723333D01*
X104256666Y-99856666D01*
X104190000Y-99923333D01*
X104123333Y-99956666D01*
X103990000Y-99956666D01*
X103923333Y-99923333D01*
X103856666Y-99856666D01*
X103823333Y-99723333D01*
X103823333Y-99490000D01*
X103856666Y-99356666D01*
X103923333Y-99290000D01*
X103990000Y-99256666D01*
X104990000Y-99956666D02*
X104756666Y-99623333D01*
X104590000Y-99956666D02*
X104590000Y-99256666D01*
X104856666Y-99256666D01*
X104923333Y-99290000D01*
X104956666Y-99323333D01*
X104990000Y-99390000D01*
X104990000Y-99490000D01*
X104956666Y-99556666D01*
X104923333Y-99590000D01*
X104856666Y-99623333D01*
X104590000Y-99623333D01*
X105290000Y-99956666D02*
X105290000Y-99256666D01*
X105523333Y-99756666D01*
X105756666Y-99256666D01*
X105756666Y-99956666D01*
X106990000Y-99290000D02*
X106923333Y-99256666D01*
X106823333Y-99256666D01*
X106723333Y-99290000D01*
X106656666Y-99356666D01*
X106623333Y-99423333D01*
X106590000Y-99556666D01*
X106590000Y-99656666D01*
X106623333Y-99790000D01*
X106656666Y-99856666D01*
X106723333Y-99923333D01*
X106823333Y-99956666D01*
X106890000Y-99956666D01*
X106990000Y-99923333D01*
X107023333Y-99890000D01*
X107023333Y-99656666D01*
X106890000Y-99656666D01*
X107323333Y-99590000D02*
X107556666Y-99590000D01*
X107656666Y-99956666D02*
X107323333Y-99956666D01*
X107323333Y-99256666D01*
X107656666Y-99256666D01*
X107956666Y-99956666D02*
X107956666Y-99256666D01*
X108356666Y-99956666D01*
X108356666Y-99256666D01*
X108690000Y-99590000D02*
X108923333Y-99590000D01*
X109023333Y-99956666D02*
X108690000Y-99956666D01*
X108690000Y-99256666D01*
X109023333Y-99256666D01*
X109723333Y-99956666D02*
X109490000Y-99623333D01*
X109323333Y-99956666D02*
X109323333Y-99256666D01*
X109590000Y-99256666D01*
X109656666Y-99290000D01*
X109690000Y-99323333D01*
X109723333Y-99390000D01*
X109723333Y-99490000D01*
X109690000Y-99556666D01*
X109656666Y-99590000D01*
X109590000Y-99623333D01*
X109323333Y-99623333D01*
X109990000Y-99756666D02*
X110323333Y-99756666D01*
X109923333Y-99956666D02*
X110156666Y-99256666D01*
X110390000Y-99956666D01*
X110523333Y-99256666D02*
X110923333Y-99256666D01*
X110723333Y-99956666D02*
X110723333Y-99256666D01*
X111290000Y-99256666D02*
X111423333Y-99256666D01*
X111490000Y-99290000D01*
X111556666Y-99356666D01*
X111590000Y-99490000D01*
X111590000Y-99723333D01*
X111556666Y-99856666D01*
X111490000Y-99923333D01*
X111423333Y-99956666D01*
X111290000Y-99956666D01*
X111223333Y-99923333D01*
X111156666Y-99856666D01*
X111123333Y-99723333D01*
X111123333Y-99490000D01*
X111156666Y-99356666D01*
X111223333Y-99290000D01*
X111290000Y-99256666D01*
X112290000Y-99956666D02*
X112056666Y-99623333D01*
X111890000Y-99956666D02*
X111890000Y-99256666D01*
X112156666Y-99256666D01*
X112223333Y-99290000D01*
X112256666Y-99323333D01*
X112290000Y-99390000D01*
X112290000Y-99490000D01*
X112256666Y-99556666D01*
X112223333Y-99590000D01*
X112156666Y-99623333D01*
X111890000Y-99623333D01*
D11*
G36*
X99360861Y-104716575D02*
X99368365Y-104769030D01*
X99371166Y-104844958D01*
X99371166Y-104992942D01*
X100434791Y-104998429D01*
X101498416Y-105003917D01*
X101509398Y-107088833D01*
X101636199Y-107088833D01*
X101703765Y-107092051D01*
X101749564Y-107100455D01*
X101763000Y-107110000D01*
X101743894Y-107121746D01*
X101694746Y-107129432D01*
X101650111Y-107131167D01*
X101574337Y-107136132D01*
X101535239Y-107150501D01*
X101530876Y-107157625D01*
X101529350Y-107183499D01*
X101527418Y-107247494D01*
X101525159Y-107345400D01*
X101522649Y-107473008D01*
X101519966Y-107626108D01*
X101517188Y-107800489D01*
X101514393Y-107991943D01*
X101511657Y-108196260D01*
X101511474Y-108210667D01*
X101498416Y-109237250D01*
X100434791Y-109242737D01*
X99371166Y-109248225D01*
X99371166Y-109385612D01*
X99368172Y-109457431D01*
X99360241Y-109506592D01*
X99350000Y-109523000D01*
X99338939Y-109503560D01*
X99331366Y-109452065D01*
X99328833Y-109385417D01*
X99328833Y-109247833D01*
X97233333Y-109247833D01*
X97233333Y-109228255D01*
X99794500Y-109228255D01*
X99990291Y-109222169D01*
X100186083Y-109216083D01*
X100192325Y-109061495D01*
X100191646Y-108961890D01*
X100180660Y-108915048D01*
X100217833Y-108915048D01*
X100217833Y-109228255D01*
X100413625Y-109222169D01*
X100609416Y-109216083D01*
X100615645Y-109049417D01*
X100617981Y-108966569D01*
X100616236Y-108918339D01*
X100608798Y-108897084D01*
X100594056Y-108895162D01*
X100583895Y-108898870D01*
X100463147Y-108938908D01*
X100359999Y-108947328D01*
X100302500Y-108937647D01*
X100217833Y-108915048D01*
X100180660Y-108915048D01*
X100175868Y-108894618D01*
X100138651Y-108853549D01*
X100073654Y-108832551D01*
X99974536Y-108825493D01*
X99947958Y-108825204D01*
X99794500Y-108824500D01*
X100662333Y-108824500D01*
X100662333Y-109226667D01*
X101043333Y-109226667D01*
X101043333Y-108824500D01*
X101085666Y-108824500D01*
X101085666Y-109226667D01*
X101466666Y-109226667D01*
X101466666Y-108824500D01*
X101085666Y-108824500D01*
X101043333Y-108824500D01*
X100662333Y-108824500D01*
X99794500Y-108824500D01*
X99794500Y-109228255D01*
X97233333Y-109228255D01*
X97233333Y-108824500D01*
X97254500Y-108824500D01*
X97254500Y-109011472D01*
X97256001Y-109096650D01*
X97260014Y-109164995D01*
X97265799Y-109205991D01*
X97268611Y-109212555D01*
X97294821Y-109218871D01*
X97352843Y-109223726D01*
X97432161Y-109226383D01*
X97469694Y-109226667D01*
X97656666Y-109226667D01*
X97656666Y-108824500D01*
X97677833Y-108824500D01*
X97677833Y-109011472D01*
X97679334Y-109096650D01*
X97683347Y-109164995D01*
X97689133Y-109205991D01*
X97691944Y-109212555D01*
X97718154Y-109218871D01*
X97776176Y-109223726D01*
X97855494Y-109226383D01*
X97893027Y-109226667D01*
X98080000Y-109226667D01*
X98080000Y-108824500D01*
X98101166Y-108824500D01*
X98101166Y-109226667D01*
X98503333Y-109226667D01*
X98503333Y-108824500D01*
X98524500Y-108824500D01*
X98524500Y-109226667D01*
X98926666Y-109226667D01*
X98926666Y-108824500D01*
X98947833Y-108824500D01*
X98947833Y-109226667D01*
X99328833Y-109226667D01*
X99328833Y-108824500D01*
X99371166Y-108824500D01*
X99371166Y-109226667D01*
X99773333Y-109226667D01*
X99773333Y-108824500D01*
X99371166Y-108824500D01*
X99328833Y-108824500D01*
X98947833Y-108824500D01*
X98926666Y-108824500D01*
X98524500Y-108824500D01*
X98503333Y-108824500D01*
X98101166Y-108824500D01*
X98080000Y-108824500D01*
X97677833Y-108824500D01*
X97656666Y-108824500D01*
X97254500Y-108824500D01*
X97233333Y-108824500D01*
X97233333Y-108401167D01*
X97254500Y-108401167D01*
X97254500Y-108803333D01*
X97656666Y-108803333D01*
X97656666Y-108401167D01*
X97677833Y-108401167D01*
X97677833Y-108803333D01*
X98080000Y-108803333D01*
X98080000Y-108401167D01*
X98101166Y-108401167D01*
X98101166Y-108803333D01*
X98503333Y-108803333D01*
X98503333Y-108401167D01*
X98524500Y-108401167D01*
X98524500Y-108803333D01*
X98926666Y-108803333D01*
X98926666Y-108401167D01*
X98947833Y-108401167D01*
X98947833Y-108803333D01*
X99328833Y-108803333D01*
X99328833Y-108401167D01*
X99371166Y-108401167D01*
X99371166Y-108803333D01*
X99773333Y-108803333D01*
X99773333Y-108602250D01*
X99794500Y-108602250D01*
X99794500Y-108803333D01*
X100069993Y-108803333D01*
X100724656Y-108803333D01*
X101043333Y-108803333D01*
X101043333Y-108602250D01*
X101040998Y-108496773D01*
X101033409Y-108431734D01*
X101019689Y-108405463D01*
X100998959Y-108416291D01*
X100970345Y-108462549D01*
X100970133Y-108462957D01*
X100941971Y-108509269D01*
X100896400Y-108575822D01*
X100842331Y-108649700D01*
X100831418Y-108664041D01*
X100724656Y-108803333D01*
X100069993Y-108803333D01*
X99987149Y-108681625D01*
X99937928Y-108605696D01*
X99893193Y-108530566D01*
X99866648Y-108480542D01*
X99839473Y-108431191D01*
X99828897Y-108418189D01*
X99985000Y-108418189D01*
X99996237Y-108448467D01*
X100025275Y-108500004D01*
X100065099Y-108562486D01*
X100108696Y-108625602D01*
X100149051Y-108679039D01*
X100179151Y-108712485D01*
X100189363Y-108718667D01*
X100192854Y-108699225D01*
X100195437Y-108647800D01*
X100196634Y-108574737D01*
X100196666Y-108559917D01*
X100196666Y-108401167D01*
X100217833Y-108401167D01*
X100217833Y-108580031D01*
X100219299Y-108671046D01*
X100224806Y-108728775D01*
X100236011Y-108762198D01*
X100254575Y-108780296D01*
X100254875Y-108780471D01*
X100321225Y-108800153D01*
X100406521Y-108800899D01*
X100492531Y-108784022D01*
X100548709Y-108759273D01*
X100585156Y-108735030D01*
X100606419Y-108710725D01*
X100616589Y-108674821D01*
X100619757Y-108615779D01*
X100620000Y-108558190D01*
X100620000Y-108401167D01*
X100662333Y-108401167D01*
X100662333Y-108528167D01*
X100663471Y-108595160D01*
X100666431Y-108641180D01*
X100669849Y-108655167D01*
X100684709Y-108639172D01*
X100716992Y-108596956D01*
X100760119Y-108537167D01*
X100766451Y-108528167D01*
X100855537Y-108401167D01*
X101085666Y-108401167D01*
X101085666Y-108803333D01*
X101466666Y-108803333D01*
X101466666Y-108401167D01*
X101085666Y-108401167D01*
X100855537Y-108401167D01*
X100662333Y-108401167D01*
X100620000Y-108401167D01*
X100217833Y-108401167D01*
X100196666Y-108401167D01*
X100090833Y-108401167D01*
X100030452Y-108404229D01*
X99992134Y-108412061D01*
X99985000Y-108418189D01*
X99828897Y-108418189D01*
X99816872Y-108403406D01*
X99811746Y-108401167D01*
X99804335Y-108420797D01*
X99798520Y-108473562D01*
X99795087Y-108550270D01*
X99794500Y-108602250D01*
X99773333Y-108602250D01*
X99773333Y-108401167D01*
X99371166Y-108401167D01*
X99328833Y-108401167D01*
X98947833Y-108401167D01*
X98926666Y-108401167D01*
X98524500Y-108401167D01*
X98503333Y-108401167D01*
X98101166Y-108401167D01*
X98080000Y-108401167D01*
X97677833Y-108401167D01*
X97656666Y-108401167D01*
X97254500Y-108401167D01*
X97233333Y-108401167D01*
X97233333Y-107977833D01*
X97254500Y-107977833D01*
X97254500Y-108380000D01*
X97656666Y-108380000D01*
X97656666Y-107977833D01*
X97677833Y-107977833D01*
X97677833Y-108380000D01*
X98080000Y-108380000D01*
X98080000Y-107977833D01*
X98101166Y-107977833D01*
X98101166Y-108380000D01*
X98503333Y-108380000D01*
X98503333Y-107977833D01*
X98524500Y-107977833D01*
X98524500Y-108380000D01*
X98926666Y-108380000D01*
X98926666Y-107977833D01*
X98947833Y-107977833D01*
X98947833Y-108380000D01*
X99328833Y-108380000D01*
X99371166Y-108380000D01*
X99572250Y-108380000D01*
X99666626Y-108379108D01*
X99726279Y-108375530D01*
X99752383Y-108369417D01*
X99794500Y-108369417D01*
X99805083Y-108380000D01*
X99815666Y-108369417D01*
X99805083Y-108358833D01*
X99794500Y-108369417D01*
X99752383Y-108369417D01*
X99758798Y-108367915D01*
X99771772Y-108354909D01*
X99773333Y-108344162D01*
X99765494Y-108308830D01*
X99744647Y-108246407D01*
X99714798Y-108168570D01*
X99704541Y-108143612D01*
X99646823Y-108005411D01*
X99794500Y-108005411D01*
X99803273Y-108035796D01*
X99826749Y-108093792D01*
X99860655Y-108169166D01*
X99878405Y-108206494D01*
X99962310Y-108380000D01*
X100196666Y-108380000D01*
X100196666Y-107977833D01*
X100217833Y-107977833D01*
X100217833Y-108380000D01*
X100620000Y-108380000D01*
X100620000Y-107977833D01*
X100662333Y-107977833D01*
X100662333Y-108380000D01*
X100869714Y-108380000D01*
X100880646Y-108358833D01*
X101022166Y-108358833D01*
X101029388Y-108379450D01*
X101031500Y-108380000D01*
X101049572Y-108365168D01*
X101053916Y-108358833D01*
X101052238Y-108339328D01*
X101044582Y-108337667D01*
X101023028Y-108353032D01*
X101022166Y-108358833D01*
X100880646Y-108358833D01*
X100901283Y-108318876D01*
X101085666Y-108318876D01*
X101085666Y-108380000D01*
X101466666Y-108380000D01*
X101466666Y-107977833D01*
X101216656Y-107977833D01*
X101151161Y-108117793D01*
X101118297Y-108196329D01*
X101094790Y-108268356D01*
X101085668Y-108318437D01*
X101085666Y-108318876D01*
X100901283Y-108318876D01*
X100967107Y-108191429D01*
X101008160Y-108110769D01*
X101040666Y-108044670D01*
X101060446Y-108001759D01*
X101064500Y-107990346D01*
X101044867Y-107984969D01*
X100992098Y-107980750D01*
X100915385Y-107978260D01*
X100863416Y-107977833D01*
X100662333Y-107977833D01*
X100620000Y-107977833D01*
X100217833Y-107977833D01*
X100196666Y-107977833D01*
X99995583Y-107977833D01*
X99896162Y-107979393D01*
X99833341Y-107984588D01*
X99801482Y-107994192D01*
X99794500Y-108005411D01*
X99646823Y-108005411D01*
X99635750Y-107978899D01*
X99371166Y-107977833D01*
X99371166Y-108380000D01*
X99328833Y-108380000D01*
X99328833Y-107977833D01*
X98947833Y-107977833D01*
X98926666Y-107977833D01*
X98524500Y-107977833D01*
X98503333Y-107977833D01*
X98101166Y-107977833D01*
X98080000Y-107977833D01*
X97677833Y-107977833D01*
X97656666Y-107977833D01*
X97254500Y-107977833D01*
X97233333Y-107977833D01*
X97233333Y-107554500D01*
X97254500Y-107554500D01*
X97254500Y-107956667D01*
X97656666Y-107956667D01*
X97656666Y-107554500D01*
X97677833Y-107554500D01*
X97677833Y-107956667D01*
X98080000Y-107956667D01*
X98080000Y-107554500D01*
X98101166Y-107554500D01*
X98101166Y-107956667D01*
X98503333Y-107956667D01*
X98503333Y-107554500D01*
X98524500Y-107554500D01*
X98524500Y-107956667D01*
X98926666Y-107956667D01*
X98926666Y-107554500D01*
X98947833Y-107554500D01*
X98947833Y-107956667D01*
X99328833Y-107956667D01*
X99328833Y-107754111D01*
X99371166Y-107754111D01*
X99371166Y-107956667D01*
X99622110Y-107956667D01*
X99542867Y-107760875D01*
X99502737Y-107666364D01*
X99471544Y-107605554D01*
X99445212Y-107571861D01*
X99444424Y-107571455D01*
X99607527Y-107571455D01*
X99618276Y-107597552D01*
X99640979Y-107652826D01*
X99671533Y-107727284D01*
X99685754Y-107761955D01*
X99718230Y-107839051D01*
X99744932Y-107898556D01*
X99761809Y-107931612D01*
X99765129Y-107935500D01*
X99768742Y-107915908D01*
X99771543Y-107863431D01*
X99773126Y-107787513D01*
X99773333Y-107745000D01*
X99773333Y-107554500D01*
X99794500Y-107554500D01*
X99794500Y-107956667D01*
X100196666Y-107956667D01*
X100196666Y-107554500D01*
X100217833Y-107554500D01*
X100217833Y-107956667D01*
X100620000Y-107956667D01*
X100620000Y-107554500D01*
X100662333Y-107554500D01*
X100662333Y-107956667D01*
X101043333Y-107956667D01*
X101043333Y-107554500D01*
X101085666Y-107554500D01*
X101087234Y-107739708D01*
X101088803Y-107924917D01*
X101092331Y-107917254D01*
X101242263Y-107917254D01*
X101249617Y-107943911D01*
X101283112Y-107954645D01*
X101344946Y-107956665D01*
X101348823Y-107956667D01*
X101466666Y-107956667D01*
X101466666Y-107755583D01*
X101465973Y-107661982D01*
X101462838Y-107602891D01*
X101455680Y-107570496D01*
X101442918Y-107556981D01*
X101425974Y-107554500D01*
X101390512Y-107571552D01*
X101362329Y-107625761D01*
X101359610Y-107633875D01*
X101331360Y-107710026D01*
X101298406Y-107784855D01*
X101297184Y-107787333D01*
X101258852Y-107867464D01*
X101242263Y-107917254D01*
X101092331Y-107917254D01*
X101151068Y-107789687D01*
X101184539Y-107713806D01*
X101211571Y-107646750D01*
X101225878Y-107604479D01*
X101229937Y-107571384D01*
X101212503Y-107557407D01*
X101163299Y-107554500D01*
X101085666Y-107554500D01*
X101043333Y-107554500D01*
X100662333Y-107554500D01*
X100620000Y-107554500D01*
X100217833Y-107554500D01*
X100196666Y-107554500D01*
X99794500Y-107554500D01*
X99773333Y-107554500D01*
X99686902Y-107554500D01*
X99635131Y-107558129D01*
X99608501Y-107567232D01*
X99607527Y-107571455D01*
X99444424Y-107571455D01*
X99419663Y-107558702D01*
X99417395Y-107558319D01*
X99396038Y-107557215D01*
X99382535Y-107566550D01*
X99375088Y-107593935D01*
X99371900Y-107646982D01*
X99371174Y-107733303D01*
X99371166Y-107754111D01*
X99328833Y-107754111D01*
X99328833Y-107554500D01*
X98947833Y-107554500D01*
X98926666Y-107554500D01*
X98524500Y-107554500D01*
X98503333Y-107554500D01*
X98101166Y-107554500D01*
X98080000Y-107554500D01*
X97677833Y-107554500D01*
X97656666Y-107554500D01*
X97254500Y-107554500D01*
X97233333Y-107554500D01*
X97233333Y-107345098D01*
X97254500Y-107345098D01*
X97254500Y-107533333D01*
X97656666Y-107533333D01*
X97656666Y-107131167D01*
X97677833Y-107131167D01*
X97677833Y-107533333D01*
X98080000Y-107533333D01*
X98080000Y-107131167D01*
X98101166Y-107131167D01*
X98101166Y-107533333D01*
X98503333Y-107533333D01*
X98503333Y-107131167D01*
X98524500Y-107131167D01*
X98524500Y-107533333D01*
X98926666Y-107533333D01*
X98926666Y-107131167D01*
X98947833Y-107131167D01*
X98947833Y-107533333D01*
X99328833Y-107533333D01*
X99328644Y-107432792D01*
X99372776Y-107432792D01*
X99375319Y-107497111D01*
X99387236Y-107527696D01*
X99402916Y-107533333D01*
X99430093Y-107519259D01*
X99433056Y-107506875D01*
X99424784Y-107470635D01*
X99406549Y-107415946D01*
X99402916Y-107406333D01*
X99374387Y-107332250D01*
X99372776Y-107432792D01*
X99328644Y-107432792D01*
X99328544Y-107379875D01*
X99327716Y-107274165D01*
X99321823Y-107203658D01*
X99305043Y-107161229D01*
X99271554Y-107139753D01*
X99215533Y-107132107D01*
X99131337Y-107131167D01*
X99435284Y-107131167D01*
X99479689Y-107242292D01*
X99512385Y-107325086D01*
X99544966Y-107409088D01*
X99558029Y-107443375D01*
X99581589Y-107498773D01*
X99606787Y-107524956D01*
X99648744Y-107532841D01*
X99682648Y-107533333D01*
X99773333Y-107533333D01*
X99773333Y-107131167D01*
X99794500Y-107131167D01*
X99794500Y-107533333D01*
X100196666Y-107533333D01*
X100196666Y-107131167D01*
X100217833Y-107131167D01*
X100217833Y-107533333D01*
X100620000Y-107533333D01*
X100620000Y-107131167D01*
X100662333Y-107131167D01*
X100662333Y-107533333D01*
X101043333Y-107533333D01*
X101043333Y-107131167D01*
X101085666Y-107131167D01*
X101085666Y-107535767D01*
X101174204Y-107529259D01*
X101231714Y-107525031D01*
X101405867Y-107525031D01*
X101417250Y-107532787D01*
X101434916Y-107533333D01*
X101457401Y-107518850D01*
X101465693Y-107471260D01*
X101465838Y-107453958D01*
X101465009Y-107374583D01*
X101434088Y-107445805D01*
X101411513Y-107499558D01*
X101405867Y-107525031D01*
X101231714Y-107525031D01*
X101262742Y-107522750D01*
X101332922Y-107342833D01*
X101363882Y-107261832D01*
X101387872Y-107195967D01*
X101401391Y-107154996D01*
X101403134Y-107147042D01*
X101383713Y-107139453D01*
X101332310Y-107133840D01*
X101259266Y-107131236D01*
X101244416Y-107131167D01*
X101085666Y-107131167D01*
X101043333Y-107131167D01*
X100662333Y-107131167D01*
X100620000Y-107131167D01*
X100217833Y-107131167D01*
X100196666Y-107131167D01*
X99794500Y-107131167D01*
X99773333Y-107131167D01*
X99435284Y-107131167D01*
X99131337Y-107131167D01*
X99131157Y-107131165D01*
X99125281Y-107131167D01*
X98947833Y-107131167D01*
X98926666Y-107131167D01*
X98524500Y-107131167D01*
X98503333Y-107131167D01*
X98101166Y-107131167D01*
X98080000Y-107131167D01*
X97677833Y-107131167D01*
X97656666Y-107131167D01*
X97489064Y-107131167D01*
X97386922Y-107131702D01*
X97319769Y-107137764D01*
X97280278Y-107156036D01*
X97261121Y-107193202D01*
X97254970Y-107255943D01*
X97254500Y-107345098D01*
X97233333Y-107345098D01*
X97233333Y-107131167D01*
X97073334Y-107131167D01*
X96987827Y-107128615D01*
X96937800Y-107121285D01*
X96926416Y-107110000D01*
X96953113Y-107098574D01*
X97008664Y-107090889D01*
X97062780Y-107088833D01*
X97318617Y-107088833D01*
X97656666Y-107088833D01*
X97656666Y-106707833D01*
X97677833Y-106707833D01*
X97677833Y-107088833D01*
X98080000Y-107088833D01*
X98080000Y-106707833D01*
X98101166Y-106707833D01*
X98101166Y-107088833D01*
X98503333Y-107088833D01*
X98503333Y-106707833D01*
X98524500Y-106707833D01*
X98524500Y-107088833D01*
X98926666Y-107088833D01*
X98926666Y-106707833D01*
X98947833Y-106707833D01*
X98947833Y-107088833D01*
X99282578Y-107088833D01*
X99141185Y-106733733D01*
X99293251Y-106733733D01*
X99300654Y-106783115D01*
X99301086Y-106784711D01*
X99317733Y-106845417D01*
X99324875Y-106785273D01*
X99326235Y-106737763D01*
X99319842Y-106712954D01*
X99302242Y-106707833D01*
X99371166Y-106707833D01*
X99371166Y-106831675D01*
X99375230Y-106913080D01*
X99385649Y-106987885D01*
X99394403Y-107022175D01*
X99417641Y-107088833D01*
X99773333Y-107088833D01*
X99773333Y-106707833D01*
X99794500Y-106707833D01*
X99794500Y-107088833D01*
X100196666Y-107088833D01*
X100196666Y-106707833D01*
X100217833Y-106707833D01*
X100217833Y-107088833D01*
X100620000Y-107088833D01*
X100620000Y-106707833D01*
X100662333Y-106707833D01*
X100662333Y-107088833D01*
X101043333Y-107088833D01*
X101043333Y-106707833D01*
X101085666Y-106707833D01*
X101085666Y-107088833D01*
X101466666Y-107088833D01*
X101466666Y-106707833D01*
X101085666Y-106707833D01*
X101043333Y-106707833D01*
X100662333Y-106707833D01*
X100620000Y-106707833D01*
X100217833Y-106707833D01*
X100196666Y-106707833D01*
X99794500Y-106707833D01*
X99773333Y-106707833D01*
X99371166Y-106707833D01*
X99302242Y-106707833D01*
X99300440Y-106707309D01*
X99293251Y-106733733D01*
X99141185Y-106733733D01*
X99130872Y-106707833D01*
X98947833Y-106707833D01*
X98926666Y-106707833D01*
X98524500Y-106707833D01*
X98503333Y-106707833D01*
X98101166Y-106707833D01*
X98080000Y-106707833D01*
X97677833Y-106707833D01*
X97656666Y-106707833D01*
X97563714Y-106707833D01*
X97527023Y-106707297D01*
X97500310Y-106709610D01*
X97479274Y-106720650D01*
X97459611Y-106746298D01*
X97437020Y-106792433D01*
X97407196Y-106864934D01*
X97365838Y-106969681D01*
X97358471Y-106988292D01*
X97318617Y-107088833D01*
X97062780Y-107088833D01*
X97133804Y-107086873D01*
X97174102Y-107078393D01*
X97195201Y-107059493D01*
X97203557Y-107041208D01*
X97207342Y-107010858D01*
X97211330Y-106942577D01*
X97215398Y-106840766D01*
X97217044Y-106787208D01*
X97255250Y-106787208D01*
X97256000Y-106866583D01*
X97286250Y-106813667D01*
X97308820Y-106765960D01*
X97317249Y-106734292D01*
X97300937Y-106710892D01*
X97286250Y-106707833D01*
X97263741Y-106722359D01*
X97255407Y-106770051D01*
X97255250Y-106787208D01*
X97217044Y-106787208D01*
X97219424Y-106709827D01*
X97223285Y-106554161D01*
X97226861Y-106378169D01*
X97228406Y-106284500D01*
X97254500Y-106284500D01*
X97254500Y-106487055D01*
X97255014Y-106580597D01*
X97257700Y-106639398D01*
X97264266Y-106671048D01*
X97276425Y-106683136D01*
X97295888Y-106683253D01*
X97298638Y-106682847D01*
X97308807Y-106677108D01*
X97487333Y-106677108D01*
X97506132Y-106683097D01*
X97553090Y-106686425D01*
X97572000Y-106686667D01*
X97656666Y-106686667D01*
X97656666Y-106492639D01*
X97655870Y-106409165D01*
X97653734Y-106345710D01*
X97650636Y-106311072D01*
X97648712Y-106307430D01*
X97637006Y-106329806D01*
X97613733Y-106380112D01*
X97583573Y-106447626D01*
X97551206Y-106521625D01*
X97521315Y-106591386D01*
X97498579Y-106646187D01*
X97487680Y-106675304D01*
X97487333Y-106677108D01*
X97308807Y-106677108D01*
X97329609Y-106665369D01*
X97362889Y-106618705D01*
X97402411Y-106537204D01*
X97406430Y-106527917D01*
X97450678Y-106425833D01*
X97479183Y-106356884D01*
X97491275Y-106314648D01*
X97486281Y-106292699D01*
X97463530Y-106284613D01*
X97456338Y-106284500D01*
X97677833Y-106284500D01*
X97677833Y-106686667D01*
X98080000Y-106686667D01*
X98080000Y-106284500D01*
X98101166Y-106284500D01*
X98101166Y-106686667D01*
X98503333Y-106686667D01*
X98503333Y-106284500D01*
X98524500Y-106284500D01*
X98524500Y-106686667D01*
X98926666Y-106686667D01*
X98926666Y-106482055D01*
X98947833Y-106482055D01*
X98947833Y-106686667D01*
X99032500Y-106686667D01*
X99085548Y-106685230D01*
X99115025Y-106681641D01*
X99117166Y-106680196D01*
X99109653Y-106657580D01*
X99089977Y-106606477D01*
X99062430Y-106537402D01*
X99031307Y-106460872D01*
X99000899Y-106387404D01*
X98975502Y-106327512D01*
X98964040Y-106302017D01*
X99117166Y-106302017D01*
X99124646Y-106329157D01*
X99144279Y-106383661D01*
X99171852Y-106453852D01*
X99172512Y-106455476D01*
X99203493Y-106531981D01*
X99230238Y-106598748D01*
X99246072Y-106639042D01*
X99272102Y-106675934D01*
X99296559Y-106686667D01*
X99311902Y-106679821D01*
X99321610Y-106654493D01*
X99326838Y-106603492D01*
X99328739Y-106519629D01*
X99328833Y-106485583D01*
X99328833Y-106284500D01*
X99371166Y-106284500D01*
X99371166Y-106686667D01*
X99773333Y-106686667D01*
X99773333Y-106284500D01*
X99794500Y-106284500D01*
X99794500Y-106686667D01*
X100196666Y-106686667D01*
X100196666Y-106284500D01*
X100217833Y-106284500D01*
X100217833Y-106686667D01*
X100620000Y-106686667D01*
X100620000Y-106284500D01*
X100662333Y-106284500D01*
X100662333Y-106686667D01*
X101043333Y-106686667D01*
X101043333Y-106284500D01*
X101085666Y-106284500D01*
X101085666Y-106686667D01*
X101466666Y-106686667D01*
X101466666Y-106284500D01*
X101085666Y-106284500D01*
X101043333Y-106284500D01*
X100662333Y-106284500D01*
X100620000Y-106284500D01*
X100217833Y-106284500D01*
X100196666Y-106284500D01*
X99794500Y-106284500D01*
X99773333Y-106284500D01*
X99371166Y-106284500D01*
X99328833Y-106284500D01*
X99223000Y-106284500D01*
X99162620Y-106287652D01*
X99124301Y-106295710D01*
X99117166Y-106302017D01*
X98964040Y-106302017D01*
X98959407Y-106291714D01*
X98956340Y-106286264D01*
X98952729Y-106301988D01*
X98949879Y-106351446D01*
X98948163Y-106426041D01*
X98947833Y-106482055D01*
X98926666Y-106482055D01*
X98926666Y-106284500D01*
X98524500Y-106284500D01*
X98503333Y-106284500D01*
X98101166Y-106284500D01*
X98080000Y-106284500D01*
X97677833Y-106284500D01*
X97456338Y-106284500D01*
X97422350Y-106283966D01*
X97380976Y-106284500D01*
X97254500Y-106284500D01*
X97228406Y-106284500D01*
X97230028Y-106186253D01*
X97232484Y-105998750D01*
X97234064Y-105861167D01*
X97254500Y-105861167D01*
X97254500Y-106263333D01*
X97520580Y-106263333D01*
X97526750Y-106250820D01*
X97677833Y-106250820D01*
X97697465Y-106256197D01*
X97750234Y-106260417D01*
X97826947Y-106262907D01*
X97878916Y-106263333D01*
X98080000Y-106263333D01*
X98080000Y-105861167D01*
X98101166Y-105861167D01*
X98101166Y-106263333D01*
X98503333Y-106263333D01*
X98503333Y-105861167D01*
X98524500Y-105861167D01*
X98524500Y-106263333D01*
X98725583Y-106263333D01*
X98821202Y-106262231D01*
X98881707Y-106258156D01*
X98914278Y-106249960D01*
X98926095Y-106236490D01*
X98926666Y-106231113D01*
X98917574Y-106198567D01*
X98893287Y-106139160D01*
X98858290Y-106063516D01*
X98841763Y-106030030D01*
X98790118Y-105927312D01*
X98951222Y-105927312D01*
X98972111Y-105990777D01*
X99013944Y-106085617D01*
X99021382Y-106101941D01*
X99094931Y-106263333D01*
X99328833Y-106263333D01*
X99328833Y-105861167D01*
X99371166Y-105861167D01*
X99371166Y-106263333D01*
X99773333Y-106263333D01*
X99773333Y-105861167D01*
X99794500Y-105861167D01*
X99794500Y-106263333D01*
X100196666Y-106263333D01*
X100196666Y-105861167D01*
X100217833Y-105861167D01*
X100217833Y-106263333D01*
X100620000Y-106263333D01*
X100620000Y-105861167D01*
X100662333Y-105861167D01*
X100662333Y-106263333D01*
X101043333Y-106263333D01*
X101043333Y-105861167D01*
X101085666Y-105861167D01*
X101085666Y-106263333D01*
X101466666Y-106263333D01*
X101466666Y-105861167D01*
X101085666Y-105861167D01*
X101043333Y-105861167D01*
X100662333Y-105861167D01*
X100620000Y-105861167D01*
X100217833Y-105861167D01*
X100196666Y-105861167D01*
X99794500Y-105861167D01*
X99773333Y-105861167D01*
X99371166Y-105861167D01*
X99328833Y-105861167D01*
X99138333Y-105861167D01*
X99044833Y-105862150D01*
X98984522Y-105869300D01*
X98954339Y-105888920D01*
X98951222Y-105927312D01*
X98790118Y-105927312D01*
X98756860Y-105861167D01*
X98524500Y-105861167D01*
X98503333Y-105861167D01*
X98101166Y-105861167D01*
X98080000Y-105861167D01*
X97872619Y-105861167D01*
X97775226Y-106049737D01*
X97734172Y-106130397D01*
X97701666Y-106196497D01*
X97681886Y-106239407D01*
X97677833Y-106250820D01*
X97526750Y-106250820D01*
X97588623Y-106125349D01*
X97622865Y-106047281D01*
X97647304Y-105975093D01*
X97656666Y-105924376D01*
X97656666Y-105892917D01*
X97677833Y-105892917D01*
X97682361Y-105921157D01*
X97686152Y-105924667D01*
X97699800Y-105908115D01*
X97706654Y-105892917D01*
X97707094Y-105865661D01*
X97698335Y-105861167D01*
X97680143Y-105878321D01*
X97677833Y-105892917D01*
X97656666Y-105892917D01*
X97656666Y-105861167D01*
X97254500Y-105861167D01*
X97234064Y-105861167D01*
X97238928Y-105437833D01*
X97254500Y-105437833D01*
X97254500Y-105840000D01*
X97656666Y-105840000D01*
X97887466Y-105840000D01*
X98080000Y-105840000D01*
X98080000Y-105720991D01*
X98079681Y-105703953D01*
X98101166Y-105703953D01*
X98101166Y-105840000D01*
X98503333Y-105840000D01*
X98503333Y-105677017D01*
X98524500Y-105677017D01*
X98524500Y-105840000D01*
X98630333Y-105840000D01*
X98690712Y-105836823D01*
X98729031Y-105828700D01*
X98736166Y-105822342D01*
X98724958Y-105798598D01*
X98696064Y-105751140D01*
X98656577Y-105690576D01*
X98613590Y-105627515D01*
X98574196Y-105572566D01*
X98545489Y-105536338D01*
X98543468Y-105534142D01*
X98533940Y-105542901D01*
X98527372Y-105588003D01*
X98524551Y-105663514D01*
X98524500Y-105677017D01*
X98503333Y-105677017D01*
X98503333Y-105499173D01*
X98432118Y-105469417D01*
X98339907Y-105452872D01*
X98242059Y-105474174D01*
X98156532Y-105524355D01*
X98125920Y-105553106D01*
X98109213Y-105586941D01*
X98102333Y-105639085D01*
X98101166Y-105703953D01*
X98079681Y-105703953D01*
X98078758Y-105654753D01*
X98073238Y-105623490D01*
X98060742Y-105619873D01*
X98046463Y-105629816D01*
X98015211Y-105663086D01*
X97973172Y-105716645D01*
X97950196Y-105748824D01*
X97887466Y-105840000D01*
X97656666Y-105840000D01*
X97656666Y-105437833D01*
X97677833Y-105437833D01*
X97677833Y-105638917D01*
X97680035Y-105745119D01*
X97688378Y-105810352D01*
X97705466Y-105835830D01*
X97733904Y-105822770D01*
X97776298Y-105772386D01*
X97821924Y-105706156D01*
X97873136Y-105632864D01*
X97923482Y-105567451D01*
X97962374Y-105523647D01*
X97963530Y-105522550D01*
X97999354Y-105484263D01*
X98016294Y-105457043D01*
X98016500Y-105455310D01*
X97999504Y-105448233D01*
X98651500Y-105448233D01*
X98663336Y-105469261D01*
X98694056Y-105513266D01*
X98728409Y-105559358D01*
X98780370Y-105633337D01*
X98828455Y-105711458D01*
X98849044Y-105750042D01*
X98878043Y-105802981D01*
X98902052Y-105835314D01*
X98909717Y-105840000D01*
X98917000Y-105820369D01*
X98922715Y-105767604D01*
X98926088Y-105690896D01*
X98926666Y-105638917D01*
X98926666Y-105437833D01*
X98947833Y-105437833D01*
X98947833Y-105840000D01*
X99328833Y-105840000D01*
X99328833Y-105437833D01*
X99371166Y-105437833D01*
X99371166Y-105840000D01*
X99773333Y-105840000D01*
X99773333Y-105437833D01*
X99794500Y-105437833D01*
X99794500Y-105840000D01*
X100196666Y-105840000D01*
X100196666Y-105437833D01*
X100217833Y-105437833D01*
X100217833Y-105840000D01*
X100620000Y-105840000D01*
X100620000Y-105437833D01*
X100662333Y-105437833D01*
X100662333Y-105840000D01*
X101043333Y-105840000D01*
X101043333Y-105437833D01*
X101085666Y-105437833D01*
X101085666Y-105840000D01*
X101466666Y-105840000D01*
X101466666Y-105437833D01*
X101085666Y-105437833D01*
X101043333Y-105437833D01*
X100662333Y-105437833D01*
X100620000Y-105437833D01*
X100217833Y-105437833D01*
X100196666Y-105437833D01*
X99794500Y-105437833D01*
X99773333Y-105437833D01*
X99371166Y-105437833D01*
X99328833Y-105437833D01*
X98947833Y-105437833D01*
X98926666Y-105437833D01*
X98789083Y-105437833D01*
X98719009Y-105439293D01*
X98669453Y-105443112D01*
X98651500Y-105448233D01*
X97999504Y-105448233D01*
X97997008Y-105447194D01*
X97945209Y-105441082D01*
X97871117Y-105438009D01*
X97847166Y-105437833D01*
X97677833Y-105437833D01*
X97656666Y-105437833D01*
X97254500Y-105437833D01*
X97238928Y-105437833D01*
X97239172Y-105416667D01*
X97252911Y-105416667D01*
X97656666Y-105416667D01*
X97676244Y-105416667D01*
X98080000Y-105416667D01*
X98080000Y-105014500D01*
X98101166Y-105014500D01*
X98101166Y-105396587D01*
X98162444Y-105364899D01*
X98226494Y-105339744D01*
X98299670Y-105321280D01*
X98305319Y-105320338D01*
X98375488Y-105317524D01*
X98439065Y-105327678D01*
X98445125Y-105329792D01*
X98503333Y-105352119D01*
X98503333Y-105014500D01*
X98524500Y-105014500D01*
X98524500Y-105186791D01*
X98527002Y-105285665D01*
X98539330Y-105350996D01*
X98568716Y-105389745D01*
X98622389Y-105408873D01*
X98707581Y-105415340D01*
X98762625Y-105415993D01*
X98926666Y-105416667D01*
X98926666Y-105014500D01*
X98947833Y-105014500D01*
X98947833Y-105416667D01*
X99328833Y-105416667D01*
X99328833Y-105014500D01*
X99371166Y-105014500D01*
X99371166Y-105416667D01*
X99773333Y-105416667D01*
X99794500Y-105416667D01*
X100198255Y-105416667D01*
X100217833Y-105416667D01*
X100621588Y-105416667D01*
X100609416Y-105025083D01*
X100413625Y-105018997D01*
X100268953Y-105014500D01*
X100662333Y-105014500D01*
X100662333Y-105416667D01*
X101043333Y-105416667D01*
X101043333Y-105014500D01*
X101085666Y-105014500D01*
X101085666Y-105416667D01*
X101466666Y-105416667D01*
X101466666Y-105014500D01*
X101085666Y-105014500D01*
X101043333Y-105014500D01*
X100662333Y-105014500D01*
X100268953Y-105014500D01*
X100217833Y-105012911D01*
X100217833Y-105416667D01*
X100198255Y-105416667D01*
X100186083Y-105025083D01*
X99990291Y-105018997D01*
X99794500Y-105012911D01*
X99794500Y-105416667D01*
X99773333Y-105416667D01*
X99773333Y-105014500D01*
X99371166Y-105014500D01*
X99328833Y-105014500D01*
X98947833Y-105014500D01*
X98926666Y-105014500D01*
X98524500Y-105014500D01*
X98503333Y-105014500D01*
X98101166Y-105014500D01*
X98080000Y-105014500D01*
X98080000Y-105012911D01*
X97688416Y-105025083D01*
X97676244Y-105416667D01*
X97656666Y-105416667D01*
X97656666Y-105012911D01*
X97460875Y-105018997D01*
X97265083Y-105025083D01*
X97252911Y-105416667D01*
X97239172Y-105416667D01*
X97243916Y-105003917D01*
X98286375Y-104998425D01*
X99328833Y-104992934D01*
X99328833Y-104844967D01*
X99331633Y-104769037D01*
X99339137Y-104716580D01*
X99349998Y-104697000D01*
X99350000Y-104697000D01*
X99360861Y-104716575D01*
X99360861Y-104716575D01*
G37*
X99360861Y-104716575D02*
X99368365Y-104769030D01*
X99371166Y-104844958D01*
X99371166Y-104992942D01*
X100434791Y-104998429D01*
X101498416Y-105003917D01*
X101509398Y-107088833D01*
X101636199Y-107088833D01*
X101703765Y-107092051D01*
X101749564Y-107100455D01*
X101763000Y-107110000D01*
X101743894Y-107121746D01*
X101694746Y-107129432D01*
X101650111Y-107131167D01*
X101574337Y-107136132D01*
X101535239Y-107150501D01*
X101530876Y-107157625D01*
X101529350Y-107183499D01*
X101527418Y-107247494D01*
X101525159Y-107345400D01*
X101522649Y-107473008D01*
X101519966Y-107626108D01*
X101517188Y-107800489D01*
X101514393Y-107991943D01*
X101511657Y-108196260D01*
X101511474Y-108210667D01*
X101498416Y-109237250D01*
X100434791Y-109242737D01*
X99371166Y-109248225D01*
X99371166Y-109385612D01*
X99368172Y-109457431D01*
X99360241Y-109506592D01*
X99350000Y-109523000D01*
X99338939Y-109503560D01*
X99331366Y-109452065D01*
X99328833Y-109385417D01*
X99328833Y-109247833D01*
X97233333Y-109247833D01*
X97233333Y-109228255D01*
X99794500Y-109228255D01*
X99990291Y-109222169D01*
X100186083Y-109216083D01*
X100192325Y-109061495D01*
X100191646Y-108961890D01*
X100180660Y-108915048D01*
X100217833Y-108915048D01*
X100217833Y-109228255D01*
X100413625Y-109222169D01*
X100609416Y-109216083D01*
X100615645Y-109049417D01*
X100617981Y-108966569D01*
X100616236Y-108918339D01*
X100608798Y-108897084D01*
X100594056Y-108895162D01*
X100583895Y-108898870D01*
X100463147Y-108938908D01*
X100359999Y-108947328D01*
X100302500Y-108937647D01*
X100217833Y-108915048D01*
X100180660Y-108915048D01*
X100175868Y-108894618D01*
X100138651Y-108853549D01*
X100073654Y-108832551D01*
X99974536Y-108825493D01*
X99947958Y-108825204D01*
X99794500Y-108824500D01*
X100662333Y-108824500D01*
X100662333Y-109226667D01*
X101043333Y-109226667D01*
X101043333Y-108824500D01*
X101085666Y-108824500D01*
X101085666Y-109226667D01*
X101466666Y-109226667D01*
X101466666Y-108824500D01*
X101085666Y-108824500D01*
X101043333Y-108824500D01*
X100662333Y-108824500D01*
X99794500Y-108824500D01*
X99794500Y-109228255D01*
X97233333Y-109228255D01*
X97233333Y-108824500D01*
X97254500Y-108824500D01*
X97254500Y-109011472D01*
X97256001Y-109096650D01*
X97260014Y-109164995D01*
X97265799Y-109205991D01*
X97268611Y-109212555D01*
X97294821Y-109218871D01*
X97352843Y-109223726D01*
X97432161Y-109226383D01*
X97469694Y-109226667D01*
X97656666Y-109226667D01*
X97656666Y-108824500D01*
X97677833Y-108824500D01*
X97677833Y-109011472D01*
X97679334Y-109096650D01*
X97683347Y-109164995D01*
X97689133Y-109205991D01*
X97691944Y-109212555D01*
X97718154Y-109218871D01*
X97776176Y-109223726D01*
X97855494Y-109226383D01*
X97893027Y-109226667D01*
X98080000Y-109226667D01*
X98080000Y-108824500D01*
X98101166Y-108824500D01*
X98101166Y-109226667D01*
X98503333Y-109226667D01*
X98503333Y-108824500D01*
X98524500Y-108824500D01*
X98524500Y-109226667D01*
X98926666Y-109226667D01*
X98926666Y-108824500D01*
X98947833Y-108824500D01*
X98947833Y-109226667D01*
X99328833Y-109226667D01*
X99328833Y-108824500D01*
X99371166Y-108824500D01*
X99371166Y-109226667D01*
X99773333Y-109226667D01*
X99773333Y-108824500D01*
X99371166Y-108824500D01*
X99328833Y-108824500D01*
X98947833Y-108824500D01*
X98926666Y-108824500D01*
X98524500Y-108824500D01*
X98503333Y-108824500D01*
X98101166Y-108824500D01*
X98080000Y-108824500D01*
X97677833Y-108824500D01*
X97656666Y-108824500D01*
X97254500Y-108824500D01*
X97233333Y-108824500D01*
X97233333Y-108401167D01*
X97254500Y-108401167D01*
X97254500Y-108803333D01*
X97656666Y-108803333D01*
X97656666Y-108401167D01*
X97677833Y-108401167D01*
X97677833Y-108803333D01*
X98080000Y-108803333D01*
X98080000Y-108401167D01*
X98101166Y-108401167D01*
X98101166Y-108803333D01*
X98503333Y-108803333D01*
X98503333Y-108401167D01*
X98524500Y-108401167D01*
X98524500Y-108803333D01*
X98926666Y-108803333D01*
X98926666Y-108401167D01*
X98947833Y-108401167D01*
X98947833Y-108803333D01*
X99328833Y-108803333D01*
X99328833Y-108401167D01*
X99371166Y-108401167D01*
X99371166Y-108803333D01*
X99773333Y-108803333D01*
X99773333Y-108602250D01*
X99794500Y-108602250D01*
X99794500Y-108803333D01*
X100069993Y-108803333D01*
X100724656Y-108803333D01*
X101043333Y-108803333D01*
X101043333Y-108602250D01*
X101040998Y-108496773D01*
X101033409Y-108431734D01*
X101019689Y-108405463D01*
X100998959Y-108416291D01*
X100970345Y-108462549D01*
X100970133Y-108462957D01*
X100941971Y-108509269D01*
X100896400Y-108575822D01*
X100842331Y-108649700D01*
X100831418Y-108664041D01*
X100724656Y-108803333D01*
X100069993Y-108803333D01*
X99987149Y-108681625D01*
X99937928Y-108605696D01*
X99893193Y-108530566D01*
X99866648Y-108480542D01*
X99839473Y-108431191D01*
X99828897Y-108418189D01*
X99985000Y-108418189D01*
X99996237Y-108448467D01*
X100025275Y-108500004D01*
X100065099Y-108562486D01*
X100108696Y-108625602D01*
X100149051Y-108679039D01*
X100179151Y-108712485D01*
X100189363Y-108718667D01*
X100192854Y-108699225D01*
X100195437Y-108647800D01*
X100196634Y-108574737D01*
X100196666Y-108559917D01*
X100196666Y-108401167D01*
X100217833Y-108401167D01*
X100217833Y-108580031D01*
X100219299Y-108671046D01*
X100224806Y-108728775D01*
X100236011Y-108762198D01*
X100254575Y-108780296D01*
X100254875Y-108780471D01*
X100321225Y-108800153D01*
X100406521Y-108800899D01*
X100492531Y-108784022D01*
X100548709Y-108759273D01*
X100585156Y-108735030D01*
X100606419Y-108710725D01*
X100616589Y-108674821D01*
X100619757Y-108615779D01*
X100620000Y-108558190D01*
X100620000Y-108401167D01*
X100662333Y-108401167D01*
X100662333Y-108528167D01*
X100663471Y-108595160D01*
X100666431Y-108641180D01*
X100669849Y-108655167D01*
X100684709Y-108639172D01*
X100716992Y-108596956D01*
X100760119Y-108537167D01*
X100766451Y-108528167D01*
X100855537Y-108401167D01*
X101085666Y-108401167D01*
X101085666Y-108803333D01*
X101466666Y-108803333D01*
X101466666Y-108401167D01*
X101085666Y-108401167D01*
X100855537Y-108401167D01*
X100662333Y-108401167D01*
X100620000Y-108401167D01*
X100217833Y-108401167D01*
X100196666Y-108401167D01*
X100090833Y-108401167D01*
X100030452Y-108404229D01*
X99992134Y-108412061D01*
X99985000Y-108418189D01*
X99828897Y-108418189D01*
X99816872Y-108403406D01*
X99811746Y-108401167D01*
X99804335Y-108420797D01*
X99798520Y-108473562D01*
X99795087Y-108550270D01*
X99794500Y-108602250D01*
X99773333Y-108602250D01*
X99773333Y-108401167D01*
X99371166Y-108401167D01*
X99328833Y-108401167D01*
X98947833Y-108401167D01*
X98926666Y-108401167D01*
X98524500Y-108401167D01*
X98503333Y-108401167D01*
X98101166Y-108401167D01*
X98080000Y-108401167D01*
X97677833Y-108401167D01*
X97656666Y-108401167D01*
X97254500Y-108401167D01*
X97233333Y-108401167D01*
X97233333Y-107977833D01*
X97254500Y-107977833D01*
X97254500Y-108380000D01*
X97656666Y-108380000D01*
X97656666Y-107977833D01*
X97677833Y-107977833D01*
X97677833Y-108380000D01*
X98080000Y-108380000D01*
X98080000Y-107977833D01*
X98101166Y-107977833D01*
X98101166Y-108380000D01*
X98503333Y-108380000D01*
X98503333Y-107977833D01*
X98524500Y-107977833D01*
X98524500Y-108380000D01*
X98926666Y-108380000D01*
X98926666Y-107977833D01*
X98947833Y-107977833D01*
X98947833Y-108380000D01*
X99328833Y-108380000D01*
X99371166Y-108380000D01*
X99572250Y-108380000D01*
X99666626Y-108379108D01*
X99726279Y-108375530D01*
X99752383Y-108369417D01*
X99794500Y-108369417D01*
X99805083Y-108380000D01*
X99815666Y-108369417D01*
X99805083Y-108358833D01*
X99794500Y-108369417D01*
X99752383Y-108369417D01*
X99758798Y-108367915D01*
X99771772Y-108354909D01*
X99773333Y-108344162D01*
X99765494Y-108308830D01*
X99744647Y-108246407D01*
X99714798Y-108168570D01*
X99704541Y-108143612D01*
X99646823Y-108005411D01*
X99794500Y-108005411D01*
X99803273Y-108035796D01*
X99826749Y-108093792D01*
X99860655Y-108169166D01*
X99878405Y-108206494D01*
X99962310Y-108380000D01*
X100196666Y-108380000D01*
X100196666Y-107977833D01*
X100217833Y-107977833D01*
X100217833Y-108380000D01*
X100620000Y-108380000D01*
X100620000Y-107977833D01*
X100662333Y-107977833D01*
X100662333Y-108380000D01*
X100869714Y-108380000D01*
X100880646Y-108358833D01*
X101022166Y-108358833D01*
X101029388Y-108379450D01*
X101031500Y-108380000D01*
X101049572Y-108365168D01*
X101053916Y-108358833D01*
X101052238Y-108339328D01*
X101044582Y-108337667D01*
X101023028Y-108353032D01*
X101022166Y-108358833D01*
X100880646Y-108358833D01*
X100901283Y-108318876D01*
X101085666Y-108318876D01*
X101085666Y-108380000D01*
X101466666Y-108380000D01*
X101466666Y-107977833D01*
X101216656Y-107977833D01*
X101151161Y-108117793D01*
X101118297Y-108196329D01*
X101094790Y-108268356D01*
X101085668Y-108318437D01*
X101085666Y-108318876D01*
X100901283Y-108318876D01*
X100967107Y-108191429D01*
X101008160Y-108110769D01*
X101040666Y-108044670D01*
X101060446Y-108001759D01*
X101064500Y-107990346D01*
X101044867Y-107984969D01*
X100992098Y-107980750D01*
X100915385Y-107978260D01*
X100863416Y-107977833D01*
X100662333Y-107977833D01*
X100620000Y-107977833D01*
X100217833Y-107977833D01*
X100196666Y-107977833D01*
X99995583Y-107977833D01*
X99896162Y-107979393D01*
X99833341Y-107984588D01*
X99801482Y-107994192D01*
X99794500Y-108005411D01*
X99646823Y-108005411D01*
X99635750Y-107978899D01*
X99371166Y-107977833D01*
X99371166Y-108380000D01*
X99328833Y-108380000D01*
X99328833Y-107977833D01*
X98947833Y-107977833D01*
X98926666Y-107977833D01*
X98524500Y-107977833D01*
X98503333Y-107977833D01*
X98101166Y-107977833D01*
X98080000Y-107977833D01*
X97677833Y-107977833D01*
X97656666Y-107977833D01*
X97254500Y-107977833D01*
X97233333Y-107977833D01*
X97233333Y-107554500D01*
X97254500Y-107554500D01*
X97254500Y-107956667D01*
X97656666Y-107956667D01*
X97656666Y-107554500D01*
X97677833Y-107554500D01*
X97677833Y-107956667D01*
X98080000Y-107956667D01*
X98080000Y-107554500D01*
X98101166Y-107554500D01*
X98101166Y-107956667D01*
X98503333Y-107956667D01*
X98503333Y-107554500D01*
X98524500Y-107554500D01*
X98524500Y-107956667D01*
X98926666Y-107956667D01*
X98926666Y-107554500D01*
X98947833Y-107554500D01*
X98947833Y-107956667D01*
X99328833Y-107956667D01*
X99328833Y-107754111D01*
X99371166Y-107754111D01*
X99371166Y-107956667D01*
X99622110Y-107956667D01*
X99542867Y-107760875D01*
X99502737Y-107666364D01*
X99471544Y-107605554D01*
X99445212Y-107571861D01*
X99444424Y-107571455D01*
X99607527Y-107571455D01*
X99618276Y-107597552D01*
X99640979Y-107652826D01*
X99671533Y-107727284D01*
X99685754Y-107761955D01*
X99718230Y-107839051D01*
X99744932Y-107898556D01*
X99761809Y-107931612D01*
X99765129Y-107935500D01*
X99768742Y-107915908D01*
X99771543Y-107863431D01*
X99773126Y-107787513D01*
X99773333Y-107745000D01*
X99773333Y-107554500D01*
X99794500Y-107554500D01*
X99794500Y-107956667D01*
X100196666Y-107956667D01*
X100196666Y-107554500D01*
X100217833Y-107554500D01*
X100217833Y-107956667D01*
X100620000Y-107956667D01*
X100620000Y-107554500D01*
X100662333Y-107554500D01*
X100662333Y-107956667D01*
X101043333Y-107956667D01*
X101043333Y-107554500D01*
X101085666Y-107554500D01*
X101087234Y-107739708D01*
X101088803Y-107924917D01*
X101092331Y-107917254D01*
X101242263Y-107917254D01*
X101249617Y-107943911D01*
X101283112Y-107954645D01*
X101344946Y-107956665D01*
X101348823Y-107956667D01*
X101466666Y-107956667D01*
X101466666Y-107755583D01*
X101465973Y-107661982D01*
X101462838Y-107602891D01*
X101455680Y-107570496D01*
X101442918Y-107556981D01*
X101425974Y-107554500D01*
X101390512Y-107571552D01*
X101362329Y-107625761D01*
X101359610Y-107633875D01*
X101331360Y-107710026D01*
X101298406Y-107784855D01*
X101297184Y-107787333D01*
X101258852Y-107867464D01*
X101242263Y-107917254D01*
X101092331Y-107917254D01*
X101151068Y-107789687D01*
X101184539Y-107713806D01*
X101211571Y-107646750D01*
X101225878Y-107604479D01*
X101229937Y-107571384D01*
X101212503Y-107557407D01*
X101163299Y-107554500D01*
X101085666Y-107554500D01*
X101043333Y-107554500D01*
X100662333Y-107554500D01*
X100620000Y-107554500D01*
X100217833Y-107554500D01*
X100196666Y-107554500D01*
X99794500Y-107554500D01*
X99773333Y-107554500D01*
X99686902Y-107554500D01*
X99635131Y-107558129D01*
X99608501Y-107567232D01*
X99607527Y-107571455D01*
X99444424Y-107571455D01*
X99419663Y-107558702D01*
X99417395Y-107558319D01*
X99396038Y-107557215D01*
X99382535Y-107566550D01*
X99375088Y-107593935D01*
X99371900Y-107646982D01*
X99371174Y-107733303D01*
X99371166Y-107754111D01*
X99328833Y-107754111D01*
X99328833Y-107554500D01*
X98947833Y-107554500D01*
X98926666Y-107554500D01*
X98524500Y-107554500D01*
X98503333Y-107554500D01*
X98101166Y-107554500D01*
X98080000Y-107554500D01*
X97677833Y-107554500D01*
X97656666Y-107554500D01*
X97254500Y-107554500D01*
X97233333Y-107554500D01*
X97233333Y-107345098D01*
X97254500Y-107345098D01*
X97254500Y-107533333D01*
X97656666Y-107533333D01*
X97656666Y-107131167D01*
X97677833Y-107131167D01*
X97677833Y-107533333D01*
X98080000Y-107533333D01*
X98080000Y-107131167D01*
X98101166Y-107131167D01*
X98101166Y-107533333D01*
X98503333Y-107533333D01*
X98503333Y-107131167D01*
X98524500Y-107131167D01*
X98524500Y-107533333D01*
X98926666Y-107533333D01*
X98926666Y-107131167D01*
X98947833Y-107131167D01*
X98947833Y-107533333D01*
X99328833Y-107533333D01*
X99328644Y-107432792D01*
X99372776Y-107432792D01*
X99375319Y-107497111D01*
X99387236Y-107527696D01*
X99402916Y-107533333D01*
X99430093Y-107519259D01*
X99433056Y-107506875D01*
X99424784Y-107470635D01*
X99406549Y-107415946D01*
X99402916Y-107406333D01*
X99374387Y-107332250D01*
X99372776Y-107432792D01*
X99328644Y-107432792D01*
X99328544Y-107379875D01*
X99327716Y-107274165D01*
X99321823Y-107203658D01*
X99305043Y-107161229D01*
X99271554Y-107139753D01*
X99215533Y-107132107D01*
X99131337Y-107131167D01*
X99435284Y-107131167D01*
X99479689Y-107242292D01*
X99512385Y-107325086D01*
X99544966Y-107409088D01*
X99558029Y-107443375D01*
X99581589Y-107498773D01*
X99606787Y-107524956D01*
X99648744Y-107532841D01*
X99682648Y-107533333D01*
X99773333Y-107533333D01*
X99773333Y-107131167D01*
X99794500Y-107131167D01*
X99794500Y-107533333D01*
X100196666Y-107533333D01*
X100196666Y-107131167D01*
X100217833Y-107131167D01*
X100217833Y-107533333D01*
X100620000Y-107533333D01*
X100620000Y-107131167D01*
X100662333Y-107131167D01*
X100662333Y-107533333D01*
X101043333Y-107533333D01*
X101043333Y-107131167D01*
X101085666Y-107131167D01*
X101085666Y-107535767D01*
X101174204Y-107529259D01*
X101231714Y-107525031D01*
X101405867Y-107525031D01*
X101417250Y-107532787D01*
X101434916Y-107533333D01*
X101457401Y-107518850D01*
X101465693Y-107471260D01*
X101465838Y-107453958D01*
X101465009Y-107374583D01*
X101434088Y-107445805D01*
X101411513Y-107499558D01*
X101405867Y-107525031D01*
X101231714Y-107525031D01*
X101262742Y-107522750D01*
X101332922Y-107342833D01*
X101363882Y-107261832D01*
X101387872Y-107195967D01*
X101401391Y-107154996D01*
X101403134Y-107147042D01*
X101383713Y-107139453D01*
X101332310Y-107133840D01*
X101259266Y-107131236D01*
X101244416Y-107131167D01*
X101085666Y-107131167D01*
X101043333Y-107131167D01*
X100662333Y-107131167D01*
X100620000Y-107131167D01*
X100217833Y-107131167D01*
X100196666Y-107131167D01*
X99794500Y-107131167D01*
X99773333Y-107131167D01*
X99435284Y-107131167D01*
X99131337Y-107131167D01*
X99131157Y-107131165D01*
X99125281Y-107131167D01*
X98947833Y-107131167D01*
X98926666Y-107131167D01*
X98524500Y-107131167D01*
X98503333Y-107131167D01*
X98101166Y-107131167D01*
X98080000Y-107131167D01*
X97677833Y-107131167D01*
X97656666Y-107131167D01*
X97489064Y-107131167D01*
X97386922Y-107131702D01*
X97319769Y-107137764D01*
X97280278Y-107156036D01*
X97261121Y-107193202D01*
X97254970Y-107255943D01*
X97254500Y-107345098D01*
X97233333Y-107345098D01*
X97233333Y-107131167D01*
X97073334Y-107131167D01*
X96987827Y-107128615D01*
X96937800Y-107121285D01*
X96926416Y-107110000D01*
X96953113Y-107098574D01*
X97008664Y-107090889D01*
X97062780Y-107088833D01*
X97318617Y-107088833D01*
X97656666Y-107088833D01*
X97656666Y-106707833D01*
X97677833Y-106707833D01*
X97677833Y-107088833D01*
X98080000Y-107088833D01*
X98080000Y-106707833D01*
X98101166Y-106707833D01*
X98101166Y-107088833D01*
X98503333Y-107088833D01*
X98503333Y-106707833D01*
X98524500Y-106707833D01*
X98524500Y-107088833D01*
X98926666Y-107088833D01*
X98926666Y-106707833D01*
X98947833Y-106707833D01*
X98947833Y-107088833D01*
X99282578Y-107088833D01*
X99141185Y-106733733D01*
X99293251Y-106733733D01*
X99300654Y-106783115D01*
X99301086Y-106784711D01*
X99317733Y-106845417D01*
X99324875Y-106785273D01*
X99326235Y-106737763D01*
X99319842Y-106712954D01*
X99302242Y-106707833D01*
X99371166Y-106707833D01*
X99371166Y-106831675D01*
X99375230Y-106913080D01*
X99385649Y-106987885D01*
X99394403Y-107022175D01*
X99417641Y-107088833D01*
X99773333Y-107088833D01*
X99773333Y-106707833D01*
X99794500Y-106707833D01*
X99794500Y-107088833D01*
X100196666Y-107088833D01*
X100196666Y-106707833D01*
X100217833Y-106707833D01*
X100217833Y-107088833D01*
X100620000Y-107088833D01*
X100620000Y-106707833D01*
X100662333Y-106707833D01*
X100662333Y-107088833D01*
X101043333Y-107088833D01*
X101043333Y-106707833D01*
X101085666Y-106707833D01*
X101085666Y-107088833D01*
X101466666Y-107088833D01*
X101466666Y-106707833D01*
X101085666Y-106707833D01*
X101043333Y-106707833D01*
X100662333Y-106707833D01*
X100620000Y-106707833D01*
X100217833Y-106707833D01*
X100196666Y-106707833D01*
X99794500Y-106707833D01*
X99773333Y-106707833D01*
X99371166Y-106707833D01*
X99302242Y-106707833D01*
X99300440Y-106707309D01*
X99293251Y-106733733D01*
X99141185Y-106733733D01*
X99130872Y-106707833D01*
X98947833Y-106707833D01*
X98926666Y-106707833D01*
X98524500Y-106707833D01*
X98503333Y-106707833D01*
X98101166Y-106707833D01*
X98080000Y-106707833D01*
X97677833Y-106707833D01*
X97656666Y-106707833D01*
X97563714Y-106707833D01*
X97527023Y-106707297D01*
X97500310Y-106709610D01*
X97479274Y-106720650D01*
X97459611Y-106746298D01*
X97437020Y-106792433D01*
X97407196Y-106864934D01*
X97365838Y-106969681D01*
X97358471Y-106988292D01*
X97318617Y-107088833D01*
X97062780Y-107088833D01*
X97133804Y-107086873D01*
X97174102Y-107078393D01*
X97195201Y-107059493D01*
X97203557Y-107041208D01*
X97207342Y-107010858D01*
X97211330Y-106942577D01*
X97215398Y-106840766D01*
X97217044Y-106787208D01*
X97255250Y-106787208D01*
X97256000Y-106866583D01*
X97286250Y-106813667D01*
X97308820Y-106765960D01*
X97317249Y-106734292D01*
X97300937Y-106710892D01*
X97286250Y-106707833D01*
X97263741Y-106722359D01*
X97255407Y-106770051D01*
X97255250Y-106787208D01*
X97217044Y-106787208D01*
X97219424Y-106709827D01*
X97223285Y-106554161D01*
X97226861Y-106378169D01*
X97228406Y-106284500D01*
X97254500Y-106284500D01*
X97254500Y-106487055D01*
X97255014Y-106580597D01*
X97257700Y-106639398D01*
X97264266Y-106671048D01*
X97276425Y-106683136D01*
X97295888Y-106683253D01*
X97298638Y-106682847D01*
X97308807Y-106677108D01*
X97487333Y-106677108D01*
X97506132Y-106683097D01*
X97553090Y-106686425D01*
X97572000Y-106686667D01*
X97656666Y-106686667D01*
X97656666Y-106492639D01*
X97655870Y-106409165D01*
X97653734Y-106345710D01*
X97650636Y-106311072D01*
X97648712Y-106307430D01*
X97637006Y-106329806D01*
X97613733Y-106380112D01*
X97583573Y-106447626D01*
X97551206Y-106521625D01*
X97521315Y-106591386D01*
X97498579Y-106646187D01*
X97487680Y-106675304D01*
X97487333Y-106677108D01*
X97308807Y-106677108D01*
X97329609Y-106665369D01*
X97362889Y-106618705D01*
X97402411Y-106537204D01*
X97406430Y-106527917D01*
X97450678Y-106425833D01*
X97479183Y-106356884D01*
X97491275Y-106314648D01*
X97486281Y-106292699D01*
X97463530Y-106284613D01*
X97456338Y-106284500D01*
X97677833Y-106284500D01*
X97677833Y-106686667D01*
X98080000Y-106686667D01*
X98080000Y-106284500D01*
X98101166Y-106284500D01*
X98101166Y-106686667D01*
X98503333Y-106686667D01*
X98503333Y-106284500D01*
X98524500Y-106284500D01*
X98524500Y-106686667D01*
X98926666Y-106686667D01*
X98926666Y-106482055D01*
X98947833Y-106482055D01*
X98947833Y-106686667D01*
X99032500Y-106686667D01*
X99085548Y-106685230D01*
X99115025Y-106681641D01*
X99117166Y-106680196D01*
X99109653Y-106657580D01*
X99089977Y-106606477D01*
X99062430Y-106537402D01*
X99031307Y-106460872D01*
X99000899Y-106387404D01*
X98975502Y-106327512D01*
X98964040Y-106302017D01*
X99117166Y-106302017D01*
X99124646Y-106329157D01*
X99144279Y-106383661D01*
X99171852Y-106453852D01*
X99172512Y-106455476D01*
X99203493Y-106531981D01*
X99230238Y-106598748D01*
X99246072Y-106639042D01*
X99272102Y-106675934D01*
X99296559Y-106686667D01*
X99311902Y-106679821D01*
X99321610Y-106654493D01*
X99326838Y-106603492D01*
X99328739Y-106519629D01*
X99328833Y-106485583D01*
X99328833Y-106284500D01*
X99371166Y-106284500D01*
X99371166Y-106686667D01*
X99773333Y-106686667D01*
X99773333Y-106284500D01*
X99794500Y-106284500D01*
X99794500Y-106686667D01*
X100196666Y-106686667D01*
X100196666Y-106284500D01*
X100217833Y-106284500D01*
X100217833Y-106686667D01*
X100620000Y-106686667D01*
X100620000Y-106284500D01*
X100662333Y-106284500D01*
X100662333Y-106686667D01*
X101043333Y-106686667D01*
X101043333Y-106284500D01*
X101085666Y-106284500D01*
X101085666Y-106686667D01*
X101466666Y-106686667D01*
X101466666Y-106284500D01*
X101085666Y-106284500D01*
X101043333Y-106284500D01*
X100662333Y-106284500D01*
X100620000Y-106284500D01*
X100217833Y-106284500D01*
X100196666Y-106284500D01*
X99794500Y-106284500D01*
X99773333Y-106284500D01*
X99371166Y-106284500D01*
X99328833Y-106284500D01*
X99223000Y-106284500D01*
X99162620Y-106287652D01*
X99124301Y-106295710D01*
X99117166Y-106302017D01*
X98964040Y-106302017D01*
X98959407Y-106291714D01*
X98956340Y-106286264D01*
X98952729Y-106301988D01*
X98949879Y-106351446D01*
X98948163Y-106426041D01*
X98947833Y-106482055D01*
X98926666Y-106482055D01*
X98926666Y-106284500D01*
X98524500Y-106284500D01*
X98503333Y-106284500D01*
X98101166Y-106284500D01*
X98080000Y-106284500D01*
X97677833Y-106284500D01*
X97456338Y-106284500D01*
X97422350Y-106283966D01*
X97380976Y-106284500D01*
X97254500Y-106284500D01*
X97228406Y-106284500D01*
X97230028Y-106186253D01*
X97232484Y-105998750D01*
X97234064Y-105861167D01*
X97254500Y-105861167D01*
X97254500Y-106263333D01*
X97520580Y-106263333D01*
X97526750Y-106250820D01*
X97677833Y-106250820D01*
X97697465Y-106256197D01*
X97750234Y-106260417D01*
X97826947Y-106262907D01*
X97878916Y-106263333D01*
X98080000Y-106263333D01*
X98080000Y-105861167D01*
X98101166Y-105861167D01*
X98101166Y-106263333D01*
X98503333Y-106263333D01*
X98503333Y-105861167D01*
X98524500Y-105861167D01*
X98524500Y-106263333D01*
X98725583Y-106263333D01*
X98821202Y-106262231D01*
X98881707Y-106258156D01*
X98914278Y-106249960D01*
X98926095Y-106236490D01*
X98926666Y-106231113D01*
X98917574Y-106198567D01*
X98893287Y-106139160D01*
X98858290Y-106063516D01*
X98841763Y-106030030D01*
X98790118Y-105927312D01*
X98951222Y-105927312D01*
X98972111Y-105990777D01*
X99013944Y-106085617D01*
X99021382Y-106101941D01*
X99094931Y-106263333D01*
X99328833Y-106263333D01*
X99328833Y-105861167D01*
X99371166Y-105861167D01*
X99371166Y-106263333D01*
X99773333Y-106263333D01*
X99773333Y-105861167D01*
X99794500Y-105861167D01*
X99794500Y-106263333D01*
X100196666Y-106263333D01*
X100196666Y-105861167D01*
X100217833Y-105861167D01*
X100217833Y-106263333D01*
X100620000Y-106263333D01*
X100620000Y-105861167D01*
X100662333Y-105861167D01*
X100662333Y-106263333D01*
X101043333Y-106263333D01*
X101043333Y-105861167D01*
X101085666Y-105861167D01*
X101085666Y-106263333D01*
X101466666Y-106263333D01*
X101466666Y-105861167D01*
X101085666Y-105861167D01*
X101043333Y-105861167D01*
X100662333Y-105861167D01*
X100620000Y-105861167D01*
X100217833Y-105861167D01*
X100196666Y-105861167D01*
X99794500Y-105861167D01*
X99773333Y-105861167D01*
X99371166Y-105861167D01*
X99328833Y-105861167D01*
X99138333Y-105861167D01*
X99044833Y-105862150D01*
X98984522Y-105869300D01*
X98954339Y-105888920D01*
X98951222Y-105927312D01*
X98790118Y-105927312D01*
X98756860Y-105861167D01*
X98524500Y-105861167D01*
X98503333Y-105861167D01*
X98101166Y-105861167D01*
X98080000Y-105861167D01*
X97872619Y-105861167D01*
X97775226Y-106049737D01*
X97734172Y-106130397D01*
X97701666Y-106196497D01*
X97681886Y-106239407D01*
X97677833Y-106250820D01*
X97526750Y-106250820D01*
X97588623Y-106125349D01*
X97622865Y-106047281D01*
X97647304Y-105975093D01*
X97656666Y-105924376D01*
X97656666Y-105892917D01*
X97677833Y-105892917D01*
X97682361Y-105921157D01*
X97686152Y-105924667D01*
X97699800Y-105908115D01*
X97706654Y-105892917D01*
X97707094Y-105865661D01*
X97698335Y-105861167D01*
X97680143Y-105878321D01*
X97677833Y-105892917D01*
X97656666Y-105892917D01*
X97656666Y-105861167D01*
X97254500Y-105861167D01*
X97234064Y-105861167D01*
X97238928Y-105437833D01*
X97254500Y-105437833D01*
X97254500Y-105840000D01*
X97656666Y-105840000D01*
X97887466Y-105840000D01*
X98080000Y-105840000D01*
X98080000Y-105720991D01*
X98079681Y-105703953D01*
X98101166Y-105703953D01*
X98101166Y-105840000D01*
X98503333Y-105840000D01*
X98503333Y-105677017D01*
X98524500Y-105677017D01*
X98524500Y-105840000D01*
X98630333Y-105840000D01*
X98690712Y-105836823D01*
X98729031Y-105828700D01*
X98736166Y-105822342D01*
X98724958Y-105798598D01*
X98696064Y-105751140D01*
X98656577Y-105690576D01*
X98613590Y-105627515D01*
X98574196Y-105572566D01*
X98545489Y-105536338D01*
X98543468Y-105534142D01*
X98533940Y-105542901D01*
X98527372Y-105588003D01*
X98524551Y-105663514D01*
X98524500Y-105677017D01*
X98503333Y-105677017D01*
X98503333Y-105499173D01*
X98432118Y-105469417D01*
X98339907Y-105452872D01*
X98242059Y-105474174D01*
X98156532Y-105524355D01*
X98125920Y-105553106D01*
X98109213Y-105586941D01*
X98102333Y-105639085D01*
X98101166Y-105703953D01*
X98079681Y-105703953D01*
X98078758Y-105654753D01*
X98073238Y-105623490D01*
X98060742Y-105619873D01*
X98046463Y-105629816D01*
X98015211Y-105663086D01*
X97973172Y-105716645D01*
X97950196Y-105748824D01*
X97887466Y-105840000D01*
X97656666Y-105840000D01*
X97656666Y-105437833D01*
X97677833Y-105437833D01*
X97677833Y-105638917D01*
X97680035Y-105745119D01*
X97688378Y-105810352D01*
X97705466Y-105835830D01*
X97733904Y-105822770D01*
X97776298Y-105772386D01*
X97821924Y-105706156D01*
X97873136Y-105632864D01*
X97923482Y-105567451D01*
X97962374Y-105523647D01*
X97963530Y-105522550D01*
X97999354Y-105484263D01*
X98016294Y-105457043D01*
X98016500Y-105455310D01*
X97999504Y-105448233D01*
X98651500Y-105448233D01*
X98663336Y-105469261D01*
X98694056Y-105513266D01*
X98728409Y-105559358D01*
X98780370Y-105633337D01*
X98828455Y-105711458D01*
X98849044Y-105750042D01*
X98878043Y-105802981D01*
X98902052Y-105835314D01*
X98909717Y-105840000D01*
X98917000Y-105820369D01*
X98922715Y-105767604D01*
X98926088Y-105690896D01*
X98926666Y-105638917D01*
X98926666Y-105437833D01*
X98947833Y-105437833D01*
X98947833Y-105840000D01*
X99328833Y-105840000D01*
X99328833Y-105437833D01*
X99371166Y-105437833D01*
X99371166Y-105840000D01*
X99773333Y-105840000D01*
X99773333Y-105437833D01*
X99794500Y-105437833D01*
X99794500Y-105840000D01*
X100196666Y-105840000D01*
X100196666Y-105437833D01*
X100217833Y-105437833D01*
X100217833Y-105840000D01*
X100620000Y-105840000D01*
X100620000Y-105437833D01*
X100662333Y-105437833D01*
X100662333Y-105840000D01*
X101043333Y-105840000D01*
X101043333Y-105437833D01*
X101085666Y-105437833D01*
X101085666Y-105840000D01*
X101466666Y-105840000D01*
X101466666Y-105437833D01*
X101085666Y-105437833D01*
X101043333Y-105437833D01*
X100662333Y-105437833D01*
X100620000Y-105437833D01*
X100217833Y-105437833D01*
X100196666Y-105437833D01*
X99794500Y-105437833D01*
X99773333Y-105437833D01*
X99371166Y-105437833D01*
X99328833Y-105437833D01*
X98947833Y-105437833D01*
X98926666Y-105437833D01*
X98789083Y-105437833D01*
X98719009Y-105439293D01*
X98669453Y-105443112D01*
X98651500Y-105448233D01*
X97999504Y-105448233D01*
X97997008Y-105447194D01*
X97945209Y-105441082D01*
X97871117Y-105438009D01*
X97847166Y-105437833D01*
X97677833Y-105437833D01*
X97656666Y-105437833D01*
X97254500Y-105437833D01*
X97238928Y-105437833D01*
X97239172Y-105416667D01*
X97252911Y-105416667D01*
X97656666Y-105416667D01*
X97676244Y-105416667D01*
X98080000Y-105416667D01*
X98080000Y-105014500D01*
X98101166Y-105014500D01*
X98101166Y-105396587D01*
X98162444Y-105364899D01*
X98226494Y-105339744D01*
X98299670Y-105321280D01*
X98305319Y-105320338D01*
X98375488Y-105317524D01*
X98439065Y-105327678D01*
X98445125Y-105329792D01*
X98503333Y-105352119D01*
X98503333Y-105014500D01*
X98524500Y-105014500D01*
X98524500Y-105186791D01*
X98527002Y-105285665D01*
X98539330Y-105350996D01*
X98568716Y-105389745D01*
X98622389Y-105408873D01*
X98707581Y-105415340D01*
X98762625Y-105415993D01*
X98926666Y-105416667D01*
X98926666Y-105014500D01*
X98947833Y-105014500D01*
X98947833Y-105416667D01*
X99328833Y-105416667D01*
X99328833Y-105014500D01*
X99371166Y-105014500D01*
X99371166Y-105416667D01*
X99773333Y-105416667D01*
X99794500Y-105416667D01*
X100198255Y-105416667D01*
X100217833Y-105416667D01*
X100621588Y-105416667D01*
X100609416Y-105025083D01*
X100413625Y-105018997D01*
X100268953Y-105014500D01*
X100662333Y-105014500D01*
X100662333Y-105416667D01*
X101043333Y-105416667D01*
X101043333Y-105014500D01*
X101085666Y-105014500D01*
X101085666Y-105416667D01*
X101466666Y-105416667D01*
X101466666Y-105014500D01*
X101085666Y-105014500D01*
X101043333Y-105014500D01*
X100662333Y-105014500D01*
X100268953Y-105014500D01*
X100217833Y-105012911D01*
X100217833Y-105416667D01*
X100198255Y-105416667D01*
X100186083Y-105025083D01*
X99990291Y-105018997D01*
X99794500Y-105012911D01*
X99794500Y-105416667D01*
X99773333Y-105416667D01*
X99773333Y-105014500D01*
X99371166Y-105014500D01*
X99328833Y-105014500D01*
X98947833Y-105014500D01*
X98926666Y-105014500D01*
X98524500Y-105014500D01*
X98503333Y-105014500D01*
X98101166Y-105014500D01*
X98080000Y-105014500D01*
X98080000Y-105012911D01*
X97688416Y-105025083D01*
X97676244Y-105416667D01*
X97656666Y-105416667D01*
X97656666Y-105012911D01*
X97460875Y-105018997D01*
X97265083Y-105025083D01*
X97252911Y-105416667D01*
X97239172Y-105416667D01*
X97243916Y-105003917D01*
X98286375Y-104998425D01*
X99328833Y-104992934D01*
X99328833Y-104844967D01*
X99331633Y-104769037D01*
X99339137Y-104716580D01*
X99349998Y-104697000D01*
X99350000Y-104697000D01*
X99360861Y-104716575D01*
G36*
X99516799Y-104010748D02*
X99649802Y-104014115D01*
X99757495Y-104020599D01*
X99848366Y-104030739D01*
X99930900Y-104045072D01*
X99942666Y-104047527D01*
X100303956Y-104145110D01*
X100644488Y-104278801D01*
X100962430Y-104446862D01*
X101255953Y-104647552D01*
X101523225Y-104879132D01*
X101762415Y-105139862D01*
X101971693Y-105428002D01*
X102149227Y-105741814D01*
X102293187Y-106079558D01*
X102383080Y-106366295D01*
X102404162Y-106446796D01*
X102420181Y-106514462D01*
X102431848Y-106577102D01*
X102439873Y-106642529D01*
X102444968Y-106718553D01*
X102447844Y-106812984D01*
X102449211Y-106933633D01*
X102449781Y-107088310D01*
X102449806Y-107099417D01*
X102450026Y-107255587D01*
X102449394Y-107377416D01*
X102447178Y-107472896D01*
X102442647Y-107550021D01*
X102435067Y-107616781D01*
X102423706Y-107681169D01*
X102407832Y-107751178D01*
X102386713Y-107834799D01*
X102380064Y-107860564D01*
X102291171Y-108156665D01*
X102182797Y-108424999D01*
X102049021Y-108677903D01*
X101883918Y-108927715D01*
X101837633Y-108990362D01*
X101609154Y-109259673D01*
X101351947Y-109501090D01*
X101070026Y-109712204D01*
X100767409Y-109890607D01*
X100448109Y-110033891D01*
X100116142Y-110139649D01*
X99822195Y-110198956D01*
X99724245Y-110208984D01*
X99596877Y-110215525D01*
X99450765Y-110218672D01*
X99296585Y-110218514D01*
X99145011Y-110215142D01*
X99006717Y-110208647D01*
X98892378Y-110199120D01*
X98831416Y-110190533D01*
X98474282Y-110104572D01*
X98135140Y-109981927D01*
X97816234Y-109824622D01*
X97519808Y-109634678D01*
X97248105Y-109414119D01*
X97003368Y-109164968D01*
X96787842Y-108889247D01*
X96603768Y-108588981D01*
X96453392Y-108266191D01*
X96346382Y-107949810D01*
X96300203Y-107767509D01*
X96268135Y-107594828D01*
X96248845Y-107419273D01*
X96241003Y-107228355D01*
X96242980Y-107037909D01*
X96311105Y-107037909D01*
X96320781Y-107373661D01*
X96368387Y-107708106D01*
X96454680Y-108037962D01*
X96580414Y-108359949D01*
X96637989Y-108478192D01*
X96787157Y-108743093D01*
X96946838Y-108975421D01*
X97124437Y-109184821D01*
X97327358Y-109380938D01*
X97338538Y-109390776D01*
X97579242Y-109584373D01*
X97825559Y-109746435D01*
X98083866Y-109879748D01*
X98360539Y-109987103D01*
X98661954Y-110071286D01*
X98994487Y-110135088D01*
X99064250Y-110145499D01*
X99147426Y-110151766D01*
X99261917Y-110152680D01*
X99397128Y-110148846D01*
X99542461Y-110140868D01*
X99687321Y-110129353D01*
X99821109Y-110114904D01*
X99933231Y-110098127D01*
X99950228Y-110094920D01*
X100292939Y-110006424D01*
X100619334Y-109879568D01*
X100927249Y-109715886D01*
X101214522Y-109516916D01*
X101478990Y-109284193D01*
X101718490Y-109019253D01*
X101930858Y-108723633D01*
X101970292Y-108660293D01*
X102118651Y-108380693D01*
X102237224Y-108078256D01*
X102327775Y-107748266D01*
X102348455Y-107649750D01*
X102368525Y-107510351D01*
X102381228Y-107342060D01*
X102386573Y-107157673D01*
X102384570Y-106969982D01*
X102375228Y-106791782D01*
X102358557Y-106635868D01*
X102347625Y-106571018D01*
X102258164Y-106221502D01*
X102131865Y-105889119D01*
X101970873Y-105576411D01*
X101777329Y-105285920D01*
X101553377Y-105020189D01*
X101301160Y-104781762D01*
X101022820Y-104573180D01*
X100720500Y-104396988D01*
X100396539Y-104255799D01*
X100212880Y-104197283D01*
X100008175Y-104147420D01*
X99794258Y-104108049D01*
X99582962Y-104081012D01*
X99386121Y-104068151D01*
X99215568Y-104071306D01*
X99212416Y-104071552D01*
X98847264Y-104117017D01*
X98507784Y-104194067D01*
X98189848Y-104304223D01*
X97889327Y-104449003D01*
X97602092Y-104629927D01*
X97508500Y-104698596D01*
X97241940Y-104926677D01*
X97007264Y-105179702D01*
X96805229Y-105454388D01*
X96636590Y-105747456D01*
X96502102Y-106055623D01*
X96402521Y-106375609D01*
X96338604Y-106704131D01*
X96311105Y-107037909D01*
X96242980Y-107037909D01*
X96243275Y-107009582D01*
X96243909Y-106988769D01*
X96249203Y-106847689D01*
X96256029Y-106736335D01*
X96266087Y-106642097D01*
X96281076Y-106552367D01*
X96302697Y-106454538D01*
X96331074Y-106342042D01*
X96440648Y-106001789D01*
X96586575Y-105679119D01*
X96766315Y-105376764D01*
X96977328Y-105097454D01*
X97217074Y-104843917D01*
X97483011Y-104618885D01*
X97772601Y-104425086D01*
X98083303Y-104265252D01*
X98363716Y-104157608D01*
X98522418Y-104107868D01*
X98660334Y-104070474D01*
X98788664Y-104043749D01*
X98918605Y-104026017D01*
X99061357Y-104015602D01*
X99228118Y-104010826D01*
X99350000Y-104009960D01*
X99516799Y-104010748D01*
X99516799Y-104010748D01*
G37*
X99516799Y-104010748D02*
X99649802Y-104014115D01*
X99757495Y-104020599D01*
X99848366Y-104030739D01*
X99930900Y-104045072D01*
X99942666Y-104047527D01*
X100303956Y-104145110D01*
X100644488Y-104278801D01*
X100962430Y-104446862D01*
X101255953Y-104647552D01*
X101523225Y-104879132D01*
X101762415Y-105139862D01*
X101971693Y-105428002D01*
X102149227Y-105741814D01*
X102293187Y-106079558D01*
X102383080Y-106366295D01*
X102404162Y-106446796D01*
X102420181Y-106514462D01*
X102431848Y-106577102D01*
X102439873Y-106642529D01*
X102444968Y-106718553D01*
X102447844Y-106812984D01*
X102449211Y-106933633D01*
X102449781Y-107088310D01*
X102449806Y-107099417D01*
X102450026Y-107255587D01*
X102449394Y-107377416D01*
X102447178Y-107472896D01*
X102442647Y-107550021D01*
X102435067Y-107616781D01*
X102423706Y-107681169D01*
X102407832Y-107751178D01*
X102386713Y-107834799D01*
X102380064Y-107860564D01*
X102291171Y-108156665D01*
X102182797Y-108424999D01*
X102049021Y-108677903D01*
X101883918Y-108927715D01*
X101837633Y-108990362D01*
X101609154Y-109259673D01*
X101351947Y-109501090D01*
X101070026Y-109712204D01*
X100767409Y-109890607D01*
X100448109Y-110033891D01*
X100116142Y-110139649D01*
X99822195Y-110198956D01*
X99724245Y-110208984D01*
X99596877Y-110215525D01*
X99450765Y-110218672D01*
X99296585Y-110218514D01*
X99145011Y-110215142D01*
X99006717Y-110208647D01*
X98892378Y-110199120D01*
X98831416Y-110190533D01*
X98474282Y-110104572D01*
X98135140Y-109981927D01*
X97816234Y-109824622D01*
X97519808Y-109634678D01*
X97248105Y-109414119D01*
X97003368Y-109164968D01*
X96787842Y-108889247D01*
X96603768Y-108588981D01*
X96453392Y-108266191D01*
X96346382Y-107949810D01*
X96300203Y-107767509D01*
X96268135Y-107594828D01*
X96248845Y-107419273D01*
X96241003Y-107228355D01*
X96242980Y-107037909D01*
X96311105Y-107037909D01*
X96320781Y-107373661D01*
X96368387Y-107708106D01*
X96454680Y-108037962D01*
X96580414Y-108359949D01*
X96637989Y-108478192D01*
X96787157Y-108743093D01*
X96946838Y-108975421D01*
X97124437Y-109184821D01*
X97327358Y-109380938D01*
X97338538Y-109390776D01*
X97579242Y-109584373D01*
X97825559Y-109746435D01*
X98083866Y-109879748D01*
X98360539Y-109987103D01*
X98661954Y-110071286D01*
X98994487Y-110135088D01*
X99064250Y-110145499D01*
X99147426Y-110151766D01*
X99261917Y-110152680D01*
X99397128Y-110148846D01*
X99542461Y-110140868D01*
X99687321Y-110129353D01*
X99821109Y-110114904D01*
X99933231Y-110098127D01*
X99950228Y-110094920D01*
X100292939Y-110006424D01*
X100619334Y-109879568D01*
X100927249Y-109715886D01*
X101214522Y-109516916D01*
X101478990Y-109284193D01*
X101718490Y-109019253D01*
X101930858Y-108723633D01*
X101970292Y-108660293D01*
X102118651Y-108380693D01*
X102237224Y-108078256D01*
X102327775Y-107748266D01*
X102348455Y-107649750D01*
X102368525Y-107510351D01*
X102381228Y-107342060D01*
X102386573Y-107157673D01*
X102384570Y-106969982D01*
X102375228Y-106791782D01*
X102358557Y-106635868D01*
X102347625Y-106571018D01*
X102258164Y-106221502D01*
X102131865Y-105889119D01*
X101970873Y-105576411D01*
X101777329Y-105285920D01*
X101553377Y-105020189D01*
X101301160Y-104781762D01*
X101022820Y-104573180D01*
X100720500Y-104396988D01*
X100396539Y-104255799D01*
X100212880Y-104197283D01*
X100008175Y-104147420D01*
X99794258Y-104108049D01*
X99582962Y-104081012D01*
X99386121Y-104068151D01*
X99215568Y-104071306D01*
X99212416Y-104071552D01*
X98847264Y-104117017D01*
X98507784Y-104194067D01*
X98189848Y-104304223D01*
X97889327Y-104449003D01*
X97602092Y-104629927D01*
X97508500Y-104698596D01*
X97241940Y-104926677D01*
X97007264Y-105179702D01*
X96805229Y-105454388D01*
X96636590Y-105747456D01*
X96502102Y-106055623D01*
X96402521Y-106375609D01*
X96338604Y-106704131D01*
X96311105Y-107037909D01*
X96242980Y-107037909D01*
X96243275Y-107009582D01*
X96243909Y-106988769D01*
X96249203Y-106847689D01*
X96256029Y-106736335D01*
X96266087Y-106642097D01*
X96281076Y-106552367D01*
X96302697Y-106454538D01*
X96331074Y-106342042D01*
X96440648Y-106001789D01*
X96586575Y-105679119D01*
X96766315Y-105376764D01*
X96977328Y-105097454D01*
X97217074Y-104843917D01*
X97483011Y-104618885D01*
X97772601Y-104425086D01*
X98083303Y-104265252D01*
X98363716Y-104157608D01*
X98522418Y-104107868D01*
X98660334Y-104070474D01*
X98788664Y-104043749D01*
X98918605Y-104026017D01*
X99061357Y-104015602D01*
X99228118Y-104010826D01*
X99350000Y-104009960D01*
X99516799Y-104010748D01*
D12*
G36*
X105581600Y-100401400D02*
X104601600Y-101361400D01*
X105401600Y-101041400D01*
X104581600Y-101981400D01*
X105421600Y-101731400D01*
X104491600Y-102841400D01*
X105491600Y-102401400D01*
X105491600Y-103711400D01*
X105711600Y-103711400D01*
X105671600Y-102411400D01*
X106661600Y-102911400D01*
X105881600Y-101821400D01*
X106651600Y-101991400D01*
X105721600Y-100971400D01*
X106521600Y-101331400D01*
X105581600Y-100401400D01*
G37*
X105581600Y-100401400D02*
X104601600Y-101361400D01*
X105401600Y-101041400D01*
X104581600Y-101981400D01*
X105421600Y-101731400D01*
X104491600Y-102841400D01*
X105491600Y-102401400D01*
X105491600Y-103711400D01*
X105711600Y-103711400D01*
X105671600Y-102411400D01*
X106661600Y-102911400D01*
X105881600Y-101821400D01*
X106651600Y-101991400D01*
X105721600Y-100971400D01*
X106521600Y-101331400D01*
X105581600Y-100401400D01*
G36*
X106991600Y-101171400D02*
X106071600Y-102161400D01*
X106801600Y-101821400D01*
X105931600Y-102801400D01*
X106721600Y-102611400D01*
X105941600Y-103591400D01*
X106861600Y-103311400D01*
X106861600Y-104531400D01*
X107141600Y-104521400D01*
X107141600Y-103301400D01*
X108051600Y-103591400D01*
X107291600Y-102611400D01*
X108081600Y-102811400D01*
X107231600Y-101861400D01*
X107901600Y-102151400D01*
X106991600Y-101171400D01*
G37*
X106991600Y-101171400D02*
X106071600Y-102161400D01*
X106801600Y-101821400D01*
X105931600Y-102801400D01*
X106721600Y-102611400D01*
X105941600Y-103591400D01*
X106861600Y-103311400D01*
X106861600Y-104531400D01*
X107141600Y-104521400D01*
X107141600Y-103301400D01*
X108051600Y-103591400D01*
X107291600Y-102611400D01*
X108081600Y-102811400D01*
X107231600Y-101861400D01*
X107901600Y-102151400D01*
X106991600Y-101171400D01*
G36*
X104181600Y-101201400D02*
X103351600Y-102101400D01*
X103921600Y-101901400D01*
X103171600Y-102771400D01*
X103901600Y-102611400D01*
X103151600Y-103571400D01*
X104070600Y-103243400D01*
X104070600Y-104513400D01*
X104324600Y-104513400D01*
X104324600Y-103243400D01*
X105271600Y-103591400D01*
X104421600Y-102581400D01*
X105231600Y-102781400D01*
X104451600Y-101921400D01*
X105011600Y-102061400D01*
X104181600Y-101201400D01*
G37*
X104181600Y-101201400D02*
X103351600Y-102101400D01*
X103921600Y-101901400D01*
X103171600Y-102771400D01*
X103901600Y-102611400D01*
X103151600Y-103571400D01*
X104070600Y-103243400D01*
X104070600Y-104513400D01*
X104324600Y-104513400D01*
X104324600Y-103243400D01*
X105271600Y-103591400D01*
X104421600Y-102581400D01*
X105231600Y-102781400D01*
X104451600Y-101921400D01*
X105011600Y-102061400D01*
X104181600Y-101201400D01*
D13*
X106791600Y-103381400D02*
X106791600Y-104581400D01*
X106791600Y-104581400D02*
X107191600Y-104581400D01*
X107191600Y-104581400D02*
X107191600Y-103381400D01*
X107191600Y-103381400D02*
X108191600Y-103681400D01*
X108191600Y-103681400D02*
X107391600Y-102681400D01*
X107391600Y-102681400D02*
X108191600Y-102881400D01*
X108191600Y-102881400D02*
X107391600Y-101981400D01*
X107391600Y-101981400D02*
X108091600Y-102281400D01*
X108091600Y-102281400D02*
X106991600Y-101081400D01*
X106991600Y-101081400D02*
X105891600Y-102281400D01*
X105891600Y-102281400D02*
X106591600Y-101981400D01*
X106591600Y-101981400D02*
X105791600Y-102881400D01*
X105791600Y-102881400D02*
X106591600Y-102681400D01*
X106591600Y-102681400D02*
X105791600Y-103681400D01*
X105791600Y-103681400D02*
X106791600Y-103381400D01*
X103991600Y-103381400D02*
X103991600Y-104581400D01*
X105391600Y-103681400D02*
X104591600Y-102681400D01*
X103991600Y-104581400D02*
X104391600Y-104581400D01*
X104391600Y-104581400D02*
X104391600Y-103381400D01*
X104591600Y-101981400D02*
X105291600Y-102281400D01*
X105291600Y-102281400D02*
X104191600Y-101081400D01*
X105391600Y-102881400D02*
X104591600Y-101981400D01*
X104591600Y-102681400D02*
X105391600Y-102881400D01*
X103791600Y-101981400D02*
X102991600Y-102881400D01*
X103091600Y-102281400D02*
X103791600Y-101981400D01*
X104191600Y-101081400D02*
X103091600Y-102281400D01*
X103791600Y-102681400D02*
X102991600Y-103681400D01*
X102991600Y-103681400D02*
X103991600Y-103381400D01*
X102991600Y-102881400D02*
X103791600Y-102681400D01*
X104391600Y-103381400D02*
X105391600Y-103681400D01*
X105791600Y-103781400D02*
X105791600Y-102581400D01*
X105991600Y-101881400D02*
X106161600Y-101931400D01*
X105391600Y-103781400D02*
X105791600Y-103781400D01*
X105391600Y-102581400D02*
X105391600Y-103781400D01*
X106621600Y-101391400D02*
X105621600Y-100321400D01*
X106441600Y-101661400D02*
X105991600Y-101181400D01*
X105241600Y-102651400D02*
X105391600Y-102581400D01*
X105791600Y-102581400D02*
X105941600Y-102641400D01*
X106291600Y-102251400D02*
X106221600Y-102171400D01*
X104561600Y-101441400D02*
X105191600Y-101181400D01*
X105571600Y-100331400D02*
X104531600Y-101371400D01*
X105991600Y-101181400D02*
X106581600Y-101411400D01*
X106081600Y-102001400D02*
X106011600Y-101921400D01*
X105221600Y-101191400D02*
X104771600Y-101661400D01*
X104981600Y-101961400D02*
X105221600Y-101831400D01*
X105221600Y-101831400D02*
X105081600Y-102011400D01*
X104971600Y-102161400D02*
X104881600Y-102251400D01*
D14*
X97790000Y-97790000D03*
X97790000Y-115570000D03*
D15*
X143510000Y-115570000D03*
X143510000Y-97790000D03*
D16*
X139700000Y-96520000D03*
X137160000Y-96520000D03*
X134620000Y-96520000D03*
X132080000Y-96520000D03*
X129540000Y-96520000D03*
X127000000Y-96520000D03*
X124460000Y-96520000D03*
X121920000Y-96520000D03*
X119380000Y-96520000D03*
X116840000Y-96520000D03*
X114300000Y-96520000D03*
X111760000Y-96520000D03*
X139700000Y-116840000D03*
X137160000Y-116840000D03*
X134620000Y-116840000D03*
X132080000Y-116840000D03*
X129540000Y-116840000D03*
X127000000Y-116840000D03*
X124460000Y-116840000D03*
X121920000Y-116840000D03*
X119380000Y-116840000D03*
X116840000Y-116840000D03*
X114300000Y-116840000D03*
X111760000Y-116840000D03*
X109220000Y-116840000D03*
X106680000Y-116840000D03*
X104140000Y-116840000D03*
X101600000Y-116840000D03*
D17*
X126650000Y-107254800D03*
X126650000Y-107754800D03*
X126650000Y-108254800D03*
X126650000Y-108754800D03*
X126650000Y-109254800D03*
X131050000Y-109254800D03*
X131050000Y-108754800D03*
X131050000Y-108254800D03*
X131050000Y-107754800D03*
X131050000Y-107254800D03*
D18*
X104600000Y-111300000D03*
X104600000Y-109300000D03*
D19*
X121450000Y-111100000D03*
X119550000Y-111100000D03*
X119550000Y-113200000D03*
X121450000Y-113200000D03*
D20*
X143510000Y-105410000D03*
D21*
X143510000Y-102870000D03*
D22*
X142980000Y-110400000D03*
X140440000Y-110400000D03*
D23*
X137900000Y-110400000D03*
D24*
X111650000Y-107710000D03*
X111650000Y-112790000D03*
X107650000Y-112790000D03*
X107650000Y-107710000D03*
D18*
X115167927Y-106714025D03*
X115167927Y-108714025D03*
D25*
X133300000Y-103700000D03*
X135300000Y-103700000D03*
X122926600Y-105562400D03*
X124926600Y-105562400D03*
X133300000Y-101600000D03*
X135300000Y-101600000D03*
D18*
X117304804Y-111174218D03*
X117304804Y-113174218D03*
X125400000Y-113099000D03*
X125400000Y-111099000D03*
X133781800Y-112607600D03*
X133781800Y-110607600D03*
X117217127Y-108718632D03*
X117217127Y-106718632D03*
D19*
X113553200Y-99491800D03*
X115453200Y-99491800D03*
X138950000Y-106200000D03*
X140850000Y-106200000D03*
D18*
X123300000Y-113099000D03*
X123300000Y-111099000D03*
D26*
X137550000Y-103850000D03*
X137550000Y-101950000D03*
X140250000Y-101950000D03*
X140250000Y-102900000D03*
X140250000Y-103850000D03*
D19*
X117461207Y-101776400D03*
X115561207Y-101776400D03*
X115547400Y-104126400D03*
X117447400Y-104126400D03*
D27*
X129598600Y-101255000D03*
X129598600Y-101905000D03*
X129598600Y-102565000D03*
X129598600Y-103215000D03*
X127398600Y-103215000D03*
X127398600Y-102565000D03*
X127398600Y-101905000D03*
X127398600Y-101255000D03*
D18*
X115200000Y-113150000D03*
X115200000Y-111150000D03*
M02*
