G04 #@! TF.GenerationSoftware,KiCad,Pcbnew,(5.0.0-rc2-dev-444-g2974a2c10)*
G04 #@! TF.CreationDate,2019-11-19T23:53:18-08:00*
G04 #@! TF.ProjectId,Waveform_Gen_ADSR,57617665666F726D5F47656E5F414453,v00*
G04 #@! TF.SameCoordinates,Original*
G04 #@! TF.FileFunction,Soldermask,Bot*
G04 #@! TF.FilePolarity,Negative*
%FSLAX46Y46*%
G04 Gerber Fmt 4.6, Leading zero omitted, Abs format (unit mm)*
G04 Created by KiCad (PCBNEW (5.0.0-rc2-dev-444-g2974a2c10)) date 11/19/19 23:53:18*
%MOMM*%
%LPD*%
G01*
G04 APERTURE LIST*
%ADD10C,0.120000*%
%ADD11C,0.160000*%
%ADD12C,0.010000*%
%ADD13C,0.150000*%
%ADD14R,1.701600X1.301600*%
%ADD15C,3.101600*%
%ADD16C,2.601600*%
%ADD17C,1.801600*%
%ADD18O,1.801600X1.801600*%
%ADD19R,1.801600X1.801600*%
%ADD20C,1.721600*%
%ADD21R,1.721600X1.721600*%
%ADD22R,0.801600X1.401600*%
G04 APERTURE END LIST*
D10*
X107675714Y-113120000D02*
X107390000Y-113120000D01*
X107732857Y-113291428D02*
X107532857Y-112691428D01*
X107332857Y-113291428D01*
X107132857Y-113291428D02*
X107132857Y-112891428D01*
X107132857Y-112948571D02*
X107104285Y-112920000D01*
X107047142Y-112891428D01*
X106961428Y-112891428D01*
X106904285Y-112920000D01*
X106875714Y-112977142D01*
X106875714Y-113291428D01*
X106875714Y-112977142D02*
X106847142Y-112920000D01*
X106790000Y-112891428D01*
X106704285Y-112891428D01*
X106647142Y-112920000D01*
X106618571Y-112977142D01*
X106618571Y-113291428D01*
X106332857Y-112891428D02*
X106332857Y-113491428D01*
X106332857Y-112920000D02*
X106275714Y-112891428D01*
X106161428Y-112891428D01*
X106104285Y-112920000D01*
X106075714Y-112948571D01*
X106047142Y-113005714D01*
X106047142Y-113177142D01*
X106075714Y-113234285D01*
X106104285Y-113262857D01*
X106161428Y-113291428D01*
X106275714Y-113291428D01*
X106332857Y-113262857D01*
X105704285Y-113291428D02*
X105761428Y-113262857D01*
X105790000Y-113205714D01*
X105790000Y-112691428D01*
X105475714Y-113291428D02*
X105475714Y-112891428D01*
X105475714Y-112691428D02*
X105504285Y-112720000D01*
X105475714Y-112748571D01*
X105447142Y-112720000D01*
X105475714Y-112691428D01*
X105475714Y-112748571D01*
X105275714Y-112891428D02*
X105047142Y-112891428D01*
X105190000Y-112691428D02*
X105190000Y-113205714D01*
X105161428Y-113262857D01*
X105104285Y-113291428D01*
X105047142Y-113291428D01*
X104590000Y-112891428D02*
X104590000Y-113291428D01*
X104847142Y-112891428D02*
X104847142Y-113205714D01*
X104818571Y-113262857D01*
X104761428Y-113291428D01*
X104675714Y-113291428D01*
X104618571Y-113262857D01*
X104590000Y-113234285D01*
X104047142Y-113291428D02*
X104047142Y-112691428D01*
X104047142Y-113262857D02*
X104104285Y-113291428D01*
X104218571Y-113291428D01*
X104275714Y-113262857D01*
X104304285Y-113234285D01*
X104332857Y-113177142D01*
X104332857Y-113005714D01*
X104304285Y-112948571D01*
X104275714Y-112920000D01*
X104218571Y-112891428D01*
X104104285Y-112891428D01*
X104047142Y-112920000D01*
X103532857Y-113262857D02*
X103590000Y-113291428D01*
X103704285Y-113291428D01*
X103761428Y-113262857D01*
X103790000Y-113205714D01*
X103790000Y-112977142D01*
X103761428Y-112920000D01*
X103704285Y-112891428D01*
X103590000Y-112891428D01*
X103532857Y-112920000D01*
X103504285Y-112977142D01*
X103504285Y-113034285D01*
X103790000Y-113091428D01*
X106732857Y-114254285D02*
X106761428Y-114282857D01*
X106847142Y-114311428D01*
X106904285Y-114311428D01*
X106990000Y-114282857D01*
X107047142Y-114225714D01*
X107075714Y-114168571D01*
X107104285Y-114054285D01*
X107104285Y-113968571D01*
X107075714Y-113854285D01*
X107047142Y-113797142D01*
X106990000Y-113740000D01*
X106904285Y-113711428D01*
X106847142Y-113711428D01*
X106761428Y-113740000D01*
X106732857Y-113768571D01*
X106390000Y-114311428D02*
X106447142Y-114282857D01*
X106475714Y-114254285D01*
X106504285Y-114197142D01*
X106504285Y-114025714D01*
X106475714Y-113968571D01*
X106447142Y-113940000D01*
X106390000Y-113911428D01*
X106304285Y-113911428D01*
X106247142Y-113940000D01*
X106218571Y-113968571D01*
X106190000Y-114025714D01*
X106190000Y-114197142D01*
X106218571Y-114254285D01*
X106247142Y-114282857D01*
X106304285Y-114311428D01*
X106390000Y-114311428D01*
X105932857Y-113911428D02*
X105932857Y-114311428D01*
X105932857Y-113968571D02*
X105904285Y-113940000D01*
X105847142Y-113911428D01*
X105761428Y-113911428D01*
X105704285Y-113940000D01*
X105675714Y-113997142D01*
X105675714Y-114311428D01*
X105475714Y-113911428D02*
X105247142Y-113911428D01*
X105390000Y-113711428D02*
X105390000Y-114225714D01*
X105361428Y-114282857D01*
X105304285Y-114311428D01*
X105247142Y-114311428D01*
X105047142Y-114311428D02*
X105047142Y-113911428D01*
X105047142Y-114025714D02*
X105018571Y-113968571D01*
X104990000Y-113940000D01*
X104932857Y-113911428D01*
X104875714Y-113911428D01*
X104590000Y-114311428D02*
X104647142Y-114282857D01*
X104675714Y-114254285D01*
X104704285Y-114197142D01*
X104704285Y-114025714D01*
X104675714Y-113968571D01*
X104647142Y-113940000D01*
X104590000Y-113911428D01*
X104504285Y-113911428D01*
X104447142Y-113940000D01*
X104418571Y-113968571D01*
X104390000Y-114025714D01*
X104390000Y-114197142D01*
X104418571Y-114254285D01*
X104447142Y-114282857D01*
X104504285Y-114311428D01*
X104590000Y-114311428D01*
X104047142Y-114311428D02*
X104104285Y-114282857D01*
X104132857Y-114225714D01*
X104132857Y-113711428D01*
D11*
X111414952Y-101735714D02*
X111453047Y-101773809D01*
X111567333Y-101811904D01*
X111643523Y-101811904D01*
X111757809Y-101773809D01*
X111834000Y-101697619D01*
X111872095Y-101621428D01*
X111910190Y-101469047D01*
X111910190Y-101354761D01*
X111872095Y-101202380D01*
X111834000Y-101126190D01*
X111757809Y-101050000D01*
X111643523Y-101011904D01*
X111567333Y-101011904D01*
X111453047Y-101050000D01*
X111414952Y-101088095D01*
X110767333Y-101773809D02*
X110843523Y-101811904D01*
X110995904Y-101811904D01*
X111072095Y-101773809D01*
X111110190Y-101697619D01*
X111110190Y-101392857D01*
X111072095Y-101316666D01*
X110995904Y-101278571D01*
X110843523Y-101278571D01*
X110767333Y-101316666D01*
X110729238Y-101392857D01*
X110729238Y-101469047D01*
X111110190Y-101545238D01*
X110043523Y-101811904D02*
X110043523Y-101011904D01*
X110043523Y-101773809D02*
X110119714Y-101811904D01*
X110272095Y-101811904D01*
X110348285Y-101773809D01*
X110386380Y-101735714D01*
X110424476Y-101659523D01*
X110424476Y-101430952D01*
X110386380Y-101354761D01*
X110348285Y-101316666D01*
X110272095Y-101278571D01*
X110119714Y-101278571D01*
X110043523Y-101316666D01*
X109319714Y-101811904D02*
X109319714Y-101392857D01*
X109357809Y-101316666D01*
X109434000Y-101278571D01*
X109586380Y-101278571D01*
X109662571Y-101316666D01*
X109319714Y-101773809D02*
X109395904Y-101811904D01*
X109586380Y-101811904D01*
X109662571Y-101773809D01*
X109700666Y-101697619D01*
X109700666Y-101621428D01*
X109662571Y-101545238D01*
X109586380Y-101507142D01*
X109395904Y-101507142D01*
X109319714Y-101469047D01*
X108938761Y-101811904D02*
X108938761Y-101278571D01*
X108938761Y-101430952D02*
X108900666Y-101354761D01*
X108862571Y-101316666D01*
X108786380Y-101278571D01*
X108710190Y-101278571D01*
X111338761Y-102410000D02*
X111414952Y-102371904D01*
X111529238Y-102371904D01*
X111643523Y-102410000D01*
X111719714Y-102486190D01*
X111757809Y-102562380D01*
X111795904Y-102714761D01*
X111795904Y-102829047D01*
X111757809Y-102981428D01*
X111719714Y-103057619D01*
X111643523Y-103133809D01*
X111529238Y-103171904D01*
X111453047Y-103171904D01*
X111338761Y-103133809D01*
X111300666Y-103095714D01*
X111300666Y-102829047D01*
X111453047Y-102829047D01*
X110957809Y-103171904D02*
X110957809Y-102638571D01*
X110957809Y-102790952D02*
X110919714Y-102714761D01*
X110881619Y-102676666D01*
X110805428Y-102638571D01*
X110729238Y-102638571D01*
X110348285Y-103171904D02*
X110424476Y-103133809D01*
X110462571Y-103095714D01*
X110500666Y-103019523D01*
X110500666Y-102790952D01*
X110462571Y-102714761D01*
X110424476Y-102676666D01*
X110348285Y-102638571D01*
X110234000Y-102638571D01*
X110157809Y-102676666D01*
X110119714Y-102714761D01*
X110081619Y-102790952D01*
X110081619Y-103019523D01*
X110119714Y-103095714D01*
X110157809Y-103133809D01*
X110234000Y-103171904D01*
X110348285Y-103171904D01*
X109814952Y-102638571D02*
X109624476Y-103171904D01*
X109434000Y-102638571D01*
X108824476Y-103133809D02*
X108900666Y-103171904D01*
X109053047Y-103171904D01*
X109129238Y-103133809D01*
X109167333Y-103057619D01*
X109167333Y-102752857D01*
X109129238Y-102676666D01*
X109053047Y-102638571D01*
X108900666Y-102638571D01*
X108824476Y-102676666D01*
X108786380Y-102752857D01*
X108786380Y-102829047D01*
X109167333Y-102905238D01*
X112900666Y-104493809D02*
X112786380Y-104531904D01*
X112595904Y-104531904D01*
X112519714Y-104493809D01*
X112481619Y-104455714D01*
X112443523Y-104379523D01*
X112443523Y-104303333D01*
X112481619Y-104227142D01*
X112519714Y-104189047D01*
X112595904Y-104150952D01*
X112748285Y-104112857D01*
X112824476Y-104074761D01*
X112862571Y-104036666D01*
X112900666Y-103960476D01*
X112900666Y-103884285D01*
X112862571Y-103808095D01*
X112824476Y-103770000D01*
X112748285Y-103731904D01*
X112557809Y-103731904D01*
X112443523Y-103770000D01*
X112214952Y-103998571D02*
X111910190Y-103998571D01*
X112100666Y-103731904D02*
X112100666Y-104417619D01*
X112062571Y-104493809D01*
X111986380Y-104531904D01*
X111910190Y-104531904D01*
X111300666Y-103998571D02*
X111300666Y-104531904D01*
X111643523Y-103998571D02*
X111643523Y-104417619D01*
X111605428Y-104493809D01*
X111529238Y-104531904D01*
X111414952Y-104531904D01*
X111338761Y-104493809D01*
X111300666Y-104455714D01*
X110576857Y-104531904D02*
X110576857Y-103731904D01*
X110576857Y-104493809D02*
X110653047Y-104531904D01*
X110805428Y-104531904D01*
X110881619Y-104493809D01*
X110919714Y-104455714D01*
X110957809Y-104379523D01*
X110957809Y-104150952D01*
X110919714Y-104074761D01*
X110881619Y-104036666D01*
X110805428Y-103998571D01*
X110653047Y-103998571D01*
X110576857Y-104036666D01*
X110195904Y-104531904D02*
X110195904Y-103998571D01*
X110195904Y-103731904D02*
X110234000Y-103770000D01*
X110195904Y-103808095D01*
X110157809Y-103770000D01*
X110195904Y-103731904D01*
X110195904Y-103808095D01*
X109700666Y-104531904D02*
X109776857Y-104493809D01*
X109814952Y-104455714D01*
X109853047Y-104379523D01*
X109853047Y-104150952D01*
X109814952Y-104074761D01*
X109776857Y-104036666D01*
X109700666Y-103998571D01*
X109586380Y-103998571D01*
X109510190Y-104036666D01*
X109472095Y-104074761D01*
X109434000Y-104150952D01*
X109434000Y-104379523D01*
X109472095Y-104455714D01*
X109510190Y-104493809D01*
X109586380Y-104531904D01*
X109700666Y-104531904D01*
X109129238Y-104493809D02*
X109053047Y-104531904D01*
X108900666Y-104531904D01*
X108824476Y-104493809D01*
X108786380Y-104417619D01*
X108786380Y-104379523D01*
X108824476Y-104303333D01*
X108900666Y-104265238D01*
X109014952Y-104265238D01*
X109091142Y-104227142D01*
X109129238Y-104150952D01*
X109129238Y-104112857D01*
X109091142Y-104036666D01*
X109014952Y-103998571D01*
X108900666Y-103998571D01*
X108824476Y-104036666D01*
D12*
G36*
X105786799Y-112369252D02*
X105919802Y-112365885D01*
X106027495Y-112359401D01*
X106118366Y-112349261D01*
X106200900Y-112334928D01*
X106212666Y-112332473D01*
X106573956Y-112234890D01*
X106914488Y-112101199D01*
X107232430Y-111933138D01*
X107525953Y-111732448D01*
X107793225Y-111500868D01*
X108032415Y-111240138D01*
X108241693Y-110951998D01*
X108419227Y-110638186D01*
X108563187Y-110300442D01*
X108653080Y-110013705D01*
X108674162Y-109933204D01*
X108690181Y-109865538D01*
X108701848Y-109802898D01*
X108709873Y-109737471D01*
X108714968Y-109661447D01*
X108717844Y-109567016D01*
X108719211Y-109446367D01*
X108719781Y-109291690D01*
X108719806Y-109280583D01*
X108720026Y-109124413D01*
X108719394Y-109002584D01*
X108717178Y-108907104D01*
X108712647Y-108829979D01*
X108705067Y-108763219D01*
X108693706Y-108698831D01*
X108677832Y-108628822D01*
X108656713Y-108545201D01*
X108650064Y-108519436D01*
X108561171Y-108223335D01*
X108452797Y-107955001D01*
X108319021Y-107702097D01*
X108153918Y-107452285D01*
X108107633Y-107389638D01*
X107879154Y-107120327D01*
X107621947Y-106878910D01*
X107340026Y-106667796D01*
X107037409Y-106489393D01*
X106718109Y-106346109D01*
X106386142Y-106240351D01*
X106092195Y-106181044D01*
X105994245Y-106171016D01*
X105866877Y-106164475D01*
X105720765Y-106161328D01*
X105566585Y-106161486D01*
X105415011Y-106164858D01*
X105276717Y-106171353D01*
X105162378Y-106180880D01*
X105101416Y-106189467D01*
X104744282Y-106275428D01*
X104405140Y-106398073D01*
X104086234Y-106555378D01*
X103789808Y-106745322D01*
X103518105Y-106965881D01*
X103273368Y-107215032D01*
X103057842Y-107490753D01*
X102873768Y-107791019D01*
X102723392Y-108113809D01*
X102616382Y-108430190D01*
X102570203Y-108612491D01*
X102538135Y-108785172D01*
X102518845Y-108960727D01*
X102511003Y-109151645D01*
X102512980Y-109342091D01*
X102581105Y-109342091D01*
X102590781Y-109006339D01*
X102638387Y-108671894D01*
X102724680Y-108342038D01*
X102850414Y-108020051D01*
X102907989Y-107901808D01*
X103057157Y-107636907D01*
X103216838Y-107404579D01*
X103394437Y-107195179D01*
X103597358Y-106999062D01*
X103608538Y-106989224D01*
X103849242Y-106795627D01*
X104095559Y-106633565D01*
X104353866Y-106500252D01*
X104630539Y-106392897D01*
X104931954Y-106308714D01*
X105264487Y-106244912D01*
X105334250Y-106234501D01*
X105417426Y-106228234D01*
X105531917Y-106227320D01*
X105667128Y-106231154D01*
X105812461Y-106239132D01*
X105957321Y-106250647D01*
X106091109Y-106265096D01*
X106203231Y-106281873D01*
X106220228Y-106285080D01*
X106562939Y-106373576D01*
X106889334Y-106500432D01*
X107197249Y-106664114D01*
X107484522Y-106863084D01*
X107748990Y-107095807D01*
X107988490Y-107360747D01*
X108200858Y-107656367D01*
X108240292Y-107719707D01*
X108388651Y-107999307D01*
X108507224Y-108301744D01*
X108597775Y-108631734D01*
X108618455Y-108730250D01*
X108638525Y-108869649D01*
X108651228Y-109037940D01*
X108656573Y-109222327D01*
X108654570Y-109410018D01*
X108645228Y-109588218D01*
X108628557Y-109744132D01*
X108617625Y-109808982D01*
X108528164Y-110158498D01*
X108401865Y-110490881D01*
X108240873Y-110803589D01*
X108047329Y-111094080D01*
X107823377Y-111359811D01*
X107571160Y-111598238D01*
X107292820Y-111806820D01*
X106990500Y-111983012D01*
X106666539Y-112124201D01*
X106482880Y-112182717D01*
X106278175Y-112232580D01*
X106064258Y-112271951D01*
X105852962Y-112298988D01*
X105656121Y-112311849D01*
X105485568Y-112308694D01*
X105482416Y-112308448D01*
X105117264Y-112262983D01*
X104777784Y-112185933D01*
X104459848Y-112075777D01*
X104159327Y-111930997D01*
X103872092Y-111750073D01*
X103778500Y-111681404D01*
X103511940Y-111453323D01*
X103277264Y-111200298D01*
X103075229Y-110925612D01*
X102906590Y-110632544D01*
X102772102Y-110324377D01*
X102672521Y-110004391D01*
X102608604Y-109675869D01*
X102581105Y-109342091D01*
X102512980Y-109342091D01*
X102513275Y-109370418D01*
X102513909Y-109391231D01*
X102519203Y-109532311D01*
X102526029Y-109643665D01*
X102536087Y-109737903D01*
X102551076Y-109827633D01*
X102572697Y-109925462D01*
X102601074Y-110037958D01*
X102710648Y-110378211D01*
X102856575Y-110700881D01*
X103036315Y-111003236D01*
X103247328Y-111282546D01*
X103487074Y-111536083D01*
X103753011Y-111761115D01*
X104042601Y-111954914D01*
X104353303Y-112114748D01*
X104633716Y-112222392D01*
X104792418Y-112272132D01*
X104930334Y-112309526D01*
X105058664Y-112336251D01*
X105188605Y-112353983D01*
X105331357Y-112364398D01*
X105498118Y-112369174D01*
X105620000Y-112370040D01*
X105786799Y-112369252D01*
X105786799Y-112369252D01*
G37*
X105786799Y-112369252D02*
X105919802Y-112365885D01*
X106027495Y-112359401D01*
X106118366Y-112349261D01*
X106200900Y-112334928D01*
X106212666Y-112332473D01*
X106573956Y-112234890D01*
X106914488Y-112101199D01*
X107232430Y-111933138D01*
X107525953Y-111732448D01*
X107793225Y-111500868D01*
X108032415Y-111240138D01*
X108241693Y-110951998D01*
X108419227Y-110638186D01*
X108563187Y-110300442D01*
X108653080Y-110013705D01*
X108674162Y-109933204D01*
X108690181Y-109865538D01*
X108701848Y-109802898D01*
X108709873Y-109737471D01*
X108714968Y-109661447D01*
X108717844Y-109567016D01*
X108719211Y-109446367D01*
X108719781Y-109291690D01*
X108719806Y-109280583D01*
X108720026Y-109124413D01*
X108719394Y-109002584D01*
X108717178Y-108907104D01*
X108712647Y-108829979D01*
X108705067Y-108763219D01*
X108693706Y-108698831D01*
X108677832Y-108628822D01*
X108656713Y-108545201D01*
X108650064Y-108519436D01*
X108561171Y-108223335D01*
X108452797Y-107955001D01*
X108319021Y-107702097D01*
X108153918Y-107452285D01*
X108107633Y-107389638D01*
X107879154Y-107120327D01*
X107621947Y-106878910D01*
X107340026Y-106667796D01*
X107037409Y-106489393D01*
X106718109Y-106346109D01*
X106386142Y-106240351D01*
X106092195Y-106181044D01*
X105994245Y-106171016D01*
X105866877Y-106164475D01*
X105720765Y-106161328D01*
X105566585Y-106161486D01*
X105415011Y-106164858D01*
X105276717Y-106171353D01*
X105162378Y-106180880D01*
X105101416Y-106189467D01*
X104744282Y-106275428D01*
X104405140Y-106398073D01*
X104086234Y-106555378D01*
X103789808Y-106745322D01*
X103518105Y-106965881D01*
X103273368Y-107215032D01*
X103057842Y-107490753D01*
X102873768Y-107791019D01*
X102723392Y-108113809D01*
X102616382Y-108430190D01*
X102570203Y-108612491D01*
X102538135Y-108785172D01*
X102518845Y-108960727D01*
X102511003Y-109151645D01*
X102512980Y-109342091D01*
X102581105Y-109342091D01*
X102590781Y-109006339D01*
X102638387Y-108671894D01*
X102724680Y-108342038D01*
X102850414Y-108020051D01*
X102907989Y-107901808D01*
X103057157Y-107636907D01*
X103216838Y-107404579D01*
X103394437Y-107195179D01*
X103597358Y-106999062D01*
X103608538Y-106989224D01*
X103849242Y-106795627D01*
X104095559Y-106633565D01*
X104353866Y-106500252D01*
X104630539Y-106392897D01*
X104931954Y-106308714D01*
X105264487Y-106244912D01*
X105334250Y-106234501D01*
X105417426Y-106228234D01*
X105531917Y-106227320D01*
X105667128Y-106231154D01*
X105812461Y-106239132D01*
X105957321Y-106250647D01*
X106091109Y-106265096D01*
X106203231Y-106281873D01*
X106220228Y-106285080D01*
X106562939Y-106373576D01*
X106889334Y-106500432D01*
X107197249Y-106664114D01*
X107484522Y-106863084D01*
X107748990Y-107095807D01*
X107988490Y-107360747D01*
X108200858Y-107656367D01*
X108240292Y-107719707D01*
X108388651Y-107999307D01*
X108507224Y-108301744D01*
X108597775Y-108631734D01*
X108618455Y-108730250D01*
X108638525Y-108869649D01*
X108651228Y-109037940D01*
X108656573Y-109222327D01*
X108654570Y-109410018D01*
X108645228Y-109588218D01*
X108628557Y-109744132D01*
X108617625Y-109808982D01*
X108528164Y-110158498D01*
X108401865Y-110490881D01*
X108240873Y-110803589D01*
X108047329Y-111094080D01*
X107823377Y-111359811D01*
X107571160Y-111598238D01*
X107292820Y-111806820D01*
X106990500Y-111983012D01*
X106666539Y-112124201D01*
X106482880Y-112182717D01*
X106278175Y-112232580D01*
X106064258Y-112271951D01*
X105852962Y-112298988D01*
X105656121Y-112311849D01*
X105485568Y-112308694D01*
X105482416Y-112308448D01*
X105117264Y-112262983D01*
X104777784Y-112185933D01*
X104459848Y-112075777D01*
X104159327Y-111930997D01*
X103872092Y-111750073D01*
X103778500Y-111681404D01*
X103511940Y-111453323D01*
X103277264Y-111200298D01*
X103075229Y-110925612D01*
X102906590Y-110632544D01*
X102772102Y-110324377D01*
X102672521Y-110004391D01*
X102608604Y-109675869D01*
X102581105Y-109342091D01*
X102512980Y-109342091D01*
X102513275Y-109370418D01*
X102513909Y-109391231D01*
X102519203Y-109532311D01*
X102526029Y-109643665D01*
X102536087Y-109737903D01*
X102551076Y-109827633D01*
X102572697Y-109925462D01*
X102601074Y-110037958D01*
X102710648Y-110378211D01*
X102856575Y-110700881D01*
X103036315Y-111003236D01*
X103247328Y-111282546D01*
X103487074Y-111536083D01*
X103753011Y-111761115D01*
X104042601Y-111954914D01*
X104353303Y-112114748D01*
X104633716Y-112222392D01*
X104792418Y-112272132D01*
X104930334Y-112309526D01*
X105058664Y-112336251D01*
X105188605Y-112353983D01*
X105331357Y-112364398D01*
X105498118Y-112369174D01*
X105620000Y-112370040D01*
X105786799Y-112369252D01*
G36*
X105630861Y-111663425D02*
X105638365Y-111610970D01*
X105641166Y-111535042D01*
X105641166Y-111387058D01*
X106704791Y-111381571D01*
X107768416Y-111376083D01*
X107779398Y-109291167D01*
X107906199Y-109291167D01*
X107973765Y-109287949D01*
X108019564Y-109279545D01*
X108033000Y-109270000D01*
X108013894Y-109258254D01*
X107964746Y-109250568D01*
X107920111Y-109248833D01*
X107844337Y-109243868D01*
X107805239Y-109229499D01*
X107800876Y-109222375D01*
X107799350Y-109196501D01*
X107797418Y-109132506D01*
X107795159Y-109034600D01*
X107792649Y-108906992D01*
X107789966Y-108753892D01*
X107787188Y-108579511D01*
X107784393Y-108388057D01*
X107781657Y-108183740D01*
X107781474Y-108169333D01*
X107768416Y-107142750D01*
X106704791Y-107137263D01*
X105641166Y-107131775D01*
X105641166Y-106994388D01*
X105638172Y-106922569D01*
X105630241Y-106873408D01*
X105620000Y-106857000D01*
X105608939Y-106876440D01*
X105601366Y-106927935D01*
X105598833Y-106994583D01*
X105598833Y-107132167D01*
X103503333Y-107132167D01*
X103503333Y-107151745D01*
X106064500Y-107151745D01*
X106260291Y-107157831D01*
X106456083Y-107163917D01*
X106462325Y-107318505D01*
X106461646Y-107418110D01*
X106450660Y-107464952D01*
X106487833Y-107464952D01*
X106487833Y-107151745D01*
X106683625Y-107157831D01*
X106879416Y-107163917D01*
X106885645Y-107330583D01*
X106887981Y-107413431D01*
X106886236Y-107461661D01*
X106878798Y-107482916D01*
X106864056Y-107484838D01*
X106853895Y-107481130D01*
X106733147Y-107441092D01*
X106629999Y-107432672D01*
X106572500Y-107442353D01*
X106487833Y-107464952D01*
X106450660Y-107464952D01*
X106445868Y-107485382D01*
X106408651Y-107526451D01*
X106343654Y-107547449D01*
X106244536Y-107554507D01*
X106217958Y-107554796D01*
X106064500Y-107555500D01*
X106932333Y-107555500D01*
X106932333Y-107153333D01*
X107313333Y-107153333D01*
X107313333Y-107555500D01*
X107355666Y-107555500D01*
X107355666Y-107153333D01*
X107736666Y-107153333D01*
X107736666Y-107555500D01*
X107355666Y-107555500D01*
X107313333Y-107555500D01*
X106932333Y-107555500D01*
X106064500Y-107555500D01*
X106064500Y-107151745D01*
X103503333Y-107151745D01*
X103503333Y-107555500D01*
X103524500Y-107555500D01*
X103524500Y-107368528D01*
X103526001Y-107283350D01*
X103530014Y-107215005D01*
X103535799Y-107174009D01*
X103538611Y-107167445D01*
X103564821Y-107161129D01*
X103622843Y-107156274D01*
X103702161Y-107153617D01*
X103739694Y-107153333D01*
X103926666Y-107153333D01*
X103926666Y-107555500D01*
X103947833Y-107555500D01*
X103947833Y-107368528D01*
X103949334Y-107283350D01*
X103953347Y-107215005D01*
X103959133Y-107174009D01*
X103961944Y-107167445D01*
X103988154Y-107161129D01*
X104046176Y-107156274D01*
X104125494Y-107153617D01*
X104163027Y-107153333D01*
X104350000Y-107153333D01*
X104350000Y-107555500D01*
X104371166Y-107555500D01*
X104371166Y-107153333D01*
X104773333Y-107153333D01*
X104773333Y-107555500D01*
X104794500Y-107555500D01*
X104794500Y-107153333D01*
X105196666Y-107153333D01*
X105196666Y-107555500D01*
X105217833Y-107555500D01*
X105217833Y-107153333D01*
X105598833Y-107153333D01*
X105598833Y-107555500D01*
X105641166Y-107555500D01*
X105641166Y-107153333D01*
X106043333Y-107153333D01*
X106043333Y-107555500D01*
X105641166Y-107555500D01*
X105598833Y-107555500D01*
X105217833Y-107555500D01*
X105196666Y-107555500D01*
X104794500Y-107555500D01*
X104773333Y-107555500D01*
X104371166Y-107555500D01*
X104350000Y-107555500D01*
X103947833Y-107555500D01*
X103926666Y-107555500D01*
X103524500Y-107555500D01*
X103503333Y-107555500D01*
X103503333Y-107978833D01*
X103524500Y-107978833D01*
X103524500Y-107576667D01*
X103926666Y-107576667D01*
X103926666Y-107978833D01*
X103947833Y-107978833D01*
X103947833Y-107576667D01*
X104350000Y-107576667D01*
X104350000Y-107978833D01*
X104371166Y-107978833D01*
X104371166Y-107576667D01*
X104773333Y-107576667D01*
X104773333Y-107978833D01*
X104794500Y-107978833D01*
X104794500Y-107576667D01*
X105196666Y-107576667D01*
X105196666Y-107978833D01*
X105217833Y-107978833D01*
X105217833Y-107576667D01*
X105598833Y-107576667D01*
X105598833Y-107978833D01*
X105641166Y-107978833D01*
X105641166Y-107576667D01*
X106043333Y-107576667D01*
X106043333Y-107777750D01*
X106064500Y-107777750D01*
X106064500Y-107576667D01*
X106339993Y-107576667D01*
X106994656Y-107576667D01*
X107313333Y-107576667D01*
X107313333Y-107777750D01*
X107310998Y-107883227D01*
X107303409Y-107948266D01*
X107289689Y-107974537D01*
X107268959Y-107963709D01*
X107240345Y-107917451D01*
X107240133Y-107917043D01*
X107211971Y-107870731D01*
X107166400Y-107804178D01*
X107112331Y-107730300D01*
X107101418Y-107715959D01*
X106994656Y-107576667D01*
X106339993Y-107576667D01*
X106257149Y-107698375D01*
X106207928Y-107774304D01*
X106163193Y-107849434D01*
X106136648Y-107899458D01*
X106109473Y-107948809D01*
X106098897Y-107961811D01*
X106255000Y-107961811D01*
X106266237Y-107931533D01*
X106295275Y-107879996D01*
X106335099Y-107817514D01*
X106378696Y-107754398D01*
X106419051Y-107700961D01*
X106449151Y-107667515D01*
X106459363Y-107661333D01*
X106462854Y-107680775D01*
X106465437Y-107732200D01*
X106466634Y-107805263D01*
X106466666Y-107820083D01*
X106466666Y-107978833D01*
X106487833Y-107978833D01*
X106487833Y-107799969D01*
X106489299Y-107708954D01*
X106494806Y-107651225D01*
X106506011Y-107617802D01*
X106524575Y-107599704D01*
X106524875Y-107599529D01*
X106591225Y-107579847D01*
X106676521Y-107579101D01*
X106762531Y-107595978D01*
X106818709Y-107620727D01*
X106855156Y-107644970D01*
X106876419Y-107669275D01*
X106886589Y-107705179D01*
X106889757Y-107764221D01*
X106890000Y-107821810D01*
X106890000Y-107978833D01*
X106932333Y-107978833D01*
X106932333Y-107851833D01*
X106933471Y-107784840D01*
X106936431Y-107738820D01*
X106939849Y-107724833D01*
X106954709Y-107740828D01*
X106986992Y-107783044D01*
X107030119Y-107842833D01*
X107036451Y-107851833D01*
X107125537Y-107978833D01*
X107355666Y-107978833D01*
X107355666Y-107576667D01*
X107736666Y-107576667D01*
X107736666Y-107978833D01*
X107355666Y-107978833D01*
X107125537Y-107978833D01*
X106932333Y-107978833D01*
X106890000Y-107978833D01*
X106487833Y-107978833D01*
X106466666Y-107978833D01*
X106360833Y-107978833D01*
X106300452Y-107975771D01*
X106262134Y-107967939D01*
X106255000Y-107961811D01*
X106098897Y-107961811D01*
X106086872Y-107976594D01*
X106081746Y-107978833D01*
X106074335Y-107959203D01*
X106068520Y-107906438D01*
X106065087Y-107829730D01*
X106064500Y-107777750D01*
X106043333Y-107777750D01*
X106043333Y-107978833D01*
X105641166Y-107978833D01*
X105598833Y-107978833D01*
X105217833Y-107978833D01*
X105196666Y-107978833D01*
X104794500Y-107978833D01*
X104773333Y-107978833D01*
X104371166Y-107978833D01*
X104350000Y-107978833D01*
X103947833Y-107978833D01*
X103926666Y-107978833D01*
X103524500Y-107978833D01*
X103503333Y-107978833D01*
X103503333Y-108402167D01*
X103524500Y-108402167D01*
X103524500Y-108000000D01*
X103926666Y-108000000D01*
X103926666Y-108402167D01*
X103947833Y-108402167D01*
X103947833Y-108000000D01*
X104350000Y-108000000D01*
X104350000Y-108402167D01*
X104371166Y-108402167D01*
X104371166Y-108000000D01*
X104773333Y-108000000D01*
X104773333Y-108402167D01*
X104794500Y-108402167D01*
X104794500Y-108000000D01*
X105196666Y-108000000D01*
X105196666Y-108402167D01*
X105217833Y-108402167D01*
X105217833Y-108000000D01*
X105598833Y-108000000D01*
X105641166Y-108000000D01*
X105842250Y-108000000D01*
X105936626Y-108000892D01*
X105996279Y-108004470D01*
X106022383Y-108010583D01*
X106064500Y-108010583D01*
X106075083Y-108000000D01*
X106085666Y-108010583D01*
X106075083Y-108021167D01*
X106064500Y-108010583D01*
X106022383Y-108010583D01*
X106028798Y-108012085D01*
X106041772Y-108025091D01*
X106043333Y-108035838D01*
X106035494Y-108071170D01*
X106014647Y-108133593D01*
X105984798Y-108211430D01*
X105974541Y-108236388D01*
X105916823Y-108374589D01*
X106064500Y-108374589D01*
X106073273Y-108344204D01*
X106096749Y-108286208D01*
X106130655Y-108210834D01*
X106148405Y-108173506D01*
X106232310Y-108000000D01*
X106466666Y-108000000D01*
X106466666Y-108402167D01*
X106487833Y-108402167D01*
X106487833Y-108000000D01*
X106890000Y-108000000D01*
X106890000Y-108402167D01*
X106932333Y-108402167D01*
X106932333Y-108000000D01*
X107139714Y-108000000D01*
X107150646Y-108021167D01*
X107292166Y-108021167D01*
X107299388Y-108000550D01*
X107301500Y-108000000D01*
X107319572Y-108014832D01*
X107323916Y-108021167D01*
X107322238Y-108040672D01*
X107314582Y-108042333D01*
X107293028Y-108026968D01*
X107292166Y-108021167D01*
X107150646Y-108021167D01*
X107171283Y-108061124D01*
X107355666Y-108061124D01*
X107355666Y-108000000D01*
X107736666Y-108000000D01*
X107736666Y-108402167D01*
X107486656Y-108402167D01*
X107421161Y-108262207D01*
X107388297Y-108183671D01*
X107364790Y-108111644D01*
X107355668Y-108061563D01*
X107355666Y-108061124D01*
X107171283Y-108061124D01*
X107237107Y-108188571D01*
X107278160Y-108269231D01*
X107310666Y-108335330D01*
X107330446Y-108378241D01*
X107334500Y-108389654D01*
X107314867Y-108395031D01*
X107262098Y-108399250D01*
X107185385Y-108401740D01*
X107133416Y-108402167D01*
X106932333Y-108402167D01*
X106890000Y-108402167D01*
X106487833Y-108402167D01*
X106466666Y-108402167D01*
X106265583Y-108402167D01*
X106166162Y-108400607D01*
X106103341Y-108395412D01*
X106071482Y-108385808D01*
X106064500Y-108374589D01*
X105916823Y-108374589D01*
X105905750Y-108401101D01*
X105641166Y-108402167D01*
X105641166Y-108000000D01*
X105598833Y-108000000D01*
X105598833Y-108402167D01*
X105217833Y-108402167D01*
X105196666Y-108402167D01*
X104794500Y-108402167D01*
X104773333Y-108402167D01*
X104371166Y-108402167D01*
X104350000Y-108402167D01*
X103947833Y-108402167D01*
X103926666Y-108402167D01*
X103524500Y-108402167D01*
X103503333Y-108402167D01*
X103503333Y-108825500D01*
X103524500Y-108825500D01*
X103524500Y-108423333D01*
X103926666Y-108423333D01*
X103926666Y-108825500D01*
X103947833Y-108825500D01*
X103947833Y-108423333D01*
X104350000Y-108423333D01*
X104350000Y-108825500D01*
X104371166Y-108825500D01*
X104371166Y-108423333D01*
X104773333Y-108423333D01*
X104773333Y-108825500D01*
X104794500Y-108825500D01*
X104794500Y-108423333D01*
X105196666Y-108423333D01*
X105196666Y-108825500D01*
X105217833Y-108825500D01*
X105217833Y-108423333D01*
X105598833Y-108423333D01*
X105598833Y-108625889D01*
X105641166Y-108625889D01*
X105641166Y-108423333D01*
X105892110Y-108423333D01*
X105812867Y-108619125D01*
X105772737Y-108713636D01*
X105741544Y-108774446D01*
X105715212Y-108808139D01*
X105714424Y-108808545D01*
X105877527Y-108808545D01*
X105888276Y-108782448D01*
X105910979Y-108727174D01*
X105941533Y-108652716D01*
X105955754Y-108618045D01*
X105988230Y-108540949D01*
X106014932Y-108481444D01*
X106031809Y-108448388D01*
X106035129Y-108444500D01*
X106038742Y-108464092D01*
X106041543Y-108516569D01*
X106043126Y-108592487D01*
X106043333Y-108635000D01*
X106043333Y-108825500D01*
X106064500Y-108825500D01*
X106064500Y-108423333D01*
X106466666Y-108423333D01*
X106466666Y-108825500D01*
X106487833Y-108825500D01*
X106487833Y-108423333D01*
X106890000Y-108423333D01*
X106890000Y-108825500D01*
X106932333Y-108825500D01*
X106932333Y-108423333D01*
X107313333Y-108423333D01*
X107313333Y-108825500D01*
X107355666Y-108825500D01*
X107357234Y-108640292D01*
X107358803Y-108455083D01*
X107362331Y-108462746D01*
X107512263Y-108462746D01*
X107519617Y-108436089D01*
X107553112Y-108425355D01*
X107614946Y-108423335D01*
X107618823Y-108423333D01*
X107736666Y-108423333D01*
X107736666Y-108624417D01*
X107735973Y-108718018D01*
X107732838Y-108777109D01*
X107725680Y-108809504D01*
X107712918Y-108823019D01*
X107695974Y-108825500D01*
X107660512Y-108808448D01*
X107632329Y-108754239D01*
X107629610Y-108746125D01*
X107601360Y-108669974D01*
X107568406Y-108595145D01*
X107567184Y-108592667D01*
X107528852Y-108512536D01*
X107512263Y-108462746D01*
X107362331Y-108462746D01*
X107421068Y-108590313D01*
X107454539Y-108666194D01*
X107481571Y-108733250D01*
X107495878Y-108775521D01*
X107499937Y-108808616D01*
X107482503Y-108822593D01*
X107433299Y-108825500D01*
X107355666Y-108825500D01*
X107313333Y-108825500D01*
X106932333Y-108825500D01*
X106890000Y-108825500D01*
X106487833Y-108825500D01*
X106466666Y-108825500D01*
X106064500Y-108825500D01*
X106043333Y-108825500D01*
X105956902Y-108825500D01*
X105905131Y-108821871D01*
X105878501Y-108812768D01*
X105877527Y-108808545D01*
X105714424Y-108808545D01*
X105689663Y-108821298D01*
X105687395Y-108821681D01*
X105666038Y-108822785D01*
X105652535Y-108813450D01*
X105645088Y-108786065D01*
X105641900Y-108733018D01*
X105641174Y-108646697D01*
X105641166Y-108625889D01*
X105598833Y-108625889D01*
X105598833Y-108825500D01*
X105217833Y-108825500D01*
X105196666Y-108825500D01*
X104794500Y-108825500D01*
X104773333Y-108825500D01*
X104371166Y-108825500D01*
X104350000Y-108825500D01*
X103947833Y-108825500D01*
X103926666Y-108825500D01*
X103524500Y-108825500D01*
X103503333Y-108825500D01*
X103503333Y-109034902D01*
X103524500Y-109034902D01*
X103524500Y-108846667D01*
X103926666Y-108846667D01*
X103926666Y-109248833D01*
X103947833Y-109248833D01*
X103947833Y-108846667D01*
X104350000Y-108846667D01*
X104350000Y-109248833D01*
X104371166Y-109248833D01*
X104371166Y-108846667D01*
X104773333Y-108846667D01*
X104773333Y-109248833D01*
X104794500Y-109248833D01*
X104794500Y-108846667D01*
X105196666Y-108846667D01*
X105196666Y-109248833D01*
X105217833Y-109248833D01*
X105217833Y-108846667D01*
X105598833Y-108846667D01*
X105598644Y-108947208D01*
X105642776Y-108947208D01*
X105645319Y-108882889D01*
X105657236Y-108852304D01*
X105672916Y-108846667D01*
X105700093Y-108860741D01*
X105703056Y-108873125D01*
X105694784Y-108909365D01*
X105676549Y-108964054D01*
X105672916Y-108973667D01*
X105644387Y-109047750D01*
X105642776Y-108947208D01*
X105598644Y-108947208D01*
X105598544Y-109000125D01*
X105597716Y-109105835D01*
X105591823Y-109176342D01*
X105575043Y-109218771D01*
X105541554Y-109240247D01*
X105485533Y-109247893D01*
X105401337Y-109248833D01*
X105705284Y-109248833D01*
X105749689Y-109137708D01*
X105782385Y-109054914D01*
X105814966Y-108970912D01*
X105828029Y-108936625D01*
X105851589Y-108881227D01*
X105876787Y-108855044D01*
X105918744Y-108847159D01*
X105952648Y-108846667D01*
X106043333Y-108846667D01*
X106043333Y-109248833D01*
X106064500Y-109248833D01*
X106064500Y-108846667D01*
X106466666Y-108846667D01*
X106466666Y-109248833D01*
X106487833Y-109248833D01*
X106487833Y-108846667D01*
X106890000Y-108846667D01*
X106890000Y-109248833D01*
X106932333Y-109248833D01*
X106932333Y-108846667D01*
X107313333Y-108846667D01*
X107313333Y-109248833D01*
X107355666Y-109248833D01*
X107355666Y-108844233D01*
X107444204Y-108850741D01*
X107501714Y-108854969D01*
X107675867Y-108854969D01*
X107687250Y-108847213D01*
X107704916Y-108846667D01*
X107727401Y-108861150D01*
X107735693Y-108908740D01*
X107735838Y-108926042D01*
X107735009Y-109005417D01*
X107704088Y-108934195D01*
X107681513Y-108880442D01*
X107675867Y-108854969D01*
X107501714Y-108854969D01*
X107532742Y-108857250D01*
X107602922Y-109037167D01*
X107633882Y-109118168D01*
X107657872Y-109184033D01*
X107671391Y-109225004D01*
X107673134Y-109232958D01*
X107653713Y-109240547D01*
X107602310Y-109246160D01*
X107529266Y-109248764D01*
X107514416Y-109248833D01*
X107355666Y-109248833D01*
X107313333Y-109248833D01*
X106932333Y-109248833D01*
X106890000Y-109248833D01*
X106487833Y-109248833D01*
X106466666Y-109248833D01*
X106064500Y-109248833D01*
X106043333Y-109248833D01*
X105705284Y-109248833D01*
X105401337Y-109248833D01*
X105401157Y-109248835D01*
X105395281Y-109248833D01*
X105217833Y-109248833D01*
X105196666Y-109248833D01*
X104794500Y-109248833D01*
X104773333Y-109248833D01*
X104371166Y-109248833D01*
X104350000Y-109248833D01*
X103947833Y-109248833D01*
X103926666Y-109248833D01*
X103759064Y-109248833D01*
X103656922Y-109248298D01*
X103589769Y-109242236D01*
X103550278Y-109223964D01*
X103531121Y-109186798D01*
X103524970Y-109124057D01*
X103524500Y-109034902D01*
X103503333Y-109034902D01*
X103503333Y-109248833D01*
X103343334Y-109248833D01*
X103257827Y-109251385D01*
X103207800Y-109258715D01*
X103196416Y-109270000D01*
X103223113Y-109281426D01*
X103278664Y-109289111D01*
X103332780Y-109291167D01*
X103588617Y-109291167D01*
X103926666Y-109291167D01*
X103926666Y-109672167D01*
X103947833Y-109672167D01*
X103947833Y-109291167D01*
X104350000Y-109291167D01*
X104350000Y-109672167D01*
X104371166Y-109672167D01*
X104371166Y-109291167D01*
X104773333Y-109291167D01*
X104773333Y-109672167D01*
X104794500Y-109672167D01*
X104794500Y-109291167D01*
X105196666Y-109291167D01*
X105196666Y-109672167D01*
X105217833Y-109672167D01*
X105217833Y-109291167D01*
X105552578Y-109291167D01*
X105411185Y-109646267D01*
X105563251Y-109646267D01*
X105570654Y-109596885D01*
X105571086Y-109595289D01*
X105587733Y-109534583D01*
X105594875Y-109594727D01*
X105596235Y-109642237D01*
X105589842Y-109667046D01*
X105572242Y-109672167D01*
X105641166Y-109672167D01*
X105641166Y-109548325D01*
X105645230Y-109466920D01*
X105655649Y-109392115D01*
X105664403Y-109357825D01*
X105687641Y-109291167D01*
X106043333Y-109291167D01*
X106043333Y-109672167D01*
X106064500Y-109672167D01*
X106064500Y-109291167D01*
X106466666Y-109291167D01*
X106466666Y-109672167D01*
X106487833Y-109672167D01*
X106487833Y-109291167D01*
X106890000Y-109291167D01*
X106890000Y-109672167D01*
X106932333Y-109672167D01*
X106932333Y-109291167D01*
X107313333Y-109291167D01*
X107313333Y-109672167D01*
X107355666Y-109672167D01*
X107355666Y-109291167D01*
X107736666Y-109291167D01*
X107736666Y-109672167D01*
X107355666Y-109672167D01*
X107313333Y-109672167D01*
X106932333Y-109672167D01*
X106890000Y-109672167D01*
X106487833Y-109672167D01*
X106466666Y-109672167D01*
X106064500Y-109672167D01*
X106043333Y-109672167D01*
X105641166Y-109672167D01*
X105572242Y-109672167D01*
X105570440Y-109672691D01*
X105563251Y-109646267D01*
X105411185Y-109646267D01*
X105400872Y-109672167D01*
X105217833Y-109672167D01*
X105196666Y-109672167D01*
X104794500Y-109672167D01*
X104773333Y-109672167D01*
X104371166Y-109672167D01*
X104350000Y-109672167D01*
X103947833Y-109672167D01*
X103926666Y-109672167D01*
X103833714Y-109672167D01*
X103797023Y-109672703D01*
X103770310Y-109670390D01*
X103749274Y-109659350D01*
X103729611Y-109633702D01*
X103707020Y-109587567D01*
X103677196Y-109515066D01*
X103635838Y-109410319D01*
X103628471Y-109391708D01*
X103588617Y-109291167D01*
X103332780Y-109291167D01*
X103403804Y-109293127D01*
X103444102Y-109301607D01*
X103465201Y-109320507D01*
X103473557Y-109338792D01*
X103477342Y-109369142D01*
X103481330Y-109437423D01*
X103485398Y-109539234D01*
X103487044Y-109592792D01*
X103525250Y-109592792D01*
X103526000Y-109513417D01*
X103556250Y-109566333D01*
X103578820Y-109614040D01*
X103587249Y-109645708D01*
X103570937Y-109669108D01*
X103556250Y-109672167D01*
X103533741Y-109657641D01*
X103525407Y-109609949D01*
X103525250Y-109592792D01*
X103487044Y-109592792D01*
X103489424Y-109670173D01*
X103493285Y-109825839D01*
X103496861Y-110001831D01*
X103498406Y-110095500D01*
X103524500Y-110095500D01*
X103524500Y-109892945D01*
X103525014Y-109799403D01*
X103527700Y-109740602D01*
X103534266Y-109708952D01*
X103546425Y-109696864D01*
X103565888Y-109696747D01*
X103568638Y-109697153D01*
X103578807Y-109702892D01*
X103757333Y-109702892D01*
X103776132Y-109696903D01*
X103823090Y-109693575D01*
X103842000Y-109693333D01*
X103926666Y-109693333D01*
X103926666Y-109887361D01*
X103925870Y-109970835D01*
X103923734Y-110034290D01*
X103920636Y-110068928D01*
X103918712Y-110072570D01*
X103907006Y-110050194D01*
X103883733Y-109999888D01*
X103853573Y-109932374D01*
X103821206Y-109858375D01*
X103791315Y-109788614D01*
X103768579Y-109733813D01*
X103757680Y-109704696D01*
X103757333Y-109702892D01*
X103578807Y-109702892D01*
X103599609Y-109714631D01*
X103632889Y-109761295D01*
X103672411Y-109842796D01*
X103676430Y-109852083D01*
X103720678Y-109954167D01*
X103749183Y-110023116D01*
X103761275Y-110065352D01*
X103756281Y-110087301D01*
X103733530Y-110095387D01*
X103726338Y-110095500D01*
X103947833Y-110095500D01*
X103947833Y-109693333D01*
X104350000Y-109693333D01*
X104350000Y-110095500D01*
X104371166Y-110095500D01*
X104371166Y-109693333D01*
X104773333Y-109693333D01*
X104773333Y-110095500D01*
X104794500Y-110095500D01*
X104794500Y-109693333D01*
X105196666Y-109693333D01*
X105196666Y-109897945D01*
X105217833Y-109897945D01*
X105217833Y-109693333D01*
X105302500Y-109693333D01*
X105355548Y-109694770D01*
X105385025Y-109698359D01*
X105387166Y-109699804D01*
X105379653Y-109722420D01*
X105359977Y-109773523D01*
X105332430Y-109842598D01*
X105301307Y-109919128D01*
X105270899Y-109992596D01*
X105245502Y-110052488D01*
X105234040Y-110077983D01*
X105387166Y-110077983D01*
X105394646Y-110050843D01*
X105414279Y-109996339D01*
X105441852Y-109926148D01*
X105442512Y-109924524D01*
X105473493Y-109848019D01*
X105500238Y-109781252D01*
X105516072Y-109740958D01*
X105542102Y-109704066D01*
X105566559Y-109693333D01*
X105581902Y-109700179D01*
X105591610Y-109725507D01*
X105596838Y-109776508D01*
X105598739Y-109860371D01*
X105598833Y-109894417D01*
X105598833Y-110095500D01*
X105641166Y-110095500D01*
X105641166Y-109693333D01*
X106043333Y-109693333D01*
X106043333Y-110095500D01*
X106064500Y-110095500D01*
X106064500Y-109693333D01*
X106466666Y-109693333D01*
X106466666Y-110095500D01*
X106487833Y-110095500D01*
X106487833Y-109693333D01*
X106890000Y-109693333D01*
X106890000Y-110095500D01*
X106932333Y-110095500D01*
X106932333Y-109693333D01*
X107313333Y-109693333D01*
X107313333Y-110095500D01*
X107355666Y-110095500D01*
X107355666Y-109693333D01*
X107736666Y-109693333D01*
X107736666Y-110095500D01*
X107355666Y-110095500D01*
X107313333Y-110095500D01*
X106932333Y-110095500D01*
X106890000Y-110095500D01*
X106487833Y-110095500D01*
X106466666Y-110095500D01*
X106064500Y-110095500D01*
X106043333Y-110095500D01*
X105641166Y-110095500D01*
X105598833Y-110095500D01*
X105493000Y-110095500D01*
X105432620Y-110092348D01*
X105394301Y-110084290D01*
X105387166Y-110077983D01*
X105234040Y-110077983D01*
X105229407Y-110088286D01*
X105226340Y-110093736D01*
X105222729Y-110078012D01*
X105219879Y-110028554D01*
X105218163Y-109953959D01*
X105217833Y-109897945D01*
X105196666Y-109897945D01*
X105196666Y-110095500D01*
X104794500Y-110095500D01*
X104773333Y-110095500D01*
X104371166Y-110095500D01*
X104350000Y-110095500D01*
X103947833Y-110095500D01*
X103726338Y-110095500D01*
X103692350Y-110096034D01*
X103650976Y-110095500D01*
X103524500Y-110095500D01*
X103498406Y-110095500D01*
X103500028Y-110193747D01*
X103502484Y-110381250D01*
X103504064Y-110518833D01*
X103524500Y-110518833D01*
X103524500Y-110116667D01*
X103790580Y-110116667D01*
X103796750Y-110129180D01*
X103947833Y-110129180D01*
X103967465Y-110123803D01*
X104020234Y-110119583D01*
X104096947Y-110117093D01*
X104148916Y-110116667D01*
X104350000Y-110116667D01*
X104350000Y-110518833D01*
X104371166Y-110518833D01*
X104371166Y-110116667D01*
X104773333Y-110116667D01*
X104773333Y-110518833D01*
X104794500Y-110518833D01*
X104794500Y-110116667D01*
X104995583Y-110116667D01*
X105091202Y-110117769D01*
X105151707Y-110121844D01*
X105184278Y-110130040D01*
X105196095Y-110143510D01*
X105196666Y-110148887D01*
X105187574Y-110181433D01*
X105163287Y-110240840D01*
X105128290Y-110316484D01*
X105111763Y-110349970D01*
X105060118Y-110452688D01*
X105221222Y-110452688D01*
X105242111Y-110389223D01*
X105283944Y-110294383D01*
X105291382Y-110278059D01*
X105364931Y-110116667D01*
X105598833Y-110116667D01*
X105598833Y-110518833D01*
X105641166Y-110518833D01*
X105641166Y-110116667D01*
X106043333Y-110116667D01*
X106043333Y-110518833D01*
X106064500Y-110518833D01*
X106064500Y-110116667D01*
X106466666Y-110116667D01*
X106466666Y-110518833D01*
X106487833Y-110518833D01*
X106487833Y-110116667D01*
X106890000Y-110116667D01*
X106890000Y-110518833D01*
X106932333Y-110518833D01*
X106932333Y-110116667D01*
X107313333Y-110116667D01*
X107313333Y-110518833D01*
X107355666Y-110518833D01*
X107355666Y-110116667D01*
X107736666Y-110116667D01*
X107736666Y-110518833D01*
X107355666Y-110518833D01*
X107313333Y-110518833D01*
X106932333Y-110518833D01*
X106890000Y-110518833D01*
X106487833Y-110518833D01*
X106466666Y-110518833D01*
X106064500Y-110518833D01*
X106043333Y-110518833D01*
X105641166Y-110518833D01*
X105598833Y-110518833D01*
X105408333Y-110518833D01*
X105314833Y-110517850D01*
X105254522Y-110510700D01*
X105224339Y-110491080D01*
X105221222Y-110452688D01*
X105060118Y-110452688D01*
X105026860Y-110518833D01*
X104794500Y-110518833D01*
X104773333Y-110518833D01*
X104371166Y-110518833D01*
X104350000Y-110518833D01*
X104142619Y-110518833D01*
X104045226Y-110330263D01*
X104004172Y-110249603D01*
X103971666Y-110183503D01*
X103951886Y-110140593D01*
X103947833Y-110129180D01*
X103796750Y-110129180D01*
X103858623Y-110254651D01*
X103892865Y-110332719D01*
X103917304Y-110404907D01*
X103926666Y-110455624D01*
X103926666Y-110487083D01*
X103947833Y-110487083D01*
X103952361Y-110458843D01*
X103956152Y-110455333D01*
X103969800Y-110471885D01*
X103976654Y-110487083D01*
X103977094Y-110514339D01*
X103968335Y-110518833D01*
X103950143Y-110501679D01*
X103947833Y-110487083D01*
X103926666Y-110487083D01*
X103926666Y-110518833D01*
X103524500Y-110518833D01*
X103504064Y-110518833D01*
X103508928Y-110942167D01*
X103524500Y-110942167D01*
X103524500Y-110540000D01*
X103926666Y-110540000D01*
X104157466Y-110540000D01*
X104350000Y-110540000D01*
X104350000Y-110659009D01*
X104349681Y-110676047D01*
X104371166Y-110676047D01*
X104371166Y-110540000D01*
X104773333Y-110540000D01*
X104773333Y-110702983D01*
X104794500Y-110702983D01*
X104794500Y-110540000D01*
X104900333Y-110540000D01*
X104960712Y-110543177D01*
X104999031Y-110551300D01*
X105006166Y-110557658D01*
X104994958Y-110581402D01*
X104966064Y-110628860D01*
X104926577Y-110689424D01*
X104883590Y-110752485D01*
X104844196Y-110807434D01*
X104815489Y-110843662D01*
X104813468Y-110845858D01*
X104803940Y-110837099D01*
X104797372Y-110791997D01*
X104794551Y-110716486D01*
X104794500Y-110702983D01*
X104773333Y-110702983D01*
X104773333Y-110880827D01*
X104702118Y-110910583D01*
X104609907Y-110927128D01*
X104512059Y-110905826D01*
X104426532Y-110855645D01*
X104395920Y-110826894D01*
X104379213Y-110793059D01*
X104372333Y-110740915D01*
X104371166Y-110676047D01*
X104349681Y-110676047D01*
X104348758Y-110725247D01*
X104343238Y-110756510D01*
X104330742Y-110760127D01*
X104316463Y-110750184D01*
X104285211Y-110716914D01*
X104243172Y-110663355D01*
X104220196Y-110631176D01*
X104157466Y-110540000D01*
X103926666Y-110540000D01*
X103926666Y-110942167D01*
X103947833Y-110942167D01*
X103947833Y-110741083D01*
X103950035Y-110634881D01*
X103958378Y-110569648D01*
X103975466Y-110544170D01*
X104003904Y-110557230D01*
X104046298Y-110607614D01*
X104091924Y-110673844D01*
X104143136Y-110747136D01*
X104193482Y-110812549D01*
X104232374Y-110856353D01*
X104233530Y-110857450D01*
X104269354Y-110895737D01*
X104286294Y-110922957D01*
X104286500Y-110924690D01*
X104269504Y-110931767D01*
X104921500Y-110931767D01*
X104933336Y-110910739D01*
X104964056Y-110866734D01*
X104998409Y-110820642D01*
X105050370Y-110746663D01*
X105098455Y-110668542D01*
X105119044Y-110629958D01*
X105148043Y-110577019D01*
X105172052Y-110544686D01*
X105179717Y-110540000D01*
X105187000Y-110559631D01*
X105192715Y-110612396D01*
X105196088Y-110689104D01*
X105196666Y-110741083D01*
X105196666Y-110942167D01*
X105217833Y-110942167D01*
X105217833Y-110540000D01*
X105598833Y-110540000D01*
X105598833Y-110942167D01*
X105641166Y-110942167D01*
X105641166Y-110540000D01*
X106043333Y-110540000D01*
X106043333Y-110942167D01*
X106064500Y-110942167D01*
X106064500Y-110540000D01*
X106466666Y-110540000D01*
X106466666Y-110942167D01*
X106487833Y-110942167D01*
X106487833Y-110540000D01*
X106890000Y-110540000D01*
X106890000Y-110942167D01*
X106932333Y-110942167D01*
X106932333Y-110540000D01*
X107313333Y-110540000D01*
X107313333Y-110942167D01*
X107355666Y-110942167D01*
X107355666Y-110540000D01*
X107736666Y-110540000D01*
X107736666Y-110942167D01*
X107355666Y-110942167D01*
X107313333Y-110942167D01*
X106932333Y-110942167D01*
X106890000Y-110942167D01*
X106487833Y-110942167D01*
X106466666Y-110942167D01*
X106064500Y-110942167D01*
X106043333Y-110942167D01*
X105641166Y-110942167D01*
X105598833Y-110942167D01*
X105217833Y-110942167D01*
X105196666Y-110942167D01*
X105059083Y-110942167D01*
X104989009Y-110940707D01*
X104939453Y-110936888D01*
X104921500Y-110931767D01*
X104269504Y-110931767D01*
X104267008Y-110932806D01*
X104215209Y-110938918D01*
X104141117Y-110941991D01*
X104117166Y-110942167D01*
X103947833Y-110942167D01*
X103926666Y-110942167D01*
X103524500Y-110942167D01*
X103508928Y-110942167D01*
X103509172Y-110963333D01*
X103522911Y-110963333D01*
X103926666Y-110963333D01*
X103946244Y-110963333D01*
X104350000Y-110963333D01*
X104350000Y-111365500D01*
X104371166Y-111365500D01*
X104371166Y-110983413D01*
X104432444Y-111015101D01*
X104496494Y-111040256D01*
X104569670Y-111058720D01*
X104575319Y-111059662D01*
X104645488Y-111062476D01*
X104709065Y-111052322D01*
X104715125Y-111050208D01*
X104773333Y-111027881D01*
X104773333Y-111365500D01*
X104794500Y-111365500D01*
X104794500Y-111193209D01*
X104797002Y-111094335D01*
X104809330Y-111029004D01*
X104838716Y-110990255D01*
X104892389Y-110971127D01*
X104977581Y-110964660D01*
X105032625Y-110964007D01*
X105196666Y-110963333D01*
X105196666Y-111365500D01*
X105217833Y-111365500D01*
X105217833Y-110963333D01*
X105598833Y-110963333D01*
X105598833Y-111365500D01*
X105641166Y-111365500D01*
X105641166Y-110963333D01*
X106043333Y-110963333D01*
X106064500Y-110963333D01*
X106468255Y-110963333D01*
X106487833Y-110963333D01*
X106891588Y-110963333D01*
X106879416Y-111354917D01*
X106683625Y-111361003D01*
X106538953Y-111365500D01*
X106932333Y-111365500D01*
X106932333Y-110963333D01*
X107313333Y-110963333D01*
X107313333Y-111365500D01*
X107355666Y-111365500D01*
X107355666Y-110963333D01*
X107736666Y-110963333D01*
X107736666Y-111365500D01*
X107355666Y-111365500D01*
X107313333Y-111365500D01*
X106932333Y-111365500D01*
X106538953Y-111365500D01*
X106487833Y-111367089D01*
X106487833Y-110963333D01*
X106468255Y-110963333D01*
X106456083Y-111354917D01*
X106260291Y-111361003D01*
X106064500Y-111367089D01*
X106064500Y-110963333D01*
X106043333Y-110963333D01*
X106043333Y-111365500D01*
X105641166Y-111365500D01*
X105598833Y-111365500D01*
X105217833Y-111365500D01*
X105196666Y-111365500D01*
X104794500Y-111365500D01*
X104773333Y-111365500D01*
X104371166Y-111365500D01*
X104350000Y-111365500D01*
X104350000Y-111367089D01*
X103958416Y-111354917D01*
X103946244Y-110963333D01*
X103926666Y-110963333D01*
X103926666Y-111367089D01*
X103730875Y-111361003D01*
X103535083Y-111354917D01*
X103522911Y-110963333D01*
X103509172Y-110963333D01*
X103513916Y-111376083D01*
X104556375Y-111381575D01*
X105598833Y-111387066D01*
X105598833Y-111535033D01*
X105601633Y-111610963D01*
X105609137Y-111663420D01*
X105619998Y-111683000D01*
X105620000Y-111683000D01*
X105630861Y-111663425D01*
X105630861Y-111663425D01*
G37*
X105630861Y-111663425D02*
X105638365Y-111610970D01*
X105641166Y-111535042D01*
X105641166Y-111387058D01*
X106704791Y-111381571D01*
X107768416Y-111376083D01*
X107779398Y-109291167D01*
X107906199Y-109291167D01*
X107973765Y-109287949D01*
X108019564Y-109279545D01*
X108033000Y-109270000D01*
X108013894Y-109258254D01*
X107964746Y-109250568D01*
X107920111Y-109248833D01*
X107844337Y-109243868D01*
X107805239Y-109229499D01*
X107800876Y-109222375D01*
X107799350Y-109196501D01*
X107797418Y-109132506D01*
X107795159Y-109034600D01*
X107792649Y-108906992D01*
X107789966Y-108753892D01*
X107787188Y-108579511D01*
X107784393Y-108388057D01*
X107781657Y-108183740D01*
X107781474Y-108169333D01*
X107768416Y-107142750D01*
X106704791Y-107137263D01*
X105641166Y-107131775D01*
X105641166Y-106994388D01*
X105638172Y-106922569D01*
X105630241Y-106873408D01*
X105620000Y-106857000D01*
X105608939Y-106876440D01*
X105601366Y-106927935D01*
X105598833Y-106994583D01*
X105598833Y-107132167D01*
X103503333Y-107132167D01*
X103503333Y-107151745D01*
X106064500Y-107151745D01*
X106260291Y-107157831D01*
X106456083Y-107163917D01*
X106462325Y-107318505D01*
X106461646Y-107418110D01*
X106450660Y-107464952D01*
X106487833Y-107464952D01*
X106487833Y-107151745D01*
X106683625Y-107157831D01*
X106879416Y-107163917D01*
X106885645Y-107330583D01*
X106887981Y-107413431D01*
X106886236Y-107461661D01*
X106878798Y-107482916D01*
X106864056Y-107484838D01*
X106853895Y-107481130D01*
X106733147Y-107441092D01*
X106629999Y-107432672D01*
X106572500Y-107442353D01*
X106487833Y-107464952D01*
X106450660Y-107464952D01*
X106445868Y-107485382D01*
X106408651Y-107526451D01*
X106343654Y-107547449D01*
X106244536Y-107554507D01*
X106217958Y-107554796D01*
X106064500Y-107555500D01*
X106932333Y-107555500D01*
X106932333Y-107153333D01*
X107313333Y-107153333D01*
X107313333Y-107555500D01*
X107355666Y-107555500D01*
X107355666Y-107153333D01*
X107736666Y-107153333D01*
X107736666Y-107555500D01*
X107355666Y-107555500D01*
X107313333Y-107555500D01*
X106932333Y-107555500D01*
X106064500Y-107555500D01*
X106064500Y-107151745D01*
X103503333Y-107151745D01*
X103503333Y-107555500D01*
X103524500Y-107555500D01*
X103524500Y-107368528D01*
X103526001Y-107283350D01*
X103530014Y-107215005D01*
X103535799Y-107174009D01*
X103538611Y-107167445D01*
X103564821Y-107161129D01*
X103622843Y-107156274D01*
X103702161Y-107153617D01*
X103739694Y-107153333D01*
X103926666Y-107153333D01*
X103926666Y-107555500D01*
X103947833Y-107555500D01*
X103947833Y-107368528D01*
X103949334Y-107283350D01*
X103953347Y-107215005D01*
X103959133Y-107174009D01*
X103961944Y-107167445D01*
X103988154Y-107161129D01*
X104046176Y-107156274D01*
X104125494Y-107153617D01*
X104163027Y-107153333D01*
X104350000Y-107153333D01*
X104350000Y-107555500D01*
X104371166Y-107555500D01*
X104371166Y-107153333D01*
X104773333Y-107153333D01*
X104773333Y-107555500D01*
X104794500Y-107555500D01*
X104794500Y-107153333D01*
X105196666Y-107153333D01*
X105196666Y-107555500D01*
X105217833Y-107555500D01*
X105217833Y-107153333D01*
X105598833Y-107153333D01*
X105598833Y-107555500D01*
X105641166Y-107555500D01*
X105641166Y-107153333D01*
X106043333Y-107153333D01*
X106043333Y-107555500D01*
X105641166Y-107555500D01*
X105598833Y-107555500D01*
X105217833Y-107555500D01*
X105196666Y-107555500D01*
X104794500Y-107555500D01*
X104773333Y-107555500D01*
X104371166Y-107555500D01*
X104350000Y-107555500D01*
X103947833Y-107555500D01*
X103926666Y-107555500D01*
X103524500Y-107555500D01*
X103503333Y-107555500D01*
X103503333Y-107978833D01*
X103524500Y-107978833D01*
X103524500Y-107576667D01*
X103926666Y-107576667D01*
X103926666Y-107978833D01*
X103947833Y-107978833D01*
X103947833Y-107576667D01*
X104350000Y-107576667D01*
X104350000Y-107978833D01*
X104371166Y-107978833D01*
X104371166Y-107576667D01*
X104773333Y-107576667D01*
X104773333Y-107978833D01*
X104794500Y-107978833D01*
X104794500Y-107576667D01*
X105196666Y-107576667D01*
X105196666Y-107978833D01*
X105217833Y-107978833D01*
X105217833Y-107576667D01*
X105598833Y-107576667D01*
X105598833Y-107978833D01*
X105641166Y-107978833D01*
X105641166Y-107576667D01*
X106043333Y-107576667D01*
X106043333Y-107777750D01*
X106064500Y-107777750D01*
X106064500Y-107576667D01*
X106339993Y-107576667D01*
X106994656Y-107576667D01*
X107313333Y-107576667D01*
X107313333Y-107777750D01*
X107310998Y-107883227D01*
X107303409Y-107948266D01*
X107289689Y-107974537D01*
X107268959Y-107963709D01*
X107240345Y-107917451D01*
X107240133Y-107917043D01*
X107211971Y-107870731D01*
X107166400Y-107804178D01*
X107112331Y-107730300D01*
X107101418Y-107715959D01*
X106994656Y-107576667D01*
X106339993Y-107576667D01*
X106257149Y-107698375D01*
X106207928Y-107774304D01*
X106163193Y-107849434D01*
X106136648Y-107899458D01*
X106109473Y-107948809D01*
X106098897Y-107961811D01*
X106255000Y-107961811D01*
X106266237Y-107931533D01*
X106295275Y-107879996D01*
X106335099Y-107817514D01*
X106378696Y-107754398D01*
X106419051Y-107700961D01*
X106449151Y-107667515D01*
X106459363Y-107661333D01*
X106462854Y-107680775D01*
X106465437Y-107732200D01*
X106466634Y-107805263D01*
X106466666Y-107820083D01*
X106466666Y-107978833D01*
X106487833Y-107978833D01*
X106487833Y-107799969D01*
X106489299Y-107708954D01*
X106494806Y-107651225D01*
X106506011Y-107617802D01*
X106524575Y-107599704D01*
X106524875Y-107599529D01*
X106591225Y-107579847D01*
X106676521Y-107579101D01*
X106762531Y-107595978D01*
X106818709Y-107620727D01*
X106855156Y-107644970D01*
X106876419Y-107669275D01*
X106886589Y-107705179D01*
X106889757Y-107764221D01*
X106890000Y-107821810D01*
X106890000Y-107978833D01*
X106932333Y-107978833D01*
X106932333Y-107851833D01*
X106933471Y-107784840D01*
X106936431Y-107738820D01*
X106939849Y-107724833D01*
X106954709Y-107740828D01*
X106986992Y-107783044D01*
X107030119Y-107842833D01*
X107036451Y-107851833D01*
X107125537Y-107978833D01*
X107355666Y-107978833D01*
X107355666Y-107576667D01*
X107736666Y-107576667D01*
X107736666Y-107978833D01*
X107355666Y-107978833D01*
X107125537Y-107978833D01*
X106932333Y-107978833D01*
X106890000Y-107978833D01*
X106487833Y-107978833D01*
X106466666Y-107978833D01*
X106360833Y-107978833D01*
X106300452Y-107975771D01*
X106262134Y-107967939D01*
X106255000Y-107961811D01*
X106098897Y-107961811D01*
X106086872Y-107976594D01*
X106081746Y-107978833D01*
X106074335Y-107959203D01*
X106068520Y-107906438D01*
X106065087Y-107829730D01*
X106064500Y-107777750D01*
X106043333Y-107777750D01*
X106043333Y-107978833D01*
X105641166Y-107978833D01*
X105598833Y-107978833D01*
X105217833Y-107978833D01*
X105196666Y-107978833D01*
X104794500Y-107978833D01*
X104773333Y-107978833D01*
X104371166Y-107978833D01*
X104350000Y-107978833D01*
X103947833Y-107978833D01*
X103926666Y-107978833D01*
X103524500Y-107978833D01*
X103503333Y-107978833D01*
X103503333Y-108402167D01*
X103524500Y-108402167D01*
X103524500Y-108000000D01*
X103926666Y-108000000D01*
X103926666Y-108402167D01*
X103947833Y-108402167D01*
X103947833Y-108000000D01*
X104350000Y-108000000D01*
X104350000Y-108402167D01*
X104371166Y-108402167D01*
X104371166Y-108000000D01*
X104773333Y-108000000D01*
X104773333Y-108402167D01*
X104794500Y-108402167D01*
X104794500Y-108000000D01*
X105196666Y-108000000D01*
X105196666Y-108402167D01*
X105217833Y-108402167D01*
X105217833Y-108000000D01*
X105598833Y-108000000D01*
X105641166Y-108000000D01*
X105842250Y-108000000D01*
X105936626Y-108000892D01*
X105996279Y-108004470D01*
X106022383Y-108010583D01*
X106064500Y-108010583D01*
X106075083Y-108000000D01*
X106085666Y-108010583D01*
X106075083Y-108021167D01*
X106064500Y-108010583D01*
X106022383Y-108010583D01*
X106028798Y-108012085D01*
X106041772Y-108025091D01*
X106043333Y-108035838D01*
X106035494Y-108071170D01*
X106014647Y-108133593D01*
X105984798Y-108211430D01*
X105974541Y-108236388D01*
X105916823Y-108374589D01*
X106064500Y-108374589D01*
X106073273Y-108344204D01*
X106096749Y-108286208D01*
X106130655Y-108210834D01*
X106148405Y-108173506D01*
X106232310Y-108000000D01*
X106466666Y-108000000D01*
X106466666Y-108402167D01*
X106487833Y-108402167D01*
X106487833Y-108000000D01*
X106890000Y-108000000D01*
X106890000Y-108402167D01*
X106932333Y-108402167D01*
X106932333Y-108000000D01*
X107139714Y-108000000D01*
X107150646Y-108021167D01*
X107292166Y-108021167D01*
X107299388Y-108000550D01*
X107301500Y-108000000D01*
X107319572Y-108014832D01*
X107323916Y-108021167D01*
X107322238Y-108040672D01*
X107314582Y-108042333D01*
X107293028Y-108026968D01*
X107292166Y-108021167D01*
X107150646Y-108021167D01*
X107171283Y-108061124D01*
X107355666Y-108061124D01*
X107355666Y-108000000D01*
X107736666Y-108000000D01*
X107736666Y-108402167D01*
X107486656Y-108402167D01*
X107421161Y-108262207D01*
X107388297Y-108183671D01*
X107364790Y-108111644D01*
X107355668Y-108061563D01*
X107355666Y-108061124D01*
X107171283Y-108061124D01*
X107237107Y-108188571D01*
X107278160Y-108269231D01*
X107310666Y-108335330D01*
X107330446Y-108378241D01*
X107334500Y-108389654D01*
X107314867Y-108395031D01*
X107262098Y-108399250D01*
X107185385Y-108401740D01*
X107133416Y-108402167D01*
X106932333Y-108402167D01*
X106890000Y-108402167D01*
X106487833Y-108402167D01*
X106466666Y-108402167D01*
X106265583Y-108402167D01*
X106166162Y-108400607D01*
X106103341Y-108395412D01*
X106071482Y-108385808D01*
X106064500Y-108374589D01*
X105916823Y-108374589D01*
X105905750Y-108401101D01*
X105641166Y-108402167D01*
X105641166Y-108000000D01*
X105598833Y-108000000D01*
X105598833Y-108402167D01*
X105217833Y-108402167D01*
X105196666Y-108402167D01*
X104794500Y-108402167D01*
X104773333Y-108402167D01*
X104371166Y-108402167D01*
X104350000Y-108402167D01*
X103947833Y-108402167D01*
X103926666Y-108402167D01*
X103524500Y-108402167D01*
X103503333Y-108402167D01*
X103503333Y-108825500D01*
X103524500Y-108825500D01*
X103524500Y-108423333D01*
X103926666Y-108423333D01*
X103926666Y-108825500D01*
X103947833Y-108825500D01*
X103947833Y-108423333D01*
X104350000Y-108423333D01*
X104350000Y-108825500D01*
X104371166Y-108825500D01*
X104371166Y-108423333D01*
X104773333Y-108423333D01*
X104773333Y-108825500D01*
X104794500Y-108825500D01*
X104794500Y-108423333D01*
X105196666Y-108423333D01*
X105196666Y-108825500D01*
X105217833Y-108825500D01*
X105217833Y-108423333D01*
X105598833Y-108423333D01*
X105598833Y-108625889D01*
X105641166Y-108625889D01*
X105641166Y-108423333D01*
X105892110Y-108423333D01*
X105812867Y-108619125D01*
X105772737Y-108713636D01*
X105741544Y-108774446D01*
X105715212Y-108808139D01*
X105714424Y-108808545D01*
X105877527Y-108808545D01*
X105888276Y-108782448D01*
X105910979Y-108727174D01*
X105941533Y-108652716D01*
X105955754Y-108618045D01*
X105988230Y-108540949D01*
X106014932Y-108481444D01*
X106031809Y-108448388D01*
X106035129Y-108444500D01*
X106038742Y-108464092D01*
X106041543Y-108516569D01*
X106043126Y-108592487D01*
X106043333Y-108635000D01*
X106043333Y-108825500D01*
X106064500Y-108825500D01*
X106064500Y-108423333D01*
X106466666Y-108423333D01*
X106466666Y-108825500D01*
X106487833Y-108825500D01*
X106487833Y-108423333D01*
X106890000Y-108423333D01*
X106890000Y-108825500D01*
X106932333Y-108825500D01*
X106932333Y-108423333D01*
X107313333Y-108423333D01*
X107313333Y-108825500D01*
X107355666Y-108825500D01*
X107357234Y-108640292D01*
X107358803Y-108455083D01*
X107362331Y-108462746D01*
X107512263Y-108462746D01*
X107519617Y-108436089D01*
X107553112Y-108425355D01*
X107614946Y-108423335D01*
X107618823Y-108423333D01*
X107736666Y-108423333D01*
X107736666Y-108624417D01*
X107735973Y-108718018D01*
X107732838Y-108777109D01*
X107725680Y-108809504D01*
X107712918Y-108823019D01*
X107695974Y-108825500D01*
X107660512Y-108808448D01*
X107632329Y-108754239D01*
X107629610Y-108746125D01*
X107601360Y-108669974D01*
X107568406Y-108595145D01*
X107567184Y-108592667D01*
X107528852Y-108512536D01*
X107512263Y-108462746D01*
X107362331Y-108462746D01*
X107421068Y-108590313D01*
X107454539Y-108666194D01*
X107481571Y-108733250D01*
X107495878Y-108775521D01*
X107499937Y-108808616D01*
X107482503Y-108822593D01*
X107433299Y-108825500D01*
X107355666Y-108825500D01*
X107313333Y-108825500D01*
X106932333Y-108825500D01*
X106890000Y-108825500D01*
X106487833Y-108825500D01*
X106466666Y-108825500D01*
X106064500Y-108825500D01*
X106043333Y-108825500D01*
X105956902Y-108825500D01*
X105905131Y-108821871D01*
X105878501Y-108812768D01*
X105877527Y-108808545D01*
X105714424Y-108808545D01*
X105689663Y-108821298D01*
X105687395Y-108821681D01*
X105666038Y-108822785D01*
X105652535Y-108813450D01*
X105645088Y-108786065D01*
X105641900Y-108733018D01*
X105641174Y-108646697D01*
X105641166Y-108625889D01*
X105598833Y-108625889D01*
X105598833Y-108825500D01*
X105217833Y-108825500D01*
X105196666Y-108825500D01*
X104794500Y-108825500D01*
X104773333Y-108825500D01*
X104371166Y-108825500D01*
X104350000Y-108825500D01*
X103947833Y-108825500D01*
X103926666Y-108825500D01*
X103524500Y-108825500D01*
X103503333Y-108825500D01*
X103503333Y-109034902D01*
X103524500Y-109034902D01*
X103524500Y-108846667D01*
X103926666Y-108846667D01*
X103926666Y-109248833D01*
X103947833Y-109248833D01*
X103947833Y-108846667D01*
X104350000Y-108846667D01*
X104350000Y-109248833D01*
X104371166Y-109248833D01*
X104371166Y-108846667D01*
X104773333Y-108846667D01*
X104773333Y-109248833D01*
X104794500Y-109248833D01*
X104794500Y-108846667D01*
X105196666Y-108846667D01*
X105196666Y-109248833D01*
X105217833Y-109248833D01*
X105217833Y-108846667D01*
X105598833Y-108846667D01*
X105598644Y-108947208D01*
X105642776Y-108947208D01*
X105645319Y-108882889D01*
X105657236Y-108852304D01*
X105672916Y-108846667D01*
X105700093Y-108860741D01*
X105703056Y-108873125D01*
X105694784Y-108909365D01*
X105676549Y-108964054D01*
X105672916Y-108973667D01*
X105644387Y-109047750D01*
X105642776Y-108947208D01*
X105598644Y-108947208D01*
X105598544Y-109000125D01*
X105597716Y-109105835D01*
X105591823Y-109176342D01*
X105575043Y-109218771D01*
X105541554Y-109240247D01*
X105485533Y-109247893D01*
X105401337Y-109248833D01*
X105705284Y-109248833D01*
X105749689Y-109137708D01*
X105782385Y-109054914D01*
X105814966Y-108970912D01*
X105828029Y-108936625D01*
X105851589Y-108881227D01*
X105876787Y-108855044D01*
X105918744Y-108847159D01*
X105952648Y-108846667D01*
X106043333Y-108846667D01*
X106043333Y-109248833D01*
X106064500Y-109248833D01*
X106064500Y-108846667D01*
X106466666Y-108846667D01*
X106466666Y-109248833D01*
X106487833Y-109248833D01*
X106487833Y-108846667D01*
X106890000Y-108846667D01*
X106890000Y-109248833D01*
X106932333Y-109248833D01*
X106932333Y-108846667D01*
X107313333Y-108846667D01*
X107313333Y-109248833D01*
X107355666Y-109248833D01*
X107355666Y-108844233D01*
X107444204Y-108850741D01*
X107501714Y-108854969D01*
X107675867Y-108854969D01*
X107687250Y-108847213D01*
X107704916Y-108846667D01*
X107727401Y-108861150D01*
X107735693Y-108908740D01*
X107735838Y-108926042D01*
X107735009Y-109005417D01*
X107704088Y-108934195D01*
X107681513Y-108880442D01*
X107675867Y-108854969D01*
X107501714Y-108854969D01*
X107532742Y-108857250D01*
X107602922Y-109037167D01*
X107633882Y-109118168D01*
X107657872Y-109184033D01*
X107671391Y-109225004D01*
X107673134Y-109232958D01*
X107653713Y-109240547D01*
X107602310Y-109246160D01*
X107529266Y-109248764D01*
X107514416Y-109248833D01*
X107355666Y-109248833D01*
X107313333Y-109248833D01*
X106932333Y-109248833D01*
X106890000Y-109248833D01*
X106487833Y-109248833D01*
X106466666Y-109248833D01*
X106064500Y-109248833D01*
X106043333Y-109248833D01*
X105705284Y-109248833D01*
X105401337Y-109248833D01*
X105401157Y-109248835D01*
X105395281Y-109248833D01*
X105217833Y-109248833D01*
X105196666Y-109248833D01*
X104794500Y-109248833D01*
X104773333Y-109248833D01*
X104371166Y-109248833D01*
X104350000Y-109248833D01*
X103947833Y-109248833D01*
X103926666Y-109248833D01*
X103759064Y-109248833D01*
X103656922Y-109248298D01*
X103589769Y-109242236D01*
X103550278Y-109223964D01*
X103531121Y-109186798D01*
X103524970Y-109124057D01*
X103524500Y-109034902D01*
X103503333Y-109034902D01*
X103503333Y-109248833D01*
X103343334Y-109248833D01*
X103257827Y-109251385D01*
X103207800Y-109258715D01*
X103196416Y-109270000D01*
X103223113Y-109281426D01*
X103278664Y-109289111D01*
X103332780Y-109291167D01*
X103588617Y-109291167D01*
X103926666Y-109291167D01*
X103926666Y-109672167D01*
X103947833Y-109672167D01*
X103947833Y-109291167D01*
X104350000Y-109291167D01*
X104350000Y-109672167D01*
X104371166Y-109672167D01*
X104371166Y-109291167D01*
X104773333Y-109291167D01*
X104773333Y-109672167D01*
X104794500Y-109672167D01*
X104794500Y-109291167D01*
X105196666Y-109291167D01*
X105196666Y-109672167D01*
X105217833Y-109672167D01*
X105217833Y-109291167D01*
X105552578Y-109291167D01*
X105411185Y-109646267D01*
X105563251Y-109646267D01*
X105570654Y-109596885D01*
X105571086Y-109595289D01*
X105587733Y-109534583D01*
X105594875Y-109594727D01*
X105596235Y-109642237D01*
X105589842Y-109667046D01*
X105572242Y-109672167D01*
X105641166Y-109672167D01*
X105641166Y-109548325D01*
X105645230Y-109466920D01*
X105655649Y-109392115D01*
X105664403Y-109357825D01*
X105687641Y-109291167D01*
X106043333Y-109291167D01*
X106043333Y-109672167D01*
X106064500Y-109672167D01*
X106064500Y-109291167D01*
X106466666Y-109291167D01*
X106466666Y-109672167D01*
X106487833Y-109672167D01*
X106487833Y-109291167D01*
X106890000Y-109291167D01*
X106890000Y-109672167D01*
X106932333Y-109672167D01*
X106932333Y-109291167D01*
X107313333Y-109291167D01*
X107313333Y-109672167D01*
X107355666Y-109672167D01*
X107355666Y-109291167D01*
X107736666Y-109291167D01*
X107736666Y-109672167D01*
X107355666Y-109672167D01*
X107313333Y-109672167D01*
X106932333Y-109672167D01*
X106890000Y-109672167D01*
X106487833Y-109672167D01*
X106466666Y-109672167D01*
X106064500Y-109672167D01*
X106043333Y-109672167D01*
X105641166Y-109672167D01*
X105572242Y-109672167D01*
X105570440Y-109672691D01*
X105563251Y-109646267D01*
X105411185Y-109646267D01*
X105400872Y-109672167D01*
X105217833Y-109672167D01*
X105196666Y-109672167D01*
X104794500Y-109672167D01*
X104773333Y-109672167D01*
X104371166Y-109672167D01*
X104350000Y-109672167D01*
X103947833Y-109672167D01*
X103926666Y-109672167D01*
X103833714Y-109672167D01*
X103797023Y-109672703D01*
X103770310Y-109670390D01*
X103749274Y-109659350D01*
X103729611Y-109633702D01*
X103707020Y-109587567D01*
X103677196Y-109515066D01*
X103635838Y-109410319D01*
X103628471Y-109391708D01*
X103588617Y-109291167D01*
X103332780Y-109291167D01*
X103403804Y-109293127D01*
X103444102Y-109301607D01*
X103465201Y-109320507D01*
X103473557Y-109338792D01*
X103477342Y-109369142D01*
X103481330Y-109437423D01*
X103485398Y-109539234D01*
X103487044Y-109592792D01*
X103525250Y-109592792D01*
X103526000Y-109513417D01*
X103556250Y-109566333D01*
X103578820Y-109614040D01*
X103587249Y-109645708D01*
X103570937Y-109669108D01*
X103556250Y-109672167D01*
X103533741Y-109657641D01*
X103525407Y-109609949D01*
X103525250Y-109592792D01*
X103487044Y-109592792D01*
X103489424Y-109670173D01*
X103493285Y-109825839D01*
X103496861Y-110001831D01*
X103498406Y-110095500D01*
X103524500Y-110095500D01*
X103524500Y-109892945D01*
X103525014Y-109799403D01*
X103527700Y-109740602D01*
X103534266Y-109708952D01*
X103546425Y-109696864D01*
X103565888Y-109696747D01*
X103568638Y-109697153D01*
X103578807Y-109702892D01*
X103757333Y-109702892D01*
X103776132Y-109696903D01*
X103823090Y-109693575D01*
X103842000Y-109693333D01*
X103926666Y-109693333D01*
X103926666Y-109887361D01*
X103925870Y-109970835D01*
X103923734Y-110034290D01*
X103920636Y-110068928D01*
X103918712Y-110072570D01*
X103907006Y-110050194D01*
X103883733Y-109999888D01*
X103853573Y-109932374D01*
X103821206Y-109858375D01*
X103791315Y-109788614D01*
X103768579Y-109733813D01*
X103757680Y-109704696D01*
X103757333Y-109702892D01*
X103578807Y-109702892D01*
X103599609Y-109714631D01*
X103632889Y-109761295D01*
X103672411Y-109842796D01*
X103676430Y-109852083D01*
X103720678Y-109954167D01*
X103749183Y-110023116D01*
X103761275Y-110065352D01*
X103756281Y-110087301D01*
X103733530Y-110095387D01*
X103726338Y-110095500D01*
X103947833Y-110095500D01*
X103947833Y-109693333D01*
X104350000Y-109693333D01*
X104350000Y-110095500D01*
X104371166Y-110095500D01*
X104371166Y-109693333D01*
X104773333Y-109693333D01*
X104773333Y-110095500D01*
X104794500Y-110095500D01*
X104794500Y-109693333D01*
X105196666Y-109693333D01*
X105196666Y-109897945D01*
X105217833Y-109897945D01*
X105217833Y-109693333D01*
X105302500Y-109693333D01*
X105355548Y-109694770D01*
X105385025Y-109698359D01*
X105387166Y-109699804D01*
X105379653Y-109722420D01*
X105359977Y-109773523D01*
X105332430Y-109842598D01*
X105301307Y-109919128D01*
X105270899Y-109992596D01*
X105245502Y-110052488D01*
X105234040Y-110077983D01*
X105387166Y-110077983D01*
X105394646Y-110050843D01*
X105414279Y-109996339D01*
X105441852Y-109926148D01*
X105442512Y-109924524D01*
X105473493Y-109848019D01*
X105500238Y-109781252D01*
X105516072Y-109740958D01*
X105542102Y-109704066D01*
X105566559Y-109693333D01*
X105581902Y-109700179D01*
X105591610Y-109725507D01*
X105596838Y-109776508D01*
X105598739Y-109860371D01*
X105598833Y-109894417D01*
X105598833Y-110095500D01*
X105641166Y-110095500D01*
X105641166Y-109693333D01*
X106043333Y-109693333D01*
X106043333Y-110095500D01*
X106064500Y-110095500D01*
X106064500Y-109693333D01*
X106466666Y-109693333D01*
X106466666Y-110095500D01*
X106487833Y-110095500D01*
X106487833Y-109693333D01*
X106890000Y-109693333D01*
X106890000Y-110095500D01*
X106932333Y-110095500D01*
X106932333Y-109693333D01*
X107313333Y-109693333D01*
X107313333Y-110095500D01*
X107355666Y-110095500D01*
X107355666Y-109693333D01*
X107736666Y-109693333D01*
X107736666Y-110095500D01*
X107355666Y-110095500D01*
X107313333Y-110095500D01*
X106932333Y-110095500D01*
X106890000Y-110095500D01*
X106487833Y-110095500D01*
X106466666Y-110095500D01*
X106064500Y-110095500D01*
X106043333Y-110095500D01*
X105641166Y-110095500D01*
X105598833Y-110095500D01*
X105493000Y-110095500D01*
X105432620Y-110092348D01*
X105394301Y-110084290D01*
X105387166Y-110077983D01*
X105234040Y-110077983D01*
X105229407Y-110088286D01*
X105226340Y-110093736D01*
X105222729Y-110078012D01*
X105219879Y-110028554D01*
X105218163Y-109953959D01*
X105217833Y-109897945D01*
X105196666Y-109897945D01*
X105196666Y-110095500D01*
X104794500Y-110095500D01*
X104773333Y-110095500D01*
X104371166Y-110095500D01*
X104350000Y-110095500D01*
X103947833Y-110095500D01*
X103726338Y-110095500D01*
X103692350Y-110096034D01*
X103650976Y-110095500D01*
X103524500Y-110095500D01*
X103498406Y-110095500D01*
X103500028Y-110193747D01*
X103502484Y-110381250D01*
X103504064Y-110518833D01*
X103524500Y-110518833D01*
X103524500Y-110116667D01*
X103790580Y-110116667D01*
X103796750Y-110129180D01*
X103947833Y-110129180D01*
X103967465Y-110123803D01*
X104020234Y-110119583D01*
X104096947Y-110117093D01*
X104148916Y-110116667D01*
X104350000Y-110116667D01*
X104350000Y-110518833D01*
X104371166Y-110518833D01*
X104371166Y-110116667D01*
X104773333Y-110116667D01*
X104773333Y-110518833D01*
X104794500Y-110518833D01*
X104794500Y-110116667D01*
X104995583Y-110116667D01*
X105091202Y-110117769D01*
X105151707Y-110121844D01*
X105184278Y-110130040D01*
X105196095Y-110143510D01*
X105196666Y-110148887D01*
X105187574Y-110181433D01*
X105163287Y-110240840D01*
X105128290Y-110316484D01*
X105111763Y-110349970D01*
X105060118Y-110452688D01*
X105221222Y-110452688D01*
X105242111Y-110389223D01*
X105283944Y-110294383D01*
X105291382Y-110278059D01*
X105364931Y-110116667D01*
X105598833Y-110116667D01*
X105598833Y-110518833D01*
X105641166Y-110518833D01*
X105641166Y-110116667D01*
X106043333Y-110116667D01*
X106043333Y-110518833D01*
X106064500Y-110518833D01*
X106064500Y-110116667D01*
X106466666Y-110116667D01*
X106466666Y-110518833D01*
X106487833Y-110518833D01*
X106487833Y-110116667D01*
X106890000Y-110116667D01*
X106890000Y-110518833D01*
X106932333Y-110518833D01*
X106932333Y-110116667D01*
X107313333Y-110116667D01*
X107313333Y-110518833D01*
X107355666Y-110518833D01*
X107355666Y-110116667D01*
X107736666Y-110116667D01*
X107736666Y-110518833D01*
X107355666Y-110518833D01*
X107313333Y-110518833D01*
X106932333Y-110518833D01*
X106890000Y-110518833D01*
X106487833Y-110518833D01*
X106466666Y-110518833D01*
X106064500Y-110518833D01*
X106043333Y-110518833D01*
X105641166Y-110518833D01*
X105598833Y-110518833D01*
X105408333Y-110518833D01*
X105314833Y-110517850D01*
X105254522Y-110510700D01*
X105224339Y-110491080D01*
X105221222Y-110452688D01*
X105060118Y-110452688D01*
X105026860Y-110518833D01*
X104794500Y-110518833D01*
X104773333Y-110518833D01*
X104371166Y-110518833D01*
X104350000Y-110518833D01*
X104142619Y-110518833D01*
X104045226Y-110330263D01*
X104004172Y-110249603D01*
X103971666Y-110183503D01*
X103951886Y-110140593D01*
X103947833Y-110129180D01*
X103796750Y-110129180D01*
X103858623Y-110254651D01*
X103892865Y-110332719D01*
X103917304Y-110404907D01*
X103926666Y-110455624D01*
X103926666Y-110487083D01*
X103947833Y-110487083D01*
X103952361Y-110458843D01*
X103956152Y-110455333D01*
X103969800Y-110471885D01*
X103976654Y-110487083D01*
X103977094Y-110514339D01*
X103968335Y-110518833D01*
X103950143Y-110501679D01*
X103947833Y-110487083D01*
X103926666Y-110487083D01*
X103926666Y-110518833D01*
X103524500Y-110518833D01*
X103504064Y-110518833D01*
X103508928Y-110942167D01*
X103524500Y-110942167D01*
X103524500Y-110540000D01*
X103926666Y-110540000D01*
X104157466Y-110540000D01*
X104350000Y-110540000D01*
X104350000Y-110659009D01*
X104349681Y-110676047D01*
X104371166Y-110676047D01*
X104371166Y-110540000D01*
X104773333Y-110540000D01*
X104773333Y-110702983D01*
X104794500Y-110702983D01*
X104794500Y-110540000D01*
X104900333Y-110540000D01*
X104960712Y-110543177D01*
X104999031Y-110551300D01*
X105006166Y-110557658D01*
X104994958Y-110581402D01*
X104966064Y-110628860D01*
X104926577Y-110689424D01*
X104883590Y-110752485D01*
X104844196Y-110807434D01*
X104815489Y-110843662D01*
X104813468Y-110845858D01*
X104803940Y-110837099D01*
X104797372Y-110791997D01*
X104794551Y-110716486D01*
X104794500Y-110702983D01*
X104773333Y-110702983D01*
X104773333Y-110880827D01*
X104702118Y-110910583D01*
X104609907Y-110927128D01*
X104512059Y-110905826D01*
X104426532Y-110855645D01*
X104395920Y-110826894D01*
X104379213Y-110793059D01*
X104372333Y-110740915D01*
X104371166Y-110676047D01*
X104349681Y-110676047D01*
X104348758Y-110725247D01*
X104343238Y-110756510D01*
X104330742Y-110760127D01*
X104316463Y-110750184D01*
X104285211Y-110716914D01*
X104243172Y-110663355D01*
X104220196Y-110631176D01*
X104157466Y-110540000D01*
X103926666Y-110540000D01*
X103926666Y-110942167D01*
X103947833Y-110942167D01*
X103947833Y-110741083D01*
X103950035Y-110634881D01*
X103958378Y-110569648D01*
X103975466Y-110544170D01*
X104003904Y-110557230D01*
X104046298Y-110607614D01*
X104091924Y-110673844D01*
X104143136Y-110747136D01*
X104193482Y-110812549D01*
X104232374Y-110856353D01*
X104233530Y-110857450D01*
X104269354Y-110895737D01*
X104286294Y-110922957D01*
X104286500Y-110924690D01*
X104269504Y-110931767D01*
X104921500Y-110931767D01*
X104933336Y-110910739D01*
X104964056Y-110866734D01*
X104998409Y-110820642D01*
X105050370Y-110746663D01*
X105098455Y-110668542D01*
X105119044Y-110629958D01*
X105148043Y-110577019D01*
X105172052Y-110544686D01*
X105179717Y-110540000D01*
X105187000Y-110559631D01*
X105192715Y-110612396D01*
X105196088Y-110689104D01*
X105196666Y-110741083D01*
X105196666Y-110942167D01*
X105217833Y-110942167D01*
X105217833Y-110540000D01*
X105598833Y-110540000D01*
X105598833Y-110942167D01*
X105641166Y-110942167D01*
X105641166Y-110540000D01*
X106043333Y-110540000D01*
X106043333Y-110942167D01*
X106064500Y-110942167D01*
X106064500Y-110540000D01*
X106466666Y-110540000D01*
X106466666Y-110942167D01*
X106487833Y-110942167D01*
X106487833Y-110540000D01*
X106890000Y-110540000D01*
X106890000Y-110942167D01*
X106932333Y-110942167D01*
X106932333Y-110540000D01*
X107313333Y-110540000D01*
X107313333Y-110942167D01*
X107355666Y-110942167D01*
X107355666Y-110540000D01*
X107736666Y-110540000D01*
X107736666Y-110942167D01*
X107355666Y-110942167D01*
X107313333Y-110942167D01*
X106932333Y-110942167D01*
X106890000Y-110942167D01*
X106487833Y-110942167D01*
X106466666Y-110942167D01*
X106064500Y-110942167D01*
X106043333Y-110942167D01*
X105641166Y-110942167D01*
X105598833Y-110942167D01*
X105217833Y-110942167D01*
X105196666Y-110942167D01*
X105059083Y-110942167D01*
X104989009Y-110940707D01*
X104939453Y-110936888D01*
X104921500Y-110931767D01*
X104269504Y-110931767D01*
X104267008Y-110932806D01*
X104215209Y-110938918D01*
X104141117Y-110941991D01*
X104117166Y-110942167D01*
X103947833Y-110942167D01*
X103926666Y-110942167D01*
X103524500Y-110942167D01*
X103508928Y-110942167D01*
X103509172Y-110963333D01*
X103522911Y-110963333D01*
X103926666Y-110963333D01*
X103946244Y-110963333D01*
X104350000Y-110963333D01*
X104350000Y-111365500D01*
X104371166Y-111365500D01*
X104371166Y-110983413D01*
X104432444Y-111015101D01*
X104496494Y-111040256D01*
X104569670Y-111058720D01*
X104575319Y-111059662D01*
X104645488Y-111062476D01*
X104709065Y-111052322D01*
X104715125Y-111050208D01*
X104773333Y-111027881D01*
X104773333Y-111365500D01*
X104794500Y-111365500D01*
X104794500Y-111193209D01*
X104797002Y-111094335D01*
X104809330Y-111029004D01*
X104838716Y-110990255D01*
X104892389Y-110971127D01*
X104977581Y-110964660D01*
X105032625Y-110964007D01*
X105196666Y-110963333D01*
X105196666Y-111365500D01*
X105217833Y-111365500D01*
X105217833Y-110963333D01*
X105598833Y-110963333D01*
X105598833Y-111365500D01*
X105641166Y-111365500D01*
X105641166Y-110963333D01*
X106043333Y-110963333D01*
X106064500Y-110963333D01*
X106468255Y-110963333D01*
X106487833Y-110963333D01*
X106891588Y-110963333D01*
X106879416Y-111354917D01*
X106683625Y-111361003D01*
X106538953Y-111365500D01*
X106932333Y-111365500D01*
X106932333Y-110963333D01*
X107313333Y-110963333D01*
X107313333Y-111365500D01*
X107355666Y-111365500D01*
X107355666Y-110963333D01*
X107736666Y-110963333D01*
X107736666Y-111365500D01*
X107355666Y-111365500D01*
X107313333Y-111365500D01*
X106932333Y-111365500D01*
X106538953Y-111365500D01*
X106487833Y-111367089D01*
X106487833Y-110963333D01*
X106468255Y-110963333D01*
X106456083Y-111354917D01*
X106260291Y-111361003D01*
X106064500Y-111367089D01*
X106064500Y-110963333D01*
X106043333Y-110963333D01*
X106043333Y-111365500D01*
X105641166Y-111365500D01*
X105598833Y-111365500D01*
X105217833Y-111365500D01*
X105196666Y-111365500D01*
X104794500Y-111365500D01*
X104773333Y-111365500D01*
X104371166Y-111365500D01*
X104350000Y-111365500D01*
X104350000Y-111367089D01*
X103958416Y-111354917D01*
X103946244Y-110963333D01*
X103926666Y-110963333D01*
X103926666Y-111367089D01*
X103730875Y-111361003D01*
X103535083Y-111354917D01*
X103522911Y-110963333D01*
X103509172Y-110963333D01*
X103513916Y-111376083D01*
X104556375Y-111381575D01*
X105598833Y-111387066D01*
X105598833Y-111535033D01*
X105601633Y-111610963D01*
X105609137Y-111663420D01*
X105619998Y-111683000D01*
X105620000Y-111683000D01*
X105630861Y-111663425D01*
D13*
G36*
X104571600Y-101411400D02*
X104571600Y-103211400D01*
X106581600Y-103231400D01*
X106581600Y-101431400D01*
X104571600Y-101411400D01*
G37*
X104571600Y-101411400D02*
X104571600Y-103211400D01*
X106581600Y-103231400D01*
X106581600Y-101431400D01*
X104571600Y-101411400D01*
G36*
X106981600Y-101091400D02*
X105911600Y-102271400D01*
X106781600Y-101881400D01*
X105821600Y-102881400D01*
X106731600Y-102561400D01*
X105811600Y-103681400D01*
X106821600Y-103321400D01*
X106818600Y-104609400D01*
X107181600Y-104621400D01*
X107161600Y-103341400D01*
X108171600Y-103681400D01*
X107271600Y-102601400D01*
X108171600Y-102861400D01*
X107161600Y-101831400D01*
X108081600Y-102291400D01*
X106981600Y-101091400D01*
G37*
X106981600Y-101091400D02*
X105911600Y-102271400D01*
X106781600Y-101881400D01*
X105821600Y-102881400D01*
X106731600Y-102561400D01*
X105811600Y-103681400D01*
X106821600Y-103321400D01*
X106818600Y-104609400D01*
X107181600Y-104621400D01*
X107161600Y-103341400D01*
X108171600Y-103681400D01*
X107271600Y-102601400D01*
X108171600Y-102861400D01*
X107161600Y-101831400D01*
X108081600Y-102291400D01*
X106981600Y-101091400D01*
G36*
X105591600Y-100341400D02*
X104481600Y-101441400D01*
X105467600Y-101104400D01*
X104381600Y-102091400D01*
X105467600Y-101739400D01*
X104371600Y-102881400D01*
X105421600Y-102501400D01*
X105421600Y-103831400D01*
X105801600Y-103831400D01*
X105801600Y-102501400D01*
X106931600Y-102821400D01*
X105721600Y-101739400D01*
X106831600Y-102041400D01*
X105721600Y-101104400D01*
X106651600Y-101461400D01*
X105591600Y-100341400D01*
G37*
X105591600Y-100341400D02*
X104481600Y-101441400D01*
X105467600Y-101104400D01*
X104381600Y-102091400D01*
X105467600Y-101739400D01*
X104371600Y-102881400D01*
X105421600Y-102501400D01*
X105421600Y-103831400D01*
X105801600Y-103831400D01*
X105801600Y-102501400D01*
X106931600Y-102821400D01*
X105721600Y-101739400D01*
X106831600Y-102041400D01*
X105721600Y-101104400D01*
X106651600Y-101461400D01*
X105591600Y-100341400D01*
G36*
X104201600Y-101111400D02*
X103101600Y-102281400D01*
X103981600Y-101851400D01*
X103001600Y-102871400D01*
X103871600Y-102611400D01*
X103021600Y-103651400D01*
X104021600Y-103341400D01*
X104021600Y-104611400D01*
X104351600Y-104611400D01*
X104351600Y-103341400D01*
X105341600Y-103651400D01*
X104531600Y-102641400D01*
X105321600Y-102831400D01*
X104511600Y-101951400D01*
X105141600Y-102151400D01*
X104201600Y-101111400D01*
G37*
X104201600Y-101111400D02*
X103101600Y-102281400D01*
X103981600Y-101851400D01*
X103001600Y-102871400D01*
X103871600Y-102611400D01*
X103021600Y-103651400D01*
X104021600Y-103341400D01*
X104021600Y-104611400D01*
X104351600Y-104611400D01*
X104351600Y-103341400D01*
X105341600Y-103651400D01*
X104531600Y-102641400D01*
X105321600Y-102831400D01*
X104511600Y-101951400D01*
X105141600Y-102151400D01*
X104201600Y-101111400D01*
D14*
X105591600Y-100681400D03*
X105591600Y-103881400D03*
D15*
X97790000Y-97790000D03*
X97790000Y-115570000D03*
D16*
X143510000Y-115570000D03*
X143510000Y-97790000D03*
D17*
X139700000Y-96520000D03*
X137160000Y-96520000D03*
X134620000Y-96520000D03*
X132080000Y-96520000D03*
X129540000Y-96520000D03*
X127000000Y-96520000D03*
X124460000Y-96520000D03*
X121920000Y-96520000D03*
X119380000Y-96520000D03*
X116840000Y-96520000D03*
X114300000Y-96520000D03*
X111760000Y-96520000D03*
X139700000Y-116840000D03*
X137160000Y-116840000D03*
X134620000Y-116840000D03*
X132080000Y-116840000D03*
X129540000Y-116840000D03*
X127000000Y-116840000D03*
X124460000Y-116840000D03*
X121920000Y-116840000D03*
X119380000Y-116840000D03*
X116840000Y-116840000D03*
X114300000Y-116840000D03*
X111760000Y-116840000D03*
X109220000Y-116840000D03*
X106680000Y-116840000D03*
X104140000Y-116840000D03*
X101600000Y-116840000D03*
D18*
X143510000Y-105410000D03*
D19*
X143510000Y-102870000D03*
D20*
X142980000Y-110400000D03*
X140440000Y-110400000D03*
D21*
X137900000Y-110400000D03*
D22*
X134935000Y-112801400D03*
X133035000Y-112801400D03*
M02*
