G04 #@! TF.GenerationSoftware,KiCad,Pcbnew,(5.0.0-rc2-dev-444-g2974a2c10)*
G04 #@! TF.CreationDate,2019-09-13T20:51:01-07:00*
G04 #@! TF.ProjectId,Waveform_Gen_ADSR,57617665666F726D5F47656E5F414453,v00*
G04 #@! TF.SameCoordinates,Original*
G04 #@! TF.FileFunction,Soldermask,Top*
G04 #@! TF.FilePolarity,Negative*
%FSLAX46Y46*%
G04 Gerber Fmt 4.6, Leading zero omitted, Abs format (unit mm)*
G04 Created by KiCad (PCBNEW (5.0.0-rc2-dev-444-g2974a2c10)) date 09/13/19 20:51:01*
%MOMM*%
%LPD*%
G01*
G04 APERTURE LIST*
%ADD10C,0.150000*%
%ADD11C,0.010000*%
%ADD12R,1.501600X0.401600*%
%ADD13R,1.351600X1.101600*%
%ADD14R,0.801600X1.401600*%
%ADD15O,1.801600X1.801600*%
%ADD16R,1.801600X1.801600*%
%ADD17C,1.721600*%
%ADD18R,1.721600X1.721600*%
%ADD19R,2.101600X1.901600*%
%ADD20C,1.801600*%
%ADD21C,2.601600*%
%ADD22C,3.101600*%
%ADD23R,1.101600X1.351600*%
%ADD24R,1.661600X0.751600*%
%ADD25R,1.161600X0.501600*%
G04 APERTURE END LIST*
D10*
G36*
X105594600Y-100449400D02*
X104705600Y-101338400D01*
X105467600Y-101084400D01*
X104578600Y-101973400D01*
X105467600Y-101719400D01*
X104578600Y-102735400D01*
X105467600Y-102481400D01*
X105467600Y-103751400D01*
X105721600Y-103751400D01*
X105721600Y-102481400D01*
X106610600Y-102735400D01*
X105721600Y-101719400D01*
X106610600Y-101973400D01*
X105721600Y-101084400D01*
X106483600Y-101338400D01*
X105594600Y-100449400D01*
G37*
X105594600Y-100449400D02*
X104705600Y-101338400D01*
X105467600Y-101084400D01*
X104578600Y-101973400D01*
X105467600Y-101719400D01*
X104578600Y-102735400D01*
X105467600Y-102481400D01*
X105467600Y-103751400D01*
X105721600Y-103751400D01*
X105721600Y-102481400D01*
X106610600Y-102735400D01*
X105721600Y-101719400D01*
X106610600Y-101973400D01*
X105721600Y-101084400D01*
X106483600Y-101338400D01*
X105594600Y-100449400D01*
G36*
X106991600Y-101211400D02*
X106102600Y-102100400D01*
X106864600Y-101846400D01*
X105975600Y-102735400D01*
X106864600Y-102481400D01*
X105975600Y-103497400D01*
X106864600Y-103243400D01*
X106864600Y-104513400D01*
X107118600Y-104513400D01*
X107118600Y-103243400D01*
X108007600Y-103497400D01*
X107118600Y-102481400D01*
X108007600Y-102735400D01*
X107118600Y-101846400D01*
X107880600Y-102100400D01*
X106991600Y-101211400D01*
G37*
X106991600Y-101211400D02*
X106102600Y-102100400D01*
X106864600Y-101846400D01*
X105975600Y-102735400D01*
X106864600Y-102481400D01*
X105975600Y-103497400D01*
X106864600Y-103243400D01*
X106864600Y-104513400D01*
X107118600Y-104513400D01*
X107118600Y-103243400D01*
X108007600Y-103497400D01*
X107118600Y-102481400D01*
X108007600Y-102735400D01*
X107118600Y-101846400D01*
X107880600Y-102100400D01*
X106991600Y-101211400D01*
G36*
X104197600Y-101211400D02*
X103308600Y-102100400D01*
X104070600Y-101846400D01*
X103181600Y-102735400D01*
X104070600Y-102481400D01*
X103181600Y-103497400D01*
X104070600Y-103243400D01*
X104070600Y-104513400D01*
X104324600Y-104513400D01*
X104324600Y-103243400D01*
X105213600Y-103497400D01*
X104324600Y-102481400D01*
X105213600Y-102735400D01*
X104324600Y-101846400D01*
X105086600Y-102100400D01*
X104197600Y-101211400D01*
G37*
X104197600Y-101211400D02*
X103308600Y-102100400D01*
X104070600Y-101846400D01*
X103181600Y-102735400D01*
X104070600Y-102481400D01*
X103181600Y-103497400D01*
X104070600Y-103243400D01*
X104070600Y-104513400D01*
X104324600Y-104513400D01*
X104324600Y-103243400D01*
X105213600Y-103497400D01*
X104324600Y-102481400D01*
X105213600Y-102735400D01*
X104324600Y-101846400D01*
X105086600Y-102100400D01*
X104197600Y-101211400D01*
D11*
G36*
X98580020Y-105027582D02*
X98671708Y-105082455D01*
X98768398Y-105179159D01*
X98869973Y-105317503D01*
X98976315Y-105497295D01*
X99087306Y-105718344D01*
X99202827Y-105980459D01*
X99271705Y-106150833D01*
X99319749Y-106272739D01*
X99369837Y-106399157D01*
X99416343Y-106515926D01*
X99453639Y-106608881D01*
X99456718Y-106616500D01*
X99495241Y-106713260D01*
X99541794Y-106832440D01*
X99589668Y-106956776D01*
X99621203Y-107039833D01*
X99664034Y-107150468D01*
X99717815Y-107284873D01*
X99776457Y-107428066D01*
X99833873Y-107565064D01*
X99849106Y-107600750D01*
X99947483Y-107825121D01*
X100034692Y-108011945D01*
X100112860Y-108163866D01*
X100184109Y-108283529D01*
X100250566Y-108373580D01*
X100314354Y-108436662D01*
X100377598Y-108475422D01*
X100442423Y-108492503D01*
X100510953Y-108490552D01*
X100556160Y-108480963D01*
X100632041Y-108444198D01*
X100719331Y-108371080D01*
X100819470Y-108260303D01*
X100872637Y-108193220D01*
X100897586Y-108154447D01*
X100935078Y-108088621D01*
X100981177Y-108003465D01*
X101031944Y-107906704D01*
X101083443Y-107806063D01*
X101131735Y-107709266D01*
X101172883Y-107624037D01*
X101202951Y-107558102D01*
X101217999Y-107519185D01*
X101219000Y-107513722D01*
X101227104Y-107490064D01*
X101248041Y-107440234D01*
X101269099Y-107393064D01*
X101298947Y-107324500D01*
X101337555Y-107231446D01*
X101378713Y-107129008D01*
X101399556Y-107075770D01*
X101436445Y-106987534D01*
X101472332Y-106913800D01*
X101502358Y-106863949D01*
X101517398Y-106848228D01*
X101568288Y-106831062D01*
X101614272Y-106830791D01*
X101640336Y-106846644D01*
X101642025Y-106854625D01*
X101634412Y-106893180D01*
X101616032Y-106953624D01*
X101592802Y-107018940D01*
X101570643Y-107072111D01*
X101559255Y-107092583D01*
X101545282Y-107120315D01*
X101520396Y-107178342D01*
X101488509Y-107257305D01*
X101463460Y-107321745D01*
X101415186Y-107442848D01*
X101358590Y-107576829D01*
X101297969Y-107714237D01*
X101237622Y-107845623D01*
X101181850Y-107961537D01*
X101134949Y-108052529D01*
X101115061Y-108087583D01*
X100998616Y-108270438D01*
X100890527Y-108414804D01*
X100787837Y-108522989D01*
X100687593Y-108597299D01*
X100586839Y-108640039D01*
X100482622Y-108653518D01*
X100400062Y-108645750D01*
X100316763Y-108623170D01*
X100245613Y-108583493D01*
X100176146Y-108519257D01*
X100109901Y-108438850D01*
X100045841Y-108344338D01*
X99972023Y-108217589D01*
X99892236Y-108066471D01*
X99810268Y-107898854D01*
X99729908Y-107722608D01*
X99654943Y-107545603D01*
X99589161Y-107375708D01*
X99563822Y-107304417D01*
X99538156Y-107234819D01*
X99515177Y-107181013D01*
X99501725Y-107157308D01*
X99486178Y-107120698D01*
X99483333Y-107095232D01*
X99475171Y-107059294D01*
X99453090Y-106994749D01*
X99420698Y-106911527D01*
X99390655Y-106840174D01*
X99351615Y-106748818D01*
X99301659Y-106629543D01*
X99245515Y-106493768D01*
X99187911Y-106352913D01*
X99145126Y-106247160D01*
X99039765Y-105992035D01*
X98944143Y-105775537D01*
X98856826Y-105595458D01*
X98776382Y-105449591D01*
X98701378Y-105335730D01*
X98630380Y-105251668D01*
X98561956Y-105195197D01*
X98494673Y-105164112D01*
X98436597Y-105156000D01*
X98372444Y-105170145D01*
X98293352Y-105207246D01*
X98213254Y-105259301D01*
X98146086Y-105318311D01*
X98137661Y-105327642D01*
X98075644Y-105410075D01*
X98002387Y-105525741D01*
X97921332Y-105668170D01*
X97835922Y-105830890D01*
X97749600Y-106007431D01*
X97665809Y-106191321D01*
X97615224Y-106309583D01*
X97554236Y-106456552D01*
X97507909Y-106569473D01*
X97474358Y-106653266D01*
X97451699Y-106712851D01*
X97438049Y-106753148D01*
X97431523Y-106779074D01*
X97430166Y-106792784D01*
X97412189Y-106827237D01*
X97362418Y-106841006D01*
X97302935Y-106835529D01*
X97258680Y-106825172D01*
X97239679Y-106817738D01*
X97239666Y-106817628D01*
X97247685Y-106793819D01*
X97268057Y-106744261D01*
X97295253Y-106681577D01*
X97323745Y-106618391D01*
X97348006Y-106567324D01*
X97356465Y-106550933D01*
X97378069Y-106504210D01*
X97407246Y-106432025D01*
X97438097Y-106349047D01*
X97441560Y-106339266D01*
X97478607Y-106240646D01*
X97521299Y-106136699D01*
X97557761Y-106055583D01*
X97597956Y-105970849D01*
X97637976Y-105884695D01*
X97661280Y-105833333D01*
X97699188Y-105753861D01*
X97741383Y-105673069D01*
X97752413Y-105653417D01*
X97790812Y-105586662D01*
X97837756Y-105505108D01*
X97868273Y-105452121D01*
X97934532Y-105352710D01*
X98016258Y-105253389D01*
X98104594Y-105163134D01*
X98190680Y-105090920D01*
X98265656Y-105045723D01*
X98271970Y-105043125D01*
X98380754Y-105014694D01*
X98490833Y-105009744D01*
X98580020Y-105027582D01*
X98580020Y-105027582D01*
G37*
X98580020Y-105027582D02*
X98671708Y-105082455D01*
X98768398Y-105179159D01*
X98869973Y-105317503D01*
X98976315Y-105497295D01*
X99087306Y-105718344D01*
X99202827Y-105980459D01*
X99271705Y-106150833D01*
X99319749Y-106272739D01*
X99369837Y-106399157D01*
X99416343Y-106515926D01*
X99453639Y-106608881D01*
X99456718Y-106616500D01*
X99495241Y-106713260D01*
X99541794Y-106832440D01*
X99589668Y-106956776D01*
X99621203Y-107039833D01*
X99664034Y-107150468D01*
X99717815Y-107284873D01*
X99776457Y-107428066D01*
X99833873Y-107565064D01*
X99849106Y-107600750D01*
X99947483Y-107825121D01*
X100034692Y-108011945D01*
X100112860Y-108163866D01*
X100184109Y-108283529D01*
X100250566Y-108373580D01*
X100314354Y-108436662D01*
X100377598Y-108475422D01*
X100442423Y-108492503D01*
X100510953Y-108490552D01*
X100556160Y-108480963D01*
X100632041Y-108444198D01*
X100719331Y-108371080D01*
X100819470Y-108260303D01*
X100872637Y-108193220D01*
X100897586Y-108154447D01*
X100935078Y-108088621D01*
X100981177Y-108003465D01*
X101031944Y-107906704D01*
X101083443Y-107806063D01*
X101131735Y-107709266D01*
X101172883Y-107624037D01*
X101202951Y-107558102D01*
X101217999Y-107519185D01*
X101219000Y-107513722D01*
X101227104Y-107490064D01*
X101248041Y-107440234D01*
X101269099Y-107393064D01*
X101298947Y-107324500D01*
X101337555Y-107231446D01*
X101378713Y-107129008D01*
X101399556Y-107075770D01*
X101436445Y-106987534D01*
X101472332Y-106913800D01*
X101502358Y-106863949D01*
X101517398Y-106848228D01*
X101568288Y-106831062D01*
X101614272Y-106830791D01*
X101640336Y-106846644D01*
X101642025Y-106854625D01*
X101634412Y-106893180D01*
X101616032Y-106953624D01*
X101592802Y-107018940D01*
X101570643Y-107072111D01*
X101559255Y-107092583D01*
X101545282Y-107120315D01*
X101520396Y-107178342D01*
X101488509Y-107257305D01*
X101463460Y-107321745D01*
X101415186Y-107442848D01*
X101358590Y-107576829D01*
X101297969Y-107714237D01*
X101237622Y-107845623D01*
X101181850Y-107961537D01*
X101134949Y-108052529D01*
X101115061Y-108087583D01*
X100998616Y-108270438D01*
X100890527Y-108414804D01*
X100787837Y-108522989D01*
X100687593Y-108597299D01*
X100586839Y-108640039D01*
X100482622Y-108653518D01*
X100400062Y-108645750D01*
X100316763Y-108623170D01*
X100245613Y-108583493D01*
X100176146Y-108519257D01*
X100109901Y-108438850D01*
X100045841Y-108344338D01*
X99972023Y-108217589D01*
X99892236Y-108066471D01*
X99810268Y-107898854D01*
X99729908Y-107722608D01*
X99654943Y-107545603D01*
X99589161Y-107375708D01*
X99563822Y-107304417D01*
X99538156Y-107234819D01*
X99515177Y-107181013D01*
X99501725Y-107157308D01*
X99486178Y-107120698D01*
X99483333Y-107095232D01*
X99475171Y-107059294D01*
X99453090Y-106994749D01*
X99420698Y-106911527D01*
X99390655Y-106840174D01*
X99351615Y-106748818D01*
X99301659Y-106629543D01*
X99245515Y-106493768D01*
X99187911Y-106352913D01*
X99145126Y-106247160D01*
X99039765Y-105992035D01*
X98944143Y-105775537D01*
X98856826Y-105595458D01*
X98776382Y-105449591D01*
X98701378Y-105335730D01*
X98630380Y-105251668D01*
X98561956Y-105195197D01*
X98494673Y-105164112D01*
X98436597Y-105156000D01*
X98372444Y-105170145D01*
X98293352Y-105207246D01*
X98213254Y-105259301D01*
X98146086Y-105318311D01*
X98137661Y-105327642D01*
X98075644Y-105410075D01*
X98002387Y-105525741D01*
X97921332Y-105668170D01*
X97835922Y-105830890D01*
X97749600Y-106007431D01*
X97665809Y-106191321D01*
X97615224Y-106309583D01*
X97554236Y-106456552D01*
X97507909Y-106569473D01*
X97474358Y-106653266D01*
X97451699Y-106712851D01*
X97438049Y-106753148D01*
X97431523Y-106779074D01*
X97430166Y-106792784D01*
X97412189Y-106827237D01*
X97362418Y-106841006D01*
X97302935Y-106835529D01*
X97258680Y-106825172D01*
X97239679Y-106817738D01*
X97239666Y-106817628D01*
X97247685Y-106793819D01*
X97268057Y-106744261D01*
X97295253Y-106681577D01*
X97323745Y-106618391D01*
X97348006Y-106567324D01*
X97356465Y-106550933D01*
X97378069Y-106504210D01*
X97407246Y-106432025D01*
X97438097Y-106349047D01*
X97441560Y-106339266D01*
X97478607Y-106240646D01*
X97521299Y-106136699D01*
X97557761Y-106055583D01*
X97597956Y-105970849D01*
X97637976Y-105884695D01*
X97661280Y-105833333D01*
X97699188Y-105753861D01*
X97741383Y-105673069D01*
X97752413Y-105653417D01*
X97790812Y-105586662D01*
X97837756Y-105505108D01*
X97868273Y-105452121D01*
X97934532Y-105352710D01*
X98016258Y-105253389D01*
X98104594Y-105163134D01*
X98190680Y-105090920D01*
X98265656Y-105045723D01*
X98271970Y-105043125D01*
X98380754Y-105014694D01*
X98490833Y-105009744D01*
X98580020Y-105027582D01*
D12*
X126650000Y-107254800D03*
X126650000Y-107754800D03*
X126650000Y-108254800D03*
X126650000Y-108754800D03*
X126650000Y-109254800D03*
X131050000Y-109254800D03*
X131050000Y-108754800D03*
X131050000Y-108254800D03*
X131050000Y-107754800D03*
X131050000Y-107254800D03*
D13*
X104600000Y-111300000D03*
X104600000Y-109300000D03*
D14*
X121450000Y-111100000D03*
X119550000Y-111100000D03*
X119550000Y-113200000D03*
X121450000Y-113200000D03*
D15*
X143510000Y-105410000D03*
D16*
X143510000Y-102870000D03*
D17*
X142980000Y-110400000D03*
X140440000Y-110400000D03*
D18*
X137900000Y-110400000D03*
D19*
X111650000Y-107710000D03*
X111650000Y-112790000D03*
X107650000Y-112790000D03*
X107650000Y-107710000D03*
D20*
X101600000Y-116840000D03*
X104140000Y-116840000D03*
X106680000Y-116840000D03*
X109220000Y-116840000D03*
X111760000Y-116840000D03*
X114300000Y-116840000D03*
X116840000Y-116840000D03*
X119380000Y-116840000D03*
X121920000Y-116840000D03*
X124460000Y-116840000D03*
X127000000Y-116840000D03*
X129540000Y-116840000D03*
X132080000Y-116840000D03*
X134620000Y-116840000D03*
X137160000Y-116840000D03*
X139700000Y-116840000D03*
X111760000Y-96520000D03*
X114300000Y-96520000D03*
X116840000Y-96520000D03*
X119380000Y-96520000D03*
X121920000Y-96520000D03*
X124460000Y-96520000D03*
X127000000Y-96520000D03*
X129540000Y-96520000D03*
X132080000Y-96520000D03*
X134620000Y-96520000D03*
X137160000Y-96520000D03*
X139700000Y-96520000D03*
D21*
X143510000Y-97790000D03*
X143510000Y-115570000D03*
D22*
X97790000Y-115570000D03*
X97790000Y-97790000D03*
D13*
X115167927Y-106714025D03*
X115167927Y-108714025D03*
D23*
X133300000Y-103700000D03*
X135300000Y-103700000D03*
X122926600Y-105562400D03*
X124926600Y-105562400D03*
X133300000Y-101600000D03*
X135300000Y-101600000D03*
D13*
X117304804Y-111174218D03*
X117304804Y-113174218D03*
X125400000Y-113099000D03*
X125400000Y-111099000D03*
X133781800Y-112607600D03*
X133781800Y-110607600D03*
X117217127Y-108718632D03*
X117217127Y-106718632D03*
D14*
X113553200Y-99491800D03*
X115453200Y-99491800D03*
X138950000Y-106200000D03*
X140850000Y-106200000D03*
D13*
X123300000Y-113099000D03*
X123300000Y-111099000D03*
D24*
X137550000Y-103850000D03*
X137550000Y-101950000D03*
X140250000Y-101950000D03*
X140250000Y-102900000D03*
X140250000Y-103850000D03*
D14*
X117461207Y-101776400D03*
X115561207Y-101776400D03*
X115547400Y-104126400D03*
X117447400Y-104126400D03*
D25*
X129598600Y-101255000D03*
X129598600Y-101905000D03*
X129598600Y-102565000D03*
X129598600Y-103215000D03*
X127398600Y-103215000D03*
X127398600Y-102565000D03*
X127398600Y-101905000D03*
X127398600Y-101255000D03*
D13*
X115200000Y-113150000D03*
X115200000Y-111150000D03*
M02*
