M48
;DRILL file {KiCad (5.0.0-rc2-dev-444-g2974a2c10)} date 11/19/19 23:53:21
;FORMAT={-:-/ absolute / inch / decimal}
FMAT,2
INCH,TZ
T1C0.0130
T2C0.0354
T3C0.0394
T4C0.0984
T5C0.0984
%
G90
G05
M72
T1
X3.825Y-4.
X3.825Y-4.4
X4.05Y-4.54
X4.3209Y-4.3445
X4.34Y-3.85
X4.47Y-4.008
X4.55Y-4.53
X4.695Y-4.007
X4.695Y-4.067
X4.695Y-4.101
X4.78Y-3.94
X4.78Y-4.14
X4.78Y-4.265
X4.879Y-4.101
X4.95Y-4.545
X5.Y-4.374
X5.Y-4.477
X5.05Y-4.545
X5.138Y-4.514
X5.193Y-3.961
X5.23Y-4.262
X5.25Y-4.545
X5.272Y-4.191
X5.3268Y-4.141
X5.55Y-3.85
X5.55Y-4.545
X5.686Y-4.441
T2
X5.4291Y-4.3465
X5.5291Y-4.3465
X5.6291Y-4.3465
T3
X4.Y-4.6
X4.1Y-4.6
X4.2Y-4.6
X4.3Y-4.6
X4.4Y-3.8
X4.4Y-4.6
X4.5Y-3.8
X4.5Y-4.6
X4.6Y-3.8
X4.6Y-4.6
X4.7Y-3.8
X4.7Y-4.6
X4.8Y-3.8
X4.8Y-4.6
X4.9Y-3.8
X4.9Y-4.6
X5.Y-3.8
X5.Y-4.6
X5.1Y-3.8
X5.1Y-4.6
X5.2Y-3.8
X5.2Y-4.6
X5.3Y-3.8
X5.3Y-4.6
X5.4Y-3.8
X5.4Y-4.6
X5.5Y-3.8
X5.5Y-4.6
X5.65Y-4.05
X5.65Y-4.15
T4
X3.85Y-3.85
X3.85Y-4.55
T5
X5.65Y-3.85
X5.65Y-4.55
T0
M30
