G04 #@! TF.GenerationSoftware,KiCad,Pcbnew,(5.0.0-rc2-dev-444-g2974a2c10)*
G04 #@! TF.CreationDate,2019-11-19T23:53:18-08:00*
G04 #@! TF.ProjectId,Waveform_Gen_ADSR,57617665666F726D5F47656E5F414453,v00*
G04 #@! TF.SameCoordinates,Original*
G04 #@! TF.FileFunction,Legend,Bot*
G04 #@! TF.FilePolarity,Positive*
%FSLAX46Y46*%
G04 Gerber Fmt 4.6, Leading zero omitted, Abs format (unit mm)*
G04 Created by KiCad (PCBNEW (5.0.0-rc2-dev-444-g2974a2c10)) date 11/19/19 23:53:18*
%MOMM*%
%LPD*%
G01*
G04 APERTURE LIST*
%ADD10C,0.200000*%
%ADD11C,0.120000*%
%ADD12C,0.140000*%
%ADD13C,0.100000*%
G04 APERTURE END LIST*
D10*
X119888000Y-114300000D02*
X123190000Y-114300000D01*
X141605000Y-99695000D02*
X141605000Y-99060000D01*
X145415000Y-99695000D02*
X141605000Y-99695000D01*
X141605000Y-113665000D02*
X145415000Y-113665000D01*
X141605000Y-114300000D02*
X141605000Y-113665000D01*
D11*
X132016285Y-112041428D02*
X131873428Y-112641428D01*
X131759142Y-112212857D01*
X131644857Y-112641428D01*
X131502000Y-112041428D01*
X131302000Y-112470000D02*
X131016285Y-112470000D01*
X131359142Y-112641428D02*
X131159142Y-112041428D01*
X130959142Y-112641428D01*
X130844857Y-112041428D02*
X130644857Y-112641428D01*
X130444857Y-112041428D01*
X130244857Y-112327142D02*
X130044857Y-112327142D01*
X129959142Y-112641428D02*
X130244857Y-112641428D01*
X130244857Y-112041428D01*
X129959142Y-112041428D01*
X129844857Y-112698571D02*
X129387714Y-112698571D01*
X129130571Y-112041428D02*
X129016285Y-112041428D01*
X128959142Y-112070000D01*
X128902000Y-112127142D01*
X128873428Y-112241428D01*
X128873428Y-112441428D01*
X128902000Y-112555714D01*
X128959142Y-112612857D01*
X129016285Y-112641428D01*
X129130571Y-112641428D01*
X129187714Y-112612857D01*
X129244857Y-112555714D01*
X129273428Y-112441428D01*
X129273428Y-112241428D01*
X129244857Y-112127142D01*
X129187714Y-112070000D01*
X129130571Y-112041428D01*
X128616285Y-112041428D02*
X128616285Y-112527142D01*
X128587714Y-112584285D01*
X128559142Y-112612857D01*
X128502000Y-112641428D01*
X128387714Y-112641428D01*
X128330571Y-112612857D01*
X128302000Y-112584285D01*
X128273428Y-112527142D01*
X128273428Y-112041428D01*
X128073428Y-112041428D02*
X127730571Y-112041428D01*
X127902000Y-112641428D02*
X127902000Y-112041428D01*
X131959142Y-113432857D02*
X131502000Y-113432857D01*
X131216285Y-113261428D02*
X130759142Y-113432857D01*
X131216285Y-113604285D01*
X130044857Y-113490000D02*
X129759142Y-113490000D01*
X130102000Y-113661428D02*
X129902000Y-113061428D01*
X129702000Y-113661428D01*
X129530571Y-113118571D02*
X129502000Y-113090000D01*
X129444857Y-113061428D01*
X129302000Y-113061428D01*
X129244857Y-113090000D01*
X129216285Y-113118571D01*
X129187714Y-113175714D01*
X129187714Y-113232857D01*
X129216285Y-113318571D01*
X129559142Y-113661428D01*
X129187714Y-113661428D01*
X142337714Y-101150000D02*
X142052000Y-101150000D01*
X142394857Y-101321428D02*
X142194857Y-100721428D01*
X141994857Y-101321428D01*
X141794857Y-101321428D02*
X141794857Y-100721428D01*
X141652000Y-100721428D01*
X141566285Y-100750000D01*
X141509142Y-100807142D01*
X141480571Y-100864285D01*
X141452000Y-100978571D01*
X141452000Y-101064285D01*
X141480571Y-101178571D01*
X141509142Y-101235714D01*
X141566285Y-101292857D01*
X141652000Y-101321428D01*
X141794857Y-101321428D01*
X141166285Y-101321428D02*
X141052000Y-101321428D01*
X140994857Y-101292857D01*
X140966285Y-101264285D01*
X140909142Y-101178571D01*
X140880571Y-101064285D01*
X140880571Y-100835714D01*
X140909142Y-100778571D01*
X140937714Y-100750000D01*
X140994857Y-100721428D01*
X141109142Y-100721428D01*
X141166285Y-100750000D01*
X141194857Y-100778571D01*
X141223428Y-100835714D01*
X141223428Y-100978571D01*
X141194857Y-101035714D01*
X141166285Y-101064285D01*
X141109142Y-101092857D01*
X140994857Y-101092857D01*
X140937714Y-101064285D01*
X140909142Y-101035714D01*
X140880571Y-100978571D01*
X140537714Y-100978571D02*
X140594857Y-100950000D01*
X140623428Y-100921428D01*
X140652000Y-100864285D01*
X140652000Y-100835714D01*
X140623428Y-100778571D01*
X140594857Y-100750000D01*
X140537714Y-100721428D01*
X140423428Y-100721428D01*
X140366285Y-100750000D01*
X140337714Y-100778571D01*
X140309142Y-100835714D01*
X140309142Y-100864285D01*
X140337714Y-100921428D01*
X140366285Y-100950000D01*
X140423428Y-100978571D01*
X140537714Y-100978571D01*
X140594857Y-101007142D01*
X140623428Y-101035714D01*
X140652000Y-101092857D01*
X140652000Y-101207142D01*
X140623428Y-101264285D01*
X140594857Y-101292857D01*
X140537714Y-101321428D01*
X140423428Y-101321428D01*
X140366285Y-101292857D01*
X140337714Y-101264285D01*
X140309142Y-101207142D01*
X140309142Y-101092857D01*
X140337714Y-101035714D01*
X140366285Y-101007142D01*
X140423428Y-100978571D01*
X140109142Y-100721428D02*
X139737714Y-100721428D01*
X139937714Y-100950000D01*
X139852000Y-100950000D01*
X139794857Y-100978571D01*
X139766285Y-101007142D01*
X139737714Y-101064285D01*
X139737714Y-101207142D01*
X139766285Y-101264285D01*
X139794857Y-101292857D01*
X139852000Y-101321428D01*
X140023428Y-101321428D01*
X140080571Y-101292857D01*
X140109142Y-101264285D01*
X139537714Y-100721428D02*
X139166285Y-100721428D01*
X139366285Y-100950000D01*
X139280571Y-100950000D01*
X139223428Y-100978571D01*
X139194857Y-101007142D01*
X139166285Y-101064285D01*
X139166285Y-101207142D01*
X139194857Y-101264285D01*
X139223428Y-101292857D01*
X139280571Y-101321428D01*
X139452000Y-101321428D01*
X139509142Y-101292857D01*
X139537714Y-101264285D01*
X138452000Y-101321428D02*
X138452000Y-100721428D01*
X138223428Y-100721428D01*
X138166285Y-100750000D01*
X138137714Y-100778571D01*
X138109142Y-100835714D01*
X138109142Y-100921428D01*
X138137714Y-100978571D01*
X138166285Y-101007142D01*
X138223428Y-101035714D01*
X138452000Y-101035714D01*
X137852000Y-101321428D02*
X137852000Y-100921428D01*
X137852000Y-101035714D02*
X137823428Y-100978571D01*
X137794857Y-100950000D01*
X137737714Y-100921428D01*
X137680571Y-100921428D01*
X137252000Y-101292857D02*
X137309142Y-101321428D01*
X137423428Y-101321428D01*
X137480571Y-101292857D01*
X137509142Y-101235714D01*
X137509142Y-101007142D01*
X137480571Y-100950000D01*
X137423428Y-100921428D01*
X137309142Y-100921428D01*
X137252000Y-100950000D01*
X137223428Y-101007142D01*
X137223428Y-101064285D01*
X137509142Y-101121428D01*
X136709142Y-101292857D02*
X136766285Y-101321428D01*
X136880571Y-101321428D01*
X136937714Y-101292857D01*
X136966285Y-101264285D01*
X136994857Y-101207142D01*
X136994857Y-101035714D01*
X136966285Y-100978571D01*
X136937714Y-100950000D01*
X136880571Y-100921428D01*
X136766285Y-100921428D01*
X136709142Y-100950000D01*
X136452000Y-101321428D02*
X136452000Y-100921428D01*
X136452000Y-100721428D02*
X136480571Y-100750000D01*
X136452000Y-100778571D01*
X136423428Y-100750000D01*
X136452000Y-100721428D01*
X136452000Y-100778571D01*
X136194857Y-101292857D02*
X136137714Y-101321428D01*
X136023428Y-101321428D01*
X135966285Y-101292857D01*
X135937714Y-101235714D01*
X135937714Y-101207142D01*
X135966285Y-101150000D01*
X136023428Y-101121428D01*
X136109142Y-101121428D01*
X136166285Y-101092857D01*
X136194857Y-101035714D01*
X136194857Y-101007142D01*
X136166285Y-100950000D01*
X136109142Y-100921428D01*
X136023428Y-100921428D01*
X135966285Y-100950000D01*
X135680571Y-101321428D02*
X135680571Y-100921428D01*
X135680571Y-100721428D02*
X135709142Y-100750000D01*
X135680571Y-100778571D01*
X135652000Y-100750000D01*
X135680571Y-100721428D01*
X135680571Y-100778571D01*
X135309142Y-101321428D02*
X135366285Y-101292857D01*
X135394857Y-101264285D01*
X135423428Y-101207142D01*
X135423428Y-101035714D01*
X135394857Y-100978571D01*
X135366285Y-100950000D01*
X135309142Y-100921428D01*
X135223428Y-100921428D01*
X135166285Y-100950000D01*
X135137714Y-100978571D01*
X135109142Y-101035714D01*
X135109142Y-101207142D01*
X135137714Y-101264285D01*
X135166285Y-101292857D01*
X135223428Y-101321428D01*
X135309142Y-101321428D01*
X134852000Y-100921428D02*
X134852000Y-101321428D01*
X134852000Y-100978571D02*
X134823428Y-100950000D01*
X134766285Y-100921428D01*
X134680571Y-100921428D01*
X134623428Y-100950000D01*
X134594857Y-101007142D01*
X134594857Y-101321428D01*
X133909142Y-100721428D02*
X133766285Y-101321428D01*
X133652000Y-100892857D01*
X133537714Y-101321428D01*
X133394857Y-100721428D01*
X132909142Y-101321428D02*
X132909142Y-101007142D01*
X132937714Y-100950000D01*
X132994857Y-100921428D01*
X133109142Y-100921428D01*
X133166285Y-100950000D01*
X132909142Y-101292857D02*
X132966285Y-101321428D01*
X133109142Y-101321428D01*
X133166285Y-101292857D01*
X133194857Y-101235714D01*
X133194857Y-101178571D01*
X133166285Y-101121428D01*
X133109142Y-101092857D01*
X132966285Y-101092857D01*
X132909142Y-101064285D01*
X132680571Y-100921428D02*
X132537714Y-101321428D01*
X132394857Y-100921428D01*
X131937714Y-101292857D02*
X131994857Y-101321428D01*
X132109142Y-101321428D01*
X132166285Y-101292857D01*
X132194857Y-101235714D01*
X132194857Y-101007142D01*
X132166285Y-100950000D01*
X132109142Y-100921428D01*
X131994857Y-100921428D01*
X131937714Y-100950000D01*
X131909142Y-101007142D01*
X131909142Y-101064285D01*
X132194857Y-101121428D01*
X131737714Y-100921428D02*
X131509142Y-100921428D01*
X131652000Y-101321428D02*
X131652000Y-100807142D01*
X131623428Y-100750000D01*
X131566285Y-100721428D01*
X131509142Y-100721428D01*
X131223428Y-101321428D02*
X131280571Y-101292857D01*
X131309142Y-101264285D01*
X131337714Y-101207142D01*
X131337714Y-101035714D01*
X131309142Y-100978571D01*
X131280571Y-100950000D01*
X131223428Y-100921428D01*
X131137714Y-100921428D01*
X131080571Y-100950000D01*
X131052000Y-100978571D01*
X131023428Y-101035714D01*
X131023428Y-101207142D01*
X131052000Y-101264285D01*
X131080571Y-101292857D01*
X131137714Y-101321428D01*
X131223428Y-101321428D01*
X130766285Y-101321428D02*
X130766285Y-100921428D01*
X130766285Y-101035714D02*
X130737714Y-100978571D01*
X130709142Y-100950000D01*
X130652000Y-100921428D01*
X130594857Y-100921428D01*
X130394857Y-101321428D02*
X130394857Y-100921428D01*
X130394857Y-100978571D02*
X130366285Y-100950000D01*
X130309142Y-100921428D01*
X130223428Y-100921428D01*
X130166285Y-100950000D01*
X130137714Y-101007142D01*
X130137714Y-101321428D01*
X130137714Y-101007142D02*
X130109142Y-100950000D01*
X130052000Y-100921428D01*
X129966285Y-100921428D01*
X129909142Y-100950000D01*
X129880571Y-101007142D01*
X129880571Y-101321428D01*
X128823428Y-100750000D02*
X128880571Y-100721428D01*
X128966285Y-100721428D01*
X129052000Y-100750000D01*
X129109142Y-100807142D01*
X129137714Y-100864285D01*
X129166285Y-100978571D01*
X129166285Y-101064285D01*
X129137714Y-101178571D01*
X129109142Y-101235714D01*
X129052000Y-101292857D01*
X128966285Y-101321428D01*
X128909142Y-101321428D01*
X128823428Y-101292857D01*
X128794857Y-101264285D01*
X128794857Y-101064285D01*
X128909142Y-101064285D01*
X128309142Y-101292857D02*
X128366285Y-101321428D01*
X128480571Y-101321428D01*
X128537714Y-101292857D01*
X128566285Y-101235714D01*
X128566285Y-101007142D01*
X128537714Y-100950000D01*
X128480571Y-100921428D01*
X128366285Y-100921428D01*
X128309142Y-100950000D01*
X128280571Y-101007142D01*
X128280571Y-101064285D01*
X128566285Y-101121428D01*
X128023428Y-100921428D02*
X128023428Y-101321428D01*
X128023428Y-100978571D02*
X127994857Y-100950000D01*
X127937714Y-100921428D01*
X127852000Y-100921428D01*
X127794857Y-100950000D01*
X127766285Y-101007142D01*
X127766285Y-101321428D01*
X127252000Y-101292857D02*
X127309142Y-101321428D01*
X127423428Y-101321428D01*
X127480571Y-101292857D01*
X127509142Y-101235714D01*
X127509142Y-101007142D01*
X127480571Y-100950000D01*
X127423428Y-100921428D01*
X127309142Y-100921428D01*
X127252000Y-100950000D01*
X127223428Y-101007142D01*
X127223428Y-101064285D01*
X127509142Y-101121428D01*
X126966285Y-101321428D02*
X126966285Y-100921428D01*
X126966285Y-101035714D02*
X126937714Y-100978571D01*
X126909142Y-100950000D01*
X126852000Y-100921428D01*
X126794857Y-100921428D01*
X126337714Y-101321428D02*
X126337714Y-101007142D01*
X126366285Y-100950000D01*
X126423428Y-100921428D01*
X126537714Y-100921428D01*
X126594857Y-100950000D01*
X126337714Y-101292857D02*
X126394857Y-101321428D01*
X126537714Y-101321428D01*
X126594857Y-101292857D01*
X126623428Y-101235714D01*
X126623428Y-101178571D01*
X126594857Y-101121428D01*
X126537714Y-101092857D01*
X126394857Y-101092857D01*
X126337714Y-101064285D01*
X126137714Y-100921428D02*
X125909142Y-100921428D01*
X126052000Y-100721428D02*
X126052000Y-101235714D01*
X126023428Y-101292857D01*
X125966285Y-101321428D01*
X125909142Y-101321428D01*
X125623428Y-101321428D02*
X125680571Y-101292857D01*
X125709142Y-101264285D01*
X125737714Y-101207142D01*
X125737714Y-101035714D01*
X125709142Y-100978571D01*
X125680571Y-100950000D01*
X125623428Y-100921428D01*
X125537714Y-100921428D01*
X125480571Y-100950000D01*
X125452000Y-100978571D01*
X125423428Y-101035714D01*
X125423428Y-101207142D01*
X125452000Y-101264285D01*
X125480571Y-101292857D01*
X125537714Y-101321428D01*
X125623428Y-101321428D01*
X125166285Y-101321428D02*
X125166285Y-100921428D01*
X125166285Y-101035714D02*
X125137714Y-100978571D01*
X125109142Y-100950000D01*
X125052000Y-100921428D01*
X124994857Y-100921428D01*
X141394857Y-102112857D02*
X140937714Y-102112857D01*
X141166285Y-102341428D02*
X141166285Y-101884285D01*
X140109142Y-101998571D02*
X140166285Y-101970000D01*
X140194857Y-101941428D01*
X140223428Y-101884285D01*
X140223428Y-101855714D01*
X140194857Y-101798571D01*
X140166285Y-101770000D01*
X140109142Y-101741428D01*
X139994857Y-101741428D01*
X139937714Y-101770000D01*
X139909142Y-101798571D01*
X139880571Y-101855714D01*
X139880571Y-101884285D01*
X139909142Y-101941428D01*
X139937714Y-101970000D01*
X139994857Y-101998571D01*
X140109142Y-101998571D01*
X140166285Y-102027142D01*
X140194857Y-102055714D01*
X140223428Y-102112857D01*
X140223428Y-102227142D01*
X140194857Y-102284285D01*
X140166285Y-102312857D01*
X140109142Y-102341428D01*
X139994857Y-102341428D01*
X139937714Y-102312857D01*
X139909142Y-102284285D01*
X139880571Y-102227142D01*
X139880571Y-102112857D01*
X139909142Y-102055714D01*
X139937714Y-102027142D01*
X139994857Y-101998571D01*
X139623428Y-102112857D02*
X139166285Y-102112857D01*
X138880571Y-102341428D02*
X138880571Y-101741428D01*
X138880571Y-101970000D02*
X138823428Y-101941428D01*
X138709142Y-101941428D01*
X138652000Y-101970000D01*
X138623428Y-101998571D01*
X138594857Y-102055714D01*
X138594857Y-102227142D01*
X138623428Y-102284285D01*
X138652000Y-102312857D01*
X138709142Y-102341428D01*
X138823428Y-102341428D01*
X138880571Y-102312857D01*
X138337714Y-102341428D02*
X138337714Y-101941428D01*
X138337714Y-101741428D02*
X138366285Y-101770000D01*
X138337714Y-101798571D01*
X138309142Y-101770000D01*
X138337714Y-101741428D01*
X138337714Y-101798571D01*
X138137714Y-101941428D02*
X137909142Y-101941428D01*
X138052000Y-101741428D02*
X138052000Y-102255714D01*
X138023428Y-102312857D01*
X137966285Y-102341428D01*
X137909142Y-102341428D01*
X136994857Y-102341428D02*
X136994857Y-102027142D01*
X137023428Y-101970000D01*
X137080571Y-101941428D01*
X137194857Y-101941428D01*
X137252000Y-101970000D01*
X136994857Y-102312857D02*
X137052000Y-102341428D01*
X137194857Y-102341428D01*
X137252000Y-102312857D01*
X137280571Y-102255714D01*
X137280571Y-102198571D01*
X137252000Y-102141428D01*
X137194857Y-102112857D01*
X137052000Y-102112857D01*
X136994857Y-102084285D01*
X136709142Y-102341428D02*
X136709142Y-101941428D01*
X136709142Y-101998571D02*
X136680571Y-101970000D01*
X136623428Y-101941428D01*
X136537714Y-101941428D01*
X136480571Y-101970000D01*
X136452000Y-102027142D01*
X136452000Y-102341428D01*
X136452000Y-102027142D02*
X136423428Y-101970000D01*
X136366285Y-101941428D01*
X136280571Y-101941428D01*
X136223428Y-101970000D01*
X136194857Y-102027142D01*
X136194857Y-102341428D01*
X135909142Y-101941428D02*
X135909142Y-102541428D01*
X135909142Y-101970000D02*
X135852000Y-101941428D01*
X135737714Y-101941428D01*
X135680571Y-101970000D01*
X135652000Y-101998571D01*
X135623428Y-102055714D01*
X135623428Y-102227142D01*
X135652000Y-102284285D01*
X135680571Y-102312857D01*
X135737714Y-102341428D01*
X135852000Y-102341428D01*
X135909142Y-102312857D01*
X135280571Y-102341428D02*
X135337714Y-102312857D01*
X135366285Y-102255714D01*
X135366285Y-101741428D01*
X135052000Y-102341428D02*
X135052000Y-101941428D01*
X135052000Y-101741428D02*
X135080571Y-101770000D01*
X135052000Y-101798571D01*
X135023428Y-101770000D01*
X135052000Y-101741428D01*
X135052000Y-101798571D01*
X134852000Y-101941428D02*
X134623428Y-101941428D01*
X134766285Y-101741428D02*
X134766285Y-102255714D01*
X134737714Y-102312857D01*
X134680571Y-102341428D01*
X134623428Y-102341428D01*
X134166285Y-101941428D02*
X134166285Y-102341428D01*
X134423428Y-101941428D02*
X134423428Y-102255714D01*
X134394857Y-102312857D01*
X134337714Y-102341428D01*
X134252000Y-102341428D01*
X134194857Y-102312857D01*
X134166285Y-102284285D01*
X133623428Y-102341428D02*
X133623428Y-101741428D01*
X133623428Y-102312857D02*
X133680571Y-102341428D01*
X133794857Y-102341428D01*
X133852000Y-102312857D01*
X133880571Y-102284285D01*
X133909142Y-102227142D01*
X133909142Y-102055714D01*
X133880571Y-101998571D01*
X133852000Y-101970000D01*
X133794857Y-101941428D01*
X133680571Y-101941428D01*
X133623428Y-101970000D01*
X133109142Y-102312857D02*
X133166285Y-102341428D01*
X133280571Y-102341428D01*
X133337714Y-102312857D01*
X133366285Y-102255714D01*
X133366285Y-102027142D01*
X133337714Y-101970000D01*
X133280571Y-101941428D01*
X133166285Y-101941428D01*
X133109142Y-101970000D01*
X133080571Y-102027142D01*
X133080571Y-102084285D01*
X133366285Y-102141428D01*
X132109142Y-102312857D02*
X132166285Y-102341428D01*
X132280571Y-102341428D01*
X132337714Y-102312857D01*
X132366285Y-102284285D01*
X132394857Y-102227142D01*
X132394857Y-102055714D01*
X132366285Y-101998571D01*
X132337714Y-101970000D01*
X132280571Y-101941428D01*
X132166285Y-101941428D01*
X132109142Y-101970000D01*
X131766285Y-102341428D02*
X131823428Y-102312857D01*
X131852000Y-102284285D01*
X131880571Y-102227142D01*
X131880571Y-102055714D01*
X131852000Y-101998571D01*
X131823428Y-101970000D01*
X131766285Y-101941428D01*
X131680571Y-101941428D01*
X131623428Y-101970000D01*
X131594857Y-101998571D01*
X131566285Y-102055714D01*
X131566285Y-102227142D01*
X131594857Y-102284285D01*
X131623428Y-102312857D01*
X131680571Y-102341428D01*
X131766285Y-102341428D01*
X131309142Y-101941428D02*
X131309142Y-102341428D01*
X131309142Y-101998571D02*
X131280571Y-101970000D01*
X131223428Y-101941428D01*
X131137714Y-101941428D01*
X131080571Y-101970000D01*
X131052000Y-102027142D01*
X131052000Y-102341428D01*
X130852000Y-101941428D02*
X130623428Y-101941428D01*
X130766285Y-101741428D02*
X130766285Y-102255714D01*
X130737714Y-102312857D01*
X130680571Y-102341428D01*
X130623428Y-102341428D01*
X130423428Y-102341428D02*
X130423428Y-101941428D01*
X130423428Y-102055714D02*
X130394857Y-101998571D01*
X130366285Y-101970000D01*
X130309142Y-101941428D01*
X130252000Y-101941428D01*
X129966285Y-102341428D02*
X130023428Y-102312857D01*
X130052000Y-102284285D01*
X130080571Y-102227142D01*
X130080571Y-102055714D01*
X130052000Y-101998571D01*
X130023428Y-101970000D01*
X129966285Y-101941428D01*
X129880571Y-101941428D01*
X129823428Y-101970000D01*
X129794857Y-101998571D01*
X129766285Y-102055714D01*
X129766285Y-102227142D01*
X129794857Y-102284285D01*
X129823428Y-102312857D01*
X129880571Y-102341428D01*
X129966285Y-102341428D01*
X129423428Y-102341428D02*
X129480571Y-102312857D01*
X129509142Y-102255714D01*
X129509142Y-101741428D01*
X128566285Y-102570000D02*
X128594857Y-102541428D01*
X128652000Y-102455714D01*
X128680571Y-102398571D01*
X128709142Y-102312857D01*
X128737714Y-102170000D01*
X128737714Y-102055714D01*
X128709142Y-101912857D01*
X128680571Y-101827142D01*
X128652000Y-101770000D01*
X128594857Y-101684285D01*
X128566285Y-101655714D01*
X128394857Y-101941428D02*
X128252000Y-102341428D01*
X128109142Y-101941428D01*
X127880571Y-102341428D02*
X127880571Y-101941428D01*
X127880571Y-101741428D02*
X127909142Y-101770000D01*
X127880571Y-101798571D01*
X127852000Y-101770000D01*
X127880571Y-101741428D01*
X127880571Y-101798571D01*
X127337714Y-102341428D02*
X127337714Y-102027142D01*
X127366285Y-101970000D01*
X127423428Y-101941428D01*
X127537714Y-101941428D01*
X127594857Y-101970000D01*
X127337714Y-102312857D02*
X127394857Y-102341428D01*
X127537714Y-102341428D01*
X127594857Y-102312857D01*
X127623428Y-102255714D01*
X127623428Y-102198571D01*
X127594857Y-102141428D01*
X127537714Y-102112857D01*
X127394857Y-102112857D01*
X127337714Y-102084285D01*
X126594857Y-102341428D02*
X126594857Y-101741428D01*
X126337714Y-101798571D02*
X126309142Y-101770000D01*
X126252000Y-101741428D01*
X126109142Y-101741428D01*
X126052000Y-101770000D01*
X126023428Y-101798571D01*
X125994857Y-101855714D01*
X125994857Y-101912857D01*
X126023428Y-101998571D01*
X126366285Y-102341428D01*
X125994857Y-102341428D01*
X125394857Y-102284285D02*
X125423428Y-102312857D01*
X125509142Y-102341428D01*
X125566285Y-102341428D01*
X125652000Y-102312857D01*
X125709142Y-102255714D01*
X125737714Y-102198571D01*
X125766285Y-102084285D01*
X125766285Y-101998571D01*
X125737714Y-101884285D01*
X125709142Y-101827142D01*
X125652000Y-101770000D01*
X125566285Y-101741428D01*
X125509142Y-101741428D01*
X125423428Y-101770000D01*
X125394857Y-101798571D01*
X125194857Y-102570000D02*
X125166285Y-102541428D01*
X125109142Y-102455714D01*
X125080571Y-102398571D01*
X125052000Y-102312857D01*
X125023428Y-102170000D01*
X125023428Y-102055714D01*
X125052000Y-101912857D01*
X125080571Y-101827142D01*
X125109142Y-101770000D01*
X125166285Y-101684285D01*
X125194857Y-101655714D01*
X141394857Y-103132857D02*
X140937714Y-103132857D01*
X141166285Y-103361428D02*
X141166285Y-102904285D01*
X139994857Y-103047142D02*
X140194857Y-103047142D01*
X140194857Y-103361428D02*
X140194857Y-102761428D01*
X139909142Y-102761428D01*
X139452000Y-103332857D02*
X139509142Y-103361428D01*
X139623428Y-103361428D01*
X139680571Y-103332857D01*
X139709142Y-103275714D01*
X139709142Y-103047142D01*
X139680571Y-102990000D01*
X139623428Y-102961428D01*
X139509142Y-102961428D01*
X139452000Y-102990000D01*
X139423428Y-103047142D01*
X139423428Y-103104285D01*
X139709142Y-103161428D01*
X138909142Y-103361428D02*
X138909142Y-103047142D01*
X138937714Y-102990000D01*
X138994857Y-102961428D01*
X139109142Y-102961428D01*
X139166285Y-102990000D01*
X138909142Y-103332857D02*
X138966285Y-103361428D01*
X139109142Y-103361428D01*
X139166285Y-103332857D01*
X139194857Y-103275714D01*
X139194857Y-103218571D01*
X139166285Y-103161428D01*
X139109142Y-103132857D01*
X138966285Y-103132857D01*
X138909142Y-103104285D01*
X138709142Y-102961428D02*
X138480571Y-102961428D01*
X138623428Y-102761428D02*
X138623428Y-103275714D01*
X138594857Y-103332857D01*
X138537714Y-103361428D01*
X138480571Y-103361428D01*
X138280571Y-103361428D02*
X138280571Y-102761428D01*
X138023428Y-103361428D02*
X138023428Y-103047142D01*
X138052000Y-102990000D01*
X138109142Y-102961428D01*
X138194857Y-102961428D01*
X138252000Y-102990000D01*
X138280571Y-103018571D01*
X137509142Y-103332857D02*
X137566285Y-103361428D01*
X137680571Y-103361428D01*
X137737714Y-103332857D01*
X137766285Y-103275714D01*
X137766285Y-103047142D01*
X137737714Y-102990000D01*
X137680571Y-102961428D01*
X137566285Y-102961428D01*
X137509142Y-102990000D01*
X137480571Y-103047142D01*
X137480571Y-103104285D01*
X137766285Y-103161428D01*
X137223428Y-103361428D02*
X137223428Y-102961428D01*
X137223428Y-103075714D02*
X137194857Y-103018571D01*
X137166285Y-102990000D01*
X137109142Y-102961428D01*
X137052000Y-102961428D01*
X136909142Y-102761428D02*
X136766285Y-103361428D01*
X136652000Y-102932857D01*
X136537714Y-103361428D01*
X136394857Y-102761428D01*
X136166285Y-103361428D02*
X136166285Y-102961428D01*
X136166285Y-102761428D02*
X136194857Y-102790000D01*
X136166285Y-102818571D01*
X136137714Y-102790000D01*
X136166285Y-102761428D01*
X136166285Y-102818571D01*
X135880571Y-102961428D02*
X135880571Y-103361428D01*
X135880571Y-103018571D02*
X135852000Y-102990000D01*
X135794857Y-102961428D01*
X135709142Y-102961428D01*
X135652000Y-102990000D01*
X135623428Y-103047142D01*
X135623428Y-103361428D01*
X135080571Y-102961428D02*
X135080571Y-103447142D01*
X135109142Y-103504285D01*
X135137714Y-103532857D01*
X135194857Y-103561428D01*
X135280571Y-103561428D01*
X135337714Y-103532857D01*
X135080571Y-103332857D02*
X135137714Y-103361428D01*
X135252000Y-103361428D01*
X135309142Y-103332857D01*
X135337714Y-103304285D01*
X135366285Y-103247142D01*
X135366285Y-103075714D01*
X135337714Y-103018571D01*
X135309142Y-102990000D01*
X135252000Y-102961428D01*
X135137714Y-102961428D01*
X135080571Y-102990000D01*
X134766285Y-103332857D02*
X134766285Y-103361428D01*
X134794857Y-103418571D01*
X134823428Y-103447142D01*
X134109142Y-102761428D02*
X133737714Y-102761428D01*
X133937714Y-102990000D01*
X133852000Y-102990000D01*
X133794857Y-103018571D01*
X133766285Y-103047142D01*
X133737714Y-103104285D01*
X133737714Y-103247142D01*
X133766285Y-103304285D01*
X133794857Y-103332857D01*
X133852000Y-103361428D01*
X134023428Y-103361428D01*
X134080571Y-103332857D01*
X134109142Y-103304285D01*
X133480571Y-103304285D02*
X133452000Y-103332857D01*
X133480571Y-103361428D01*
X133509142Y-103332857D01*
X133480571Y-103304285D01*
X133480571Y-103361428D01*
X133252000Y-102761428D02*
X132880571Y-102761428D01*
X133080571Y-102990000D01*
X132994857Y-102990000D01*
X132937714Y-103018571D01*
X132909142Y-103047142D01*
X132880571Y-103104285D01*
X132880571Y-103247142D01*
X132909142Y-103304285D01*
X132937714Y-103332857D01*
X132994857Y-103361428D01*
X133166285Y-103361428D01*
X133223428Y-103332857D01*
X133252000Y-103304285D01*
X132680571Y-102961428D02*
X132537714Y-103361428D01*
X132394857Y-102961428D01*
X131709142Y-102961428D02*
X131709142Y-103561428D01*
X131709142Y-102990000D02*
X131652000Y-102961428D01*
X131537714Y-102961428D01*
X131480571Y-102990000D01*
X131452000Y-103018571D01*
X131423428Y-103075714D01*
X131423428Y-103247142D01*
X131452000Y-103304285D01*
X131480571Y-103332857D01*
X131537714Y-103361428D01*
X131652000Y-103361428D01*
X131709142Y-103332857D01*
X131080571Y-103361428D02*
X131137714Y-103332857D01*
X131166285Y-103304285D01*
X131194857Y-103247142D01*
X131194857Y-103075714D01*
X131166285Y-103018571D01*
X131137714Y-102990000D01*
X131080571Y-102961428D01*
X130994857Y-102961428D01*
X130937714Y-102990000D01*
X130909142Y-103018571D01*
X130880571Y-103075714D01*
X130880571Y-103247142D01*
X130909142Y-103304285D01*
X130937714Y-103332857D01*
X130994857Y-103361428D01*
X131080571Y-103361428D01*
X130680571Y-102961428D02*
X130566285Y-103361428D01*
X130452000Y-103075714D01*
X130337714Y-103361428D01*
X130223428Y-102961428D01*
X129766285Y-103332857D02*
X129823428Y-103361428D01*
X129937714Y-103361428D01*
X129994857Y-103332857D01*
X130023428Y-103275714D01*
X130023428Y-103047142D01*
X129994857Y-102990000D01*
X129937714Y-102961428D01*
X129823428Y-102961428D01*
X129766285Y-102990000D01*
X129737714Y-103047142D01*
X129737714Y-103104285D01*
X130023428Y-103161428D01*
X129480571Y-103361428D02*
X129480571Y-102961428D01*
X129480571Y-103075714D02*
X129452000Y-103018571D01*
X129423428Y-102990000D01*
X129366285Y-102961428D01*
X129309142Y-102961428D01*
X128880571Y-103332857D02*
X128937714Y-103361428D01*
X129052000Y-103361428D01*
X129109142Y-103332857D01*
X129137714Y-103275714D01*
X129137714Y-103047142D01*
X129109142Y-102990000D01*
X129052000Y-102961428D01*
X128937714Y-102961428D01*
X128880571Y-102990000D01*
X128852000Y-103047142D01*
X128852000Y-103104285D01*
X129137714Y-103161428D01*
X128337714Y-103361428D02*
X128337714Y-102761428D01*
X128337714Y-103332857D02*
X128394857Y-103361428D01*
X128509142Y-103361428D01*
X128566285Y-103332857D01*
X128594857Y-103304285D01*
X128623428Y-103247142D01*
X128623428Y-103075714D01*
X128594857Y-103018571D01*
X128566285Y-102990000D01*
X128509142Y-102961428D01*
X128394857Y-102961428D01*
X128337714Y-102990000D01*
X141394857Y-104152857D02*
X140937714Y-104152857D01*
X141166285Y-104381428D02*
X141166285Y-103924285D01*
X140080571Y-103781428D02*
X140023428Y-103781428D01*
X139966285Y-103810000D01*
X139937714Y-103838571D01*
X139909142Y-103895714D01*
X139880571Y-104010000D01*
X139880571Y-104152857D01*
X139909142Y-104267142D01*
X139937714Y-104324285D01*
X139966285Y-104352857D01*
X140023428Y-104381428D01*
X140080571Y-104381428D01*
X140137714Y-104352857D01*
X140166285Y-104324285D01*
X140194857Y-104267142D01*
X140223428Y-104152857D01*
X140223428Y-104010000D01*
X140194857Y-103895714D01*
X140166285Y-103838571D01*
X140137714Y-103810000D01*
X140080571Y-103781428D01*
X139623428Y-104324285D02*
X139594857Y-104352857D01*
X139623428Y-104381428D01*
X139652000Y-104352857D01*
X139623428Y-104324285D01*
X139623428Y-104381428D01*
X139052000Y-103781428D02*
X139337714Y-103781428D01*
X139366285Y-104067142D01*
X139337714Y-104038571D01*
X139280571Y-104010000D01*
X139137714Y-104010000D01*
X139080571Y-104038571D01*
X139052000Y-104067142D01*
X139023428Y-104124285D01*
X139023428Y-104267142D01*
X139052000Y-104324285D01*
X139080571Y-104352857D01*
X139137714Y-104381428D01*
X139280571Y-104381428D01*
X139337714Y-104352857D01*
X139366285Y-104324285D01*
X138766285Y-104381428D02*
X138766285Y-103781428D01*
X138766285Y-104067142D02*
X138423428Y-104067142D01*
X138423428Y-104381428D02*
X138423428Y-103781428D01*
X138194857Y-103981428D02*
X137880571Y-103981428D01*
X138194857Y-104381428D01*
X137880571Y-104381428D01*
X137280571Y-103981428D02*
X137052000Y-103981428D01*
X137194857Y-103781428D02*
X137194857Y-104295714D01*
X137166285Y-104352857D01*
X137109142Y-104381428D01*
X137052000Y-104381428D01*
X136766285Y-104381428D02*
X136823428Y-104352857D01*
X136852000Y-104324285D01*
X136880571Y-104267142D01*
X136880571Y-104095714D01*
X136852000Y-104038571D01*
X136823428Y-104010000D01*
X136766285Y-103981428D01*
X136680571Y-103981428D01*
X136623428Y-104010000D01*
X136594857Y-104038571D01*
X136566285Y-104095714D01*
X136566285Y-104267142D01*
X136594857Y-104324285D01*
X136623428Y-104352857D01*
X136680571Y-104381428D01*
X136766285Y-104381428D01*
X135537714Y-104381428D02*
X135880571Y-104381428D01*
X135709142Y-104381428D02*
X135709142Y-103781428D01*
X135766285Y-103867142D01*
X135823428Y-103924285D01*
X135880571Y-103952857D01*
X135166285Y-103781428D02*
X135109142Y-103781428D01*
X135052000Y-103810000D01*
X135023428Y-103838571D01*
X134994857Y-103895714D01*
X134966285Y-104010000D01*
X134966285Y-104152857D01*
X134994857Y-104267142D01*
X135023428Y-104324285D01*
X135052000Y-104352857D01*
X135109142Y-104381428D01*
X135166285Y-104381428D01*
X135223428Y-104352857D01*
X135252000Y-104324285D01*
X135280571Y-104267142D01*
X135309142Y-104152857D01*
X135309142Y-104010000D01*
X135280571Y-103895714D01*
X135252000Y-103838571D01*
X135223428Y-103810000D01*
X135166285Y-103781428D01*
X134594857Y-103781428D02*
X134537714Y-103781428D01*
X134480571Y-103810000D01*
X134452000Y-103838571D01*
X134423428Y-103895714D01*
X134394857Y-104010000D01*
X134394857Y-104152857D01*
X134423428Y-104267142D01*
X134452000Y-104324285D01*
X134480571Y-104352857D01*
X134537714Y-104381428D01*
X134594857Y-104381428D01*
X134652000Y-104352857D01*
X134680571Y-104324285D01*
X134709142Y-104267142D01*
X134737714Y-104152857D01*
X134737714Y-104010000D01*
X134709142Y-103895714D01*
X134680571Y-103838571D01*
X134652000Y-103810000D01*
X134594857Y-103781428D01*
X134137714Y-104381428D02*
X134137714Y-103781428D01*
X134080571Y-104152857D02*
X133909142Y-104381428D01*
X133909142Y-103981428D02*
X134137714Y-104210000D01*
X133652000Y-104381428D02*
X133652000Y-103781428D01*
X133652000Y-104067142D02*
X133309142Y-104067142D01*
X133309142Y-104381428D02*
X133309142Y-103781428D01*
X133080571Y-103981428D02*
X132766285Y-103981428D01*
X133080571Y-104381428D01*
X132766285Y-104381428D01*
X132509142Y-104352857D02*
X132509142Y-104381428D01*
X132537714Y-104438571D01*
X132566285Y-104467142D01*
X131680571Y-103781428D02*
X131623428Y-103781428D01*
X131566285Y-103810000D01*
X131537714Y-103838571D01*
X131509142Y-103895714D01*
X131480571Y-104010000D01*
X131480571Y-104152857D01*
X131509142Y-104267142D01*
X131537714Y-104324285D01*
X131566285Y-104352857D01*
X131623428Y-104381428D01*
X131680571Y-104381428D01*
X131737714Y-104352857D01*
X131766285Y-104324285D01*
X131794857Y-104267142D01*
X131823428Y-104152857D01*
X131823428Y-104010000D01*
X131794857Y-103895714D01*
X131766285Y-103838571D01*
X131737714Y-103810000D01*
X131680571Y-103781428D01*
X131223428Y-104324285D02*
X131194857Y-104352857D01*
X131223428Y-104381428D01*
X131252000Y-104352857D01*
X131223428Y-104324285D01*
X131223428Y-104381428D01*
X130623428Y-104381428D02*
X130966285Y-104381428D01*
X130794857Y-104381428D02*
X130794857Y-103781428D01*
X130852000Y-103867142D01*
X130909142Y-103924285D01*
X130966285Y-103952857D01*
X130366285Y-104381428D02*
X130366285Y-103781428D01*
X130366285Y-104067142D02*
X130023428Y-104067142D01*
X130023428Y-104381428D02*
X130023428Y-103781428D01*
X129794857Y-103981428D02*
X129480571Y-103981428D01*
X129794857Y-104381428D01*
X129480571Y-104381428D01*
X128537714Y-104381428D02*
X128537714Y-104067142D01*
X128566285Y-104010000D01*
X128623428Y-103981428D01*
X128737714Y-103981428D01*
X128794857Y-104010000D01*
X128537714Y-104352857D02*
X128594857Y-104381428D01*
X128737714Y-104381428D01*
X128794857Y-104352857D01*
X128823428Y-104295714D01*
X128823428Y-104238571D01*
X128794857Y-104181428D01*
X128737714Y-104152857D01*
X128594857Y-104152857D01*
X128537714Y-104124285D01*
X127994857Y-104352857D02*
X128052000Y-104381428D01*
X128166285Y-104381428D01*
X128223428Y-104352857D01*
X128252000Y-104324285D01*
X128280571Y-104267142D01*
X128280571Y-104095714D01*
X128252000Y-104038571D01*
X128223428Y-104010000D01*
X128166285Y-103981428D01*
X128052000Y-103981428D01*
X127994857Y-104010000D01*
X127480571Y-104352857D02*
X127537714Y-104381428D01*
X127652000Y-104381428D01*
X127709142Y-104352857D01*
X127737714Y-104324285D01*
X127766285Y-104267142D01*
X127766285Y-104095714D01*
X127737714Y-104038571D01*
X127709142Y-104010000D01*
X127652000Y-103981428D01*
X127537714Y-103981428D01*
X127480571Y-104010000D01*
X126966285Y-103981428D02*
X126966285Y-104381428D01*
X127223428Y-103981428D02*
X127223428Y-104295714D01*
X127194857Y-104352857D01*
X127137714Y-104381428D01*
X127052000Y-104381428D01*
X126994857Y-104352857D01*
X126966285Y-104324285D01*
X126680571Y-104381428D02*
X126680571Y-103981428D01*
X126680571Y-104095714D02*
X126652000Y-104038571D01*
X126623428Y-104010000D01*
X126566285Y-103981428D01*
X126509142Y-103981428D01*
X126052000Y-104381428D02*
X126052000Y-104067142D01*
X126080571Y-104010000D01*
X126137714Y-103981428D01*
X126252000Y-103981428D01*
X126309142Y-104010000D01*
X126052000Y-104352857D02*
X126109142Y-104381428D01*
X126252000Y-104381428D01*
X126309142Y-104352857D01*
X126337714Y-104295714D01*
X126337714Y-104238571D01*
X126309142Y-104181428D01*
X126252000Y-104152857D01*
X126109142Y-104152857D01*
X126052000Y-104124285D01*
X125509142Y-104352857D02*
X125566285Y-104381428D01*
X125680571Y-104381428D01*
X125737714Y-104352857D01*
X125766285Y-104324285D01*
X125794857Y-104267142D01*
X125794857Y-104095714D01*
X125766285Y-104038571D01*
X125737714Y-104010000D01*
X125680571Y-103981428D01*
X125566285Y-103981428D01*
X125509142Y-104010000D01*
X125309142Y-103981428D02*
X125166285Y-104381428D01*
X125023428Y-103981428D02*
X125166285Y-104381428D01*
X125223428Y-104524285D01*
X125252000Y-104552857D01*
X125309142Y-104581428D01*
X141394857Y-105172857D02*
X140937714Y-105172857D01*
X141166285Y-105401428D02*
X141166285Y-104944285D01*
X140223428Y-105372857D02*
X140137714Y-105401428D01*
X139994857Y-105401428D01*
X139937714Y-105372857D01*
X139909142Y-105344285D01*
X139880571Y-105287142D01*
X139880571Y-105230000D01*
X139909142Y-105172857D01*
X139937714Y-105144285D01*
X139994857Y-105115714D01*
X140109142Y-105087142D01*
X140166285Y-105058571D01*
X140194857Y-105030000D01*
X140223428Y-104972857D01*
X140223428Y-104915714D01*
X140194857Y-104858571D01*
X140166285Y-104830000D01*
X140109142Y-104801428D01*
X139966285Y-104801428D01*
X139880571Y-104830000D01*
X139623428Y-105401428D02*
X139623428Y-105001428D01*
X139623428Y-104801428D02*
X139652000Y-104830000D01*
X139623428Y-104858571D01*
X139594857Y-104830000D01*
X139623428Y-104801428D01*
X139623428Y-104858571D01*
X139337714Y-105001428D02*
X139337714Y-105401428D01*
X139337714Y-105058571D02*
X139309142Y-105030000D01*
X139252000Y-105001428D01*
X139166285Y-105001428D01*
X139109142Y-105030000D01*
X139080571Y-105087142D01*
X139080571Y-105401428D01*
X138566285Y-105372857D02*
X138623428Y-105401428D01*
X138737714Y-105401428D01*
X138794857Y-105372857D01*
X138823428Y-105315714D01*
X138823428Y-105087142D01*
X138794857Y-105030000D01*
X138737714Y-105001428D01*
X138623428Y-105001428D01*
X138566285Y-105030000D01*
X138537714Y-105087142D01*
X138537714Y-105144285D01*
X138823428Y-105201428D01*
X137852000Y-104772857D02*
X138366285Y-105544285D01*
X137680571Y-105372857D02*
X137594857Y-105401428D01*
X137452000Y-105401428D01*
X137394857Y-105372857D01*
X137366285Y-105344285D01*
X137337714Y-105287142D01*
X137337714Y-105230000D01*
X137366285Y-105172857D01*
X137394857Y-105144285D01*
X137452000Y-105115714D01*
X137566285Y-105087142D01*
X137623428Y-105058571D01*
X137652000Y-105030000D01*
X137680571Y-104972857D01*
X137680571Y-104915714D01*
X137652000Y-104858571D01*
X137623428Y-104830000D01*
X137566285Y-104801428D01*
X137423428Y-104801428D01*
X137337714Y-104830000D01*
X136823428Y-105001428D02*
X136823428Y-105601428D01*
X136823428Y-105372857D02*
X136880571Y-105401428D01*
X136994857Y-105401428D01*
X137052000Y-105372857D01*
X137080571Y-105344285D01*
X137109142Y-105287142D01*
X137109142Y-105115714D01*
X137080571Y-105058571D01*
X137052000Y-105030000D01*
X136994857Y-105001428D01*
X136880571Y-105001428D01*
X136823428Y-105030000D01*
X136280571Y-105001428D02*
X136280571Y-105401428D01*
X136537714Y-105001428D02*
X136537714Y-105315714D01*
X136509142Y-105372857D01*
X136452000Y-105401428D01*
X136366285Y-105401428D01*
X136309142Y-105372857D01*
X136280571Y-105344285D01*
X135737714Y-105401428D02*
X135737714Y-105087142D01*
X135766285Y-105030000D01*
X135823428Y-105001428D01*
X135937714Y-105001428D01*
X135994857Y-105030000D01*
X135737714Y-105372857D02*
X135794857Y-105401428D01*
X135937714Y-105401428D01*
X135994857Y-105372857D01*
X136023428Y-105315714D01*
X136023428Y-105258571D01*
X135994857Y-105201428D01*
X135937714Y-105172857D01*
X135794857Y-105172857D01*
X135737714Y-105144285D01*
X135452000Y-105401428D02*
X135452000Y-105001428D01*
X135452000Y-105115714D02*
X135423428Y-105058571D01*
X135394857Y-105030000D01*
X135337714Y-105001428D01*
X135280571Y-105001428D01*
X134852000Y-105372857D02*
X134909142Y-105401428D01*
X135023428Y-105401428D01*
X135080571Y-105372857D01*
X135109142Y-105315714D01*
X135109142Y-105087142D01*
X135080571Y-105030000D01*
X135023428Y-105001428D01*
X134909142Y-105001428D01*
X134852000Y-105030000D01*
X134823428Y-105087142D01*
X134823428Y-105144285D01*
X135109142Y-105201428D01*
X134137714Y-104772857D02*
X134652000Y-105544285D01*
X134023428Y-104801428D02*
X133680571Y-104801428D01*
X133852000Y-105401428D02*
X133852000Y-104801428D01*
X133480571Y-105401428D02*
X133480571Y-105001428D01*
X133480571Y-105115714D02*
X133452000Y-105058571D01*
X133423428Y-105030000D01*
X133366285Y-105001428D01*
X133309142Y-105001428D01*
X133109142Y-105401428D02*
X133109142Y-105001428D01*
X133109142Y-104801428D02*
X133137714Y-104830000D01*
X133109142Y-104858571D01*
X133080571Y-104830000D01*
X133109142Y-104801428D01*
X133109142Y-104858571D01*
X132566285Y-105401428D02*
X132566285Y-105087142D01*
X132594857Y-105030000D01*
X132652000Y-105001428D01*
X132766285Y-105001428D01*
X132823428Y-105030000D01*
X132566285Y-105372857D02*
X132623428Y-105401428D01*
X132766285Y-105401428D01*
X132823428Y-105372857D01*
X132852000Y-105315714D01*
X132852000Y-105258571D01*
X132823428Y-105201428D01*
X132766285Y-105172857D01*
X132623428Y-105172857D01*
X132566285Y-105144285D01*
X132280571Y-105001428D02*
X132280571Y-105401428D01*
X132280571Y-105058571D02*
X132252000Y-105030000D01*
X132194857Y-105001428D01*
X132109142Y-105001428D01*
X132052000Y-105030000D01*
X132023428Y-105087142D01*
X132023428Y-105401428D01*
X131480571Y-105001428D02*
X131480571Y-105487142D01*
X131509142Y-105544285D01*
X131537714Y-105572857D01*
X131594857Y-105601428D01*
X131680571Y-105601428D01*
X131737714Y-105572857D01*
X131480571Y-105372857D02*
X131537714Y-105401428D01*
X131652000Y-105401428D01*
X131709142Y-105372857D01*
X131737714Y-105344285D01*
X131766285Y-105287142D01*
X131766285Y-105115714D01*
X131737714Y-105058571D01*
X131709142Y-105030000D01*
X131652000Y-105001428D01*
X131537714Y-105001428D01*
X131480571Y-105030000D01*
X131109142Y-105401428D02*
X131166285Y-105372857D01*
X131194857Y-105315714D01*
X131194857Y-104801428D01*
X130652000Y-105372857D02*
X130709142Y-105401428D01*
X130823428Y-105401428D01*
X130880571Y-105372857D01*
X130909142Y-105315714D01*
X130909142Y-105087142D01*
X130880571Y-105030000D01*
X130823428Y-105001428D01*
X130709142Y-105001428D01*
X130652000Y-105030000D01*
X130623428Y-105087142D01*
X130623428Y-105144285D01*
X130909142Y-105201428D01*
X129966285Y-105001428D02*
X129852000Y-105401428D01*
X129737714Y-105115714D01*
X129623428Y-105401428D01*
X129509142Y-105001428D01*
X129023428Y-105401428D02*
X129023428Y-105087142D01*
X129052000Y-105030000D01*
X129109142Y-105001428D01*
X129223428Y-105001428D01*
X129280571Y-105030000D01*
X129023428Y-105372857D02*
X129080571Y-105401428D01*
X129223428Y-105401428D01*
X129280571Y-105372857D01*
X129309142Y-105315714D01*
X129309142Y-105258571D01*
X129280571Y-105201428D01*
X129223428Y-105172857D01*
X129080571Y-105172857D01*
X129023428Y-105144285D01*
X128794857Y-105001428D02*
X128652000Y-105401428D01*
X128509142Y-105001428D01*
X128052000Y-105372857D02*
X128109142Y-105401428D01*
X128223428Y-105401428D01*
X128280571Y-105372857D01*
X128309142Y-105315714D01*
X128309142Y-105087142D01*
X128280571Y-105030000D01*
X128223428Y-105001428D01*
X128109142Y-105001428D01*
X128052000Y-105030000D01*
X128023428Y-105087142D01*
X128023428Y-105144285D01*
X128309142Y-105201428D01*
X127852000Y-105001428D02*
X127623428Y-105001428D01*
X127766285Y-105401428D02*
X127766285Y-104887142D01*
X127737714Y-104830000D01*
X127680571Y-104801428D01*
X127623428Y-104801428D01*
X127337714Y-105401428D02*
X127394857Y-105372857D01*
X127423428Y-105344285D01*
X127452000Y-105287142D01*
X127452000Y-105115714D01*
X127423428Y-105058571D01*
X127394857Y-105030000D01*
X127337714Y-105001428D01*
X127252000Y-105001428D01*
X127194857Y-105030000D01*
X127166285Y-105058571D01*
X127137714Y-105115714D01*
X127137714Y-105287142D01*
X127166285Y-105344285D01*
X127194857Y-105372857D01*
X127252000Y-105401428D01*
X127337714Y-105401428D01*
X126880571Y-105401428D02*
X126880571Y-105001428D01*
X126880571Y-105115714D02*
X126852000Y-105058571D01*
X126823428Y-105030000D01*
X126766285Y-105001428D01*
X126709142Y-105001428D01*
X126509142Y-105401428D02*
X126509142Y-105001428D01*
X126509142Y-105058571D02*
X126480571Y-105030000D01*
X126423428Y-105001428D01*
X126337714Y-105001428D01*
X126280571Y-105030000D01*
X126252000Y-105087142D01*
X126252000Y-105401428D01*
X126252000Y-105087142D02*
X126223428Y-105030000D01*
X126166285Y-105001428D01*
X126080571Y-105001428D01*
X126023428Y-105030000D01*
X125994857Y-105087142D01*
X125994857Y-105401428D01*
X141394857Y-106192857D02*
X140937714Y-106192857D01*
X141166285Y-106421428D02*
X141166285Y-105964285D01*
X140252000Y-105821428D02*
X139880571Y-105821428D01*
X140080571Y-106050000D01*
X139994857Y-106050000D01*
X139937714Y-106078571D01*
X139909142Y-106107142D01*
X139880571Y-106164285D01*
X139880571Y-106307142D01*
X139909142Y-106364285D01*
X139937714Y-106392857D01*
X139994857Y-106421428D01*
X140166285Y-106421428D01*
X140223428Y-106392857D01*
X140252000Y-106364285D01*
X139623428Y-106364285D02*
X139594857Y-106392857D01*
X139623428Y-106421428D01*
X139652000Y-106392857D01*
X139623428Y-106364285D01*
X139623428Y-106421428D01*
X139394857Y-105821428D02*
X139023428Y-105821428D01*
X139223428Y-106050000D01*
X139137714Y-106050000D01*
X139080571Y-106078571D01*
X139052000Y-106107142D01*
X139023428Y-106164285D01*
X139023428Y-106307142D01*
X139052000Y-106364285D01*
X139080571Y-106392857D01*
X139137714Y-106421428D01*
X139309142Y-106421428D01*
X139366285Y-106392857D01*
X139394857Y-106364285D01*
X138823428Y-106021428D02*
X138680571Y-106421428D01*
X138537714Y-106021428D01*
X137852000Y-106421428D02*
X137852000Y-105821428D01*
X137852000Y-106050000D02*
X137794857Y-106021428D01*
X137680571Y-106021428D01*
X137623428Y-106050000D01*
X137594857Y-106078571D01*
X137566285Y-106135714D01*
X137566285Y-106307142D01*
X137594857Y-106364285D01*
X137623428Y-106392857D01*
X137680571Y-106421428D01*
X137794857Y-106421428D01*
X137852000Y-106392857D01*
X137052000Y-106021428D02*
X137052000Y-106421428D01*
X137309142Y-106021428D02*
X137309142Y-106335714D01*
X137280571Y-106392857D01*
X137223428Y-106421428D01*
X137137714Y-106421428D01*
X137080571Y-106392857D01*
X137052000Y-106364285D01*
X136852000Y-106021428D02*
X136623428Y-106021428D01*
X136766285Y-106421428D02*
X136766285Y-105907142D01*
X136737714Y-105850000D01*
X136680571Y-105821428D01*
X136623428Y-105821428D01*
X136509142Y-106021428D02*
X136280571Y-106021428D01*
X136423428Y-106421428D02*
X136423428Y-105907142D01*
X136394857Y-105850000D01*
X136337714Y-105821428D01*
X136280571Y-105821428D01*
X135852000Y-106392857D02*
X135909142Y-106421428D01*
X136023428Y-106421428D01*
X136080571Y-106392857D01*
X136109142Y-106335714D01*
X136109142Y-106107142D01*
X136080571Y-106050000D01*
X136023428Y-106021428D01*
X135909142Y-106021428D01*
X135852000Y-106050000D01*
X135823428Y-106107142D01*
X135823428Y-106164285D01*
X136109142Y-106221428D01*
X135566285Y-106421428D02*
X135566285Y-106021428D01*
X135566285Y-106135714D02*
X135537714Y-106078571D01*
X135509142Y-106050000D01*
X135452000Y-106021428D01*
X135394857Y-106021428D01*
X134966285Y-106392857D02*
X135023428Y-106421428D01*
X135137714Y-106421428D01*
X135194857Y-106392857D01*
X135223428Y-106335714D01*
X135223428Y-106107142D01*
X135194857Y-106050000D01*
X135137714Y-106021428D01*
X135023428Y-106021428D01*
X134966285Y-106050000D01*
X134937714Y-106107142D01*
X134937714Y-106164285D01*
X135223428Y-106221428D01*
X134423428Y-106421428D02*
X134423428Y-105821428D01*
X134423428Y-106392857D02*
X134480571Y-106421428D01*
X134594857Y-106421428D01*
X134652000Y-106392857D01*
X134680571Y-106364285D01*
X134709142Y-106307142D01*
X134709142Y-106135714D01*
X134680571Y-106078571D01*
X134652000Y-106050000D01*
X134594857Y-106021428D01*
X134480571Y-106021428D01*
X134423428Y-106050000D01*
X133594857Y-106421428D02*
X133652000Y-106392857D01*
X133680571Y-106364285D01*
X133709142Y-106307142D01*
X133709142Y-106135714D01*
X133680571Y-106078571D01*
X133652000Y-106050000D01*
X133594857Y-106021428D01*
X133509142Y-106021428D01*
X133452000Y-106050000D01*
X133423428Y-106078571D01*
X133394857Y-106135714D01*
X133394857Y-106307142D01*
X133423428Y-106364285D01*
X133452000Y-106392857D01*
X133509142Y-106421428D01*
X133594857Y-106421428D01*
X132880571Y-106021428D02*
X132880571Y-106421428D01*
X133137714Y-106021428D02*
X133137714Y-106335714D01*
X133109142Y-106392857D01*
X133052000Y-106421428D01*
X132966285Y-106421428D01*
X132909142Y-106392857D01*
X132880571Y-106364285D01*
X132680571Y-106021428D02*
X132452000Y-106021428D01*
X132594857Y-105821428D02*
X132594857Y-106335714D01*
X132566285Y-106392857D01*
X132509142Y-106421428D01*
X132452000Y-106421428D01*
X132252000Y-106021428D02*
X132252000Y-106621428D01*
X132252000Y-106050000D02*
X132194857Y-106021428D01*
X132080571Y-106021428D01*
X132023428Y-106050000D01*
X131994857Y-106078571D01*
X131966285Y-106135714D01*
X131966285Y-106307142D01*
X131994857Y-106364285D01*
X132023428Y-106392857D01*
X132080571Y-106421428D01*
X132194857Y-106421428D01*
X132252000Y-106392857D01*
X131452000Y-106021428D02*
X131452000Y-106421428D01*
X131709142Y-106021428D02*
X131709142Y-106335714D01*
X131680571Y-106392857D01*
X131623428Y-106421428D01*
X131537714Y-106421428D01*
X131480571Y-106392857D01*
X131452000Y-106364285D01*
X131252000Y-106021428D02*
X131023428Y-106021428D01*
X131166285Y-105821428D02*
X131166285Y-106335714D01*
X131137714Y-106392857D01*
X131080571Y-106421428D01*
X131023428Y-106421428D01*
X141394857Y-107212857D02*
X140937714Y-107212857D01*
X141166285Y-107441428D02*
X141166285Y-106984285D01*
X140223428Y-107412857D02*
X140137714Y-107441428D01*
X139994857Y-107441428D01*
X139937714Y-107412857D01*
X139909142Y-107384285D01*
X139880571Y-107327142D01*
X139880571Y-107270000D01*
X139909142Y-107212857D01*
X139937714Y-107184285D01*
X139994857Y-107155714D01*
X140109142Y-107127142D01*
X140166285Y-107098571D01*
X140194857Y-107070000D01*
X140223428Y-107012857D01*
X140223428Y-106955714D01*
X140194857Y-106898571D01*
X140166285Y-106870000D01*
X140109142Y-106841428D01*
X139966285Y-106841428D01*
X139880571Y-106870000D01*
X139623428Y-107441428D02*
X139623428Y-106841428D01*
X139394857Y-106841428D01*
X139337714Y-106870000D01*
X139309142Y-106898571D01*
X139280571Y-106955714D01*
X139280571Y-107041428D01*
X139309142Y-107098571D01*
X139337714Y-107127142D01*
X139394857Y-107155714D01*
X139623428Y-107155714D01*
X139023428Y-107441428D02*
X139023428Y-106841428D01*
X138280571Y-107441428D02*
X138280571Y-107041428D01*
X138280571Y-106841428D02*
X138309142Y-106870000D01*
X138280571Y-106898571D01*
X138252000Y-106870000D01*
X138280571Y-106841428D01*
X138280571Y-106898571D01*
X137994857Y-107041428D02*
X137994857Y-107441428D01*
X137994857Y-107098571D02*
X137966285Y-107070000D01*
X137909142Y-107041428D01*
X137823428Y-107041428D01*
X137766285Y-107070000D01*
X137737714Y-107127142D01*
X137737714Y-107441428D01*
X137537714Y-107041428D02*
X137309142Y-107041428D01*
X137452000Y-106841428D02*
X137452000Y-107355714D01*
X137423428Y-107412857D01*
X137366285Y-107441428D01*
X137309142Y-107441428D01*
X136880571Y-107412857D02*
X136937714Y-107441428D01*
X137052000Y-107441428D01*
X137109142Y-107412857D01*
X137137714Y-107355714D01*
X137137714Y-107127142D01*
X137109142Y-107070000D01*
X137052000Y-107041428D01*
X136937714Y-107041428D01*
X136880571Y-107070000D01*
X136852000Y-107127142D01*
X136852000Y-107184285D01*
X137137714Y-107241428D01*
X136594857Y-107441428D02*
X136594857Y-107041428D01*
X136594857Y-107155714D02*
X136566285Y-107098571D01*
X136537714Y-107070000D01*
X136480571Y-107041428D01*
X136423428Y-107041428D01*
X136309142Y-107041428D02*
X136080571Y-107041428D01*
X136223428Y-107441428D02*
X136223428Y-106927142D01*
X136194857Y-106870000D01*
X136137714Y-106841428D01*
X136080571Y-106841428D01*
X135623428Y-107441428D02*
X135623428Y-107127142D01*
X135652000Y-107070000D01*
X135709142Y-107041428D01*
X135823428Y-107041428D01*
X135880571Y-107070000D01*
X135623428Y-107412857D02*
X135680571Y-107441428D01*
X135823428Y-107441428D01*
X135880571Y-107412857D01*
X135909142Y-107355714D01*
X135909142Y-107298571D01*
X135880571Y-107241428D01*
X135823428Y-107212857D01*
X135680571Y-107212857D01*
X135623428Y-107184285D01*
X135080571Y-107412857D02*
X135137714Y-107441428D01*
X135252000Y-107441428D01*
X135309142Y-107412857D01*
X135337714Y-107384285D01*
X135366285Y-107327142D01*
X135366285Y-107155714D01*
X135337714Y-107098571D01*
X135309142Y-107070000D01*
X135252000Y-107041428D01*
X135137714Y-107041428D01*
X135080571Y-107070000D01*
X134594857Y-107412857D02*
X134652000Y-107441428D01*
X134766285Y-107441428D01*
X134823428Y-107412857D01*
X134852000Y-107355714D01*
X134852000Y-107127142D01*
X134823428Y-107070000D01*
X134766285Y-107041428D01*
X134652000Y-107041428D01*
X134594857Y-107070000D01*
X134566285Y-107127142D01*
X134566285Y-107184285D01*
X134852000Y-107241428D01*
X133937714Y-107041428D02*
X133709142Y-107041428D01*
X133852000Y-107441428D02*
X133852000Y-106927142D01*
X133823428Y-106870000D01*
X133766285Y-106841428D01*
X133709142Y-106841428D01*
X133423428Y-107441428D02*
X133480571Y-107412857D01*
X133509142Y-107384285D01*
X133537714Y-107327142D01*
X133537714Y-107155714D01*
X133509142Y-107098571D01*
X133480571Y-107070000D01*
X133423428Y-107041428D01*
X133337714Y-107041428D01*
X133280571Y-107070000D01*
X133252000Y-107098571D01*
X133223428Y-107155714D01*
X133223428Y-107327142D01*
X133252000Y-107384285D01*
X133280571Y-107412857D01*
X133337714Y-107441428D01*
X133423428Y-107441428D01*
X132966285Y-107441428D02*
X132966285Y-107041428D01*
X132966285Y-107155714D02*
X132937714Y-107098571D01*
X132909142Y-107070000D01*
X132852000Y-107041428D01*
X132794857Y-107041428D01*
X132194857Y-107041428D02*
X132080571Y-107441428D01*
X131966285Y-107155714D01*
X131852000Y-107441428D01*
X131737714Y-107041428D01*
X131252000Y-107441428D02*
X131252000Y-107127142D01*
X131280571Y-107070000D01*
X131337714Y-107041428D01*
X131452000Y-107041428D01*
X131509142Y-107070000D01*
X131252000Y-107412857D02*
X131309142Y-107441428D01*
X131452000Y-107441428D01*
X131509142Y-107412857D01*
X131537714Y-107355714D01*
X131537714Y-107298571D01*
X131509142Y-107241428D01*
X131452000Y-107212857D01*
X131309142Y-107212857D01*
X131252000Y-107184285D01*
X131023428Y-107041428D02*
X130880571Y-107441428D01*
X130737714Y-107041428D01*
X130280571Y-107412857D02*
X130337714Y-107441428D01*
X130452000Y-107441428D01*
X130509142Y-107412857D01*
X130537714Y-107355714D01*
X130537714Y-107127142D01*
X130509142Y-107070000D01*
X130452000Y-107041428D01*
X130337714Y-107041428D01*
X130280571Y-107070000D01*
X130252000Y-107127142D01*
X130252000Y-107184285D01*
X130537714Y-107241428D01*
X130080571Y-107041428D02*
X129852000Y-107041428D01*
X129994857Y-107441428D02*
X129994857Y-106927142D01*
X129966285Y-106870000D01*
X129909142Y-106841428D01*
X129852000Y-106841428D01*
X129566285Y-107441428D02*
X129623428Y-107412857D01*
X129652000Y-107384285D01*
X129680571Y-107327142D01*
X129680571Y-107155714D01*
X129652000Y-107098571D01*
X129623428Y-107070000D01*
X129566285Y-107041428D01*
X129480571Y-107041428D01*
X129423428Y-107070000D01*
X129394857Y-107098571D01*
X129366285Y-107155714D01*
X129366285Y-107327142D01*
X129394857Y-107384285D01*
X129423428Y-107412857D01*
X129480571Y-107441428D01*
X129566285Y-107441428D01*
X129109142Y-107441428D02*
X129109142Y-107041428D01*
X129109142Y-107155714D02*
X129080571Y-107098571D01*
X129052000Y-107070000D01*
X128994857Y-107041428D01*
X128937714Y-107041428D01*
X128737714Y-107441428D02*
X128737714Y-107041428D01*
X128737714Y-107098571D02*
X128709142Y-107070000D01*
X128652000Y-107041428D01*
X128566285Y-107041428D01*
X128509142Y-107070000D01*
X128480571Y-107127142D01*
X128480571Y-107441428D01*
X128480571Y-107127142D02*
X128452000Y-107070000D01*
X128394857Y-107041428D01*
X128309142Y-107041428D01*
X128252000Y-107070000D01*
X128223428Y-107127142D01*
X128223428Y-107441428D01*
X127223428Y-107041428D02*
X127223428Y-107527142D01*
X127252000Y-107584285D01*
X127280571Y-107612857D01*
X127337714Y-107641428D01*
X127423428Y-107641428D01*
X127480571Y-107612857D01*
X127223428Y-107412857D02*
X127280571Y-107441428D01*
X127394857Y-107441428D01*
X127452000Y-107412857D01*
X127480571Y-107384285D01*
X127509142Y-107327142D01*
X127509142Y-107155714D01*
X127480571Y-107098571D01*
X127452000Y-107070000D01*
X127394857Y-107041428D01*
X127280571Y-107041428D01*
X127223428Y-107070000D01*
X126709142Y-107412857D02*
X126766285Y-107441428D01*
X126880571Y-107441428D01*
X126937714Y-107412857D01*
X126966285Y-107355714D01*
X126966285Y-107127142D01*
X126937714Y-107070000D01*
X126880571Y-107041428D01*
X126766285Y-107041428D01*
X126709142Y-107070000D01*
X126680571Y-107127142D01*
X126680571Y-107184285D01*
X126966285Y-107241428D01*
X126423428Y-107041428D02*
X126423428Y-107441428D01*
X126423428Y-107098571D02*
X126394857Y-107070000D01*
X126337714Y-107041428D01*
X126252000Y-107041428D01*
X126194857Y-107070000D01*
X126166285Y-107127142D01*
X126166285Y-107441428D01*
X125252000Y-107670000D02*
X125280571Y-107641428D01*
X125337714Y-107555714D01*
X125366285Y-107498571D01*
X125394857Y-107412857D01*
X125423428Y-107270000D01*
X125423428Y-107155714D01*
X125394857Y-107012857D01*
X125366285Y-106927142D01*
X125337714Y-106870000D01*
X125280571Y-106784285D01*
X125252000Y-106755714D01*
X125023428Y-107441428D02*
X125023428Y-106841428D01*
X124880571Y-106841428D01*
X124794857Y-106870000D01*
X124737714Y-106927142D01*
X124709142Y-106984285D01*
X124680571Y-107098571D01*
X124680571Y-107184285D01*
X124709142Y-107298571D01*
X124737714Y-107355714D01*
X124794857Y-107412857D01*
X124880571Y-107441428D01*
X125023428Y-107441428D01*
X124166285Y-106841428D02*
X124280571Y-106841428D01*
X124337714Y-106870000D01*
X124366285Y-106898571D01*
X124423428Y-106984285D01*
X124452000Y-107098571D01*
X124452000Y-107327142D01*
X124423428Y-107384285D01*
X124394857Y-107412857D01*
X124337714Y-107441428D01*
X124223428Y-107441428D01*
X124166285Y-107412857D01*
X124137714Y-107384285D01*
X124109142Y-107327142D01*
X124109142Y-107184285D01*
X124137714Y-107127142D01*
X124166285Y-107098571D01*
X124223428Y-107070000D01*
X124337714Y-107070000D01*
X124394857Y-107098571D01*
X124423428Y-107127142D01*
X124452000Y-107184285D01*
X123394857Y-107127142D02*
X122937714Y-107127142D01*
X122937714Y-107298571D02*
X123394857Y-107298571D01*
X122226714Y-106582000D02*
X121737714Y-106582000D01*
X121852000Y-107384285D02*
X121880571Y-107412857D01*
X121966285Y-107441428D01*
X122023428Y-107441428D01*
X122109142Y-107412857D01*
X122166285Y-107355714D01*
X122194857Y-107298571D01*
X122223428Y-107184285D01*
X122223428Y-107098571D01*
X122194857Y-106984285D01*
X122166285Y-106927142D01*
X122109142Y-106870000D01*
X122023428Y-106841428D01*
X121966285Y-106841428D01*
X121880571Y-106870000D01*
X121852000Y-106898571D01*
X121737714Y-106582000D02*
X121166285Y-106582000D01*
X121623428Y-107412857D02*
X121537714Y-107441428D01*
X121394857Y-107441428D01*
X121337714Y-107412857D01*
X121309142Y-107384285D01*
X121280571Y-107327142D01*
X121280571Y-107270000D01*
X121309142Y-107212857D01*
X121337714Y-107184285D01*
X121394857Y-107155714D01*
X121509142Y-107127142D01*
X121566285Y-107098571D01*
X121594857Y-107070000D01*
X121623428Y-107012857D01*
X121623428Y-106955714D01*
X121594857Y-106898571D01*
X121566285Y-106870000D01*
X121509142Y-106841428D01*
X121366285Y-106841428D01*
X121280571Y-106870000D01*
X121080571Y-107670000D02*
X121052000Y-107641428D01*
X120994857Y-107555714D01*
X120966285Y-107498571D01*
X120937714Y-107412857D01*
X120909142Y-107270000D01*
X120909142Y-107155714D01*
X120937714Y-107012857D01*
X120966285Y-106927142D01*
X120994857Y-106870000D01*
X121052000Y-106784285D01*
X121080571Y-106755714D01*
X128822857Y-108258571D02*
X128794285Y-108230000D01*
X128737142Y-108201428D01*
X128594285Y-108201428D01*
X128537142Y-108230000D01*
X128508571Y-108258571D01*
X128480000Y-108315714D01*
X128480000Y-108372857D01*
X128508571Y-108458571D01*
X128851428Y-108801428D01*
X128480000Y-108801428D01*
X128108571Y-108201428D02*
X128051428Y-108201428D01*
X127994285Y-108230000D01*
X127965714Y-108258571D01*
X127937142Y-108315714D01*
X127908571Y-108430000D01*
X127908571Y-108572857D01*
X127937142Y-108687142D01*
X127965714Y-108744285D01*
X127994285Y-108772857D01*
X128051428Y-108801428D01*
X128108571Y-108801428D01*
X128165714Y-108772857D01*
X128194285Y-108744285D01*
X128222857Y-108687142D01*
X128251428Y-108572857D01*
X128251428Y-108430000D01*
X128222857Y-108315714D01*
X128194285Y-108258571D01*
X128165714Y-108230000D01*
X128108571Y-108201428D01*
X127337142Y-108801428D02*
X127680000Y-108801428D01*
X127508571Y-108801428D02*
X127508571Y-108201428D01*
X127565714Y-108287142D01*
X127622857Y-108344285D01*
X127680000Y-108372857D01*
X127051428Y-108801428D02*
X126937142Y-108801428D01*
X126880000Y-108772857D01*
X126851428Y-108744285D01*
X126794285Y-108658571D01*
X126765714Y-108544285D01*
X126765714Y-108315714D01*
X126794285Y-108258571D01*
X126822857Y-108230000D01*
X126880000Y-108201428D01*
X126994285Y-108201428D01*
X127051428Y-108230000D01*
X127080000Y-108258571D01*
X127108571Y-108315714D01*
X127108571Y-108458571D01*
X127080000Y-108515714D01*
X127051428Y-108544285D01*
X126994285Y-108572857D01*
X126880000Y-108572857D01*
X126822857Y-108544285D01*
X126794285Y-108515714D01*
X126765714Y-108458571D01*
X126508571Y-108572857D02*
X126051428Y-108572857D01*
X125451428Y-108801428D02*
X125794285Y-108801428D01*
X125622857Y-108801428D02*
X125622857Y-108201428D01*
X125680000Y-108287142D01*
X125737142Y-108344285D01*
X125794285Y-108372857D01*
X125080000Y-108201428D02*
X125022857Y-108201428D01*
X124965714Y-108230000D01*
X124937142Y-108258571D01*
X124908571Y-108315714D01*
X124880000Y-108430000D01*
X124880000Y-108572857D01*
X124908571Y-108687142D01*
X124937142Y-108744285D01*
X124965714Y-108772857D01*
X125022857Y-108801428D01*
X125080000Y-108801428D01*
X125137142Y-108772857D01*
X125165714Y-108744285D01*
X125194285Y-108687142D01*
X125222857Y-108572857D01*
X125222857Y-108430000D01*
X125194285Y-108315714D01*
X125165714Y-108258571D01*
X125137142Y-108230000D01*
X125080000Y-108201428D01*
X124622857Y-108572857D02*
X124165714Y-108572857D01*
X123565714Y-108801428D02*
X123908571Y-108801428D01*
X123737142Y-108801428D02*
X123737142Y-108201428D01*
X123794285Y-108287142D01*
X123851428Y-108344285D01*
X123908571Y-108372857D01*
X123280000Y-108801428D02*
X123165714Y-108801428D01*
X123108571Y-108772857D01*
X123080000Y-108744285D01*
X123022857Y-108658571D01*
X122994285Y-108544285D01*
X122994285Y-108315714D01*
X123022857Y-108258571D01*
X123051428Y-108230000D01*
X123108571Y-108201428D01*
X123222857Y-108201428D01*
X123280000Y-108230000D01*
X123308571Y-108258571D01*
X123337142Y-108315714D01*
X123337142Y-108458571D01*
X123308571Y-108515714D01*
X123280000Y-108544285D01*
X123222857Y-108572857D01*
X123108571Y-108572857D01*
X123051428Y-108544285D01*
X123022857Y-108515714D01*
X122994285Y-108458571D01*
X122337142Y-108401428D02*
X122194285Y-108801428D01*
X122051428Y-108401428D01*
X121708571Y-108201428D02*
X121651428Y-108201428D01*
X121594285Y-108230000D01*
X121565714Y-108258571D01*
X121537142Y-108315714D01*
X121508571Y-108430000D01*
X121508571Y-108572857D01*
X121537142Y-108687142D01*
X121565714Y-108744285D01*
X121594285Y-108772857D01*
X121651428Y-108801428D01*
X121708571Y-108801428D01*
X121765714Y-108772857D01*
X121794285Y-108744285D01*
X121822857Y-108687142D01*
X121851428Y-108572857D01*
X121851428Y-108430000D01*
X121822857Y-108315714D01*
X121794285Y-108258571D01*
X121765714Y-108230000D01*
X121708571Y-108201428D01*
X121137142Y-108201428D02*
X121080000Y-108201428D01*
X121022857Y-108230000D01*
X120994285Y-108258571D01*
X120965714Y-108315714D01*
X120937142Y-108430000D01*
X120937142Y-108572857D01*
X120965714Y-108687142D01*
X120994285Y-108744285D01*
X121022857Y-108772857D01*
X121080000Y-108801428D01*
X121137142Y-108801428D01*
X121194285Y-108772857D01*
X121222857Y-108744285D01*
X121251428Y-108687142D01*
X121280000Y-108572857D01*
X121280000Y-108430000D01*
X121251428Y-108315714D01*
X121222857Y-108258571D01*
X121194285Y-108230000D01*
X121137142Y-108201428D01*
D12*
X124061000Y-112551666D02*
X123727666Y-112551666D01*
X124127666Y-112751666D02*
X123894333Y-112051666D01*
X123661000Y-112751666D01*
X123427666Y-112751666D02*
X123427666Y-112051666D01*
X123027666Y-112751666D01*
X123027666Y-112051666D01*
X122727666Y-112551666D02*
X122394333Y-112551666D01*
X122794333Y-112751666D02*
X122561000Y-112051666D01*
X122327666Y-112751666D01*
X121761000Y-112751666D02*
X122094333Y-112751666D01*
X122094333Y-112051666D01*
X121394333Y-112051666D02*
X121261000Y-112051666D01*
X121194333Y-112085000D01*
X121127666Y-112151666D01*
X121094333Y-112285000D01*
X121094333Y-112518333D01*
X121127666Y-112651666D01*
X121194333Y-112718333D01*
X121261000Y-112751666D01*
X121394333Y-112751666D01*
X121461000Y-112718333D01*
X121527666Y-112651666D01*
X121561000Y-112518333D01*
X121561000Y-112285000D01*
X121527666Y-112151666D01*
X121461000Y-112085000D01*
X121394333Y-112051666D01*
X120427666Y-112085000D02*
X120494333Y-112051666D01*
X120594333Y-112051666D01*
X120694333Y-112085000D01*
X120761000Y-112151666D01*
X120794333Y-112218333D01*
X120827666Y-112351666D01*
X120827666Y-112451666D01*
X120794333Y-112585000D01*
X120761000Y-112651666D01*
X120694333Y-112718333D01*
X120594333Y-112751666D01*
X120527666Y-112751666D01*
X120427666Y-112718333D01*
X120394333Y-112685000D01*
X120394333Y-112451666D01*
X120527666Y-112451666D01*
X124461000Y-113908333D02*
X124361000Y-113941666D01*
X124194333Y-113941666D01*
X124127666Y-113908333D01*
X124094333Y-113875000D01*
X124061000Y-113808333D01*
X124061000Y-113741666D01*
X124094333Y-113675000D01*
X124127666Y-113641666D01*
X124194333Y-113608333D01*
X124327666Y-113575000D01*
X124394333Y-113541666D01*
X124427666Y-113508333D01*
X124461000Y-113441666D01*
X124461000Y-113375000D01*
X124427666Y-113308333D01*
X124394333Y-113275000D01*
X124327666Y-113241666D01*
X124161000Y-113241666D01*
X124061000Y-113275000D01*
X123761000Y-113575000D02*
X123527666Y-113575000D01*
X123427666Y-113941666D02*
X123761000Y-113941666D01*
X123761000Y-113241666D01*
X123427666Y-113241666D01*
X122727666Y-113875000D02*
X122761000Y-113908333D01*
X122861000Y-113941666D01*
X122927666Y-113941666D01*
X123027666Y-113908333D01*
X123094333Y-113841666D01*
X123127666Y-113775000D01*
X123161000Y-113641666D01*
X123161000Y-113541666D01*
X123127666Y-113408333D01*
X123094333Y-113341666D01*
X123027666Y-113275000D01*
X122927666Y-113241666D01*
X122861000Y-113241666D01*
X122761000Y-113275000D01*
X122727666Y-113308333D01*
X122527666Y-113241666D02*
X122127666Y-113241666D01*
X122327666Y-113941666D02*
X122327666Y-113241666D01*
X121894333Y-113941666D02*
X121894333Y-113241666D01*
X121427666Y-113241666D02*
X121294333Y-113241666D01*
X121227666Y-113275000D01*
X121161000Y-113341666D01*
X121127666Y-113475000D01*
X121127666Y-113708333D01*
X121161000Y-113841666D01*
X121227666Y-113908333D01*
X121294333Y-113941666D01*
X121427666Y-113941666D01*
X121494333Y-113908333D01*
X121561000Y-113841666D01*
X121594333Y-113708333D01*
X121594333Y-113475000D01*
X121561000Y-113341666D01*
X121494333Y-113275000D01*
X121427666Y-113241666D01*
X120827666Y-113941666D02*
X120827666Y-113241666D01*
X120427666Y-113941666D01*
X120427666Y-113241666D01*
D10*
X119888000Y-99060000D02*
X119888000Y-114300000D01*
X141605000Y-99060000D02*
X119888000Y-99060000D01*
X145415000Y-113665000D02*
X145415000Y-99695000D01*
X123190000Y-114300000D02*
X141605000Y-114300000D01*
D13*
X104431600Y-104951400D02*
X106731600Y-104951400D01*
D11*
X133385000Y-113681400D02*
X134585000Y-113681400D01*
X134585000Y-111921400D02*
X133385000Y-111921400D01*
M02*
