G04 #@! TF.GenerationSoftware,KiCad,Pcbnew,(5.0.0-rc2-dev-444-g2974a2c10)*
G04 #@! TF.CreationDate,2019-11-19T23:53:18-08:00*
G04 #@! TF.ProjectId,Waveform_Gen_ADSR,57617665666F726D5F47656E5F414453,v00*
G04 #@! TF.SameCoordinates,Original*
G04 #@! TF.FileFunction,Copper,L2,Bot,Signal*
G04 #@! TF.FilePolarity,Positive*
%FSLAX46Y46*%
G04 Gerber Fmt 4.6, Leading zero omitted, Abs format (unit mm)*
G04 Created by KiCad (PCBNEW (5.0.0-rc2-dev-444-g2974a2c10)) date 11/19/19 23:53:18*
%MOMM*%
%LPD*%
G01*
G04 APERTURE LIST*
%ADD10R,1.600000X1.200000*%
%ADD11C,3.000000*%
%ADD12C,1.700000*%
%ADD13O,1.700000X1.700000*%
%ADD14R,1.700000X1.700000*%
%ADD15C,1.620000*%
%ADD16R,1.620000X1.620000*%
%ADD17R,0.700000X1.300000*%
%ADD18C,0.685800*%
%ADD19C,0.152400*%
%ADD20C,0.254000*%
G04 APERTURE END LIST*
D10*
X105591600Y-100681400D03*
X105591600Y-103881400D03*
D11*
X97790000Y-97790000D03*
X97790000Y-115570000D03*
D12*
X139700000Y-96520000D03*
X137160000Y-96520000D03*
X134620000Y-96520000D03*
X132080000Y-96520000D03*
X129540000Y-96520000D03*
X127000000Y-96520000D03*
X124460000Y-96520000D03*
X121920000Y-96520000D03*
X119380000Y-96520000D03*
X116840000Y-96520000D03*
X114300000Y-96520000D03*
X111760000Y-96520000D03*
X139700000Y-116840000D03*
X137160000Y-116840000D03*
X134620000Y-116840000D03*
X132080000Y-116840000D03*
X129540000Y-116840000D03*
X127000000Y-116840000D03*
X124460000Y-116840000D03*
X121920000Y-116840000D03*
X119380000Y-116840000D03*
X116840000Y-116840000D03*
X114300000Y-116840000D03*
X111760000Y-116840000D03*
X109220000Y-116840000D03*
X106680000Y-116840000D03*
X104140000Y-116840000D03*
X101600000Y-116840000D03*
D13*
X143510000Y-105410000D03*
D14*
X143510000Y-102870000D03*
D15*
X142980000Y-110400000D03*
X140440000Y-110400000D03*
D16*
X137900000Y-110400000D03*
D17*
X134935000Y-112801400D03*
X133035000Y-112801400D03*
D18*
X109750000Y-110350000D03*
X119253000Y-101777800D03*
X97155000Y-101600000D03*
X97155000Y-111760000D03*
X102870000Y-115316000D03*
X140970000Y-97790000D03*
X128270000Y-115443000D03*
X115570000Y-115062000D03*
X110236000Y-97790000D03*
X125730000Y-115443000D03*
X140970000Y-115443000D03*
X133350000Y-115443000D03*
X123926600Y-104165400D03*
X135300000Y-105181400D03*
X126999400Y-111099000D03*
X121412000Y-100076000D03*
X121412000Y-105156000D03*
X121412000Y-108331000D03*
X131902200Y-100609400D03*
X127000000Y-113715800D03*
X144424400Y-112801400D03*
X133908800Y-106451400D03*
X113538000Y-101803200D03*
X130505200Y-114655600D03*
X132842000Y-108254800D03*
X119253000Y-103301800D03*
X119253000Y-104165400D03*
D19*
X134284000Y-104165400D02*
X135300000Y-105181400D01*
X123926600Y-104165400D02*
X134284000Y-104165400D01*
X127484333Y-111099000D02*
X127484933Y-111099600D01*
X126999400Y-111099000D02*
X127484333Y-111099000D01*
X127484933Y-111099600D02*
X133934200Y-111099600D01*
X135300000Y-109733800D02*
X135300000Y-105181400D01*
X133934200Y-111099600D02*
X135300000Y-109733800D01*
X113538000Y-101318267D02*
X113512600Y-101292867D01*
X113538000Y-101803200D02*
X113538000Y-101318267D01*
X113512600Y-101292867D02*
X113512600Y-100507800D01*
X113512600Y-100507800D02*
X112191800Y-99187000D01*
X112191800Y-99187000D02*
X106273600Y-99187000D01*
X105591600Y-99869000D02*
X105591600Y-100681400D01*
X106273600Y-99187000D02*
X105591600Y-99869000D01*
X142980000Y-110400000D02*
X140843000Y-108263000D01*
X140843000Y-108263000D02*
X140843000Y-103809800D01*
X141782800Y-102870000D02*
X143510000Y-102870000D01*
X140843000Y-103809800D02*
X141782800Y-102870000D01*
X142170001Y-111209999D02*
X142170001Y-112210999D01*
X142980000Y-110400000D02*
X142170001Y-111209999D01*
X136555000Y-112725200D02*
X141655800Y-112725200D01*
X142170001Y-112210999D02*
X141655800Y-112725200D01*
X136478800Y-112801400D02*
X136555000Y-112725200D01*
X136478800Y-112801400D02*
X134935000Y-112801400D01*
X116840000Y-116840000D02*
X116840000Y-115637919D01*
X116840000Y-116840000D02*
X116840000Y-113538000D01*
X117576600Y-112801400D02*
X121412000Y-112801400D01*
X116840000Y-113538000D02*
X117576600Y-112801400D01*
X133035000Y-112801400D02*
X121412000Y-112801400D01*
X121412000Y-112801400D02*
X121310400Y-112801400D01*
X127000000Y-116840000D02*
X127000000Y-114935000D01*
X127279400Y-114655600D02*
X130505200Y-114655600D01*
X127000000Y-114935000D02*
X127279400Y-114655600D01*
X132842000Y-108254800D02*
X132842000Y-108254800D01*
X132842000Y-106984800D02*
X132842000Y-108254800D01*
X118643400Y-105562400D02*
X119253000Y-106172000D01*
X118643400Y-104600380D02*
X118643400Y-105562400D01*
X118641810Y-104598790D02*
X118643400Y-104600380D01*
X118641810Y-103606609D02*
X118641810Y-104598790D01*
X132080000Y-96520000D02*
X132080000Y-97722081D01*
X119253000Y-106172000D02*
X132029200Y-106172000D01*
X132080000Y-97722081D02*
X131732701Y-98069380D01*
X131732701Y-98069380D02*
X118338619Y-98069381D01*
X132029200Y-106172000D02*
X132842000Y-106984800D01*
X117729000Y-98679000D02*
X117729001Y-102693800D01*
X118338619Y-98069381D02*
X117729000Y-98679000D01*
X117729001Y-102693800D02*
X118641810Y-103606609D01*
X137160000Y-97840800D02*
X137160000Y-96520000D01*
X136880600Y-98120200D02*
X137160000Y-97840800D01*
X136626610Y-98374190D02*
X137160000Y-97840800D01*
X121285744Y-98374190D02*
X122199400Y-98374190D01*
X122199400Y-98374190D02*
X136626610Y-98374190D01*
X118464876Y-98374190D02*
X122199400Y-98374190D01*
X118033810Y-98805256D02*
X118464876Y-98374190D01*
X118033810Y-102567543D02*
X118033810Y-98805256D01*
X118768067Y-103301800D02*
X118033810Y-102567543D01*
X119253000Y-103301800D02*
X118768067Y-103301800D01*
X139700000Y-98298000D02*
X139700000Y-96520000D01*
X139319000Y-98679000D02*
X139700000Y-98298000D01*
X118591132Y-98679000D02*
X139319000Y-98679000D01*
X118338620Y-98931512D02*
X118591132Y-98679000D01*
X119824501Y-103593899D02*
X119824501Y-102908101D01*
X119824501Y-102908101D02*
X119405400Y-102489000D01*
X119405400Y-102489000D02*
X118567200Y-102489000D01*
X118567200Y-102489000D02*
X118338620Y-102260420D01*
X119253000Y-104165400D02*
X119824501Y-103593899D01*
X118338620Y-102260420D02*
X118338620Y-98931512D01*
D20*
G36*
X141478000Y-99695000D02*
X141487667Y-99743601D01*
X141515197Y-99784803D01*
X141556399Y-99812333D01*
X141605000Y-99822000D01*
X145288000Y-99822000D01*
X145288000Y-113538000D01*
X141605000Y-113538000D01*
X141556399Y-113547667D01*
X141515197Y-113575197D01*
X141487667Y-113616399D01*
X141478000Y-113665000D01*
X141478000Y-114173000D01*
X131046349Y-114173000D01*
X130915256Y-114041907D01*
X130649193Y-113931700D01*
X130361207Y-113931700D01*
X130095144Y-114041907D01*
X129964051Y-114173000D01*
X120142000Y-114173000D01*
X120142000Y-113258600D01*
X132296536Y-113258600D01*
X132296536Y-113451400D01*
X132326106Y-113600059D01*
X132410314Y-113726086D01*
X132536341Y-113810294D01*
X132685000Y-113839864D01*
X133385000Y-113839864D01*
X133533659Y-113810294D01*
X133659686Y-113726086D01*
X133743894Y-113600059D01*
X133773464Y-113451400D01*
X133773464Y-112151400D01*
X134196536Y-112151400D01*
X134196536Y-113451400D01*
X134226106Y-113600059D01*
X134310314Y-113726086D01*
X134436341Y-113810294D01*
X134585000Y-113839864D01*
X135285000Y-113839864D01*
X135433659Y-113810294D01*
X135559686Y-113726086D01*
X135643894Y-113600059D01*
X135673464Y-113451400D01*
X135673464Y-113258600D01*
X136433770Y-113258600D01*
X136478800Y-113267557D01*
X136523830Y-113258600D01*
X136657191Y-113232073D01*
X136731532Y-113182400D01*
X141610770Y-113182400D01*
X141655800Y-113191357D01*
X141700830Y-113182400D01*
X141834191Y-113155873D01*
X141985423Y-113054823D01*
X142010932Y-113016646D01*
X142461450Y-112566129D01*
X142499624Y-112540622D01*
X142600674Y-112389390D01*
X142624820Y-112268000D01*
X142636158Y-112211000D01*
X142627201Y-112165970D01*
X142627201Y-111542995D01*
X142743095Y-111591000D01*
X143216905Y-111591000D01*
X143654647Y-111409681D01*
X143989681Y-111074647D01*
X144171000Y-110636905D01*
X144171000Y-110163095D01*
X143989681Y-109725353D01*
X143654647Y-109390319D01*
X143216905Y-109209000D01*
X142743095Y-109209000D01*
X142525648Y-109299070D01*
X141300200Y-108073622D01*
X141300200Y-105766890D01*
X142068524Y-105766890D01*
X142238355Y-106176924D01*
X142628642Y-106605183D01*
X143153108Y-106851486D01*
X143383000Y-106730819D01*
X143383000Y-105537000D01*
X143637000Y-105537000D01*
X143637000Y-106730819D01*
X143866892Y-106851486D01*
X144391358Y-106605183D01*
X144781645Y-106176924D01*
X144951476Y-105766890D01*
X144830155Y-105537000D01*
X143637000Y-105537000D01*
X143383000Y-105537000D01*
X142189845Y-105537000D01*
X142068524Y-105766890D01*
X141300200Y-105766890D01*
X141300200Y-103999178D01*
X141972179Y-103327200D01*
X142271536Y-103327200D01*
X142271536Y-103720000D01*
X142301106Y-103868659D01*
X142385314Y-103994686D01*
X142511341Y-104078894D01*
X142660000Y-104108464D01*
X142855105Y-104108464D01*
X142628642Y-104214817D01*
X142238355Y-104643076D01*
X142068524Y-105053110D01*
X142189845Y-105283000D01*
X143383000Y-105283000D01*
X143383000Y-105263000D01*
X143637000Y-105263000D01*
X143637000Y-105283000D01*
X144830155Y-105283000D01*
X144951476Y-105053110D01*
X144781645Y-104643076D01*
X144391358Y-104214817D01*
X144164895Y-104108464D01*
X144360000Y-104108464D01*
X144508659Y-104078894D01*
X144634686Y-103994686D01*
X144718894Y-103868659D01*
X144748464Y-103720000D01*
X144748464Y-102020000D01*
X144718894Y-101871341D01*
X144634686Y-101745314D01*
X144508659Y-101661106D01*
X144360000Y-101631536D01*
X142660000Y-101631536D01*
X142511341Y-101661106D01*
X142385314Y-101745314D01*
X142301106Y-101871341D01*
X142271536Y-102020000D01*
X142271536Y-102412800D01*
X141827830Y-102412800D01*
X141782800Y-102403843D01*
X141737770Y-102412800D01*
X141604409Y-102439327D01*
X141453177Y-102540377D01*
X141427670Y-102578551D01*
X140551552Y-103454670D01*
X140513378Y-103480177D01*
X140487871Y-103518351D01*
X140487870Y-103518352D01*
X140412327Y-103631410D01*
X140376843Y-103809800D01*
X140385801Y-103854835D01*
X140385800Y-108217970D01*
X140376843Y-108263000D01*
X140385800Y-108308029D01*
X140412327Y-108441390D01*
X140513377Y-108592623D01*
X140551554Y-108618132D01*
X141879070Y-109945648D01*
X141789000Y-110163095D01*
X141789000Y-110636905D01*
X141879070Y-110854352D01*
X141878555Y-110854867D01*
X141840378Y-110880376D01*
X141739329Y-111031608D01*
X141739328Y-111031609D01*
X141703844Y-111209999D01*
X141712801Y-111255029D01*
X141712802Y-112021620D01*
X141466422Y-112268000D01*
X136600029Y-112268000D01*
X136554999Y-112259043D01*
X136460038Y-112277932D01*
X136376609Y-112294527D01*
X136302268Y-112344200D01*
X135673464Y-112344200D01*
X135673464Y-112151400D01*
X135643894Y-112002741D01*
X135559686Y-111876714D01*
X135433659Y-111792506D01*
X135285000Y-111762936D01*
X134585000Y-111762936D01*
X134436341Y-111792506D01*
X134310314Y-111876714D01*
X134226106Y-112002741D01*
X134196536Y-112151400D01*
X133773464Y-112151400D01*
X133743894Y-112002741D01*
X133659686Y-111876714D01*
X133533659Y-111792506D01*
X133385000Y-111762936D01*
X132685000Y-111762936D01*
X132536341Y-111792506D01*
X132410314Y-111876714D01*
X132326106Y-112002741D01*
X132296536Y-112151400D01*
X132296536Y-112344200D01*
X120142000Y-112344200D01*
X120142000Y-106629200D01*
X131839822Y-106629200D01*
X132384800Y-107174179D01*
X132384801Y-107688250D01*
X132228307Y-107844744D01*
X132118100Y-108110807D01*
X132118100Y-108398793D01*
X132228307Y-108664856D01*
X132431944Y-108868493D01*
X132698007Y-108978700D01*
X132985993Y-108978700D01*
X133252056Y-108868493D01*
X133455693Y-108664856D01*
X133565900Y-108398793D01*
X133565900Y-108110807D01*
X133455693Y-107844744D01*
X133299200Y-107688251D01*
X133299200Y-107029830D01*
X133308157Y-106984800D01*
X133272673Y-106806409D01*
X133197130Y-106693351D01*
X133171623Y-106655177D01*
X133133449Y-106629670D01*
X132384332Y-105880554D01*
X132358823Y-105842377D01*
X132207591Y-105741327D01*
X132074230Y-105714800D01*
X132029200Y-105705843D01*
X131984170Y-105714800D01*
X120142000Y-105714800D01*
X120142000Y-104021407D01*
X123202700Y-104021407D01*
X123202700Y-104309393D01*
X123312907Y-104575456D01*
X123516544Y-104779093D01*
X123782607Y-104889300D01*
X124070593Y-104889300D01*
X124336656Y-104779093D01*
X124493149Y-104622600D01*
X134094622Y-104622600D01*
X134576100Y-105104079D01*
X134576100Y-105325393D01*
X134686307Y-105591456D01*
X134842801Y-105747950D01*
X134842800Y-109544421D01*
X133744822Y-110642400D01*
X127566549Y-110642400D01*
X127409456Y-110485307D01*
X127143393Y-110375100D01*
X126855407Y-110375100D01*
X126589344Y-110485307D01*
X126385707Y-110688944D01*
X126275500Y-110955007D01*
X126275500Y-111242993D01*
X126385707Y-111509056D01*
X126589344Y-111712693D01*
X126855407Y-111822900D01*
X127143393Y-111822900D01*
X127409456Y-111712693D01*
X127565349Y-111556800D01*
X133889170Y-111556800D01*
X133934200Y-111565757D01*
X133979230Y-111556800D01*
X134112591Y-111530273D01*
X134263823Y-111429223D01*
X134289332Y-111391046D01*
X135591449Y-110088930D01*
X135629623Y-110063423D01*
X135730673Y-109912191D01*
X135757200Y-109778830D01*
X135757200Y-109778829D01*
X135766157Y-109733800D01*
X135757200Y-109688770D01*
X135757200Y-109590000D01*
X136701536Y-109590000D01*
X136701536Y-111210000D01*
X136731106Y-111358659D01*
X136815314Y-111484686D01*
X136941341Y-111568894D01*
X137090000Y-111598464D01*
X138710000Y-111598464D01*
X138858659Y-111568894D01*
X138984686Y-111484686D01*
X139068894Y-111358659D01*
X139098464Y-111210000D01*
X139098464Y-110163095D01*
X139249000Y-110163095D01*
X139249000Y-110636905D01*
X139430319Y-111074647D01*
X139765353Y-111409681D01*
X140203095Y-111591000D01*
X140676905Y-111591000D01*
X141114647Y-111409681D01*
X141449681Y-111074647D01*
X141631000Y-110636905D01*
X141631000Y-110163095D01*
X141449681Y-109725353D01*
X141114647Y-109390319D01*
X140676905Y-109209000D01*
X140203095Y-109209000D01*
X139765353Y-109390319D01*
X139430319Y-109725353D01*
X139249000Y-110163095D01*
X139098464Y-110163095D01*
X139098464Y-109590000D01*
X139068894Y-109441341D01*
X138984686Y-109315314D01*
X138858659Y-109231106D01*
X138710000Y-109201536D01*
X137090000Y-109201536D01*
X136941341Y-109231106D01*
X136815314Y-109315314D01*
X136731106Y-109441341D01*
X136701536Y-109590000D01*
X135757200Y-109590000D01*
X135757200Y-105747949D01*
X135913693Y-105591456D01*
X136023900Y-105325393D01*
X136023900Y-105037407D01*
X135913693Y-104771344D01*
X135710056Y-104567707D01*
X135443993Y-104457500D01*
X135222679Y-104457500D01*
X134639132Y-103873954D01*
X134613623Y-103835777D01*
X134462391Y-103734727D01*
X134329030Y-103708200D01*
X134284000Y-103699243D01*
X134238970Y-103708200D01*
X124493149Y-103708200D01*
X124336656Y-103551707D01*
X124070593Y-103441500D01*
X123782607Y-103441500D01*
X123516544Y-103551707D01*
X123312907Y-103755344D01*
X123202700Y-104021407D01*
X120142000Y-104021407D01*
X120142000Y-103931623D01*
X120154124Y-103923522D01*
X120255174Y-103772290D01*
X120281701Y-103638929D01*
X120281701Y-103638925D01*
X120290657Y-103593900D01*
X120281701Y-103548875D01*
X120281701Y-102953130D01*
X120290658Y-102908100D01*
X120255174Y-102729710D01*
X120179631Y-102616652D01*
X120154124Y-102578478D01*
X120142000Y-102570377D01*
X120142000Y-99187000D01*
X141478000Y-99187000D01*
X141478000Y-99695000D01*
X141478000Y-99695000D01*
G37*
X141478000Y-99695000D02*
X141487667Y-99743601D01*
X141515197Y-99784803D01*
X141556399Y-99812333D01*
X141605000Y-99822000D01*
X145288000Y-99822000D01*
X145288000Y-113538000D01*
X141605000Y-113538000D01*
X141556399Y-113547667D01*
X141515197Y-113575197D01*
X141487667Y-113616399D01*
X141478000Y-113665000D01*
X141478000Y-114173000D01*
X131046349Y-114173000D01*
X130915256Y-114041907D01*
X130649193Y-113931700D01*
X130361207Y-113931700D01*
X130095144Y-114041907D01*
X129964051Y-114173000D01*
X120142000Y-114173000D01*
X120142000Y-113258600D01*
X132296536Y-113258600D01*
X132296536Y-113451400D01*
X132326106Y-113600059D01*
X132410314Y-113726086D01*
X132536341Y-113810294D01*
X132685000Y-113839864D01*
X133385000Y-113839864D01*
X133533659Y-113810294D01*
X133659686Y-113726086D01*
X133743894Y-113600059D01*
X133773464Y-113451400D01*
X133773464Y-112151400D01*
X134196536Y-112151400D01*
X134196536Y-113451400D01*
X134226106Y-113600059D01*
X134310314Y-113726086D01*
X134436341Y-113810294D01*
X134585000Y-113839864D01*
X135285000Y-113839864D01*
X135433659Y-113810294D01*
X135559686Y-113726086D01*
X135643894Y-113600059D01*
X135673464Y-113451400D01*
X135673464Y-113258600D01*
X136433770Y-113258600D01*
X136478800Y-113267557D01*
X136523830Y-113258600D01*
X136657191Y-113232073D01*
X136731532Y-113182400D01*
X141610770Y-113182400D01*
X141655800Y-113191357D01*
X141700830Y-113182400D01*
X141834191Y-113155873D01*
X141985423Y-113054823D01*
X142010932Y-113016646D01*
X142461450Y-112566129D01*
X142499624Y-112540622D01*
X142600674Y-112389390D01*
X142624820Y-112268000D01*
X142636158Y-112211000D01*
X142627201Y-112165970D01*
X142627201Y-111542995D01*
X142743095Y-111591000D01*
X143216905Y-111591000D01*
X143654647Y-111409681D01*
X143989681Y-111074647D01*
X144171000Y-110636905D01*
X144171000Y-110163095D01*
X143989681Y-109725353D01*
X143654647Y-109390319D01*
X143216905Y-109209000D01*
X142743095Y-109209000D01*
X142525648Y-109299070D01*
X141300200Y-108073622D01*
X141300200Y-105766890D01*
X142068524Y-105766890D01*
X142238355Y-106176924D01*
X142628642Y-106605183D01*
X143153108Y-106851486D01*
X143383000Y-106730819D01*
X143383000Y-105537000D01*
X143637000Y-105537000D01*
X143637000Y-106730819D01*
X143866892Y-106851486D01*
X144391358Y-106605183D01*
X144781645Y-106176924D01*
X144951476Y-105766890D01*
X144830155Y-105537000D01*
X143637000Y-105537000D01*
X143383000Y-105537000D01*
X142189845Y-105537000D01*
X142068524Y-105766890D01*
X141300200Y-105766890D01*
X141300200Y-103999178D01*
X141972179Y-103327200D01*
X142271536Y-103327200D01*
X142271536Y-103720000D01*
X142301106Y-103868659D01*
X142385314Y-103994686D01*
X142511341Y-104078894D01*
X142660000Y-104108464D01*
X142855105Y-104108464D01*
X142628642Y-104214817D01*
X142238355Y-104643076D01*
X142068524Y-105053110D01*
X142189845Y-105283000D01*
X143383000Y-105283000D01*
X143383000Y-105263000D01*
X143637000Y-105263000D01*
X143637000Y-105283000D01*
X144830155Y-105283000D01*
X144951476Y-105053110D01*
X144781645Y-104643076D01*
X144391358Y-104214817D01*
X144164895Y-104108464D01*
X144360000Y-104108464D01*
X144508659Y-104078894D01*
X144634686Y-103994686D01*
X144718894Y-103868659D01*
X144748464Y-103720000D01*
X144748464Y-102020000D01*
X144718894Y-101871341D01*
X144634686Y-101745314D01*
X144508659Y-101661106D01*
X144360000Y-101631536D01*
X142660000Y-101631536D01*
X142511341Y-101661106D01*
X142385314Y-101745314D01*
X142301106Y-101871341D01*
X142271536Y-102020000D01*
X142271536Y-102412800D01*
X141827830Y-102412800D01*
X141782800Y-102403843D01*
X141737770Y-102412800D01*
X141604409Y-102439327D01*
X141453177Y-102540377D01*
X141427670Y-102578551D01*
X140551552Y-103454670D01*
X140513378Y-103480177D01*
X140487871Y-103518351D01*
X140487870Y-103518352D01*
X140412327Y-103631410D01*
X140376843Y-103809800D01*
X140385801Y-103854835D01*
X140385800Y-108217970D01*
X140376843Y-108263000D01*
X140385800Y-108308029D01*
X140412327Y-108441390D01*
X140513377Y-108592623D01*
X140551554Y-108618132D01*
X141879070Y-109945648D01*
X141789000Y-110163095D01*
X141789000Y-110636905D01*
X141879070Y-110854352D01*
X141878555Y-110854867D01*
X141840378Y-110880376D01*
X141739329Y-111031608D01*
X141739328Y-111031609D01*
X141703844Y-111209999D01*
X141712801Y-111255029D01*
X141712802Y-112021620D01*
X141466422Y-112268000D01*
X136600029Y-112268000D01*
X136554999Y-112259043D01*
X136460038Y-112277932D01*
X136376609Y-112294527D01*
X136302268Y-112344200D01*
X135673464Y-112344200D01*
X135673464Y-112151400D01*
X135643894Y-112002741D01*
X135559686Y-111876714D01*
X135433659Y-111792506D01*
X135285000Y-111762936D01*
X134585000Y-111762936D01*
X134436341Y-111792506D01*
X134310314Y-111876714D01*
X134226106Y-112002741D01*
X134196536Y-112151400D01*
X133773464Y-112151400D01*
X133743894Y-112002741D01*
X133659686Y-111876714D01*
X133533659Y-111792506D01*
X133385000Y-111762936D01*
X132685000Y-111762936D01*
X132536341Y-111792506D01*
X132410314Y-111876714D01*
X132326106Y-112002741D01*
X132296536Y-112151400D01*
X132296536Y-112344200D01*
X120142000Y-112344200D01*
X120142000Y-106629200D01*
X131839822Y-106629200D01*
X132384800Y-107174179D01*
X132384801Y-107688250D01*
X132228307Y-107844744D01*
X132118100Y-108110807D01*
X132118100Y-108398793D01*
X132228307Y-108664856D01*
X132431944Y-108868493D01*
X132698007Y-108978700D01*
X132985993Y-108978700D01*
X133252056Y-108868493D01*
X133455693Y-108664856D01*
X133565900Y-108398793D01*
X133565900Y-108110807D01*
X133455693Y-107844744D01*
X133299200Y-107688251D01*
X133299200Y-107029830D01*
X133308157Y-106984800D01*
X133272673Y-106806409D01*
X133197130Y-106693351D01*
X133171623Y-106655177D01*
X133133449Y-106629670D01*
X132384332Y-105880554D01*
X132358823Y-105842377D01*
X132207591Y-105741327D01*
X132074230Y-105714800D01*
X132029200Y-105705843D01*
X131984170Y-105714800D01*
X120142000Y-105714800D01*
X120142000Y-104021407D01*
X123202700Y-104021407D01*
X123202700Y-104309393D01*
X123312907Y-104575456D01*
X123516544Y-104779093D01*
X123782607Y-104889300D01*
X124070593Y-104889300D01*
X124336656Y-104779093D01*
X124493149Y-104622600D01*
X134094622Y-104622600D01*
X134576100Y-105104079D01*
X134576100Y-105325393D01*
X134686307Y-105591456D01*
X134842801Y-105747950D01*
X134842800Y-109544421D01*
X133744822Y-110642400D01*
X127566549Y-110642400D01*
X127409456Y-110485307D01*
X127143393Y-110375100D01*
X126855407Y-110375100D01*
X126589344Y-110485307D01*
X126385707Y-110688944D01*
X126275500Y-110955007D01*
X126275500Y-111242993D01*
X126385707Y-111509056D01*
X126589344Y-111712693D01*
X126855407Y-111822900D01*
X127143393Y-111822900D01*
X127409456Y-111712693D01*
X127565349Y-111556800D01*
X133889170Y-111556800D01*
X133934200Y-111565757D01*
X133979230Y-111556800D01*
X134112591Y-111530273D01*
X134263823Y-111429223D01*
X134289332Y-111391046D01*
X135591449Y-110088930D01*
X135629623Y-110063423D01*
X135730673Y-109912191D01*
X135757200Y-109778830D01*
X135757200Y-109778829D01*
X135766157Y-109733800D01*
X135757200Y-109688770D01*
X135757200Y-109590000D01*
X136701536Y-109590000D01*
X136701536Y-111210000D01*
X136731106Y-111358659D01*
X136815314Y-111484686D01*
X136941341Y-111568894D01*
X137090000Y-111598464D01*
X138710000Y-111598464D01*
X138858659Y-111568894D01*
X138984686Y-111484686D01*
X139068894Y-111358659D01*
X139098464Y-111210000D01*
X139098464Y-110163095D01*
X139249000Y-110163095D01*
X139249000Y-110636905D01*
X139430319Y-111074647D01*
X139765353Y-111409681D01*
X140203095Y-111591000D01*
X140676905Y-111591000D01*
X141114647Y-111409681D01*
X141449681Y-111074647D01*
X141631000Y-110636905D01*
X141631000Y-110163095D01*
X141449681Y-109725353D01*
X141114647Y-109390319D01*
X140676905Y-109209000D01*
X140203095Y-109209000D01*
X139765353Y-109390319D01*
X139430319Y-109725353D01*
X139249000Y-110163095D01*
X139098464Y-110163095D01*
X139098464Y-109590000D01*
X139068894Y-109441341D01*
X138984686Y-109315314D01*
X138858659Y-109231106D01*
X138710000Y-109201536D01*
X137090000Y-109201536D01*
X136941341Y-109231106D01*
X136815314Y-109315314D01*
X136731106Y-109441341D01*
X136701536Y-109590000D01*
X135757200Y-109590000D01*
X135757200Y-105747949D01*
X135913693Y-105591456D01*
X136023900Y-105325393D01*
X136023900Y-105037407D01*
X135913693Y-104771344D01*
X135710056Y-104567707D01*
X135443993Y-104457500D01*
X135222679Y-104457500D01*
X134639132Y-103873954D01*
X134613623Y-103835777D01*
X134462391Y-103734727D01*
X134329030Y-103708200D01*
X134284000Y-103699243D01*
X134238970Y-103708200D01*
X124493149Y-103708200D01*
X124336656Y-103551707D01*
X124070593Y-103441500D01*
X123782607Y-103441500D01*
X123516544Y-103551707D01*
X123312907Y-103755344D01*
X123202700Y-104021407D01*
X120142000Y-104021407D01*
X120142000Y-103931623D01*
X120154124Y-103923522D01*
X120255174Y-103772290D01*
X120281701Y-103638929D01*
X120281701Y-103638925D01*
X120290657Y-103593900D01*
X120281701Y-103548875D01*
X120281701Y-102953130D01*
X120290658Y-102908100D01*
X120255174Y-102729710D01*
X120179631Y-102616652D01*
X120154124Y-102578478D01*
X120142000Y-102570377D01*
X120142000Y-99187000D01*
X141478000Y-99187000D01*
X141478000Y-99695000D01*
G36*
X119253000Y-114935000D02*
X119262667Y-114983601D01*
X119290197Y-115024803D01*
X119331399Y-115052333D01*
X119380000Y-115062000D01*
X126542801Y-115062000D01*
X126542801Y-115696953D01*
X126302694Y-115796408D01*
X125956408Y-116142694D01*
X125769000Y-116595139D01*
X125769000Y-117084861D01*
X125877995Y-117348000D01*
X125582005Y-117348000D01*
X125691000Y-117084861D01*
X125691000Y-116595139D01*
X125503592Y-116142694D01*
X125157306Y-115796408D01*
X124704861Y-115609000D01*
X124215139Y-115609000D01*
X123762694Y-115796408D01*
X123416408Y-116142694D01*
X123229000Y-116595139D01*
X123229000Y-117084861D01*
X123337995Y-117348000D01*
X123042005Y-117348000D01*
X123151000Y-117084861D01*
X123151000Y-116595139D01*
X122963592Y-116142694D01*
X122617306Y-115796408D01*
X122164861Y-115609000D01*
X121675139Y-115609000D01*
X121222694Y-115796408D01*
X120876408Y-116142694D01*
X120689000Y-116595139D01*
X120689000Y-117084861D01*
X120797995Y-117348000D01*
X120502005Y-117348000D01*
X120611000Y-117084861D01*
X120611000Y-116595139D01*
X120423592Y-116142694D01*
X120077306Y-115796408D01*
X119624861Y-115609000D01*
X119135139Y-115609000D01*
X118682694Y-115796408D01*
X118336408Y-116142694D01*
X118149000Y-116595139D01*
X118149000Y-117084861D01*
X118257995Y-117348000D01*
X117962005Y-117348000D01*
X118071000Y-117084861D01*
X118071000Y-116595139D01*
X117883592Y-116142694D01*
X117537306Y-115796408D01*
X117297200Y-115696953D01*
X117297200Y-113727378D01*
X117765978Y-113258600D01*
X119253000Y-113258600D01*
X119253000Y-114935000D01*
X119253000Y-114935000D01*
G37*
X119253000Y-114935000D02*
X119262667Y-114983601D01*
X119290197Y-115024803D01*
X119331399Y-115052333D01*
X119380000Y-115062000D01*
X126542801Y-115062000D01*
X126542801Y-115696953D01*
X126302694Y-115796408D01*
X125956408Y-116142694D01*
X125769000Y-116595139D01*
X125769000Y-117084861D01*
X125877995Y-117348000D01*
X125582005Y-117348000D01*
X125691000Y-117084861D01*
X125691000Y-116595139D01*
X125503592Y-116142694D01*
X125157306Y-115796408D01*
X124704861Y-115609000D01*
X124215139Y-115609000D01*
X123762694Y-115796408D01*
X123416408Y-116142694D01*
X123229000Y-116595139D01*
X123229000Y-117084861D01*
X123337995Y-117348000D01*
X123042005Y-117348000D01*
X123151000Y-117084861D01*
X123151000Y-116595139D01*
X122963592Y-116142694D01*
X122617306Y-115796408D01*
X122164861Y-115609000D01*
X121675139Y-115609000D01*
X121222694Y-115796408D01*
X120876408Y-116142694D01*
X120689000Y-116595139D01*
X120689000Y-117084861D01*
X120797995Y-117348000D01*
X120502005Y-117348000D01*
X120611000Y-117084861D01*
X120611000Y-116595139D01*
X120423592Y-116142694D01*
X120077306Y-115796408D01*
X119624861Y-115609000D01*
X119135139Y-115609000D01*
X118682694Y-115796408D01*
X118336408Y-116142694D01*
X118149000Y-116595139D01*
X118149000Y-117084861D01*
X118257995Y-117348000D01*
X117962005Y-117348000D01*
X118071000Y-117084861D01*
X118071000Y-116595139D01*
X117883592Y-116142694D01*
X117537306Y-115796408D01*
X117297200Y-115696953D01*
X117297200Y-113727378D01*
X117765978Y-113258600D01*
X119253000Y-113258600D01*
X119253000Y-114935000D01*
G36*
X110529000Y-96275139D02*
X110529000Y-96764861D01*
X110716408Y-97217306D01*
X111062694Y-97563592D01*
X111515139Y-97751000D01*
X112004861Y-97751000D01*
X112457306Y-97563592D01*
X112803592Y-97217306D01*
X112991000Y-96764861D01*
X112991000Y-96275139D01*
X112882005Y-96012000D01*
X113177995Y-96012000D01*
X113069000Y-96275139D01*
X113069000Y-96764861D01*
X113256408Y-97217306D01*
X113602694Y-97563592D01*
X114055139Y-97751000D01*
X114544861Y-97751000D01*
X114997306Y-97563592D01*
X115343592Y-97217306D01*
X115531000Y-96764861D01*
X115531000Y-96275139D01*
X115422005Y-96012000D01*
X115717995Y-96012000D01*
X115609000Y-96275139D01*
X115609000Y-96764861D01*
X115796408Y-97217306D01*
X116142694Y-97563592D01*
X116595139Y-97751000D01*
X117084861Y-97751000D01*
X117537306Y-97563592D01*
X117883592Y-97217306D01*
X118071000Y-96764861D01*
X118071000Y-96275139D01*
X117962005Y-96012000D01*
X118257995Y-96012000D01*
X118149000Y-96275139D01*
X118149000Y-96764861D01*
X118336408Y-97217306D01*
X118682694Y-97563592D01*
X118800001Y-97612182D01*
X118383648Y-97612182D01*
X118338618Y-97603225D01*
X118160238Y-97638707D01*
X118160228Y-97638709D01*
X118008996Y-97739759D01*
X117983490Y-97777932D01*
X117437552Y-98323870D01*
X117399377Y-98349378D01*
X117373870Y-98387552D01*
X117298327Y-98500610D01*
X117262843Y-98679000D01*
X117271800Y-98724030D01*
X117271802Y-102648765D01*
X117262844Y-102693800D01*
X117298328Y-102872190D01*
X117373871Y-102985248D01*
X117399379Y-103023423D01*
X117437553Y-103048930D01*
X118184610Y-103795988D01*
X118184611Y-104553756D01*
X118175653Y-104598790D01*
X118186200Y-104651814D01*
X118186201Y-105517366D01*
X118177243Y-105562400D01*
X118212727Y-105740790D01*
X118280606Y-105842378D01*
X118313778Y-105892023D01*
X118351952Y-105917530D01*
X118897868Y-106463446D01*
X118923377Y-106501623D01*
X119001955Y-106554127D01*
X119074609Y-106602673D01*
X119253000Y-106638157D01*
X119253000Y-112344200D01*
X117621630Y-112344200D01*
X117576600Y-112335243D01*
X117531570Y-112344200D01*
X117398209Y-112370727D01*
X117246977Y-112471777D01*
X117221468Y-112509954D01*
X116548552Y-113182870D01*
X116510378Y-113208377D01*
X116484871Y-113246551D01*
X116484870Y-113246552D01*
X116409327Y-113359610D01*
X116373843Y-113538000D01*
X116382801Y-113583035D01*
X116382800Y-115696953D01*
X116142694Y-115796408D01*
X115796408Y-116142694D01*
X115609000Y-116595139D01*
X115609000Y-117084861D01*
X115717995Y-117348000D01*
X115422005Y-117348000D01*
X115531000Y-117084861D01*
X115531000Y-116595139D01*
X115343592Y-116142694D01*
X114997306Y-115796408D01*
X114544861Y-115609000D01*
X114055139Y-115609000D01*
X113602694Y-115796408D01*
X113256408Y-116142694D01*
X113069000Y-116595139D01*
X113069000Y-117084861D01*
X113177995Y-117348000D01*
X112882005Y-117348000D01*
X112991000Y-117084861D01*
X112991000Y-116595139D01*
X112803592Y-116142694D01*
X112457306Y-115796408D01*
X112004861Y-115609000D01*
X111515139Y-115609000D01*
X111062694Y-115796408D01*
X110716408Y-116142694D01*
X110633805Y-116342116D01*
X110515259Y-116055920D01*
X110263958Y-115975647D01*
X109399605Y-116840000D01*
X109413748Y-116854143D01*
X109234143Y-117033748D01*
X109220000Y-117019605D01*
X109205858Y-117033748D01*
X109026253Y-116854143D01*
X109040395Y-116840000D01*
X108176042Y-115975647D01*
X107924741Y-116055920D01*
X107814046Y-116361071D01*
X107723592Y-116142694D01*
X107377306Y-115796408D01*
X107376423Y-115796042D01*
X108355647Y-115796042D01*
X109220000Y-116660395D01*
X110084353Y-115796042D01*
X110004080Y-115544741D01*
X109448721Y-115343282D01*
X108858542Y-115369685D01*
X108435920Y-115544741D01*
X108355647Y-115796042D01*
X107376423Y-115796042D01*
X106924861Y-115609000D01*
X106435139Y-115609000D01*
X105982694Y-115796408D01*
X105636408Y-116142694D01*
X105449000Y-116595139D01*
X105449000Y-117084861D01*
X105557995Y-117348000D01*
X105262005Y-117348000D01*
X105371000Y-117084861D01*
X105371000Y-116595139D01*
X105183592Y-116142694D01*
X104837306Y-115796408D01*
X104384861Y-115609000D01*
X103895139Y-115609000D01*
X103442694Y-115796408D01*
X103096408Y-116142694D01*
X102909000Y-116595139D01*
X102909000Y-117084861D01*
X103017995Y-117348000D01*
X102722005Y-117348000D01*
X102831000Y-117084861D01*
X102831000Y-116595139D01*
X102643592Y-116142694D01*
X102297306Y-115796408D01*
X101844861Y-115609000D01*
X101355139Y-115609000D01*
X100902694Y-115796408D01*
X100556408Y-116142694D01*
X100457000Y-116382687D01*
X100457000Y-113665000D01*
X100447333Y-113616399D01*
X100419803Y-113575197D01*
X99784803Y-112940197D01*
X99743601Y-112912667D01*
X99695000Y-112903000D01*
X96572606Y-112903000D01*
X96012000Y-112342394D01*
X96012000Y-101017606D01*
X96029606Y-101000000D01*
X102773000Y-101000000D01*
X102773000Y-104700000D01*
X102782667Y-104748601D01*
X102810197Y-104789803D01*
X102851399Y-104817333D01*
X102900000Y-104827000D01*
X104247433Y-104827000D01*
X104253273Y-104841099D01*
X104431902Y-105019727D01*
X104665291Y-105116400D01*
X105305850Y-105116400D01*
X105464600Y-104957650D01*
X105464600Y-104008400D01*
X105444600Y-104008400D01*
X105444600Y-103754400D01*
X105464600Y-103754400D01*
X105464600Y-103734400D01*
X105718600Y-103734400D01*
X105718600Y-103754400D01*
X105738600Y-103754400D01*
X105738600Y-104008400D01*
X105718600Y-104008400D01*
X105718600Y-104957650D01*
X105877350Y-105116400D01*
X106517909Y-105116400D01*
X106751298Y-105019727D01*
X106929927Y-104841099D01*
X106935767Y-104827000D01*
X108300000Y-104827000D01*
X108348601Y-104817333D01*
X108389803Y-104789803D01*
X108417333Y-104748601D01*
X108427000Y-104700000D01*
X108427000Y-101000000D01*
X108417333Y-100951399D01*
X108389803Y-100910197D01*
X108348601Y-100882667D01*
X108300000Y-100873000D01*
X106780064Y-100873000D01*
X106780064Y-100081400D01*
X106750494Y-99932741D01*
X106666286Y-99806714D01*
X106540259Y-99722506D01*
X106410485Y-99696693D01*
X106462978Y-99644200D01*
X112002422Y-99644200D01*
X113055401Y-100697180D01*
X113055400Y-101247837D01*
X113051871Y-101265580D01*
X112924307Y-101393144D01*
X112814100Y-101659207D01*
X112814100Y-101947193D01*
X112924307Y-102213256D01*
X113127944Y-102416893D01*
X113394007Y-102527100D01*
X113681993Y-102527100D01*
X113948056Y-102416893D01*
X114151693Y-102213256D01*
X114261900Y-101947193D01*
X114261900Y-101659207D01*
X114151693Y-101393144D01*
X113986116Y-101227567D01*
X113969800Y-101145543D01*
X113969800Y-100552829D01*
X113978757Y-100507799D01*
X113943273Y-100329409D01*
X113867730Y-100216351D01*
X113842223Y-100178177D01*
X113804049Y-100152670D01*
X112546932Y-98895554D01*
X112521423Y-98857377D01*
X112370191Y-98756327D01*
X112236830Y-98729800D01*
X112191800Y-98720843D01*
X112146770Y-98729800D01*
X106318630Y-98729800D01*
X106273600Y-98720843D01*
X106228570Y-98729800D01*
X106095209Y-98756327D01*
X105943977Y-98857377D01*
X105918468Y-98895554D01*
X105300154Y-99513868D01*
X105261977Y-99539377D01*
X105209662Y-99617673D01*
X105160927Y-99690610D01*
X105160464Y-99692936D01*
X104791600Y-99692936D01*
X104642941Y-99722506D01*
X104516914Y-99806714D01*
X104432706Y-99932741D01*
X104403136Y-100081400D01*
X104403136Y-100873000D01*
X102900000Y-100873000D01*
X102851399Y-100882667D01*
X102810197Y-100910197D01*
X102782667Y-100951399D01*
X102773000Y-101000000D01*
X96029606Y-101000000D01*
X96572606Y-100457000D01*
X99695000Y-100457000D01*
X99743601Y-100447333D01*
X99784803Y-100419803D01*
X100419803Y-99784803D01*
X100447333Y-99743601D01*
X100457000Y-99695000D01*
X100457000Y-96572606D01*
X101017606Y-96012000D01*
X110637995Y-96012000D01*
X110529000Y-96275139D01*
X110529000Y-96275139D01*
G37*
X110529000Y-96275139D02*
X110529000Y-96764861D01*
X110716408Y-97217306D01*
X111062694Y-97563592D01*
X111515139Y-97751000D01*
X112004861Y-97751000D01*
X112457306Y-97563592D01*
X112803592Y-97217306D01*
X112991000Y-96764861D01*
X112991000Y-96275139D01*
X112882005Y-96012000D01*
X113177995Y-96012000D01*
X113069000Y-96275139D01*
X113069000Y-96764861D01*
X113256408Y-97217306D01*
X113602694Y-97563592D01*
X114055139Y-97751000D01*
X114544861Y-97751000D01*
X114997306Y-97563592D01*
X115343592Y-97217306D01*
X115531000Y-96764861D01*
X115531000Y-96275139D01*
X115422005Y-96012000D01*
X115717995Y-96012000D01*
X115609000Y-96275139D01*
X115609000Y-96764861D01*
X115796408Y-97217306D01*
X116142694Y-97563592D01*
X116595139Y-97751000D01*
X117084861Y-97751000D01*
X117537306Y-97563592D01*
X117883592Y-97217306D01*
X118071000Y-96764861D01*
X118071000Y-96275139D01*
X117962005Y-96012000D01*
X118257995Y-96012000D01*
X118149000Y-96275139D01*
X118149000Y-96764861D01*
X118336408Y-97217306D01*
X118682694Y-97563592D01*
X118800001Y-97612182D01*
X118383648Y-97612182D01*
X118338618Y-97603225D01*
X118160238Y-97638707D01*
X118160228Y-97638709D01*
X118008996Y-97739759D01*
X117983490Y-97777932D01*
X117437552Y-98323870D01*
X117399377Y-98349378D01*
X117373870Y-98387552D01*
X117298327Y-98500610D01*
X117262843Y-98679000D01*
X117271800Y-98724030D01*
X117271802Y-102648765D01*
X117262844Y-102693800D01*
X117298328Y-102872190D01*
X117373871Y-102985248D01*
X117399379Y-103023423D01*
X117437553Y-103048930D01*
X118184610Y-103795988D01*
X118184611Y-104553756D01*
X118175653Y-104598790D01*
X118186200Y-104651814D01*
X118186201Y-105517366D01*
X118177243Y-105562400D01*
X118212727Y-105740790D01*
X118280606Y-105842378D01*
X118313778Y-105892023D01*
X118351952Y-105917530D01*
X118897868Y-106463446D01*
X118923377Y-106501623D01*
X119001955Y-106554127D01*
X119074609Y-106602673D01*
X119253000Y-106638157D01*
X119253000Y-112344200D01*
X117621630Y-112344200D01*
X117576600Y-112335243D01*
X117531570Y-112344200D01*
X117398209Y-112370727D01*
X117246977Y-112471777D01*
X117221468Y-112509954D01*
X116548552Y-113182870D01*
X116510378Y-113208377D01*
X116484871Y-113246551D01*
X116484870Y-113246552D01*
X116409327Y-113359610D01*
X116373843Y-113538000D01*
X116382801Y-113583035D01*
X116382800Y-115696953D01*
X116142694Y-115796408D01*
X115796408Y-116142694D01*
X115609000Y-116595139D01*
X115609000Y-117084861D01*
X115717995Y-117348000D01*
X115422005Y-117348000D01*
X115531000Y-117084861D01*
X115531000Y-116595139D01*
X115343592Y-116142694D01*
X114997306Y-115796408D01*
X114544861Y-115609000D01*
X114055139Y-115609000D01*
X113602694Y-115796408D01*
X113256408Y-116142694D01*
X113069000Y-116595139D01*
X113069000Y-117084861D01*
X113177995Y-117348000D01*
X112882005Y-117348000D01*
X112991000Y-117084861D01*
X112991000Y-116595139D01*
X112803592Y-116142694D01*
X112457306Y-115796408D01*
X112004861Y-115609000D01*
X111515139Y-115609000D01*
X111062694Y-115796408D01*
X110716408Y-116142694D01*
X110633805Y-116342116D01*
X110515259Y-116055920D01*
X110263958Y-115975647D01*
X109399605Y-116840000D01*
X109413748Y-116854143D01*
X109234143Y-117033748D01*
X109220000Y-117019605D01*
X109205858Y-117033748D01*
X109026253Y-116854143D01*
X109040395Y-116840000D01*
X108176042Y-115975647D01*
X107924741Y-116055920D01*
X107814046Y-116361071D01*
X107723592Y-116142694D01*
X107377306Y-115796408D01*
X107376423Y-115796042D01*
X108355647Y-115796042D01*
X109220000Y-116660395D01*
X110084353Y-115796042D01*
X110004080Y-115544741D01*
X109448721Y-115343282D01*
X108858542Y-115369685D01*
X108435920Y-115544741D01*
X108355647Y-115796042D01*
X107376423Y-115796042D01*
X106924861Y-115609000D01*
X106435139Y-115609000D01*
X105982694Y-115796408D01*
X105636408Y-116142694D01*
X105449000Y-116595139D01*
X105449000Y-117084861D01*
X105557995Y-117348000D01*
X105262005Y-117348000D01*
X105371000Y-117084861D01*
X105371000Y-116595139D01*
X105183592Y-116142694D01*
X104837306Y-115796408D01*
X104384861Y-115609000D01*
X103895139Y-115609000D01*
X103442694Y-115796408D01*
X103096408Y-116142694D01*
X102909000Y-116595139D01*
X102909000Y-117084861D01*
X103017995Y-117348000D01*
X102722005Y-117348000D01*
X102831000Y-117084861D01*
X102831000Y-116595139D01*
X102643592Y-116142694D01*
X102297306Y-115796408D01*
X101844861Y-115609000D01*
X101355139Y-115609000D01*
X100902694Y-115796408D01*
X100556408Y-116142694D01*
X100457000Y-116382687D01*
X100457000Y-113665000D01*
X100447333Y-113616399D01*
X100419803Y-113575197D01*
X99784803Y-112940197D01*
X99743601Y-112912667D01*
X99695000Y-112903000D01*
X96572606Y-112903000D01*
X96012000Y-112342394D01*
X96012000Y-101017606D01*
X96029606Y-101000000D01*
X102773000Y-101000000D01*
X102773000Y-104700000D01*
X102782667Y-104748601D01*
X102810197Y-104789803D01*
X102851399Y-104817333D01*
X102900000Y-104827000D01*
X104247433Y-104827000D01*
X104253273Y-104841099D01*
X104431902Y-105019727D01*
X104665291Y-105116400D01*
X105305850Y-105116400D01*
X105464600Y-104957650D01*
X105464600Y-104008400D01*
X105444600Y-104008400D01*
X105444600Y-103754400D01*
X105464600Y-103754400D01*
X105464600Y-103734400D01*
X105718600Y-103734400D01*
X105718600Y-103754400D01*
X105738600Y-103754400D01*
X105738600Y-104008400D01*
X105718600Y-104008400D01*
X105718600Y-104957650D01*
X105877350Y-105116400D01*
X106517909Y-105116400D01*
X106751298Y-105019727D01*
X106929927Y-104841099D01*
X106935767Y-104827000D01*
X108300000Y-104827000D01*
X108348601Y-104817333D01*
X108389803Y-104789803D01*
X108417333Y-104748601D01*
X108427000Y-104700000D01*
X108427000Y-101000000D01*
X108417333Y-100951399D01*
X108389803Y-100910197D01*
X108348601Y-100882667D01*
X108300000Y-100873000D01*
X106780064Y-100873000D01*
X106780064Y-100081400D01*
X106750494Y-99932741D01*
X106666286Y-99806714D01*
X106540259Y-99722506D01*
X106410485Y-99696693D01*
X106462978Y-99644200D01*
X112002422Y-99644200D01*
X113055401Y-100697180D01*
X113055400Y-101247837D01*
X113051871Y-101265580D01*
X112924307Y-101393144D01*
X112814100Y-101659207D01*
X112814100Y-101947193D01*
X112924307Y-102213256D01*
X113127944Y-102416893D01*
X113394007Y-102527100D01*
X113681993Y-102527100D01*
X113948056Y-102416893D01*
X114151693Y-102213256D01*
X114261900Y-101947193D01*
X114261900Y-101659207D01*
X114151693Y-101393144D01*
X113986116Y-101227567D01*
X113969800Y-101145543D01*
X113969800Y-100552829D01*
X113978757Y-100507799D01*
X113943273Y-100329409D01*
X113867730Y-100216351D01*
X113842223Y-100178177D01*
X113804049Y-100152670D01*
X112546932Y-98895554D01*
X112521423Y-98857377D01*
X112370191Y-98756327D01*
X112236830Y-98729800D01*
X112191800Y-98720843D01*
X112146770Y-98729800D01*
X106318630Y-98729800D01*
X106273600Y-98720843D01*
X106228570Y-98729800D01*
X106095209Y-98756327D01*
X105943977Y-98857377D01*
X105918468Y-98895554D01*
X105300154Y-99513868D01*
X105261977Y-99539377D01*
X105209662Y-99617673D01*
X105160927Y-99690610D01*
X105160464Y-99692936D01*
X104791600Y-99692936D01*
X104642941Y-99722506D01*
X104516914Y-99806714D01*
X104432706Y-99932741D01*
X104403136Y-100081400D01*
X104403136Y-100873000D01*
X102900000Y-100873000D01*
X102851399Y-100882667D01*
X102810197Y-100910197D01*
X102782667Y-100951399D01*
X102773000Y-101000000D01*
X96029606Y-101000000D01*
X96572606Y-100457000D01*
X99695000Y-100457000D01*
X99743601Y-100447333D01*
X99784803Y-100419803D01*
X100419803Y-99784803D01*
X100447333Y-99743601D01*
X100457000Y-99695000D01*
X100457000Y-96572606D01*
X101017606Y-96012000D01*
X110637995Y-96012000D01*
X110529000Y-96275139D01*
G36*
X141478000Y-116787394D02*
X140917394Y-117348000D01*
X140822005Y-117348000D01*
X140931000Y-117084861D01*
X140931000Y-116595139D01*
X140743592Y-116142694D01*
X140397306Y-115796408D01*
X139944861Y-115609000D01*
X139455139Y-115609000D01*
X139002694Y-115796408D01*
X138656408Y-116142694D01*
X138469000Y-116595139D01*
X138469000Y-117084861D01*
X138577995Y-117348000D01*
X138282005Y-117348000D01*
X138391000Y-117084861D01*
X138391000Y-116595139D01*
X138203592Y-116142694D01*
X137857306Y-115796408D01*
X137404861Y-115609000D01*
X136915139Y-115609000D01*
X136462694Y-115796408D01*
X136116408Y-116142694D01*
X135929000Y-116595139D01*
X135929000Y-117084861D01*
X136037995Y-117348000D01*
X135742005Y-117348000D01*
X135851000Y-117084861D01*
X135851000Y-116595139D01*
X135663592Y-116142694D01*
X135317306Y-115796408D01*
X134864861Y-115609000D01*
X134375139Y-115609000D01*
X133922694Y-115796408D01*
X133576408Y-116142694D01*
X133389000Y-116595139D01*
X133389000Y-117084861D01*
X133497995Y-117348000D01*
X133202005Y-117348000D01*
X133311000Y-117084861D01*
X133311000Y-116595139D01*
X133123592Y-116142694D01*
X132777306Y-115796408D01*
X132324861Y-115609000D01*
X131835139Y-115609000D01*
X131382694Y-115796408D01*
X131036408Y-116142694D01*
X130849000Y-116595139D01*
X130849000Y-117084861D01*
X130957995Y-117348000D01*
X130662005Y-117348000D01*
X130771000Y-117084861D01*
X130771000Y-116595139D01*
X130583592Y-116142694D01*
X130237306Y-115796408D01*
X129784861Y-115609000D01*
X129295139Y-115609000D01*
X128842694Y-115796408D01*
X128496408Y-116142694D01*
X128309000Y-116595139D01*
X128309000Y-117084861D01*
X128417995Y-117348000D01*
X128122005Y-117348000D01*
X128231000Y-117084861D01*
X128231000Y-116595139D01*
X128043592Y-116142694D01*
X127697306Y-115796408D01*
X127457200Y-115696953D01*
X127457200Y-115124378D01*
X127468778Y-115112800D01*
X129938651Y-115112800D01*
X130095144Y-115269293D01*
X130361207Y-115379500D01*
X130649193Y-115379500D01*
X130915256Y-115269293D01*
X131118893Y-115065656D01*
X131120407Y-115062000D01*
X141478000Y-115062000D01*
X141478000Y-116787394D01*
X141478000Y-116787394D01*
G37*
X141478000Y-116787394D02*
X140917394Y-117348000D01*
X140822005Y-117348000D01*
X140931000Y-117084861D01*
X140931000Y-116595139D01*
X140743592Y-116142694D01*
X140397306Y-115796408D01*
X139944861Y-115609000D01*
X139455139Y-115609000D01*
X139002694Y-115796408D01*
X138656408Y-116142694D01*
X138469000Y-116595139D01*
X138469000Y-117084861D01*
X138577995Y-117348000D01*
X138282005Y-117348000D01*
X138391000Y-117084861D01*
X138391000Y-116595139D01*
X138203592Y-116142694D01*
X137857306Y-115796408D01*
X137404861Y-115609000D01*
X136915139Y-115609000D01*
X136462694Y-115796408D01*
X136116408Y-116142694D01*
X135929000Y-116595139D01*
X135929000Y-117084861D01*
X136037995Y-117348000D01*
X135742005Y-117348000D01*
X135851000Y-117084861D01*
X135851000Y-116595139D01*
X135663592Y-116142694D01*
X135317306Y-115796408D01*
X134864861Y-115609000D01*
X134375139Y-115609000D01*
X133922694Y-115796408D01*
X133576408Y-116142694D01*
X133389000Y-116595139D01*
X133389000Y-117084861D01*
X133497995Y-117348000D01*
X133202005Y-117348000D01*
X133311000Y-117084861D01*
X133311000Y-116595139D01*
X133123592Y-116142694D01*
X132777306Y-115796408D01*
X132324861Y-115609000D01*
X131835139Y-115609000D01*
X131382694Y-115796408D01*
X131036408Y-116142694D01*
X130849000Y-116595139D01*
X130849000Y-117084861D01*
X130957995Y-117348000D01*
X130662005Y-117348000D01*
X130771000Y-117084861D01*
X130771000Y-116595139D01*
X130583592Y-116142694D01*
X130237306Y-115796408D01*
X129784861Y-115609000D01*
X129295139Y-115609000D01*
X128842694Y-115796408D01*
X128496408Y-116142694D01*
X128309000Y-116595139D01*
X128309000Y-117084861D01*
X128417995Y-117348000D01*
X128122005Y-117348000D01*
X128231000Y-117084861D01*
X128231000Y-116595139D01*
X128043592Y-116142694D01*
X127697306Y-115796408D01*
X127457200Y-115696953D01*
X127457200Y-115124378D01*
X127468778Y-115112800D01*
X129938651Y-115112800D01*
X130095144Y-115269293D01*
X130361207Y-115379500D01*
X130649193Y-115379500D01*
X130915256Y-115269293D01*
X131118893Y-115065656D01*
X131120407Y-115062000D01*
X141478000Y-115062000D01*
X141478000Y-116787394D01*
G36*
X119253000Y-102031800D02*
X118795820Y-102031800D01*
X118795820Y-99136200D01*
X119253000Y-99136200D01*
X119253000Y-102031800D01*
X119253000Y-102031800D01*
G37*
X119253000Y-102031800D02*
X118795820Y-102031800D01*
X118795820Y-99136200D01*
X119253000Y-99136200D01*
X119253000Y-102031800D01*
G36*
X141478000Y-96572606D02*
X141478000Y-98298000D01*
X140166157Y-98298000D01*
X140157200Y-98252971D01*
X140157200Y-97663047D01*
X140397306Y-97563592D01*
X140743592Y-97217306D01*
X140931000Y-96764861D01*
X140931000Y-96275139D01*
X140822005Y-96012000D01*
X140917394Y-96012000D01*
X141478000Y-96572606D01*
X141478000Y-96572606D01*
G37*
X141478000Y-96572606D02*
X141478000Y-98298000D01*
X140166157Y-98298000D01*
X140157200Y-98252971D01*
X140157200Y-97663047D01*
X140397306Y-97563592D01*
X140743592Y-97217306D01*
X140931000Y-96764861D01*
X140931000Y-96275139D01*
X140822005Y-96012000D01*
X140917394Y-96012000D01*
X141478000Y-96572606D01*
M02*
