G04 #@! TF.GenerationSoftware,KiCad,Pcbnew,(5.0.0-rc2-dev-444-g2974a2c10)*
G04 #@! TF.CreationDate,2019-11-19T23:53:18-08:00*
G04 #@! TF.ProjectId,Waveform_Gen_ADSR,57617665666F726D5F47656E5F414453,v00*
G04 #@! TF.SameCoordinates,Original*
G04 #@! TF.FileFunction,Paste,Top*
G04 #@! TF.FilePolarity,Positive*
%FSLAX46Y46*%
G04 Gerber Fmt 4.6, Leading zero omitted, Abs format (unit mm)*
G04 Created by KiCad (PCBNEW (5.0.0-rc2-dev-444-g2974a2c10)) date 11/19/19 23:53:18*
%MOMM*%
%LPD*%
G01*
G04 APERTURE LIST*
%ADD10R,1.400000X0.300000*%
%ADD11R,1.250000X1.000000*%
%ADD12R,0.700000X1.300000*%
%ADD13R,2.000000X1.800000*%
%ADD14R,1.000000X1.250000*%
%ADD15R,1.560000X0.650000*%
%ADD16R,1.060000X0.400000*%
G04 APERTURE END LIST*
D10*
X126650000Y-107254800D03*
X126650000Y-107754800D03*
X126650000Y-108254800D03*
X126650000Y-108754800D03*
X126650000Y-109254800D03*
X131050000Y-109254800D03*
X131050000Y-108754800D03*
X131050000Y-108254800D03*
X131050000Y-107754800D03*
X131050000Y-107254800D03*
D11*
X104600000Y-111300000D03*
X104600000Y-109300000D03*
D12*
X121450000Y-111100000D03*
X119550000Y-111100000D03*
X119550000Y-113200000D03*
X121450000Y-113200000D03*
D13*
X111650000Y-107710000D03*
X111650000Y-112790000D03*
X107650000Y-112790000D03*
X107650000Y-107710000D03*
D11*
X115167927Y-106714025D03*
X115167927Y-108714025D03*
D14*
X133300000Y-103700000D03*
X135300000Y-103700000D03*
X122926600Y-105562400D03*
X124926600Y-105562400D03*
X133300000Y-101600000D03*
X135300000Y-101600000D03*
D11*
X117304804Y-111174218D03*
X117304804Y-113174218D03*
X125400000Y-113099000D03*
X125400000Y-111099000D03*
X133781800Y-112607600D03*
X133781800Y-110607600D03*
X117217127Y-108718632D03*
X117217127Y-106718632D03*
D12*
X113553200Y-99491800D03*
X115453200Y-99491800D03*
X138950000Y-106200000D03*
X140850000Y-106200000D03*
D11*
X123300000Y-113099000D03*
X123300000Y-111099000D03*
D15*
X137550000Y-103850000D03*
X137550000Y-101950000D03*
X140250000Y-101950000D03*
X140250000Y-102900000D03*
X140250000Y-103850000D03*
D12*
X117461207Y-101776400D03*
X115561207Y-101776400D03*
X115547400Y-104126400D03*
X117447400Y-104126400D03*
D16*
X129598600Y-101255000D03*
X129598600Y-101905000D03*
X129598600Y-102565000D03*
X129598600Y-103215000D03*
X127398600Y-103215000D03*
X127398600Y-102565000D03*
X127398600Y-101905000D03*
X127398600Y-101255000D03*
D11*
X115200000Y-113150000D03*
X115200000Y-111150000D03*
M02*
