G04 #@! TF.GenerationSoftware,KiCad,Pcbnew,(5.0.0-rc2-dev-444-g2974a2c10)*
G04 #@! TF.CreationDate,2019-09-13T20:51:01-07:00*
G04 #@! TF.ProjectId,Waveform_Gen_ADSR,57617665666F726D5F47656E5F414453,v00*
G04 #@! TF.SameCoordinates,Original*
G04 #@! TF.FileFunction,Legend,Top*
G04 #@! TF.FilePolarity,Positive*
%FSLAX46Y46*%
G04 Gerber Fmt 4.6, Leading zero omitted, Abs format (unit mm)*
G04 Created by KiCad (PCBNEW (5.0.0-rc2-dev-444-g2974a2c10)) date 09/13/19 20:51:01*
%MOMM*%
%LPD*%
G01*
G04 APERTURE LIST*
%ADD10C,0.100000*%
%ADD11C,0.150000*%
%ADD12C,0.080000*%
%ADD13C,0.120000*%
%ADD14C,0.010000*%
G04 APERTURE END LIST*
D10*
X145415000Y-99695000D02*
X145288000Y-99695000D01*
X141605000Y-113665000D02*
X141605000Y-114300000D01*
X145415000Y-113665000D02*
X141605000Y-113665000D01*
X141605000Y-99695000D02*
X144145000Y-99695000D01*
X141605000Y-99060000D02*
X141605000Y-99695000D01*
D11*
G36*
X124231400Y-110312200D02*
X124231400Y-110062200D01*
X124481400Y-110062200D01*
X124481400Y-110312200D01*
X124231400Y-110312200D01*
G37*
X124231400Y-110312200D02*
X124231400Y-110062200D01*
X124481400Y-110062200D01*
X124481400Y-110312200D01*
X124231400Y-110312200D01*
D10*
X120700000Y-112600000D02*
X120500000Y-112600000D01*
X120400000Y-113800000D02*
X120700000Y-112600000D01*
X120200000Y-113800000D02*
X120400000Y-113800000D01*
X120900000Y-113200000D02*
X120100000Y-113200000D01*
X120500000Y-112600000D02*
X120200000Y-113800000D01*
X120900000Y-111100000D02*
X120100000Y-111100000D01*
X120700000Y-110500000D02*
X120500000Y-110500000D01*
X120400000Y-111700000D02*
X120700000Y-110500000D01*
X120200000Y-111700000D02*
X120400000Y-111700000D01*
X120500000Y-110500000D02*
X120200000Y-111700000D01*
X97884285Y-110445600D02*
X98170000Y-110445600D01*
X97827142Y-110617028D02*
X98027142Y-110017028D01*
X98227142Y-110617028D01*
X98427142Y-110617028D02*
X98427142Y-110217028D01*
X98427142Y-110274171D02*
X98455714Y-110245600D01*
X98512857Y-110217028D01*
X98598571Y-110217028D01*
X98655714Y-110245600D01*
X98684285Y-110302742D01*
X98684285Y-110617028D01*
X98684285Y-110302742D02*
X98712857Y-110245600D01*
X98770000Y-110217028D01*
X98855714Y-110217028D01*
X98912857Y-110245600D01*
X98941428Y-110302742D01*
X98941428Y-110617028D01*
X99227142Y-110217028D02*
X99227142Y-110817028D01*
X99227142Y-110245600D02*
X99284285Y-110217028D01*
X99398571Y-110217028D01*
X99455714Y-110245600D01*
X99484285Y-110274171D01*
X99512857Y-110331314D01*
X99512857Y-110502742D01*
X99484285Y-110559885D01*
X99455714Y-110588457D01*
X99398571Y-110617028D01*
X99284285Y-110617028D01*
X99227142Y-110588457D01*
X99855714Y-110617028D02*
X99798571Y-110588457D01*
X99770000Y-110531314D01*
X99770000Y-110017028D01*
X100084285Y-110617028D02*
X100084285Y-110217028D01*
X100084285Y-110017028D02*
X100055714Y-110045600D01*
X100084285Y-110074171D01*
X100112857Y-110045600D01*
X100084285Y-110017028D01*
X100084285Y-110074171D01*
X100284285Y-110217028D02*
X100512857Y-110217028D01*
X100370000Y-110017028D02*
X100370000Y-110531314D01*
X100398571Y-110588457D01*
X100455714Y-110617028D01*
X100512857Y-110617028D01*
X100970000Y-110217028D02*
X100970000Y-110617028D01*
X100712857Y-110217028D02*
X100712857Y-110531314D01*
X100741428Y-110588457D01*
X100798571Y-110617028D01*
X100884285Y-110617028D01*
X100941428Y-110588457D01*
X100970000Y-110559885D01*
X101512857Y-110617028D02*
X101512857Y-110017028D01*
X101512857Y-110588457D02*
X101455714Y-110617028D01*
X101341428Y-110617028D01*
X101284285Y-110588457D01*
X101255714Y-110559885D01*
X101227142Y-110502742D01*
X101227142Y-110331314D01*
X101255714Y-110274171D01*
X101284285Y-110245600D01*
X101341428Y-110217028D01*
X101455714Y-110217028D01*
X101512857Y-110245600D01*
X102027142Y-110588457D02*
X101970000Y-110617028D01*
X101855714Y-110617028D01*
X101798571Y-110588457D01*
X101770000Y-110531314D01*
X101770000Y-110302742D01*
X101798571Y-110245600D01*
X101855714Y-110217028D01*
X101970000Y-110217028D01*
X102027142Y-110245600D01*
X102055714Y-110302742D01*
X102055714Y-110359885D01*
X101770000Y-110417028D01*
X99398571Y-111559885D02*
X99370000Y-111588457D01*
X99284285Y-111617028D01*
X99227142Y-111617028D01*
X99141428Y-111588457D01*
X99084285Y-111531314D01*
X99055714Y-111474171D01*
X99027142Y-111359885D01*
X99027142Y-111274171D01*
X99055714Y-111159885D01*
X99084285Y-111102742D01*
X99141428Y-111045600D01*
X99227142Y-111017028D01*
X99284285Y-111017028D01*
X99370000Y-111045600D01*
X99398571Y-111074171D01*
X99741428Y-111617028D02*
X99684285Y-111588457D01*
X99655714Y-111559885D01*
X99627142Y-111502742D01*
X99627142Y-111331314D01*
X99655714Y-111274171D01*
X99684285Y-111245600D01*
X99741428Y-111217028D01*
X99827142Y-111217028D01*
X99884285Y-111245600D01*
X99912857Y-111274171D01*
X99941428Y-111331314D01*
X99941428Y-111502742D01*
X99912857Y-111559885D01*
X99884285Y-111588457D01*
X99827142Y-111617028D01*
X99741428Y-111617028D01*
X100198571Y-111217028D02*
X100198571Y-111617028D01*
X100198571Y-111274171D02*
X100227142Y-111245600D01*
X100284285Y-111217028D01*
X100370000Y-111217028D01*
X100427142Y-111245600D01*
X100455714Y-111302742D01*
X100455714Y-111617028D01*
X100655714Y-111217028D02*
X100884285Y-111217028D01*
X100741428Y-111017028D02*
X100741428Y-111531314D01*
X100770000Y-111588457D01*
X100827142Y-111617028D01*
X100884285Y-111617028D01*
X101084285Y-111617028D02*
X101084285Y-111217028D01*
X101084285Y-111331314D02*
X101112857Y-111274171D01*
X101141428Y-111245600D01*
X101198571Y-111217028D01*
X101255714Y-111217028D01*
X101541428Y-111617028D02*
X101484285Y-111588457D01*
X101455714Y-111559885D01*
X101427142Y-111502742D01*
X101427142Y-111331314D01*
X101455714Y-111274171D01*
X101484285Y-111245600D01*
X101541428Y-111217028D01*
X101627142Y-111217028D01*
X101684285Y-111245600D01*
X101712857Y-111274171D01*
X101741428Y-111331314D01*
X101741428Y-111502742D01*
X101712857Y-111559885D01*
X101684285Y-111588457D01*
X101627142Y-111617028D01*
X101541428Y-111617028D01*
X102084285Y-111617028D02*
X102027142Y-111588457D01*
X101998571Y-111531314D01*
X101998571Y-111017028D01*
D11*
G36*
X105750000Y-107000000D02*
X105750000Y-106750000D01*
X106000000Y-106750000D01*
X106000000Y-107000000D01*
X105750000Y-107000000D01*
G37*
X105750000Y-107000000D02*
X105750000Y-106750000D01*
X106000000Y-106750000D01*
X106000000Y-107000000D01*
X105750000Y-107000000D01*
G36*
X126238000Y-100584000D02*
X126238000Y-100334000D01*
X126488000Y-100334000D01*
X126488000Y-100584000D01*
X126238000Y-100584000D01*
G37*
X126238000Y-100584000D02*
X126238000Y-100334000D01*
X126488000Y-100334000D01*
X126488000Y-100584000D01*
X126238000Y-100584000D01*
G36*
X126238000Y-106676000D02*
X126238000Y-106426000D01*
X126488000Y-106426000D01*
X126488000Y-106676000D01*
X126238000Y-106676000D01*
G37*
X126238000Y-106676000D02*
X126238000Y-106426000D01*
X126488000Y-106426000D01*
X126488000Y-106676000D01*
X126238000Y-106676000D01*
G36*
X141482000Y-104644000D02*
X141482000Y-104394000D01*
X141732000Y-104394000D01*
X141732000Y-104644000D01*
X141482000Y-104644000D01*
G37*
X141482000Y-104644000D02*
X141482000Y-104394000D01*
X141732000Y-104394000D01*
X141732000Y-104644000D01*
X141482000Y-104644000D01*
G36*
X116078000Y-106197400D02*
X116078000Y-105947400D01*
X116328000Y-105947400D01*
X116328000Y-106197400D01*
X116078000Y-106197400D01*
G37*
X116078000Y-106197400D02*
X116078000Y-105947400D01*
X116328000Y-105947400D01*
X116328000Y-106197400D01*
X116078000Y-106197400D01*
G36*
X116056600Y-110744000D02*
X116056600Y-110494000D01*
X116306600Y-110494000D01*
X116306600Y-110744000D01*
X116056600Y-110744000D01*
G37*
X116056600Y-110744000D02*
X116056600Y-110494000D01*
X116306600Y-110494000D01*
X116306600Y-110744000D01*
X116056600Y-110744000D01*
G36*
X141800000Y-101850000D02*
X141800000Y-101600000D01*
X142050000Y-101600000D01*
X142050000Y-101850000D01*
X141800000Y-101850000D01*
G37*
X141800000Y-101850000D02*
X141800000Y-101600000D01*
X142050000Y-101600000D01*
X142050000Y-101850000D01*
X141800000Y-101850000D01*
D10*
X118316476Y-108311190D02*
X118602190Y-108311190D01*
X118459333Y-108811190D02*
X118459333Y-108311190D01*
X118745047Y-108668333D02*
X118983142Y-108668333D01*
X118697428Y-108811190D02*
X118864095Y-108311190D01*
X119030761Y-108811190D01*
X119197428Y-108811190D02*
X119197428Y-108311190D01*
X119483142Y-108811190D01*
X119483142Y-108311190D01*
X119649809Y-108311190D02*
X119935523Y-108311190D01*
X119792666Y-108811190D02*
X119792666Y-108311190D01*
X126573790Y-113407723D02*
X126573790Y-113122009D01*
X127073790Y-113264866D02*
X126573790Y-113264866D01*
X126930933Y-112979152D02*
X126930933Y-112741057D01*
X127073790Y-113026771D02*
X126573790Y-112860104D01*
X127073790Y-112693438D01*
X127073790Y-112526771D02*
X126573790Y-112526771D01*
X127073790Y-112241057D01*
X126573790Y-112241057D01*
X126573790Y-112074390D02*
X126573790Y-111788676D01*
X127073790Y-111931533D02*
X126573790Y-111931533D01*
X108724800Y-101652485D02*
X108696228Y-101681057D01*
X108610514Y-101709628D01*
X108553371Y-101709628D01*
X108467657Y-101681057D01*
X108410514Y-101623914D01*
X108381942Y-101566771D01*
X108353371Y-101452485D01*
X108353371Y-101366771D01*
X108381942Y-101252485D01*
X108410514Y-101195342D01*
X108467657Y-101138200D01*
X108553371Y-101109628D01*
X108610514Y-101109628D01*
X108696228Y-101138200D01*
X108724800Y-101166771D01*
X109210514Y-101681057D02*
X109153371Y-101709628D01*
X109039085Y-101709628D01*
X108981942Y-101681057D01*
X108953371Y-101623914D01*
X108953371Y-101395342D01*
X108981942Y-101338200D01*
X109039085Y-101309628D01*
X109153371Y-101309628D01*
X109210514Y-101338200D01*
X109239085Y-101395342D01*
X109239085Y-101452485D01*
X108953371Y-101509628D01*
X109753371Y-101709628D02*
X109753371Y-101109628D01*
X109753371Y-101681057D02*
X109696228Y-101709628D01*
X109581942Y-101709628D01*
X109524800Y-101681057D01*
X109496228Y-101652485D01*
X109467657Y-101595342D01*
X109467657Y-101423914D01*
X109496228Y-101366771D01*
X109524800Y-101338200D01*
X109581942Y-101309628D01*
X109696228Y-101309628D01*
X109753371Y-101338200D01*
X110296228Y-101709628D02*
X110296228Y-101395342D01*
X110267657Y-101338200D01*
X110210514Y-101309628D01*
X110096228Y-101309628D01*
X110039085Y-101338200D01*
X110296228Y-101681057D02*
X110239085Y-101709628D01*
X110096228Y-101709628D01*
X110039085Y-101681057D01*
X110010514Y-101623914D01*
X110010514Y-101566771D01*
X110039085Y-101509628D01*
X110096228Y-101481057D01*
X110239085Y-101481057D01*
X110296228Y-101452485D01*
X110581942Y-101709628D02*
X110581942Y-101309628D01*
X110581942Y-101423914D02*
X110610514Y-101366771D01*
X110639085Y-101338200D01*
X110696228Y-101309628D01*
X110753371Y-101309628D01*
X109196228Y-102138200D02*
X109139085Y-102109628D01*
X109053371Y-102109628D01*
X108967657Y-102138200D01*
X108910514Y-102195342D01*
X108881942Y-102252485D01*
X108853371Y-102366771D01*
X108853371Y-102452485D01*
X108881942Y-102566771D01*
X108910514Y-102623914D01*
X108967657Y-102681057D01*
X109053371Y-102709628D01*
X109110514Y-102709628D01*
X109196228Y-102681057D01*
X109224800Y-102652485D01*
X109224800Y-102452485D01*
X109110514Y-102452485D01*
X109481942Y-102709628D02*
X109481942Y-102309628D01*
X109481942Y-102423914D02*
X109510514Y-102366771D01*
X109539085Y-102338200D01*
X109596228Y-102309628D01*
X109653371Y-102309628D01*
X109939085Y-102709628D02*
X109881942Y-102681057D01*
X109853371Y-102652485D01*
X109824800Y-102595342D01*
X109824800Y-102423914D01*
X109853371Y-102366771D01*
X109881942Y-102338200D01*
X109939085Y-102309628D01*
X110024800Y-102309628D01*
X110081942Y-102338200D01*
X110110514Y-102366771D01*
X110139085Y-102423914D01*
X110139085Y-102595342D01*
X110110514Y-102652485D01*
X110081942Y-102681057D01*
X110024800Y-102709628D01*
X109939085Y-102709628D01*
X110339085Y-102309628D02*
X110481942Y-102709628D01*
X110624800Y-102309628D01*
X111081942Y-102681057D02*
X111024800Y-102709628D01*
X110910514Y-102709628D01*
X110853371Y-102681057D01*
X110824800Y-102623914D01*
X110824800Y-102395342D01*
X110853371Y-102338200D01*
X110910514Y-102309628D01*
X111024800Y-102309628D01*
X111081942Y-102338200D01*
X111110514Y-102395342D01*
X111110514Y-102452485D01*
X110824800Y-102509628D01*
X108667657Y-103681057D02*
X108753371Y-103709628D01*
X108896228Y-103709628D01*
X108953371Y-103681057D01*
X108981942Y-103652485D01*
X109010514Y-103595342D01*
X109010514Y-103538200D01*
X108981942Y-103481057D01*
X108953371Y-103452485D01*
X108896228Y-103423914D01*
X108781942Y-103395342D01*
X108724800Y-103366771D01*
X108696228Y-103338200D01*
X108667657Y-103281057D01*
X108667657Y-103223914D01*
X108696228Y-103166771D01*
X108724800Y-103138200D01*
X108781942Y-103109628D01*
X108924800Y-103109628D01*
X109010514Y-103138200D01*
X109181942Y-103309628D02*
X109410514Y-103309628D01*
X109267657Y-103109628D02*
X109267657Y-103623914D01*
X109296228Y-103681057D01*
X109353371Y-103709628D01*
X109410514Y-103709628D01*
X109867657Y-103309628D02*
X109867657Y-103709628D01*
X109610514Y-103309628D02*
X109610514Y-103623914D01*
X109639085Y-103681057D01*
X109696228Y-103709628D01*
X109781942Y-103709628D01*
X109839085Y-103681057D01*
X109867657Y-103652485D01*
X110410514Y-103709628D02*
X110410514Y-103109628D01*
X110410514Y-103681057D02*
X110353371Y-103709628D01*
X110239085Y-103709628D01*
X110181942Y-103681057D01*
X110153371Y-103652485D01*
X110124800Y-103595342D01*
X110124800Y-103423914D01*
X110153371Y-103366771D01*
X110181942Y-103338200D01*
X110239085Y-103309628D01*
X110353371Y-103309628D01*
X110410514Y-103338200D01*
X110696228Y-103709628D02*
X110696228Y-103309628D01*
X110696228Y-103109628D02*
X110667657Y-103138200D01*
X110696228Y-103166771D01*
X110724800Y-103138200D01*
X110696228Y-103109628D01*
X110696228Y-103166771D01*
X111067657Y-103709628D02*
X111010514Y-103681057D01*
X110981942Y-103652485D01*
X110953371Y-103595342D01*
X110953371Y-103423914D01*
X110981942Y-103366771D01*
X111010514Y-103338200D01*
X111067657Y-103309628D01*
X111153371Y-103309628D01*
X111210514Y-103338200D01*
X111239085Y-103366771D01*
X111267657Y-103423914D01*
X111267657Y-103595342D01*
X111239085Y-103652485D01*
X111210514Y-103681057D01*
X111153371Y-103709628D01*
X111067657Y-103709628D01*
X111496228Y-103681057D02*
X111553371Y-103709628D01*
X111667657Y-103709628D01*
X111724800Y-103681057D01*
X111753371Y-103623914D01*
X111753371Y-103595342D01*
X111724800Y-103538200D01*
X111667657Y-103509628D01*
X111581942Y-103509628D01*
X111524800Y-103481057D01*
X111496228Y-103423914D01*
X111496228Y-103395342D01*
X111524800Y-103338200D01*
X111581942Y-103309628D01*
X111667657Y-103309628D01*
X111724800Y-103338200D01*
X122642476Y-99988333D02*
X122880571Y-99988333D01*
X122594857Y-100131190D02*
X122761523Y-99631190D01*
X122928190Y-100131190D01*
X123094857Y-100131190D02*
X123094857Y-99631190D01*
X123380571Y-100131190D01*
X123380571Y-99631190D01*
X123594857Y-99988333D02*
X123832952Y-99988333D01*
X123547238Y-100131190D02*
X123713904Y-99631190D01*
X123880571Y-100131190D01*
X124285333Y-100131190D02*
X124047238Y-100131190D01*
X124047238Y-99631190D01*
X124547238Y-99631190D02*
X124642476Y-99631190D01*
X124690095Y-99655000D01*
X124737714Y-99702619D01*
X124761523Y-99797857D01*
X124761523Y-99964523D01*
X124737714Y-100059761D01*
X124690095Y-100107380D01*
X124642476Y-100131190D01*
X124547238Y-100131190D01*
X124499619Y-100107380D01*
X124452000Y-100059761D01*
X124428190Y-99964523D01*
X124428190Y-99797857D01*
X124452000Y-99702619D01*
X124499619Y-99655000D01*
X124547238Y-99631190D01*
X125237714Y-99655000D02*
X125190095Y-99631190D01*
X125118666Y-99631190D01*
X125047238Y-99655000D01*
X124999619Y-99702619D01*
X124975809Y-99750238D01*
X124952000Y-99845476D01*
X124952000Y-99916904D01*
X124975809Y-100012142D01*
X124999619Y-100059761D01*
X125047238Y-100107380D01*
X125118666Y-100131190D01*
X125166285Y-100131190D01*
X125237714Y-100107380D01*
X125261523Y-100083571D01*
X125261523Y-99916904D01*
X125166285Y-99916904D01*
X122499619Y-100957380D02*
X122571047Y-100981190D01*
X122690095Y-100981190D01*
X122737714Y-100957380D01*
X122761523Y-100933571D01*
X122785333Y-100885952D01*
X122785333Y-100838333D01*
X122761523Y-100790714D01*
X122737714Y-100766904D01*
X122690095Y-100743095D01*
X122594857Y-100719285D01*
X122547238Y-100695476D01*
X122523428Y-100671666D01*
X122499619Y-100624047D01*
X122499619Y-100576428D01*
X122523428Y-100528809D01*
X122547238Y-100505000D01*
X122594857Y-100481190D01*
X122713904Y-100481190D01*
X122785333Y-100505000D01*
X122999619Y-100719285D02*
X123166285Y-100719285D01*
X123237714Y-100981190D02*
X122999619Y-100981190D01*
X122999619Y-100481190D01*
X123237714Y-100481190D01*
X123737714Y-100933571D02*
X123713904Y-100957380D01*
X123642476Y-100981190D01*
X123594857Y-100981190D01*
X123523428Y-100957380D01*
X123475809Y-100909761D01*
X123452000Y-100862142D01*
X123428190Y-100766904D01*
X123428190Y-100695476D01*
X123452000Y-100600238D01*
X123475809Y-100552619D01*
X123523428Y-100505000D01*
X123594857Y-100481190D01*
X123642476Y-100481190D01*
X123713904Y-100505000D01*
X123737714Y-100528809D01*
X123880571Y-100481190D02*
X124166285Y-100481190D01*
X124023428Y-100981190D02*
X124023428Y-100481190D01*
X124332952Y-100981190D02*
X124332952Y-100481190D01*
X124666285Y-100481190D02*
X124761523Y-100481190D01*
X124809142Y-100505000D01*
X124856761Y-100552619D01*
X124880571Y-100647857D01*
X124880571Y-100814523D01*
X124856761Y-100909761D01*
X124809142Y-100957380D01*
X124761523Y-100981190D01*
X124666285Y-100981190D01*
X124618666Y-100957380D01*
X124571047Y-100909761D01*
X124547238Y-100814523D01*
X124547238Y-100647857D01*
X124571047Y-100552619D01*
X124618666Y-100505000D01*
X124666285Y-100481190D01*
X125094857Y-100981190D02*
X125094857Y-100481190D01*
X125380571Y-100981190D01*
X125380571Y-100481190D01*
X141605000Y-99060000D02*
X119888000Y-99060000D01*
X145415000Y-113665000D02*
X145415000Y-99695000D01*
X119888000Y-114300000D02*
X141605000Y-114300000D01*
X119888000Y-99050000D02*
X119888000Y-109728000D01*
X137510714Y-113248285D02*
X137344047Y-113248285D01*
X137344047Y-113510190D02*
X137344047Y-113010190D01*
X137582142Y-113010190D01*
X137772619Y-113010190D02*
X137772619Y-113414952D01*
X137796428Y-113462571D01*
X137820238Y-113486380D01*
X137867857Y-113510190D01*
X137963095Y-113510190D01*
X138010714Y-113486380D01*
X138034523Y-113462571D01*
X138058333Y-113414952D01*
X138058333Y-113010190D01*
X138534523Y-113510190D02*
X138296428Y-113510190D01*
X138296428Y-113010190D01*
X138939285Y-113510190D02*
X138701190Y-113510190D01*
X138701190Y-113010190D01*
X139105952Y-113319714D02*
X139486904Y-113319714D01*
X139701190Y-113486380D02*
X139772619Y-113510190D01*
X139891666Y-113510190D01*
X139939285Y-113486380D01*
X139963095Y-113462571D01*
X139986904Y-113414952D01*
X139986904Y-113367333D01*
X139963095Y-113319714D01*
X139939285Y-113295904D01*
X139891666Y-113272095D01*
X139796428Y-113248285D01*
X139748809Y-113224476D01*
X139725000Y-113200666D01*
X139701190Y-113153047D01*
X139701190Y-113105428D01*
X139725000Y-113057809D01*
X139748809Y-113034000D01*
X139796428Y-113010190D01*
X139915476Y-113010190D01*
X139986904Y-113034000D01*
X140486904Y-113462571D02*
X140463095Y-113486380D01*
X140391666Y-113510190D01*
X140344047Y-113510190D01*
X140272619Y-113486380D01*
X140225000Y-113438761D01*
X140201190Y-113391142D01*
X140177380Y-113295904D01*
X140177380Y-113224476D01*
X140201190Y-113129238D01*
X140225000Y-113081619D01*
X140272619Y-113034000D01*
X140344047Y-113010190D01*
X140391666Y-113010190D01*
X140463095Y-113034000D01*
X140486904Y-113057809D01*
X140677380Y-113367333D02*
X140915476Y-113367333D01*
X140629761Y-113510190D02*
X140796428Y-113010190D01*
X140963095Y-113510190D01*
X141367857Y-113510190D02*
X141129761Y-113510190D01*
X141129761Y-113010190D01*
X141534523Y-113248285D02*
X141701190Y-113248285D01*
X141772619Y-113510190D02*
X141534523Y-113510190D01*
X141534523Y-113010190D01*
X141772619Y-113010190D01*
X142344047Y-113367333D02*
X142582142Y-113367333D01*
X142296428Y-113510190D02*
X142463095Y-113010190D01*
X142629761Y-113510190D01*
X142796428Y-113510190D02*
X142796428Y-113010190D01*
X142915476Y-113010190D01*
X142986904Y-113034000D01*
X143034523Y-113081619D01*
X143058333Y-113129238D01*
X143082142Y-113224476D01*
X143082142Y-113295904D01*
X143058333Y-113391142D01*
X143034523Y-113438761D01*
X142986904Y-113486380D01*
X142915476Y-113510190D01*
X142796428Y-113510190D01*
X143439285Y-113010190D02*
X143439285Y-113367333D01*
X143415476Y-113438761D01*
X143367857Y-113486380D01*
X143296428Y-113510190D01*
X143248809Y-113510190D01*
D12*
X130858761Y-98337800D02*
X131241904Y-98337800D01*
X130841904Y-98510752D02*
X130937142Y-98910752D01*
X131013333Y-98625038D01*
X131089523Y-98910752D01*
X131184761Y-98510752D01*
X131241904Y-98337800D02*
X131584761Y-98337800D01*
X131318095Y-98796466D02*
X131508571Y-98796466D01*
X131280000Y-98910752D02*
X131413333Y-98510752D01*
X131546666Y-98910752D01*
X131584761Y-98337800D02*
X131927619Y-98337800D01*
X131622857Y-98510752D02*
X131756190Y-98910752D01*
X131889523Y-98510752D01*
X131927619Y-98337800D02*
X132289523Y-98337800D01*
X132022857Y-98701228D02*
X132156190Y-98701228D01*
X132213333Y-98910752D02*
X132022857Y-98910752D01*
X132022857Y-98510752D01*
X132213333Y-98510752D01*
X132289523Y-98337800D02*
X132594285Y-98337800D01*
X132289523Y-98948847D02*
X132594285Y-98948847D01*
X132594285Y-98337800D02*
X132994285Y-98337800D01*
X132918095Y-98872657D02*
X132899047Y-98891704D01*
X132841904Y-98910752D01*
X132803809Y-98910752D01*
X132746666Y-98891704D01*
X132708571Y-98853609D01*
X132689523Y-98815514D01*
X132670476Y-98739323D01*
X132670476Y-98682180D01*
X132689523Y-98605990D01*
X132708571Y-98567895D01*
X132746666Y-98529800D01*
X132803809Y-98510752D01*
X132841904Y-98510752D01*
X132899047Y-98529800D01*
X132918095Y-98548847D01*
X132994285Y-98337800D02*
X133375238Y-98337800D01*
X133070476Y-98891704D02*
X133127619Y-98910752D01*
X133222857Y-98910752D01*
X133260952Y-98891704D01*
X133280000Y-98872657D01*
X133299047Y-98834561D01*
X133299047Y-98796466D01*
X133280000Y-98758371D01*
X133260952Y-98739323D01*
X133222857Y-98720276D01*
X133146666Y-98701228D01*
X133108571Y-98682180D01*
X133089523Y-98663133D01*
X133070476Y-98625038D01*
X133070476Y-98586942D01*
X133089523Y-98548847D01*
X133108571Y-98529800D01*
X133146666Y-98510752D01*
X133241904Y-98510752D01*
X133299047Y-98529800D01*
D13*
X103964285Y-97130000D02*
X104250000Y-97130000D01*
X103907142Y-97301428D02*
X104107142Y-96701428D01*
X104307142Y-97301428D01*
X104507142Y-97301428D02*
X104507142Y-96701428D01*
X104650000Y-96701428D01*
X104735714Y-96730000D01*
X104792857Y-96787142D01*
X104821428Y-96844285D01*
X104850000Y-96958571D01*
X104850000Y-97044285D01*
X104821428Y-97158571D01*
X104792857Y-97215714D01*
X104735714Y-97272857D01*
X104650000Y-97301428D01*
X104507142Y-97301428D01*
X105135714Y-97301428D02*
X105250000Y-97301428D01*
X105307142Y-97272857D01*
X105335714Y-97244285D01*
X105392857Y-97158571D01*
X105421428Y-97044285D01*
X105421428Y-96815714D01*
X105392857Y-96758571D01*
X105364285Y-96730000D01*
X105307142Y-96701428D01*
X105192857Y-96701428D01*
X105135714Y-96730000D01*
X105107142Y-96758571D01*
X105078571Y-96815714D01*
X105078571Y-96958571D01*
X105107142Y-97015714D01*
X105135714Y-97044285D01*
X105192857Y-97072857D01*
X105307142Y-97072857D01*
X105364285Y-97044285D01*
X105392857Y-97015714D01*
X105421428Y-96958571D01*
X105764285Y-96958571D02*
X105707142Y-96930000D01*
X105678571Y-96901428D01*
X105650000Y-96844285D01*
X105650000Y-96815714D01*
X105678571Y-96758571D01*
X105707142Y-96730000D01*
X105764285Y-96701428D01*
X105878571Y-96701428D01*
X105935714Y-96730000D01*
X105964285Y-96758571D01*
X105992857Y-96815714D01*
X105992857Y-96844285D01*
X105964285Y-96901428D01*
X105935714Y-96930000D01*
X105878571Y-96958571D01*
X105764285Y-96958571D01*
X105707142Y-96987142D01*
X105678571Y-97015714D01*
X105650000Y-97072857D01*
X105650000Y-97187142D01*
X105678571Y-97244285D01*
X105707142Y-97272857D01*
X105764285Y-97301428D01*
X105878571Y-97301428D01*
X105935714Y-97272857D01*
X105964285Y-97244285D01*
X105992857Y-97187142D01*
X105992857Y-97072857D01*
X105964285Y-97015714D01*
X105935714Y-96987142D01*
X105878571Y-96958571D01*
X106192857Y-96701428D02*
X106564285Y-96701428D01*
X106364285Y-96930000D01*
X106450000Y-96930000D01*
X106507142Y-96958571D01*
X106535714Y-96987142D01*
X106564285Y-97044285D01*
X106564285Y-97187142D01*
X106535714Y-97244285D01*
X106507142Y-97272857D01*
X106450000Y-97301428D01*
X106278571Y-97301428D01*
X106221428Y-97272857D01*
X106192857Y-97244285D01*
X106764285Y-96701428D02*
X107135714Y-96701428D01*
X106935714Y-96930000D01*
X107021428Y-96930000D01*
X107078571Y-96958571D01*
X107107142Y-96987142D01*
X107135714Y-97044285D01*
X107135714Y-97187142D01*
X107107142Y-97244285D01*
X107078571Y-97272857D01*
X107021428Y-97301428D01*
X106850000Y-97301428D01*
X106792857Y-97272857D01*
X106764285Y-97244285D01*
X103321428Y-98321428D02*
X103321428Y-97721428D01*
X103550000Y-97721428D01*
X103607142Y-97750000D01*
X103635714Y-97778571D01*
X103664285Y-97835714D01*
X103664285Y-97921428D01*
X103635714Y-97978571D01*
X103607142Y-98007142D01*
X103550000Y-98035714D01*
X103321428Y-98035714D01*
X104264285Y-98321428D02*
X104064285Y-98035714D01*
X103921428Y-98321428D02*
X103921428Y-97721428D01*
X104150000Y-97721428D01*
X104207142Y-97750000D01*
X104235714Y-97778571D01*
X104264285Y-97835714D01*
X104264285Y-97921428D01*
X104235714Y-97978571D01*
X104207142Y-98007142D01*
X104150000Y-98035714D01*
X103921428Y-98035714D01*
X104521428Y-98007142D02*
X104721428Y-98007142D01*
X104807142Y-98321428D02*
X104521428Y-98321428D01*
X104521428Y-97721428D01*
X104807142Y-97721428D01*
X105407142Y-98264285D02*
X105378571Y-98292857D01*
X105292857Y-98321428D01*
X105235714Y-98321428D01*
X105150000Y-98292857D01*
X105092857Y-98235714D01*
X105064285Y-98178571D01*
X105035714Y-98064285D01*
X105035714Y-97978571D01*
X105064285Y-97864285D01*
X105092857Y-97807142D01*
X105150000Y-97750000D01*
X105235714Y-97721428D01*
X105292857Y-97721428D01*
X105378571Y-97750000D01*
X105407142Y-97778571D01*
X105664285Y-98321428D02*
X105664285Y-97721428D01*
X105921428Y-98292857D02*
X106007142Y-98321428D01*
X106150000Y-98321428D01*
X106207142Y-98292857D01*
X106235714Y-98264285D01*
X106264285Y-98207142D01*
X106264285Y-98150000D01*
X106235714Y-98092857D01*
X106207142Y-98064285D01*
X106150000Y-98035714D01*
X106035714Y-98007142D01*
X105978571Y-97978571D01*
X105950000Y-97950000D01*
X105921428Y-97892857D01*
X105921428Y-97835714D01*
X105950000Y-97778571D01*
X105978571Y-97750000D01*
X106035714Y-97721428D01*
X106178571Y-97721428D01*
X106264285Y-97750000D01*
X106521428Y-98321428D02*
X106521428Y-97721428D01*
X106921428Y-97721428D02*
X107035714Y-97721428D01*
X107092857Y-97750000D01*
X107150000Y-97807142D01*
X107178571Y-97921428D01*
X107178571Y-98121428D01*
X107150000Y-98235714D01*
X107092857Y-98292857D01*
X107035714Y-98321428D01*
X106921428Y-98321428D01*
X106864285Y-98292857D01*
X106807142Y-98235714D01*
X106778571Y-98121428D01*
X106778571Y-97921428D01*
X106807142Y-97807142D01*
X106864285Y-97750000D01*
X106921428Y-97721428D01*
X107435714Y-98321428D02*
X107435714Y-97721428D01*
X107778571Y-98321428D01*
X107778571Y-97721428D01*
X100507142Y-98741428D02*
X100650000Y-99341428D01*
X100764285Y-98912857D01*
X100878571Y-99341428D01*
X101021428Y-98741428D01*
X101221428Y-99170000D02*
X101507142Y-99170000D01*
X101164285Y-99341428D02*
X101364285Y-98741428D01*
X101564285Y-99341428D01*
X101678571Y-98741428D02*
X101878571Y-99341428D01*
X102078571Y-98741428D01*
X102278571Y-99027142D02*
X102478571Y-99027142D01*
X102564285Y-99341428D02*
X102278571Y-99341428D01*
X102278571Y-98741428D01*
X102564285Y-98741428D01*
X103021428Y-99027142D02*
X102821428Y-99027142D01*
X102821428Y-99341428D02*
X102821428Y-98741428D01*
X103107142Y-98741428D01*
X103450000Y-98741428D02*
X103564285Y-98741428D01*
X103621428Y-98770000D01*
X103678571Y-98827142D01*
X103707142Y-98941428D01*
X103707142Y-99141428D01*
X103678571Y-99255714D01*
X103621428Y-99312857D01*
X103564285Y-99341428D01*
X103450000Y-99341428D01*
X103392857Y-99312857D01*
X103335714Y-99255714D01*
X103307142Y-99141428D01*
X103307142Y-98941428D01*
X103335714Y-98827142D01*
X103392857Y-98770000D01*
X103450000Y-98741428D01*
X104307142Y-99341428D02*
X104107142Y-99055714D01*
X103964285Y-99341428D02*
X103964285Y-98741428D01*
X104192857Y-98741428D01*
X104250000Y-98770000D01*
X104278571Y-98798571D01*
X104307142Y-98855714D01*
X104307142Y-98941428D01*
X104278571Y-98998571D01*
X104250000Y-99027142D01*
X104192857Y-99055714D01*
X103964285Y-99055714D01*
X104564285Y-99341428D02*
X104564285Y-98741428D01*
X104764285Y-99170000D01*
X104964285Y-98741428D01*
X104964285Y-99341428D01*
X106021428Y-98770000D02*
X105964285Y-98741428D01*
X105878571Y-98741428D01*
X105792857Y-98770000D01*
X105735714Y-98827142D01*
X105707142Y-98884285D01*
X105678571Y-98998571D01*
X105678571Y-99084285D01*
X105707142Y-99198571D01*
X105735714Y-99255714D01*
X105792857Y-99312857D01*
X105878571Y-99341428D01*
X105935714Y-99341428D01*
X106021428Y-99312857D01*
X106050000Y-99284285D01*
X106050000Y-99084285D01*
X105935714Y-99084285D01*
X106307142Y-99027142D02*
X106507142Y-99027142D01*
X106592857Y-99341428D02*
X106307142Y-99341428D01*
X106307142Y-98741428D01*
X106592857Y-98741428D01*
X106850000Y-99341428D02*
X106850000Y-98741428D01*
X107192857Y-99341428D01*
X107192857Y-98741428D01*
X107478571Y-99027142D02*
X107678571Y-99027142D01*
X107764285Y-99341428D02*
X107478571Y-99341428D01*
X107478571Y-98741428D01*
X107764285Y-98741428D01*
X108364285Y-99341428D02*
X108164285Y-99055714D01*
X108021428Y-99341428D02*
X108021428Y-98741428D01*
X108250000Y-98741428D01*
X108307142Y-98770000D01*
X108335714Y-98798571D01*
X108364285Y-98855714D01*
X108364285Y-98941428D01*
X108335714Y-98998571D01*
X108307142Y-99027142D01*
X108250000Y-99055714D01*
X108021428Y-99055714D01*
X108592857Y-99170000D02*
X108878571Y-99170000D01*
X108535714Y-99341428D02*
X108735714Y-98741428D01*
X108935714Y-99341428D01*
X109050000Y-98741428D02*
X109392857Y-98741428D01*
X109221428Y-99341428D02*
X109221428Y-98741428D01*
X109707142Y-98741428D02*
X109821428Y-98741428D01*
X109878571Y-98770000D01*
X109935714Y-98827142D01*
X109964285Y-98941428D01*
X109964285Y-99141428D01*
X109935714Y-99255714D01*
X109878571Y-99312857D01*
X109821428Y-99341428D01*
X109707142Y-99341428D01*
X109650000Y-99312857D01*
X109592857Y-99255714D01*
X109564285Y-99141428D01*
X109564285Y-98941428D01*
X109592857Y-98827142D01*
X109650000Y-98770000D01*
X109707142Y-98741428D01*
X110564285Y-99341428D02*
X110364285Y-99055714D01*
X110221428Y-99341428D02*
X110221428Y-98741428D01*
X110450000Y-98741428D01*
X110507142Y-98770000D01*
X110535714Y-98798571D01*
X110564285Y-98855714D01*
X110564285Y-98941428D01*
X110535714Y-98998571D01*
X110507142Y-99027142D01*
X110450000Y-99055714D01*
X110221428Y-99055714D01*
D11*
X127175000Y-106579800D02*
X127175000Y-106804800D01*
X130525000Y-106579800D02*
X130525000Y-106879800D01*
X130525000Y-109929800D02*
X130525000Y-109629800D01*
X127175000Y-109929800D02*
X127175000Y-109629800D01*
X127175000Y-106579800D02*
X130525000Y-106579800D01*
X127175000Y-109929800D02*
X130525000Y-109929800D01*
X127175000Y-106804800D02*
X125950000Y-106804800D01*
D13*
X103750000Y-109800000D02*
X103750000Y-110800000D01*
X105450000Y-110800000D02*
X105450000Y-109800000D01*
X119900000Y-110220000D02*
X121100000Y-110220000D01*
X121100000Y-111980000D02*
X119900000Y-111980000D01*
X121100000Y-114080000D02*
X119900000Y-114080000D01*
X119900000Y-112320000D02*
X121100000Y-112320000D01*
D10*
X106791600Y-103381400D02*
X106791600Y-104581400D01*
X106791600Y-104581400D02*
X107191600Y-104581400D01*
X107191600Y-104581400D02*
X107191600Y-103381400D01*
X107191600Y-103381400D02*
X108191600Y-103681400D01*
X108191600Y-103681400D02*
X107391600Y-102681400D01*
X107391600Y-102681400D02*
X108191600Y-102881400D01*
X108191600Y-102881400D02*
X107391600Y-101981400D01*
X107391600Y-101981400D02*
X108091600Y-102281400D01*
X108091600Y-102281400D02*
X106991600Y-101081400D01*
X106991600Y-101081400D02*
X105891600Y-102281400D01*
X105891600Y-102281400D02*
X106591600Y-101981400D01*
X106591600Y-101981400D02*
X105791600Y-102881400D01*
X105791600Y-102881400D02*
X106591600Y-102681400D01*
X106591600Y-102681400D02*
X105791600Y-103681400D01*
X105791600Y-103681400D02*
X106791600Y-103381400D01*
X103991600Y-103381400D02*
X103991600Y-104581400D01*
X105391600Y-103681400D02*
X104591600Y-102681400D01*
X103991600Y-104581400D02*
X104391600Y-104581400D01*
X104391600Y-104581400D02*
X104391600Y-103381400D01*
X104591600Y-101981400D02*
X105291600Y-102281400D01*
X105291600Y-102281400D02*
X104191600Y-101081400D01*
X105391600Y-102881400D02*
X104591600Y-101981400D01*
X104591600Y-102681400D02*
X105391600Y-102881400D01*
X103791600Y-101981400D02*
X102991600Y-102881400D01*
X103091600Y-102281400D02*
X103791600Y-101981400D01*
X104191600Y-101081400D02*
X103091600Y-102281400D01*
X103791600Y-102681400D02*
X102991600Y-103681400D01*
X102991600Y-103681400D02*
X103991600Y-103381400D01*
X102991600Y-102881400D02*
X103791600Y-102681400D01*
X104391600Y-103381400D02*
X105391600Y-103681400D01*
X105791600Y-103781400D02*
X105791600Y-102581400D01*
X105991600Y-101881400D02*
X106161600Y-101931400D01*
X105391600Y-103781400D02*
X105791600Y-103781400D01*
X105391600Y-102581400D02*
X105391600Y-103781400D01*
X106621600Y-101391400D02*
X105621600Y-100321400D01*
X106441600Y-101661400D02*
X105991600Y-101181400D01*
X105241600Y-102651400D02*
X105391600Y-102581400D01*
X105791600Y-102581400D02*
X105941600Y-102641400D01*
X106291600Y-102251400D02*
X106221600Y-102171400D01*
X104561600Y-101441400D02*
X105191600Y-101181400D01*
X105571600Y-100331400D02*
X104531600Y-101371400D01*
X105991600Y-101181400D02*
X106581600Y-101411400D01*
X106081600Y-102001400D02*
X106011600Y-101921400D01*
X105221600Y-101191400D02*
X104771600Y-101661400D01*
X104981600Y-101961400D02*
X105221600Y-101831400D01*
X105221600Y-101831400D02*
X105081600Y-102011400D01*
X104971600Y-102161400D02*
X104881600Y-102251400D01*
D13*
X142180000Y-101540000D02*
X143510000Y-101540000D01*
X142180000Y-102870000D02*
X142180000Y-101540000D01*
X142180000Y-104140000D02*
X144840000Y-104140000D01*
X144840000Y-104140000D02*
X144840000Y-106740000D01*
X142180000Y-104140000D02*
X142180000Y-106740000D01*
X142180000Y-106740000D02*
X144840000Y-106740000D01*
X135315000Y-107620000D02*
X137315000Y-107620000D01*
X135315000Y-109620000D02*
X135315000Y-107620000D01*
X136942000Y-109402000D02*
X137821000Y-108525000D01*
X136209000Y-110135000D02*
X136902000Y-109443000D01*
X136069000Y-109994000D02*
X137680000Y-108384000D01*
X145325000Y-107860000D02*
X135555000Y-107860000D01*
X145325000Y-112930000D02*
X145325000Y-107860000D01*
X144335000Y-112930000D02*
X145325000Y-112930000D01*
X144335000Y-112550000D02*
X144335000Y-112930000D01*
X136545000Y-112550000D02*
X144335000Y-112550000D01*
X136545000Y-112930000D02*
X136545000Y-112550000D01*
X135555000Y-112930000D02*
X136545000Y-112930000D01*
X135555000Y-107860000D02*
X135555000Y-112930000D01*
X136924226Y-108106043D02*
G75*
G02X138088000Y-109420000I20774J-1153957D01*
G01*
X136924842Y-110414824D02*
G75*
G02X136945000Y-108105000I20158J1154824D01*
G01*
X106910000Y-108810000D02*
X106450000Y-108810000D01*
X106910000Y-111690000D02*
X106910000Y-108810000D01*
X112390000Y-106550000D02*
X112390000Y-106610000D01*
X106910000Y-106550000D02*
X112390000Y-106550000D01*
X106910000Y-106610000D02*
X106910000Y-106550000D01*
X106450000Y-106610000D02*
X106910000Y-106610000D01*
X112390000Y-108810000D02*
X112390000Y-111690000D01*
X106910000Y-113950000D02*
X106910000Y-113890000D01*
X112390000Y-113950000D02*
X106910000Y-113950000D01*
X112390000Y-113890000D02*
X112390000Y-113950000D01*
D10*
X95250000Y-95250000D02*
X146050000Y-95250000D01*
X146050000Y-95250000D02*
X146050000Y-118110000D01*
X146050000Y-118110000D02*
X95250000Y-118110000D01*
X95250000Y-118110000D02*
X95250000Y-95250000D01*
X144780000Y-97790000D02*
G75*
G03X144780000Y-97790000I-1270000J0D01*
G01*
X144780000Y-115570000D02*
G75*
G03X144780000Y-115570000I-1270000J0D01*
G01*
X99695000Y-115570000D02*
G75*
G03X99695000Y-115570000I-1905000J0D01*
G01*
X99695000Y-97790000D02*
G75*
G03X99695000Y-97790000I-1905000J0D01*
G01*
D13*
X116017927Y-108214025D02*
X116017927Y-107214025D01*
X114317927Y-107214025D02*
X114317927Y-108214025D01*
X134800000Y-102850000D02*
X133800000Y-102850000D01*
X133800000Y-104550000D02*
X134800000Y-104550000D01*
X124426600Y-104712400D02*
X123426600Y-104712400D01*
X123426600Y-106412400D02*
X124426600Y-106412400D01*
X134800000Y-100750000D02*
X133800000Y-100750000D01*
X133800000Y-102450000D02*
X134800000Y-102450000D01*
X118154804Y-112674218D02*
X118154804Y-111674218D01*
X116454804Y-111674218D02*
X116454804Y-112674218D01*
X124550000Y-111599000D02*
X124550000Y-112599000D01*
X126250000Y-112599000D02*
X126250000Y-111599000D01*
X132931800Y-111107600D02*
X132931800Y-112107600D01*
X134631800Y-112107600D02*
X134631800Y-111107600D01*
X116367127Y-107218632D02*
X116367127Y-108218632D01*
X118067127Y-108218632D02*
X118067127Y-107218632D01*
X115103200Y-100371800D02*
X113903200Y-100371800D01*
X113903200Y-98611800D02*
X115103200Y-98611800D01*
X140500000Y-107080000D02*
X139300000Y-107080000D01*
X139300000Y-105320000D02*
X140500000Y-105320000D01*
X122450000Y-111599000D02*
X122450000Y-112599000D01*
X124150000Y-112599000D02*
X124150000Y-111599000D01*
X138000000Y-104510000D02*
X140450000Y-104510000D01*
X139800000Y-101290000D02*
X138000000Y-101290000D01*
D14*
G36*
X99607799Y-103682348D02*
X99740802Y-103685715D01*
X99848495Y-103692199D01*
X99939366Y-103702339D01*
X100021900Y-103716672D01*
X100033666Y-103719127D01*
X100394956Y-103816710D01*
X100735488Y-103950401D01*
X101053430Y-104118462D01*
X101346953Y-104319152D01*
X101614225Y-104550732D01*
X101853415Y-104811462D01*
X102062693Y-105099602D01*
X102240227Y-105413414D01*
X102384187Y-105751158D01*
X102474080Y-106037895D01*
X102495162Y-106118396D01*
X102511181Y-106186062D01*
X102522848Y-106248702D01*
X102530873Y-106314129D01*
X102535968Y-106390153D01*
X102538844Y-106484584D01*
X102540211Y-106605233D01*
X102540781Y-106759910D01*
X102540806Y-106771017D01*
X102541026Y-106927187D01*
X102540394Y-107049016D01*
X102538178Y-107144496D01*
X102533647Y-107221621D01*
X102526067Y-107288381D01*
X102514706Y-107352769D01*
X102498832Y-107422778D01*
X102477713Y-107506399D01*
X102471064Y-107532164D01*
X102382171Y-107828265D01*
X102273797Y-108096599D01*
X102140021Y-108349503D01*
X101974918Y-108599315D01*
X101928633Y-108661962D01*
X101700154Y-108931273D01*
X101442947Y-109172690D01*
X101161026Y-109383804D01*
X100858409Y-109562207D01*
X100539109Y-109705491D01*
X100207142Y-109811249D01*
X99913195Y-109870556D01*
X99815245Y-109880584D01*
X99687877Y-109887125D01*
X99541765Y-109890272D01*
X99387585Y-109890114D01*
X99236011Y-109886742D01*
X99097717Y-109880247D01*
X98983378Y-109870720D01*
X98922416Y-109862133D01*
X98565282Y-109776172D01*
X98226140Y-109653527D01*
X97907234Y-109496222D01*
X97610808Y-109306278D01*
X97339105Y-109085719D01*
X97094368Y-108836568D01*
X96878842Y-108560847D01*
X96694768Y-108260581D01*
X96544392Y-107937791D01*
X96437382Y-107621410D01*
X96391203Y-107439109D01*
X96359135Y-107266428D01*
X96339845Y-107090873D01*
X96332003Y-106899955D01*
X96333980Y-106709509D01*
X96402105Y-106709509D01*
X96411781Y-107045261D01*
X96459387Y-107379706D01*
X96545680Y-107709562D01*
X96671414Y-108031549D01*
X96728989Y-108149792D01*
X96878157Y-108414693D01*
X97037838Y-108647021D01*
X97215437Y-108856421D01*
X97418358Y-109052538D01*
X97429538Y-109062376D01*
X97670242Y-109255973D01*
X97916559Y-109418035D01*
X98174866Y-109551348D01*
X98451539Y-109658703D01*
X98752954Y-109742886D01*
X99085487Y-109806688D01*
X99155250Y-109817099D01*
X99238426Y-109823366D01*
X99352917Y-109824280D01*
X99488128Y-109820446D01*
X99633461Y-109812468D01*
X99778321Y-109800953D01*
X99912109Y-109786504D01*
X100024231Y-109769727D01*
X100041228Y-109766520D01*
X100383939Y-109678024D01*
X100710334Y-109551168D01*
X101018249Y-109387486D01*
X101305522Y-109188516D01*
X101569990Y-108955793D01*
X101809490Y-108690853D01*
X102021858Y-108395233D01*
X102061292Y-108331893D01*
X102209651Y-108052293D01*
X102328224Y-107749856D01*
X102418775Y-107419866D01*
X102439455Y-107321350D01*
X102459525Y-107181951D01*
X102472228Y-107013660D01*
X102477573Y-106829273D01*
X102475570Y-106641582D01*
X102466228Y-106463382D01*
X102449557Y-106307468D01*
X102438625Y-106242618D01*
X102349164Y-105893102D01*
X102222865Y-105560719D01*
X102061873Y-105248011D01*
X101868329Y-104957520D01*
X101644377Y-104691789D01*
X101392160Y-104453362D01*
X101113820Y-104244780D01*
X100811500Y-104068588D01*
X100487539Y-103927399D01*
X100303880Y-103868883D01*
X100099175Y-103819020D01*
X99885258Y-103779649D01*
X99673962Y-103752612D01*
X99477121Y-103739751D01*
X99306568Y-103742906D01*
X99303416Y-103743152D01*
X98938264Y-103788617D01*
X98598784Y-103865667D01*
X98280848Y-103975823D01*
X97980327Y-104120603D01*
X97693092Y-104301527D01*
X97599500Y-104370196D01*
X97332940Y-104598277D01*
X97098264Y-104851302D01*
X96896229Y-105125988D01*
X96727590Y-105419056D01*
X96593102Y-105727223D01*
X96493521Y-106047209D01*
X96429604Y-106375731D01*
X96402105Y-106709509D01*
X96333980Y-106709509D01*
X96334275Y-106681182D01*
X96334909Y-106660369D01*
X96340203Y-106519289D01*
X96347029Y-106407935D01*
X96357087Y-106313697D01*
X96372076Y-106223967D01*
X96393697Y-106126138D01*
X96422074Y-106013642D01*
X96531648Y-105673389D01*
X96677575Y-105350719D01*
X96857315Y-105048364D01*
X97068328Y-104769054D01*
X97308074Y-104515517D01*
X97574011Y-104290485D01*
X97863601Y-104096686D01*
X98174303Y-103936852D01*
X98454716Y-103829208D01*
X98613418Y-103779468D01*
X98751334Y-103742074D01*
X98879664Y-103715349D01*
X99009605Y-103697617D01*
X99152357Y-103687202D01*
X99319118Y-103682426D01*
X99441000Y-103681560D01*
X99607799Y-103682348D01*
X99607799Y-103682348D01*
G37*
X99607799Y-103682348D02*
X99740802Y-103685715D01*
X99848495Y-103692199D01*
X99939366Y-103702339D01*
X100021900Y-103716672D01*
X100033666Y-103719127D01*
X100394956Y-103816710D01*
X100735488Y-103950401D01*
X101053430Y-104118462D01*
X101346953Y-104319152D01*
X101614225Y-104550732D01*
X101853415Y-104811462D01*
X102062693Y-105099602D01*
X102240227Y-105413414D01*
X102384187Y-105751158D01*
X102474080Y-106037895D01*
X102495162Y-106118396D01*
X102511181Y-106186062D01*
X102522848Y-106248702D01*
X102530873Y-106314129D01*
X102535968Y-106390153D01*
X102538844Y-106484584D01*
X102540211Y-106605233D01*
X102540781Y-106759910D01*
X102540806Y-106771017D01*
X102541026Y-106927187D01*
X102540394Y-107049016D01*
X102538178Y-107144496D01*
X102533647Y-107221621D01*
X102526067Y-107288381D01*
X102514706Y-107352769D01*
X102498832Y-107422778D01*
X102477713Y-107506399D01*
X102471064Y-107532164D01*
X102382171Y-107828265D01*
X102273797Y-108096599D01*
X102140021Y-108349503D01*
X101974918Y-108599315D01*
X101928633Y-108661962D01*
X101700154Y-108931273D01*
X101442947Y-109172690D01*
X101161026Y-109383804D01*
X100858409Y-109562207D01*
X100539109Y-109705491D01*
X100207142Y-109811249D01*
X99913195Y-109870556D01*
X99815245Y-109880584D01*
X99687877Y-109887125D01*
X99541765Y-109890272D01*
X99387585Y-109890114D01*
X99236011Y-109886742D01*
X99097717Y-109880247D01*
X98983378Y-109870720D01*
X98922416Y-109862133D01*
X98565282Y-109776172D01*
X98226140Y-109653527D01*
X97907234Y-109496222D01*
X97610808Y-109306278D01*
X97339105Y-109085719D01*
X97094368Y-108836568D01*
X96878842Y-108560847D01*
X96694768Y-108260581D01*
X96544392Y-107937791D01*
X96437382Y-107621410D01*
X96391203Y-107439109D01*
X96359135Y-107266428D01*
X96339845Y-107090873D01*
X96332003Y-106899955D01*
X96333980Y-106709509D01*
X96402105Y-106709509D01*
X96411781Y-107045261D01*
X96459387Y-107379706D01*
X96545680Y-107709562D01*
X96671414Y-108031549D01*
X96728989Y-108149792D01*
X96878157Y-108414693D01*
X97037838Y-108647021D01*
X97215437Y-108856421D01*
X97418358Y-109052538D01*
X97429538Y-109062376D01*
X97670242Y-109255973D01*
X97916559Y-109418035D01*
X98174866Y-109551348D01*
X98451539Y-109658703D01*
X98752954Y-109742886D01*
X99085487Y-109806688D01*
X99155250Y-109817099D01*
X99238426Y-109823366D01*
X99352917Y-109824280D01*
X99488128Y-109820446D01*
X99633461Y-109812468D01*
X99778321Y-109800953D01*
X99912109Y-109786504D01*
X100024231Y-109769727D01*
X100041228Y-109766520D01*
X100383939Y-109678024D01*
X100710334Y-109551168D01*
X101018249Y-109387486D01*
X101305522Y-109188516D01*
X101569990Y-108955793D01*
X101809490Y-108690853D01*
X102021858Y-108395233D01*
X102061292Y-108331893D01*
X102209651Y-108052293D01*
X102328224Y-107749856D01*
X102418775Y-107419866D01*
X102439455Y-107321350D01*
X102459525Y-107181951D01*
X102472228Y-107013660D01*
X102477573Y-106829273D01*
X102475570Y-106641582D01*
X102466228Y-106463382D01*
X102449557Y-106307468D01*
X102438625Y-106242618D01*
X102349164Y-105893102D01*
X102222865Y-105560719D01*
X102061873Y-105248011D01*
X101868329Y-104957520D01*
X101644377Y-104691789D01*
X101392160Y-104453362D01*
X101113820Y-104244780D01*
X100811500Y-104068588D01*
X100487539Y-103927399D01*
X100303880Y-103868883D01*
X100099175Y-103819020D01*
X99885258Y-103779649D01*
X99673962Y-103752612D01*
X99477121Y-103739751D01*
X99306568Y-103742906D01*
X99303416Y-103743152D01*
X98938264Y-103788617D01*
X98598784Y-103865667D01*
X98280848Y-103975823D01*
X97980327Y-104120603D01*
X97693092Y-104301527D01*
X97599500Y-104370196D01*
X97332940Y-104598277D01*
X97098264Y-104851302D01*
X96896229Y-105125988D01*
X96727590Y-105419056D01*
X96593102Y-105727223D01*
X96493521Y-106047209D01*
X96429604Y-106375731D01*
X96402105Y-106709509D01*
X96333980Y-106709509D01*
X96334275Y-106681182D01*
X96334909Y-106660369D01*
X96340203Y-106519289D01*
X96347029Y-106407935D01*
X96357087Y-106313697D01*
X96372076Y-106223967D01*
X96393697Y-106126138D01*
X96422074Y-106013642D01*
X96531648Y-105673389D01*
X96677575Y-105350719D01*
X96857315Y-105048364D01*
X97068328Y-104769054D01*
X97308074Y-104515517D01*
X97574011Y-104290485D01*
X97863601Y-104096686D01*
X98174303Y-103936852D01*
X98454716Y-103829208D01*
X98613418Y-103779468D01*
X98751334Y-103742074D01*
X98879664Y-103715349D01*
X99009605Y-103697617D01*
X99152357Y-103687202D01*
X99319118Y-103682426D01*
X99441000Y-103681560D01*
X99607799Y-103682348D01*
G36*
X99451861Y-104388175D02*
X99459365Y-104440630D01*
X99462166Y-104516558D01*
X99462166Y-104664542D01*
X100525791Y-104670029D01*
X101589416Y-104675517D01*
X101600398Y-106760433D01*
X101727199Y-106760433D01*
X101794765Y-106763651D01*
X101840564Y-106772055D01*
X101854000Y-106781600D01*
X101834894Y-106793346D01*
X101785746Y-106801032D01*
X101741111Y-106802767D01*
X101665337Y-106807732D01*
X101626239Y-106822101D01*
X101621876Y-106829225D01*
X101620350Y-106855099D01*
X101618418Y-106919094D01*
X101616159Y-107017000D01*
X101613649Y-107144608D01*
X101610966Y-107297708D01*
X101608188Y-107472089D01*
X101605393Y-107663543D01*
X101602657Y-107867860D01*
X101602474Y-107882267D01*
X101589416Y-108908850D01*
X100525791Y-108914337D01*
X99462166Y-108919825D01*
X99462166Y-109057212D01*
X99459172Y-109129031D01*
X99451241Y-109178192D01*
X99441000Y-109194600D01*
X99429939Y-109175160D01*
X99422366Y-109123665D01*
X99419833Y-109057017D01*
X99419833Y-108919433D01*
X97324333Y-108919433D01*
X97324333Y-108899855D01*
X99885500Y-108899855D01*
X100081291Y-108893769D01*
X100277083Y-108887683D01*
X100283325Y-108733095D01*
X100282646Y-108633490D01*
X100271660Y-108586648D01*
X100308833Y-108586648D01*
X100308833Y-108899855D01*
X100504625Y-108893769D01*
X100700416Y-108887683D01*
X100706645Y-108721017D01*
X100708981Y-108638169D01*
X100707236Y-108589939D01*
X100699798Y-108568684D01*
X100685056Y-108566762D01*
X100674895Y-108570470D01*
X100554147Y-108610508D01*
X100450999Y-108618928D01*
X100393500Y-108609247D01*
X100308833Y-108586648D01*
X100271660Y-108586648D01*
X100266868Y-108566218D01*
X100229651Y-108525149D01*
X100164654Y-108504151D01*
X100065536Y-108497093D01*
X100038958Y-108496804D01*
X99885500Y-108496100D01*
X100753333Y-108496100D01*
X100753333Y-108898267D01*
X101134333Y-108898267D01*
X101134333Y-108496100D01*
X101176666Y-108496100D01*
X101176666Y-108898267D01*
X101557666Y-108898267D01*
X101557666Y-108496100D01*
X101176666Y-108496100D01*
X101134333Y-108496100D01*
X100753333Y-108496100D01*
X99885500Y-108496100D01*
X99885500Y-108899855D01*
X97324333Y-108899855D01*
X97324333Y-108496100D01*
X97345500Y-108496100D01*
X97345500Y-108683072D01*
X97347001Y-108768250D01*
X97351014Y-108836595D01*
X97356799Y-108877591D01*
X97359611Y-108884155D01*
X97385821Y-108890471D01*
X97443843Y-108895326D01*
X97523161Y-108897983D01*
X97560694Y-108898267D01*
X97747666Y-108898267D01*
X97747666Y-108496100D01*
X97768833Y-108496100D01*
X97768833Y-108683072D01*
X97770334Y-108768250D01*
X97774347Y-108836595D01*
X97780133Y-108877591D01*
X97782944Y-108884155D01*
X97809154Y-108890471D01*
X97867176Y-108895326D01*
X97946494Y-108897983D01*
X97984027Y-108898267D01*
X98171000Y-108898267D01*
X98171000Y-108496100D01*
X98192166Y-108496100D01*
X98192166Y-108898267D01*
X98594333Y-108898267D01*
X98594333Y-108496100D01*
X98615500Y-108496100D01*
X98615500Y-108898267D01*
X99017666Y-108898267D01*
X99017666Y-108496100D01*
X99038833Y-108496100D01*
X99038833Y-108898267D01*
X99419833Y-108898267D01*
X99419833Y-108496100D01*
X99462166Y-108496100D01*
X99462166Y-108898267D01*
X99864333Y-108898267D01*
X99864333Y-108496100D01*
X99462166Y-108496100D01*
X99419833Y-108496100D01*
X99038833Y-108496100D01*
X99017666Y-108496100D01*
X98615500Y-108496100D01*
X98594333Y-108496100D01*
X98192166Y-108496100D01*
X98171000Y-108496100D01*
X97768833Y-108496100D01*
X97747666Y-108496100D01*
X97345500Y-108496100D01*
X97324333Y-108496100D01*
X97324333Y-108072767D01*
X97345500Y-108072767D01*
X97345500Y-108474933D01*
X97747666Y-108474933D01*
X97747666Y-108072767D01*
X97768833Y-108072767D01*
X97768833Y-108474933D01*
X98171000Y-108474933D01*
X98171000Y-108072767D01*
X98192166Y-108072767D01*
X98192166Y-108474933D01*
X98594333Y-108474933D01*
X98594333Y-108072767D01*
X98615500Y-108072767D01*
X98615500Y-108474933D01*
X99017666Y-108474933D01*
X99017666Y-108072767D01*
X99038833Y-108072767D01*
X99038833Y-108474933D01*
X99419833Y-108474933D01*
X99419833Y-108072767D01*
X99462166Y-108072767D01*
X99462166Y-108474933D01*
X99864333Y-108474933D01*
X99864333Y-108273850D01*
X99885500Y-108273850D01*
X99885500Y-108474933D01*
X100160993Y-108474933D01*
X100815656Y-108474933D01*
X101134333Y-108474933D01*
X101134333Y-108273850D01*
X101131998Y-108168373D01*
X101124409Y-108103334D01*
X101110689Y-108077063D01*
X101089959Y-108087891D01*
X101061345Y-108134149D01*
X101061133Y-108134557D01*
X101032971Y-108180869D01*
X100987400Y-108247422D01*
X100933331Y-108321300D01*
X100922418Y-108335641D01*
X100815656Y-108474933D01*
X100160993Y-108474933D01*
X100078149Y-108353225D01*
X100028928Y-108277296D01*
X99984193Y-108202166D01*
X99957648Y-108152142D01*
X99930473Y-108102791D01*
X99919897Y-108089789D01*
X100076000Y-108089789D01*
X100087237Y-108120067D01*
X100116275Y-108171604D01*
X100156099Y-108234086D01*
X100199696Y-108297202D01*
X100240051Y-108350639D01*
X100270151Y-108384085D01*
X100280363Y-108390267D01*
X100283854Y-108370825D01*
X100286437Y-108319400D01*
X100287634Y-108246337D01*
X100287666Y-108231517D01*
X100287666Y-108072767D01*
X100308833Y-108072767D01*
X100308833Y-108251631D01*
X100310299Y-108342646D01*
X100315806Y-108400375D01*
X100327011Y-108433798D01*
X100345575Y-108451896D01*
X100345875Y-108452071D01*
X100412225Y-108471753D01*
X100497521Y-108472499D01*
X100583531Y-108455622D01*
X100639709Y-108430873D01*
X100676156Y-108406630D01*
X100697419Y-108382325D01*
X100707589Y-108346421D01*
X100710757Y-108287379D01*
X100711000Y-108229790D01*
X100711000Y-108072767D01*
X100753333Y-108072767D01*
X100753333Y-108199767D01*
X100754471Y-108266760D01*
X100757431Y-108312780D01*
X100760849Y-108326767D01*
X100775709Y-108310772D01*
X100807992Y-108268556D01*
X100851119Y-108208767D01*
X100857451Y-108199767D01*
X100946537Y-108072767D01*
X101176666Y-108072767D01*
X101176666Y-108474933D01*
X101557666Y-108474933D01*
X101557666Y-108072767D01*
X101176666Y-108072767D01*
X100946537Y-108072767D01*
X100753333Y-108072767D01*
X100711000Y-108072767D01*
X100308833Y-108072767D01*
X100287666Y-108072767D01*
X100181833Y-108072767D01*
X100121452Y-108075829D01*
X100083134Y-108083661D01*
X100076000Y-108089789D01*
X99919897Y-108089789D01*
X99907872Y-108075006D01*
X99902746Y-108072767D01*
X99895335Y-108092397D01*
X99889520Y-108145162D01*
X99886087Y-108221870D01*
X99885500Y-108273850D01*
X99864333Y-108273850D01*
X99864333Y-108072767D01*
X99462166Y-108072767D01*
X99419833Y-108072767D01*
X99038833Y-108072767D01*
X99017666Y-108072767D01*
X98615500Y-108072767D01*
X98594333Y-108072767D01*
X98192166Y-108072767D01*
X98171000Y-108072767D01*
X97768833Y-108072767D01*
X97747666Y-108072767D01*
X97345500Y-108072767D01*
X97324333Y-108072767D01*
X97324333Y-107649433D01*
X97345500Y-107649433D01*
X97345500Y-108051600D01*
X97747666Y-108051600D01*
X97747666Y-107649433D01*
X97768833Y-107649433D01*
X97768833Y-108051600D01*
X98171000Y-108051600D01*
X98171000Y-107649433D01*
X98192166Y-107649433D01*
X98192166Y-108051600D01*
X98594333Y-108051600D01*
X98594333Y-107649433D01*
X98615500Y-107649433D01*
X98615500Y-108051600D01*
X99017666Y-108051600D01*
X99017666Y-107649433D01*
X99038833Y-107649433D01*
X99038833Y-108051600D01*
X99419833Y-108051600D01*
X99462166Y-108051600D01*
X99663250Y-108051600D01*
X99757626Y-108050708D01*
X99817279Y-108047130D01*
X99843383Y-108041017D01*
X99885500Y-108041017D01*
X99896083Y-108051600D01*
X99906666Y-108041017D01*
X99896083Y-108030433D01*
X99885500Y-108041017D01*
X99843383Y-108041017D01*
X99849798Y-108039515D01*
X99862772Y-108026509D01*
X99864333Y-108015762D01*
X99856494Y-107980430D01*
X99835647Y-107918007D01*
X99805798Y-107840170D01*
X99795541Y-107815212D01*
X99737823Y-107677011D01*
X99885500Y-107677011D01*
X99894273Y-107707396D01*
X99917749Y-107765392D01*
X99951655Y-107840766D01*
X99969405Y-107878094D01*
X100053310Y-108051600D01*
X100287666Y-108051600D01*
X100287666Y-107649433D01*
X100308833Y-107649433D01*
X100308833Y-108051600D01*
X100711000Y-108051600D01*
X100711000Y-107649433D01*
X100753333Y-107649433D01*
X100753333Y-108051600D01*
X100960714Y-108051600D01*
X100971646Y-108030433D01*
X101113166Y-108030433D01*
X101120388Y-108051050D01*
X101122500Y-108051600D01*
X101140572Y-108036768D01*
X101144916Y-108030433D01*
X101143238Y-108010928D01*
X101135582Y-108009267D01*
X101114028Y-108024632D01*
X101113166Y-108030433D01*
X100971646Y-108030433D01*
X100992283Y-107990476D01*
X101176666Y-107990476D01*
X101176666Y-108051600D01*
X101557666Y-108051600D01*
X101557666Y-107649433D01*
X101307656Y-107649433D01*
X101242161Y-107789393D01*
X101209297Y-107867929D01*
X101185790Y-107939956D01*
X101176668Y-107990037D01*
X101176666Y-107990476D01*
X100992283Y-107990476D01*
X101058107Y-107863029D01*
X101099160Y-107782369D01*
X101131666Y-107716270D01*
X101151446Y-107673359D01*
X101155500Y-107661946D01*
X101135867Y-107656569D01*
X101083098Y-107652350D01*
X101006385Y-107649860D01*
X100954416Y-107649433D01*
X100753333Y-107649433D01*
X100711000Y-107649433D01*
X100308833Y-107649433D01*
X100287666Y-107649433D01*
X100086583Y-107649433D01*
X99987162Y-107650993D01*
X99924341Y-107656188D01*
X99892482Y-107665792D01*
X99885500Y-107677011D01*
X99737823Y-107677011D01*
X99726750Y-107650499D01*
X99462166Y-107649433D01*
X99462166Y-108051600D01*
X99419833Y-108051600D01*
X99419833Y-107649433D01*
X99038833Y-107649433D01*
X99017666Y-107649433D01*
X98615500Y-107649433D01*
X98594333Y-107649433D01*
X98192166Y-107649433D01*
X98171000Y-107649433D01*
X97768833Y-107649433D01*
X97747666Y-107649433D01*
X97345500Y-107649433D01*
X97324333Y-107649433D01*
X97324333Y-107226100D01*
X97345500Y-107226100D01*
X97345500Y-107628267D01*
X97747666Y-107628267D01*
X97747666Y-107226100D01*
X97768833Y-107226100D01*
X97768833Y-107628267D01*
X98171000Y-107628267D01*
X98171000Y-107226100D01*
X98192166Y-107226100D01*
X98192166Y-107628267D01*
X98594333Y-107628267D01*
X98594333Y-107226100D01*
X98615500Y-107226100D01*
X98615500Y-107628267D01*
X99017666Y-107628267D01*
X99017666Y-107226100D01*
X99038833Y-107226100D01*
X99038833Y-107628267D01*
X99419833Y-107628267D01*
X99419833Y-107425711D01*
X99462166Y-107425711D01*
X99462166Y-107628267D01*
X99713110Y-107628267D01*
X99633867Y-107432475D01*
X99593737Y-107337964D01*
X99562544Y-107277154D01*
X99536212Y-107243461D01*
X99535424Y-107243055D01*
X99698527Y-107243055D01*
X99709276Y-107269152D01*
X99731979Y-107324426D01*
X99762533Y-107398884D01*
X99776754Y-107433555D01*
X99809230Y-107510651D01*
X99835932Y-107570156D01*
X99852809Y-107603212D01*
X99856129Y-107607100D01*
X99859742Y-107587508D01*
X99862543Y-107535031D01*
X99864126Y-107459113D01*
X99864333Y-107416600D01*
X99864333Y-107226100D01*
X99885500Y-107226100D01*
X99885500Y-107628267D01*
X100287666Y-107628267D01*
X100287666Y-107226100D01*
X100308833Y-107226100D01*
X100308833Y-107628267D01*
X100711000Y-107628267D01*
X100711000Y-107226100D01*
X100753333Y-107226100D01*
X100753333Y-107628267D01*
X101134333Y-107628267D01*
X101134333Y-107226100D01*
X101176666Y-107226100D01*
X101178234Y-107411308D01*
X101179803Y-107596517D01*
X101183331Y-107588854D01*
X101333263Y-107588854D01*
X101340617Y-107615511D01*
X101374112Y-107626245D01*
X101435946Y-107628265D01*
X101439823Y-107628267D01*
X101557666Y-107628267D01*
X101557666Y-107427183D01*
X101556973Y-107333582D01*
X101553838Y-107274491D01*
X101546680Y-107242096D01*
X101533918Y-107228581D01*
X101516974Y-107226100D01*
X101481512Y-107243152D01*
X101453329Y-107297361D01*
X101450610Y-107305475D01*
X101422360Y-107381626D01*
X101389406Y-107456455D01*
X101388184Y-107458933D01*
X101349852Y-107539064D01*
X101333263Y-107588854D01*
X101183331Y-107588854D01*
X101242068Y-107461287D01*
X101275539Y-107385406D01*
X101302571Y-107318350D01*
X101316878Y-107276079D01*
X101320937Y-107242984D01*
X101303503Y-107229007D01*
X101254299Y-107226100D01*
X101176666Y-107226100D01*
X101134333Y-107226100D01*
X100753333Y-107226100D01*
X100711000Y-107226100D01*
X100308833Y-107226100D01*
X100287666Y-107226100D01*
X99885500Y-107226100D01*
X99864333Y-107226100D01*
X99777902Y-107226100D01*
X99726131Y-107229729D01*
X99699501Y-107238832D01*
X99698527Y-107243055D01*
X99535424Y-107243055D01*
X99510663Y-107230302D01*
X99508395Y-107229919D01*
X99487038Y-107228815D01*
X99473535Y-107238150D01*
X99466088Y-107265535D01*
X99462900Y-107318582D01*
X99462174Y-107404903D01*
X99462166Y-107425711D01*
X99419833Y-107425711D01*
X99419833Y-107226100D01*
X99038833Y-107226100D01*
X99017666Y-107226100D01*
X98615500Y-107226100D01*
X98594333Y-107226100D01*
X98192166Y-107226100D01*
X98171000Y-107226100D01*
X97768833Y-107226100D01*
X97747666Y-107226100D01*
X97345500Y-107226100D01*
X97324333Y-107226100D01*
X97324333Y-107016698D01*
X97345500Y-107016698D01*
X97345500Y-107204933D01*
X97747666Y-107204933D01*
X97747666Y-106802767D01*
X97768833Y-106802767D01*
X97768833Y-107204933D01*
X98171000Y-107204933D01*
X98171000Y-106802767D01*
X98192166Y-106802767D01*
X98192166Y-107204933D01*
X98594333Y-107204933D01*
X98594333Y-106802767D01*
X98615500Y-106802767D01*
X98615500Y-107204933D01*
X99017666Y-107204933D01*
X99017666Y-106802767D01*
X99038833Y-106802767D01*
X99038833Y-107204933D01*
X99419833Y-107204933D01*
X99419644Y-107104392D01*
X99463776Y-107104392D01*
X99466319Y-107168711D01*
X99478236Y-107199296D01*
X99493916Y-107204933D01*
X99521093Y-107190859D01*
X99524056Y-107178475D01*
X99515784Y-107142235D01*
X99497549Y-107087546D01*
X99493916Y-107077933D01*
X99465387Y-107003850D01*
X99463776Y-107104392D01*
X99419644Y-107104392D01*
X99419544Y-107051475D01*
X99418716Y-106945765D01*
X99412823Y-106875258D01*
X99396043Y-106832829D01*
X99362554Y-106811353D01*
X99306533Y-106803707D01*
X99222337Y-106802767D01*
X99526284Y-106802767D01*
X99570689Y-106913892D01*
X99603385Y-106996686D01*
X99635966Y-107080688D01*
X99649029Y-107114975D01*
X99672589Y-107170373D01*
X99697787Y-107196556D01*
X99739744Y-107204441D01*
X99773648Y-107204933D01*
X99864333Y-107204933D01*
X99864333Y-106802767D01*
X99885500Y-106802767D01*
X99885500Y-107204933D01*
X100287666Y-107204933D01*
X100287666Y-106802767D01*
X100308833Y-106802767D01*
X100308833Y-107204933D01*
X100711000Y-107204933D01*
X100711000Y-106802767D01*
X100753333Y-106802767D01*
X100753333Y-107204933D01*
X101134333Y-107204933D01*
X101134333Y-106802767D01*
X101176666Y-106802767D01*
X101176666Y-107207367D01*
X101265204Y-107200859D01*
X101322714Y-107196631D01*
X101496867Y-107196631D01*
X101508250Y-107204387D01*
X101525916Y-107204933D01*
X101548401Y-107190450D01*
X101556693Y-107142860D01*
X101556838Y-107125558D01*
X101556009Y-107046183D01*
X101525088Y-107117405D01*
X101502513Y-107171158D01*
X101496867Y-107196631D01*
X101322714Y-107196631D01*
X101353742Y-107194350D01*
X101423922Y-107014433D01*
X101454882Y-106933432D01*
X101478872Y-106867567D01*
X101492391Y-106826596D01*
X101494134Y-106818642D01*
X101474713Y-106811053D01*
X101423310Y-106805440D01*
X101350266Y-106802836D01*
X101335416Y-106802767D01*
X101176666Y-106802767D01*
X101134333Y-106802767D01*
X100753333Y-106802767D01*
X100711000Y-106802767D01*
X100308833Y-106802767D01*
X100287666Y-106802767D01*
X99885500Y-106802767D01*
X99864333Y-106802767D01*
X99526284Y-106802767D01*
X99222337Y-106802767D01*
X99222157Y-106802765D01*
X99216281Y-106802767D01*
X99038833Y-106802767D01*
X99017666Y-106802767D01*
X98615500Y-106802767D01*
X98594333Y-106802767D01*
X98192166Y-106802767D01*
X98171000Y-106802767D01*
X97768833Y-106802767D01*
X97747666Y-106802767D01*
X97580064Y-106802767D01*
X97477922Y-106803302D01*
X97410769Y-106809364D01*
X97371278Y-106827636D01*
X97352121Y-106864802D01*
X97345970Y-106927543D01*
X97345500Y-107016698D01*
X97324333Y-107016698D01*
X97324333Y-106802767D01*
X97164334Y-106802767D01*
X97078827Y-106800215D01*
X97028800Y-106792885D01*
X97017416Y-106781600D01*
X97044113Y-106770174D01*
X97099664Y-106762489D01*
X97153780Y-106760433D01*
X97409617Y-106760433D01*
X97747666Y-106760433D01*
X97747666Y-106379433D01*
X97768833Y-106379433D01*
X97768833Y-106760433D01*
X98171000Y-106760433D01*
X98171000Y-106379433D01*
X98192166Y-106379433D01*
X98192166Y-106760433D01*
X98594333Y-106760433D01*
X98594333Y-106379433D01*
X98615500Y-106379433D01*
X98615500Y-106760433D01*
X99017666Y-106760433D01*
X99017666Y-106379433D01*
X99038833Y-106379433D01*
X99038833Y-106760433D01*
X99373578Y-106760433D01*
X99232185Y-106405333D01*
X99384251Y-106405333D01*
X99391654Y-106454715D01*
X99392086Y-106456311D01*
X99408733Y-106517017D01*
X99415875Y-106456873D01*
X99417235Y-106409363D01*
X99410842Y-106384554D01*
X99393242Y-106379433D01*
X99462166Y-106379433D01*
X99462166Y-106503275D01*
X99466230Y-106584680D01*
X99476649Y-106659485D01*
X99485403Y-106693775D01*
X99508641Y-106760433D01*
X99864333Y-106760433D01*
X99864333Y-106379433D01*
X99885500Y-106379433D01*
X99885500Y-106760433D01*
X100287666Y-106760433D01*
X100287666Y-106379433D01*
X100308833Y-106379433D01*
X100308833Y-106760433D01*
X100711000Y-106760433D01*
X100711000Y-106379433D01*
X100753333Y-106379433D01*
X100753333Y-106760433D01*
X101134333Y-106760433D01*
X101134333Y-106379433D01*
X101176666Y-106379433D01*
X101176666Y-106760433D01*
X101557666Y-106760433D01*
X101557666Y-106379433D01*
X101176666Y-106379433D01*
X101134333Y-106379433D01*
X100753333Y-106379433D01*
X100711000Y-106379433D01*
X100308833Y-106379433D01*
X100287666Y-106379433D01*
X99885500Y-106379433D01*
X99864333Y-106379433D01*
X99462166Y-106379433D01*
X99393242Y-106379433D01*
X99391440Y-106378909D01*
X99384251Y-106405333D01*
X99232185Y-106405333D01*
X99221872Y-106379433D01*
X99038833Y-106379433D01*
X99017666Y-106379433D01*
X98615500Y-106379433D01*
X98594333Y-106379433D01*
X98192166Y-106379433D01*
X98171000Y-106379433D01*
X97768833Y-106379433D01*
X97747666Y-106379433D01*
X97654714Y-106379433D01*
X97618023Y-106378897D01*
X97591310Y-106381210D01*
X97570274Y-106392250D01*
X97550611Y-106417898D01*
X97528020Y-106464033D01*
X97498196Y-106536534D01*
X97456838Y-106641281D01*
X97449471Y-106659892D01*
X97409617Y-106760433D01*
X97153780Y-106760433D01*
X97224804Y-106758473D01*
X97265102Y-106749993D01*
X97286201Y-106731093D01*
X97294557Y-106712808D01*
X97298342Y-106682458D01*
X97302330Y-106614177D01*
X97306398Y-106512366D01*
X97308044Y-106458808D01*
X97346250Y-106458808D01*
X97347000Y-106538183D01*
X97377250Y-106485267D01*
X97399820Y-106437560D01*
X97408249Y-106405892D01*
X97391937Y-106382492D01*
X97377250Y-106379433D01*
X97354741Y-106393959D01*
X97346407Y-106441651D01*
X97346250Y-106458808D01*
X97308044Y-106458808D01*
X97310424Y-106381427D01*
X97314285Y-106225761D01*
X97317861Y-106049769D01*
X97319406Y-105956100D01*
X97345500Y-105956100D01*
X97345500Y-106158655D01*
X97346014Y-106252197D01*
X97348700Y-106310998D01*
X97355266Y-106342648D01*
X97367425Y-106354736D01*
X97386888Y-106354853D01*
X97389638Y-106354447D01*
X97399807Y-106348708D01*
X97578333Y-106348708D01*
X97597132Y-106354697D01*
X97644090Y-106358025D01*
X97663000Y-106358267D01*
X97747666Y-106358267D01*
X97747666Y-106164239D01*
X97746870Y-106080765D01*
X97744734Y-106017310D01*
X97741636Y-105982672D01*
X97739712Y-105979030D01*
X97728006Y-106001406D01*
X97704733Y-106051712D01*
X97674573Y-106119226D01*
X97642206Y-106193225D01*
X97612315Y-106262986D01*
X97589579Y-106317787D01*
X97578680Y-106346904D01*
X97578333Y-106348708D01*
X97399807Y-106348708D01*
X97420609Y-106336969D01*
X97453889Y-106290305D01*
X97493411Y-106208804D01*
X97497430Y-106199517D01*
X97541678Y-106097433D01*
X97570183Y-106028484D01*
X97582275Y-105986248D01*
X97577281Y-105964299D01*
X97554530Y-105956213D01*
X97547338Y-105956100D01*
X97768833Y-105956100D01*
X97768833Y-106358267D01*
X98171000Y-106358267D01*
X98171000Y-105956100D01*
X98192166Y-105956100D01*
X98192166Y-106358267D01*
X98594333Y-106358267D01*
X98594333Y-105956100D01*
X98615500Y-105956100D01*
X98615500Y-106358267D01*
X99017666Y-106358267D01*
X99017666Y-106153655D01*
X99038833Y-106153655D01*
X99038833Y-106358267D01*
X99123500Y-106358267D01*
X99176548Y-106356830D01*
X99206025Y-106353241D01*
X99208166Y-106351796D01*
X99200653Y-106329180D01*
X99180977Y-106278077D01*
X99153430Y-106209002D01*
X99122307Y-106132472D01*
X99091899Y-106059004D01*
X99066502Y-105999112D01*
X99055040Y-105973617D01*
X99208166Y-105973617D01*
X99215646Y-106000757D01*
X99235279Y-106055261D01*
X99262852Y-106125452D01*
X99263512Y-106127076D01*
X99294493Y-106203581D01*
X99321238Y-106270348D01*
X99337072Y-106310642D01*
X99363102Y-106347534D01*
X99387559Y-106358267D01*
X99402902Y-106351421D01*
X99412610Y-106326093D01*
X99417838Y-106275092D01*
X99419739Y-106191229D01*
X99419833Y-106157183D01*
X99419833Y-105956100D01*
X99462166Y-105956100D01*
X99462166Y-106358267D01*
X99864333Y-106358267D01*
X99864333Y-105956100D01*
X99885500Y-105956100D01*
X99885500Y-106358267D01*
X100287666Y-106358267D01*
X100287666Y-105956100D01*
X100308833Y-105956100D01*
X100308833Y-106358267D01*
X100711000Y-106358267D01*
X100711000Y-105956100D01*
X100753333Y-105956100D01*
X100753333Y-106358267D01*
X101134333Y-106358267D01*
X101134333Y-105956100D01*
X101176666Y-105956100D01*
X101176666Y-106358267D01*
X101557666Y-106358267D01*
X101557666Y-105956100D01*
X101176666Y-105956100D01*
X101134333Y-105956100D01*
X100753333Y-105956100D01*
X100711000Y-105956100D01*
X100308833Y-105956100D01*
X100287666Y-105956100D01*
X99885500Y-105956100D01*
X99864333Y-105956100D01*
X99462166Y-105956100D01*
X99419833Y-105956100D01*
X99314000Y-105956100D01*
X99253620Y-105959252D01*
X99215301Y-105967310D01*
X99208166Y-105973617D01*
X99055040Y-105973617D01*
X99050407Y-105963314D01*
X99047340Y-105957864D01*
X99043729Y-105973588D01*
X99040879Y-106023046D01*
X99039163Y-106097641D01*
X99038833Y-106153655D01*
X99017666Y-106153655D01*
X99017666Y-105956100D01*
X98615500Y-105956100D01*
X98594333Y-105956100D01*
X98192166Y-105956100D01*
X98171000Y-105956100D01*
X97768833Y-105956100D01*
X97547338Y-105956100D01*
X97513350Y-105955566D01*
X97471976Y-105956100D01*
X97345500Y-105956100D01*
X97319406Y-105956100D01*
X97321028Y-105857853D01*
X97323484Y-105670350D01*
X97325064Y-105532767D01*
X97345500Y-105532767D01*
X97345500Y-105934933D01*
X97611580Y-105934933D01*
X97617750Y-105922420D01*
X97768833Y-105922420D01*
X97788465Y-105927797D01*
X97841234Y-105932017D01*
X97917947Y-105934507D01*
X97969916Y-105934933D01*
X98171000Y-105934933D01*
X98171000Y-105532767D01*
X98192166Y-105532767D01*
X98192166Y-105934933D01*
X98594333Y-105934933D01*
X98594333Y-105532767D01*
X98615500Y-105532767D01*
X98615500Y-105934933D01*
X98816583Y-105934933D01*
X98912202Y-105933831D01*
X98972707Y-105929756D01*
X99005278Y-105921560D01*
X99017095Y-105908090D01*
X99017666Y-105902713D01*
X99008574Y-105870167D01*
X98984287Y-105810760D01*
X98949290Y-105735116D01*
X98932763Y-105701630D01*
X98881118Y-105598912D01*
X99042222Y-105598912D01*
X99063111Y-105662377D01*
X99104944Y-105757217D01*
X99112382Y-105773541D01*
X99185931Y-105934933D01*
X99419833Y-105934933D01*
X99419833Y-105532767D01*
X99462166Y-105532767D01*
X99462166Y-105934933D01*
X99864333Y-105934933D01*
X99864333Y-105532767D01*
X99885500Y-105532767D01*
X99885500Y-105934933D01*
X100287666Y-105934933D01*
X100287666Y-105532767D01*
X100308833Y-105532767D01*
X100308833Y-105934933D01*
X100711000Y-105934933D01*
X100711000Y-105532767D01*
X100753333Y-105532767D01*
X100753333Y-105934933D01*
X101134333Y-105934933D01*
X101134333Y-105532767D01*
X101176666Y-105532767D01*
X101176666Y-105934933D01*
X101557666Y-105934933D01*
X101557666Y-105532767D01*
X101176666Y-105532767D01*
X101134333Y-105532767D01*
X100753333Y-105532767D01*
X100711000Y-105532767D01*
X100308833Y-105532767D01*
X100287666Y-105532767D01*
X99885500Y-105532767D01*
X99864333Y-105532767D01*
X99462166Y-105532767D01*
X99419833Y-105532767D01*
X99229333Y-105532767D01*
X99135833Y-105533750D01*
X99075522Y-105540900D01*
X99045339Y-105560520D01*
X99042222Y-105598912D01*
X98881118Y-105598912D01*
X98847860Y-105532767D01*
X98615500Y-105532767D01*
X98594333Y-105532767D01*
X98192166Y-105532767D01*
X98171000Y-105532767D01*
X97963619Y-105532767D01*
X97866226Y-105721337D01*
X97825172Y-105801997D01*
X97792666Y-105868097D01*
X97772886Y-105911007D01*
X97768833Y-105922420D01*
X97617750Y-105922420D01*
X97679623Y-105796949D01*
X97713865Y-105718881D01*
X97738304Y-105646693D01*
X97747666Y-105595976D01*
X97747666Y-105564517D01*
X97768833Y-105564517D01*
X97773361Y-105592757D01*
X97777152Y-105596267D01*
X97790800Y-105579715D01*
X97797654Y-105564517D01*
X97798094Y-105537261D01*
X97789335Y-105532767D01*
X97771143Y-105549921D01*
X97768833Y-105564517D01*
X97747666Y-105564517D01*
X97747666Y-105532767D01*
X97345500Y-105532767D01*
X97325064Y-105532767D01*
X97329928Y-105109433D01*
X97345500Y-105109433D01*
X97345500Y-105511600D01*
X97747666Y-105511600D01*
X97978466Y-105511600D01*
X98171000Y-105511600D01*
X98171000Y-105392591D01*
X98170681Y-105375553D01*
X98192166Y-105375553D01*
X98192166Y-105511600D01*
X98594333Y-105511600D01*
X98594333Y-105348617D01*
X98615500Y-105348617D01*
X98615500Y-105511600D01*
X98721333Y-105511600D01*
X98781712Y-105508423D01*
X98820031Y-105500300D01*
X98827166Y-105493942D01*
X98815958Y-105470198D01*
X98787064Y-105422740D01*
X98747577Y-105362176D01*
X98704590Y-105299115D01*
X98665196Y-105244166D01*
X98636489Y-105207938D01*
X98634468Y-105205742D01*
X98624940Y-105214501D01*
X98618372Y-105259603D01*
X98615551Y-105335114D01*
X98615500Y-105348617D01*
X98594333Y-105348617D01*
X98594333Y-105170773D01*
X98523118Y-105141017D01*
X98430907Y-105124472D01*
X98333059Y-105145774D01*
X98247532Y-105195955D01*
X98216920Y-105224706D01*
X98200213Y-105258541D01*
X98193333Y-105310685D01*
X98192166Y-105375553D01*
X98170681Y-105375553D01*
X98169758Y-105326353D01*
X98164238Y-105295090D01*
X98151742Y-105291473D01*
X98137463Y-105301416D01*
X98106211Y-105334686D01*
X98064172Y-105388245D01*
X98041196Y-105420424D01*
X97978466Y-105511600D01*
X97747666Y-105511600D01*
X97747666Y-105109433D01*
X97768833Y-105109433D01*
X97768833Y-105310517D01*
X97771035Y-105416719D01*
X97779378Y-105481952D01*
X97796466Y-105507430D01*
X97824904Y-105494370D01*
X97867298Y-105443986D01*
X97912924Y-105377756D01*
X97964136Y-105304464D01*
X98014482Y-105239051D01*
X98053374Y-105195247D01*
X98054530Y-105194150D01*
X98090354Y-105155863D01*
X98107294Y-105128643D01*
X98107500Y-105126910D01*
X98090504Y-105119833D01*
X98742500Y-105119833D01*
X98754336Y-105140861D01*
X98785056Y-105184866D01*
X98819409Y-105230958D01*
X98871370Y-105304937D01*
X98919455Y-105383058D01*
X98940044Y-105421642D01*
X98969043Y-105474581D01*
X98993052Y-105506914D01*
X99000717Y-105511600D01*
X99008000Y-105491969D01*
X99013715Y-105439204D01*
X99017088Y-105362496D01*
X99017666Y-105310517D01*
X99017666Y-105109433D01*
X99038833Y-105109433D01*
X99038833Y-105511600D01*
X99419833Y-105511600D01*
X99419833Y-105109433D01*
X99462166Y-105109433D01*
X99462166Y-105511600D01*
X99864333Y-105511600D01*
X99864333Y-105109433D01*
X99885500Y-105109433D01*
X99885500Y-105511600D01*
X100287666Y-105511600D01*
X100287666Y-105109433D01*
X100308833Y-105109433D01*
X100308833Y-105511600D01*
X100711000Y-105511600D01*
X100711000Y-105109433D01*
X100753333Y-105109433D01*
X100753333Y-105511600D01*
X101134333Y-105511600D01*
X101134333Y-105109433D01*
X101176666Y-105109433D01*
X101176666Y-105511600D01*
X101557666Y-105511600D01*
X101557666Y-105109433D01*
X101176666Y-105109433D01*
X101134333Y-105109433D01*
X100753333Y-105109433D01*
X100711000Y-105109433D01*
X100308833Y-105109433D01*
X100287666Y-105109433D01*
X99885500Y-105109433D01*
X99864333Y-105109433D01*
X99462166Y-105109433D01*
X99419833Y-105109433D01*
X99038833Y-105109433D01*
X99017666Y-105109433D01*
X98880083Y-105109433D01*
X98810009Y-105110893D01*
X98760453Y-105114712D01*
X98742500Y-105119833D01*
X98090504Y-105119833D01*
X98088008Y-105118794D01*
X98036209Y-105112682D01*
X97962117Y-105109609D01*
X97938166Y-105109433D01*
X97768833Y-105109433D01*
X97747666Y-105109433D01*
X97345500Y-105109433D01*
X97329928Y-105109433D01*
X97330172Y-105088267D01*
X97343911Y-105088267D01*
X97747666Y-105088267D01*
X97767244Y-105088267D01*
X98171000Y-105088267D01*
X98171000Y-104686100D01*
X98192166Y-104686100D01*
X98192166Y-105068187D01*
X98253444Y-105036499D01*
X98317494Y-105011344D01*
X98390670Y-104992880D01*
X98396319Y-104991938D01*
X98466488Y-104989124D01*
X98530065Y-104999278D01*
X98536125Y-105001392D01*
X98594333Y-105023719D01*
X98594333Y-104686100D01*
X98615500Y-104686100D01*
X98615500Y-104858391D01*
X98618002Y-104957265D01*
X98630330Y-105022596D01*
X98659716Y-105061345D01*
X98713389Y-105080473D01*
X98798581Y-105086940D01*
X98853625Y-105087593D01*
X99017666Y-105088267D01*
X99017666Y-104686100D01*
X99038833Y-104686100D01*
X99038833Y-105088267D01*
X99419833Y-105088267D01*
X99419833Y-104686100D01*
X99462166Y-104686100D01*
X99462166Y-105088267D01*
X99864333Y-105088267D01*
X99885500Y-105088267D01*
X100289255Y-105088267D01*
X100308833Y-105088267D01*
X100712588Y-105088267D01*
X100700416Y-104696683D01*
X100504625Y-104690597D01*
X100359953Y-104686100D01*
X100753333Y-104686100D01*
X100753333Y-105088267D01*
X101134333Y-105088267D01*
X101134333Y-104686100D01*
X101176666Y-104686100D01*
X101176666Y-105088267D01*
X101557666Y-105088267D01*
X101557666Y-104686100D01*
X101176666Y-104686100D01*
X101134333Y-104686100D01*
X100753333Y-104686100D01*
X100359953Y-104686100D01*
X100308833Y-104684511D01*
X100308833Y-105088267D01*
X100289255Y-105088267D01*
X100277083Y-104696683D01*
X100081291Y-104690597D01*
X99885500Y-104684511D01*
X99885500Y-105088267D01*
X99864333Y-105088267D01*
X99864333Y-104686100D01*
X99462166Y-104686100D01*
X99419833Y-104686100D01*
X99038833Y-104686100D01*
X99017666Y-104686100D01*
X98615500Y-104686100D01*
X98594333Y-104686100D01*
X98192166Y-104686100D01*
X98171000Y-104686100D01*
X98171000Y-104684511D01*
X97779416Y-104696683D01*
X97767244Y-105088267D01*
X97747666Y-105088267D01*
X97747666Y-104684511D01*
X97551875Y-104690597D01*
X97356083Y-104696683D01*
X97343911Y-105088267D01*
X97330172Y-105088267D01*
X97334916Y-104675517D01*
X98377375Y-104670025D01*
X99419833Y-104664534D01*
X99419833Y-104516567D01*
X99422633Y-104440637D01*
X99430137Y-104388180D01*
X99440998Y-104368600D01*
X99441000Y-104368600D01*
X99451861Y-104388175D01*
X99451861Y-104388175D01*
G37*
X99451861Y-104388175D02*
X99459365Y-104440630D01*
X99462166Y-104516558D01*
X99462166Y-104664542D01*
X100525791Y-104670029D01*
X101589416Y-104675517D01*
X101600398Y-106760433D01*
X101727199Y-106760433D01*
X101794765Y-106763651D01*
X101840564Y-106772055D01*
X101854000Y-106781600D01*
X101834894Y-106793346D01*
X101785746Y-106801032D01*
X101741111Y-106802767D01*
X101665337Y-106807732D01*
X101626239Y-106822101D01*
X101621876Y-106829225D01*
X101620350Y-106855099D01*
X101618418Y-106919094D01*
X101616159Y-107017000D01*
X101613649Y-107144608D01*
X101610966Y-107297708D01*
X101608188Y-107472089D01*
X101605393Y-107663543D01*
X101602657Y-107867860D01*
X101602474Y-107882267D01*
X101589416Y-108908850D01*
X100525791Y-108914337D01*
X99462166Y-108919825D01*
X99462166Y-109057212D01*
X99459172Y-109129031D01*
X99451241Y-109178192D01*
X99441000Y-109194600D01*
X99429939Y-109175160D01*
X99422366Y-109123665D01*
X99419833Y-109057017D01*
X99419833Y-108919433D01*
X97324333Y-108919433D01*
X97324333Y-108899855D01*
X99885500Y-108899855D01*
X100081291Y-108893769D01*
X100277083Y-108887683D01*
X100283325Y-108733095D01*
X100282646Y-108633490D01*
X100271660Y-108586648D01*
X100308833Y-108586648D01*
X100308833Y-108899855D01*
X100504625Y-108893769D01*
X100700416Y-108887683D01*
X100706645Y-108721017D01*
X100708981Y-108638169D01*
X100707236Y-108589939D01*
X100699798Y-108568684D01*
X100685056Y-108566762D01*
X100674895Y-108570470D01*
X100554147Y-108610508D01*
X100450999Y-108618928D01*
X100393500Y-108609247D01*
X100308833Y-108586648D01*
X100271660Y-108586648D01*
X100266868Y-108566218D01*
X100229651Y-108525149D01*
X100164654Y-108504151D01*
X100065536Y-108497093D01*
X100038958Y-108496804D01*
X99885500Y-108496100D01*
X100753333Y-108496100D01*
X100753333Y-108898267D01*
X101134333Y-108898267D01*
X101134333Y-108496100D01*
X101176666Y-108496100D01*
X101176666Y-108898267D01*
X101557666Y-108898267D01*
X101557666Y-108496100D01*
X101176666Y-108496100D01*
X101134333Y-108496100D01*
X100753333Y-108496100D01*
X99885500Y-108496100D01*
X99885500Y-108899855D01*
X97324333Y-108899855D01*
X97324333Y-108496100D01*
X97345500Y-108496100D01*
X97345500Y-108683072D01*
X97347001Y-108768250D01*
X97351014Y-108836595D01*
X97356799Y-108877591D01*
X97359611Y-108884155D01*
X97385821Y-108890471D01*
X97443843Y-108895326D01*
X97523161Y-108897983D01*
X97560694Y-108898267D01*
X97747666Y-108898267D01*
X97747666Y-108496100D01*
X97768833Y-108496100D01*
X97768833Y-108683072D01*
X97770334Y-108768250D01*
X97774347Y-108836595D01*
X97780133Y-108877591D01*
X97782944Y-108884155D01*
X97809154Y-108890471D01*
X97867176Y-108895326D01*
X97946494Y-108897983D01*
X97984027Y-108898267D01*
X98171000Y-108898267D01*
X98171000Y-108496100D01*
X98192166Y-108496100D01*
X98192166Y-108898267D01*
X98594333Y-108898267D01*
X98594333Y-108496100D01*
X98615500Y-108496100D01*
X98615500Y-108898267D01*
X99017666Y-108898267D01*
X99017666Y-108496100D01*
X99038833Y-108496100D01*
X99038833Y-108898267D01*
X99419833Y-108898267D01*
X99419833Y-108496100D01*
X99462166Y-108496100D01*
X99462166Y-108898267D01*
X99864333Y-108898267D01*
X99864333Y-108496100D01*
X99462166Y-108496100D01*
X99419833Y-108496100D01*
X99038833Y-108496100D01*
X99017666Y-108496100D01*
X98615500Y-108496100D01*
X98594333Y-108496100D01*
X98192166Y-108496100D01*
X98171000Y-108496100D01*
X97768833Y-108496100D01*
X97747666Y-108496100D01*
X97345500Y-108496100D01*
X97324333Y-108496100D01*
X97324333Y-108072767D01*
X97345500Y-108072767D01*
X97345500Y-108474933D01*
X97747666Y-108474933D01*
X97747666Y-108072767D01*
X97768833Y-108072767D01*
X97768833Y-108474933D01*
X98171000Y-108474933D01*
X98171000Y-108072767D01*
X98192166Y-108072767D01*
X98192166Y-108474933D01*
X98594333Y-108474933D01*
X98594333Y-108072767D01*
X98615500Y-108072767D01*
X98615500Y-108474933D01*
X99017666Y-108474933D01*
X99017666Y-108072767D01*
X99038833Y-108072767D01*
X99038833Y-108474933D01*
X99419833Y-108474933D01*
X99419833Y-108072767D01*
X99462166Y-108072767D01*
X99462166Y-108474933D01*
X99864333Y-108474933D01*
X99864333Y-108273850D01*
X99885500Y-108273850D01*
X99885500Y-108474933D01*
X100160993Y-108474933D01*
X100815656Y-108474933D01*
X101134333Y-108474933D01*
X101134333Y-108273850D01*
X101131998Y-108168373D01*
X101124409Y-108103334D01*
X101110689Y-108077063D01*
X101089959Y-108087891D01*
X101061345Y-108134149D01*
X101061133Y-108134557D01*
X101032971Y-108180869D01*
X100987400Y-108247422D01*
X100933331Y-108321300D01*
X100922418Y-108335641D01*
X100815656Y-108474933D01*
X100160993Y-108474933D01*
X100078149Y-108353225D01*
X100028928Y-108277296D01*
X99984193Y-108202166D01*
X99957648Y-108152142D01*
X99930473Y-108102791D01*
X99919897Y-108089789D01*
X100076000Y-108089789D01*
X100087237Y-108120067D01*
X100116275Y-108171604D01*
X100156099Y-108234086D01*
X100199696Y-108297202D01*
X100240051Y-108350639D01*
X100270151Y-108384085D01*
X100280363Y-108390267D01*
X100283854Y-108370825D01*
X100286437Y-108319400D01*
X100287634Y-108246337D01*
X100287666Y-108231517D01*
X100287666Y-108072767D01*
X100308833Y-108072767D01*
X100308833Y-108251631D01*
X100310299Y-108342646D01*
X100315806Y-108400375D01*
X100327011Y-108433798D01*
X100345575Y-108451896D01*
X100345875Y-108452071D01*
X100412225Y-108471753D01*
X100497521Y-108472499D01*
X100583531Y-108455622D01*
X100639709Y-108430873D01*
X100676156Y-108406630D01*
X100697419Y-108382325D01*
X100707589Y-108346421D01*
X100710757Y-108287379D01*
X100711000Y-108229790D01*
X100711000Y-108072767D01*
X100753333Y-108072767D01*
X100753333Y-108199767D01*
X100754471Y-108266760D01*
X100757431Y-108312780D01*
X100760849Y-108326767D01*
X100775709Y-108310772D01*
X100807992Y-108268556D01*
X100851119Y-108208767D01*
X100857451Y-108199767D01*
X100946537Y-108072767D01*
X101176666Y-108072767D01*
X101176666Y-108474933D01*
X101557666Y-108474933D01*
X101557666Y-108072767D01*
X101176666Y-108072767D01*
X100946537Y-108072767D01*
X100753333Y-108072767D01*
X100711000Y-108072767D01*
X100308833Y-108072767D01*
X100287666Y-108072767D01*
X100181833Y-108072767D01*
X100121452Y-108075829D01*
X100083134Y-108083661D01*
X100076000Y-108089789D01*
X99919897Y-108089789D01*
X99907872Y-108075006D01*
X99902746Y-108072767D01*
X99895335Y-108092397D01*
X99889520Y-108145162D01*
X99886087Y-108221870D01*
X99885500Y-108273850D01*
X99864333Y-108273850D01*
X99864333Y-108072767D01*
X99462166Y-108072767D01*
X99419833Y-108072767D01*
X99038833Y-108072767D01*
X99017666Y-108072767D01*
X98615500Y-108072767D01*
X98594333Y-108072767D01*
X98192166Y-108072767D01*
X98171000Y-108072767D01*
X97768833Y-108072767D01*
X97747666Y-108072767D01*
X97345500Y-108072767D01*
X97324333Y-108072767D01*
X97324333Y-107649433D01*
X97345500Y-107649433D01*
X97345500Y-108051600D01*
X97747666Y-108051600D01*
X97747666Y-107649433D01*
X97768833Y-107649433D01*
X97768833Y-108051600D01*
X98171000Y-108051600D01*
X98171000Y-107649433D01*
X98192166Y-107649433D01*
X98192166Y-108051600D01*
X98594333Y-108051600D01*
X98594333Y-107649433D01*
X98615500Y-107649433D01*
X98615500Y-108051600D01*
X99017666Y-108051600D01*
X99017666Y-107649433D01*
X99038833Y-107649433D01*
X99038833Y-108051600D01*
X99419833Y-108051600D01*
X99462166Y-108051600D01*
X99663250Y-108051600D01*
X99757626Y-108050708D01*
X99817279Y-108047130D01*
X99843383Y-108041017D01*
X99885500Y-108041017D01*
X99896083Y-108051600D01*
X99906666Y-108041017D01*
X99896083Y-108030433D01*
X99885500Y-108041017D01*
X99843383Y-108041017D01*
X99849798Y-108039515D01*
X99862772Y-108026509D01*
X99864333Y-108015762D01*
X99856494Y-107980430D01*
X99835647Y-107918007D01*
X99805798Y-107840170D01*
X99795541Y-107815212D01*
X99737823Y-107677011D01*
X99885500Y-107677011D01*
X99894273Y-107707396D01*
X99917749Y-107765392D01*
X99951655Y-107840766D01*
X99969405Y-107878094D01*
X100053310Y-108051600D01*
X100287666Y-108051600D01*
X100287666Y-107649433D01*
X100308833Y-107649433D01*
X100308833Y-108051600D01*
X100711000Y-108051600D01*
X100711000Y-107649433D01*
X100753333Y-107649433D01*
X100753333Y-108051600D01*
X100960714Y-108051600D01*
X100971646Y-108030433D01*
X101113166Y-108030433D01*
X101120388Y-108051050D01*
X101122500Y-108051600D01*
X101140572Y-108036768D01*
X101144916Y-108030433D01*
X101143238Y-108010928D01*
X101135582Y-108009267D01*
X101114028Y-108024632D01*
X101113166Y-108030433D01*
X100971646Y-108030433D01*
X100992283Y-107990476D01*
X101176666Y-107990476D01*
X101176666Y-108051600D01*
X101557666Y-108051600D01*
X101557666Y-107649433D01*
X101307656Y-107649433D01*
X101242161Y-107789393D01*
X101209297Y-107867929D01*
X101185790Y-107939956D01*
X101176668Y-107990037D01*
X101176666Y-107990476D01*
X100992283Y-107990476D01*
X101058107Y-107863029D01*
X101099160Y-107782369D01*
X101131666Y-107716270D01*
X101151446Y-107673359D01*
X101155500Y-107661946D01*
X101135867Y-107656569D01*
X101083098Y-107652350D01*
X101006385Y-107649860D01*
X100954416Y-107649433D01*
X100753333Y-107649433D01*
X100711000Y-107649433D01*
X100308833Y-107649433D01*
X100287666Y-107649433D01*
X100086583Y-107649433D01*
X99987162Y-107650993D01*
X99924341Y-107656188D01*
X99892482Y-107665792D01*
X99885500Y-107677011D01*
X99737823Y-107677011D01*
X99726750Y-107650499D01*
X99462166Y-107649433D01*
X99462166Y-108051600D01*
X99419833Y-108051600D01*
X99419833Y-107649433D01*
X99038833Y-107649433D01*
X99017666Y-107649433D01*
X98615500Y-107649433D01*
X98594333Y-107649433D01*
X98192166Y-107649433D01*
X98171000Y-107649433D01*
X97768833Y-107649433D01*
X97747666Y-107649433D01*
X97345500Y-107649433D01*
X97324333Y-107649433D01*
X97324333Y-107226100D01*
X97345500Y-107226100D01*
X97345500Y-107628267D01*
X97747666Y-107628267D01*
X97747666Y-107226100D01*
X97768833Y-107226100D01*
X97768833Y-107628267D01*
X98171000Y-107628267D01*
X98171000Y-107226100D01*
X98192166Y-107226100D01*
X98192166Y-107628267D01*
X98594333Y-107628267D01*
X98594333Y-107226100D01*
X98615500Y-107226100D01*
X98615500Y-107628267D01*
X99017666Y-107628267D01*
X99017666Y-107226100D01*
X99038833Y-107226100D01*
X99038833Y-107628267D01*
X99419833Y-107628267D01*
X99419833Y-107425711D01*
X99462166Y-107425711D01*
X99462166Y-107628267D01*
X99713110Y-107628267D01*
X99633867Y-107432475D01*
X99593737Y-107337964D01*
X99562544Y-107277154D01*
X99536212Y-107243461D01*
X99535424Y-107243055D01*
X99698527Y-107243055D01*
X99709276Y-107269152D01*
X99731979Y-107324426D01*
X99762533Y-107398884D01*
X99776754Y-107433555D01*
X99809230Y-107510651D01*
X99835932Y-107570156D01*
X99852809Y-107603212D01*
X99856129Y-107607100D01*
X99859742Y-107587508D01*
X99862543Y-107535031D01*
X99864126Y-107459113D01*
X99864333Y-107416600D01*
X99864333Y-107226100D01*
X99885500Y-107226100D01*
X99885500Y-107628267D01*
X100287666Y-107628267D01*
X100287666Y-107226100D01*
X100308833Y-107226100D01*
X100308833Y-107628267D01*
X100711000Y-107628267D01*
X100711000Y-107226100D01*
X100753333Y-107226100D01*
X100753333Y-107628267D01*
X101134333Y-107628267D01*
X101134333Y-107226100D01*
X101176666Y-107226100D01*
X101178234Y-107411308D01*
X101179803Y-107596517D01*
X101183331Y-107588854D01*
X101333263Y-107588854D01*
X101340617Y-107615511D01*
X101374112Y-107626245D01*
X101435946Y-107628265D01*
X101439823Y-107628267D01*
X101557666Y-107628267D01*
X101557666Y-107427183D01*
X101556973Y-107333582D01*
X101553838Y-107274491D01*
X101546680Y-107242096D01*
X101533918Y-107228581D01*
X101516974Y-107226100D01*
X101481512Y-107243152D01*
X101453329Y-107297361D01*
X101450610Y-107305475D01*
X101422360Y-107381626D01*
X101389406Y-107456455D01*
X101388184Y-107458933D01*
X101349852Y-107539064D01*
X101333263Y-107588854D01*
X101183331Y-107588854D01*
X101242068Y-107461287D01*
X101275539Y-107385406D01*
X101302571Y-107318350D01*
X101316878Y-107276079D01*
X101320937Y-107242984D01*
X101303503Y-107229007D01*
X101254299Y-107226100D01*
X101176666Y-107226100D01*
X101134333Y-107226100D01*
X100753333Y-107226100D01*
X100711000Y-107226100D01*
X100308833Y-107226100D01*
X100287666Y-107226100D01*
X99885500Y-107226100D01*
X99864333Y-107226100D01*
X99777902Y-107226100D01*
X99726131Y-107229729D01*
X99699501Y-107238832D01*
X99698527Y-107243055D01*
X99535424Y-107243055D01*
X99510663Y-107230302D01*
X99508395Y-107229919D01*
X99487038Y-107228815D01*
X99473535Y-107238150D01*
X99466088Y-107265535D01*
X99462900Y-107318582D01*
X99462174Y-107404903D01*
X99462166Y-107425711D01*
X99419833Y-107425711D01*
X99419833Y-107226100D01*
X99038833Y-107226100D01*
X99017666Y-107226100D01*
X98615500Y-107226100D01*
X98594333Y-107226100D01*
X98192166Y-107226100D01*
X98171000Y-107226100D01*
X97768833Y-107226100D01*
X97747666Y-107226100D01*
X97345500Y-107226100D01*
X97324333Y-107226100D01*
X97324333Y-107016698D01*
X97345500Y-107016698D01*
X97345500Y-107204933D01*
X97747666Y-107204933D01*
X97747666Y-106802767D01*
X97768833Y-106802767D01*
X97768833Y-107204933D01*
X98171000Y-107204933D01*
X98171000Y-106802767D01*
X98192166Y-106802767D01*
X98192166Y-107204933D01*
X98594333Y-107204933D01*
X98594333Y-106802767D01*
X98615500Y-106802767D01*
X98615500Y-107204933D01*
X99017666Y-107204933D01*
X99017666Y-106802767D01*
X99038833Y-106802767D01*
X99038833Y-107204933D01*
X99419833Y-107204933D01*
X99419644Y-107104392D01*
X99463776Y-107104392D01*
X99466319Y-107168711D01*
X99478236Y-107199296D01*
X99493916Y-107204933D01*
X99521093Y-107190859D01*
X99524056Y-107178475D01*
X99515784Y-107142235D01*
X99497549Y-107087546D01*
X99493916Y-107077933D01*
X99465387Y-107003850D01*
X99463776Y-107104392D01*
X99419644Y-107104392D01*
X99419544Y-107051475D01*
X99418716Y-106945765D01*
X99412823Y-106875258D01*
X99396043Y-106832829D01*
X99362554Y-106811353D01*
X99306533Y-106803707D01*
X99222337Y-106802767D01*
X99526284Y-106802767D01*
X99570689Y-106913892D01*
X99603385Y-106996686D01*
X99635966Y-107080688D01*
X99649029Y-107114975D01*
X99672589Y-107170373D01*
X99697787Y-107196556D01*
X99739744Y-107204441D01*
X99773648Y-107204933D01*
X99864333Y-107204933D01*
X99864333Y-106802767D01*
X99885500Y-106802767D01*
X99885500Y-107204933D01*
X100287666Y-107204933D01*
X100287666Y-106802767D01*
X100308833Y-106802767D01*
X100308833Y-107204933D01*
X100711000Y-107204933D01*
X100711000Y-106802767D01*
X100753333Y-106802767D01*
X100753333Y-107204933D01*
X101134333Y-107204933D01*
X101134333Y-106802767D01*
X101176666Y-106802767D01*
X101176666Y-107207367D01*
X101265204Y-107200859D01*
X101322714Y-107196631D01*
X101496867Y-107196631D01*
X101508250Y-107204387D01*
X101525916Y-107204933D01*
X101548401Y-107190450D01*
X101556693Y-107142860D01*
X101556838Y-107125558D01*
X101556009Y-107046183D01*
X101525088Y-107117405D01*
X101502513Y-107171158D01*
X101496867Y-107196631D01*
X101322714Y-107196631D01*
X101353742Y-107194350D01*
X101423922Y-107014433D01*
X101454882Y-106933432D01*
X101478872Y-106867567D01*
X101492391Y-106826596D01*
X101494134Y-106818642D01*
X101474713Y-106811053D01*
X101423310Y-106805440D01*
X101350266Y-106802836D01*
X101335416Y-106802767D01*
X101176666Y-106802767D01*
X101134333Y-106802767D01*
X100753333Y-106802767D01*
X100711000Y-106802767D01*
X100308833Y-106802767D01*
X100287666Y-106802767D01*
X99885500Y-106802767D01*
X99864333Y-106802767D01*
X99526284Y-106802767D01*
X99222337Y-106802767D01*
X99222157Y-106802765D01*
X99216281Y-106802767D01*
X99038833Y-106802767D01*
X99017666Y-106802767D01*
X98615500Y-106802767D01*
X98594333Y-106802767D01*
X98192166Y-106802767D01*
X98171000Y-106802767D01*
X97768833Y-106802767D01*
X97747666Y-106802767D01*
X97580064Y-106802767D01*
X97477922Y-106803302D01*
X97410769Y-106809364D01*
X97371278Y-106827636D01*
X97352121Y-106864802D01*
X97345970Y-106927543D01*
X97345500Y-107016698D01*
X97324333Y-107016698D01*
X97324333Y-106802767D01*
X97164334Y-106802767D01*
X97078827Y-106800215D01*
X97028800Y-106792885D01*
X97017416Y-106781600D01*
X97044113Y-106770174D01*
X97099664Y-106762489D01*
X97153780Y-106760433D01*
X97409617Y-106760433D01*
X97747666Y-106760433D01*
X97747666Y-106379433D01*
X97768833Y-106379433D01*
X97768833Y-106760433D01*
X98171000Y-106760433D01*
X98171000Y-106379433D01*
X98192166Y-106379433D01*
X98192166Y-106760433D01*
X98594333Y-106760433D01*
X98594333Y-106379433D01*
X98615500Y-106379433D01*
X98615500Y-106760433D01*
X99017666Y-106760433D01*
X99017666Y-106379433D01*
X99038833Y-106379433D01*
X99038833Y-106760433D01*
X99373578Y-106760433D01*
X99232185Y-106405333D01*
X99384251Y-106405333D01*
X99391654Y-106454715D01*
X99392086Y-106456311D01*
X99408733Y-106517017D01*
X99415875Y-106456873D01*
X99417235Y-106409363D01*
X99410842Y-106384554D01*
X99393242Y-106379433D01*
X99462166Y-106379433D01*
X99462166Y-106503275D01*
X99466230Y-106584680D01*
X99476649Y-106659485D01*
X99485403Y-106693775D01*
X99508641Y-106760433D01*
X99864333Y-106760433D01*
X99864333Y-106379433D01*
X99885500Y-106379433D01*
X99885500Y-106760433D01*
X100287666Y-106760433D01*
X100287666Y-106379433D01*
X100308833Y-106379433D01*
X100308833Y-106760433D01*
X100711000Y-106760433D01*
X100711000Y-106379433D01*
X100753333Y-106379433D01*
X100753333Y-106760433D01*
X101134333Y-106760433D01*
X101134333Y-106379433D01*
X101176666Y-106379433D01*
X101176666Y-106760433D01*
X101557666Y-106760433D01*
X101557666Y-106379433D01*
X101176666Y-106379433D01*
X101134333Y-106379433D01*
X100753333Y-106379433D01*
X100711000Y-106379433D01*
X100308833Y-106379433D01*
X100287666Y-106379433D01*
X99885500Y-106379433D01*
X99864333Y-106379433D01*
X99462166Y-106379433D01*
X99393242Y-106379433D01*
X99391440Y-106378909D01*
X99384251Y-106405333D01*
X99232185Y-106405333D01*
X99221872Y-106379433D01*
X99038833Y-106379433D01*
X99017666Y-106379433D01*
X98615500Y-106379433D01*
X98594333Y-106379433D01*
X98192166Y-106379433D01*
X98171000Y-106379433D01*
X97768833Y-106379433D01*
X97747666Y-106379433D01*
X97654714Y-106379433D01*
X97618023Y-106378897D01*
X97591310Y-106381210D01*
X97570274Y-106392250D01*
X97550611Y-106417898D01*
X97528020Y-106464033D01*
X97498196Y-106536534D01*
X97456838Y-106641281D01*
X97449471Y-106659892D01*
X97409617Y-106760433D01*
X97153780Y-106760433D01*
X97224804Y-106758473D01*
X97265102Y-106749993D01*
X97286201Y-106731093D01*
X97294557Y-106712808D01*
X97298342Y-106682458D01*
X97302330Y-106614177D01*
X97306398Y-106512366D01*
X97308044Y-106458808D01*
X97346250Y-106458808D01*
X97347000Y-106538183D01*
X97377250Y-106485267D01*
X97399820Y-106437560D01*
X97408249Y-106405892D01*
X97391937Y-106382492D01*
X97377250Y-106379433D01*
X97354741Y-106393959D01*
X97346407Y-106441651D01*
X97346250Y-106458808D01*
X97308044Y-106458808D01*
X97310424Y-106381427D01*
X97314285Y-106225761D01*
X97317861Y-106049769D01*
X97319406Y-105956100D01*
X97345500Y-105956100D01*
X97345500Y-106158655D01*
X97346014Y-106252197D01*
X97348700Y-106310998D01*
X97355266Y-106342648D01*
X97367425Y-106354736D01*
X97386888Y-106354853D01*
X97389638Y-106354447D01*
X97399807Y-106348708D01*
X97578333Y-106348708D01*
X97597132Y-106354697D01*
X97644090Y-106358025D01*
X97663000Y-106358267D01*
X97747666Y-106358267D01*
X97747666Y-106164239D01*
X97746870Y-106080765D01*
X97744734Y-106017310D01*
X97741636Y-105982672D01*
X97739712Y-105979030D01*
X97728006Y-106001406D01*
X97704733Y-106051712D01*
X97674573Y-106119226D01*
X97642206Y-106193225D01*
X97612315Y-106262986D01*
X97589579Y-106317787D01*
X97578680Y-106346904D01*
X97578333Y-106348708D01*
X97399807Y-106348708D01*
X97420609Y-106336969D01*
X97453889Y-106290305D01*
X97493411Y-106208804D01*
X97497430Y-106199517D01*
X97541678Y-106097433D01*
X97570183Y-106028484D01*
X97582275Y-105986248D01*
X97577281Y-105964299D01*
X97554530Y-105956213D01*
X97547338Y-105956100D01*
X97768833Y-105956100D01*
X97768833Y-106358267D01*
X98171000Y-106358267D01*
X98171000Y-105956100D01*
X98192166Y-105956100D01*
X98192166Y-106358267D01*
X98594333Y-106358267D01*
X98594333Y-105956100D01*
X98615500Y-105956100D01*
X98615500Y-106358267D01*
X99017666Y-106358267D01*
X99017666Y-106153655D01*
X99038833Y-106153655D01*
X99038833Y-106358267D01*
X99123500Y-106358267D01*
X99176548Y-106356830D01*
X99206025Y-106353241D01*
X99208166Y-106351796D01*
X99200653Y-106329180D01*
X99180977Y-106278077D01*
X99153430Y-106209002D01*
X99122307Y-106132472D01*
X99091899Y-106059004D01*
X99066502Y-105999112D01*
X99055040Y-105973617D01*
X99208166Y-105973617D01*
X99215646Y-106000757D01*
X99235279Y-106055261D01*
X99262852Y-106125452D01*
X99263512Y-106127076D01*
X99294493Y-106203581D01*
X99321238Y-106270348D01*
X99337072Y-106310642D01*
X99363102Y-106347534D01*
X99387559Y-106358267D01*
X99402902Y-106351421D01*
X99412610Y-106326093D01*
X99417838Y-106275092D01*
X99419739Y-106191229D01*
X99419833Y-106157183D01*
X99419833Y-105956100D01*
X99462166Y-105956100D01*
X99462166Y-106358267D01*
X99864333Y-106358267D01*
X99864333Y-105956100D01*
X99885500Y-105956100D01*
X99885500Y-106358267D01*
X100287666Y-106358267D01*
X100287666Y-105956100D01*
X100308833Y-105956100D01*
X100308833Y-106358267D01*
X100711000Y-106358267D01*
X100711000Y-105956100D01*
X100753333Y-105956100D01*
X100753333Y-106358267D01*
X101134333Y-106358267D01*
X101134333Y-105956100D01*
X101176666Y-105956100D01*
X101176666Y-106358267D01*
X101557666Y-106358267D01*
X101557666Y-105956100D01*
X101176666Y-105956100D01*
X101134333Y-105956100D01*
X100753333Y-105956100D01*
X100711000Y-105956100D01*
X100308833Y-105956100D01*
X100287666Y-105956100D01*
X99885500Y-105956100D01*
X99864333Y-105956100D01*
X99462166Y-105956100D01*
X99419833Y-105956100D01*
X99314000Y-105956100D01*
X99253620Y-105959252D01*
X99215301Y-105967310D01*
X99208166Y-105973617D01*
X99055040Y-105973617D01*
X99050407Y-105963314D01*
X99047340Y-105957864D01*
X99043729Y-105973588D01*
X99040879Y-106023046D01*
X99039163Y-106097641D01*
X99038833Y-106153655D01*
X99017666Y-106153655D01*
X99017666Y-105956100D01*
X98615500Y-105956100D01*
X98594333Y-105956100D01*
X98192166Y-105956100D01*
X98171000Y-105956100D01*
X97768833Y-105956100D01*
X97547338Y-105956100D01*
X97513350Y-105955566D01*
X97471976Y-105956100D01*
X97345500Y-105956100D01*
X97319406Y-105956100D01*
X97321028Y-105857853D01*
X97323484Y-105670350D01*
X97325064Y-105532767D01*
X97345500Y-105532767D01*
X97345500Y-105934933D01*
X97611580Y-105934933D01*
X97617750Y-105922420D01*
X97768833Y-105922420D01*
X97788465Y-105927797D01*
X97841234Y-105932017D01*
X97917947Y-105934507D01*
X97969916Y-105934933D01*
X98171000Y-105934933D01*
X98171000Y-105532767D01*
X98192166Y-105532767D01*
X98192166Y-105934933D01*
X98594333Y-105934933D01*
X98594333Y-105532767D01*
X98615500Y-105532767D01*
X98615500Y-105934933D01*
X98816583Y-105934933D01*
X98912202Y-105933831D01*
X98972707Y-105929756D01*
X99005278Y-105921560D01*
X99017095Y-105908090D01*
X99017666Y-105902713D01*
X99008574Y-105870167D01*
X98984287Y-105810760D01*
X98949290Y-105735116D01*
X98932763Y-105701630D01*
X98881118Y-105598912D01*
X99042222Y-105598912D01*
X99063111Y-105662377D01*
X99104944Y-105757217D01*
X99112382Y-105773541D01*
X99185931Y-105934933D01*
X99419833Y-105934933D01*
X99419833Y-105532767D01*
X99462166Y-105532767D01*
X99462166Y-105934933D01*
X99864333Y-105934933D01*
X99864333Y-105532767D01*
X99885500Y-105532767D01*
X99885500Y-105934933D01*
X100287666Y-105934933D01*
X100287666Y-105532767D01*
X100308833Y-105532767D01*
X100308833Y-105934933D01*
X100711000Y-105934933D01*
X100711000Y-105532767D01*
X100753333Y-105532767D01*
X100753333Y-105934933D01*
X101134333Y-105934933D01*
X101134333Y-105532767D01*
X101176666Y-105532767D01*
X101176666Y-105934933D01*
X101557666Y-105934933D01*
X101557666Y-105532767D01*
X101176666Y-105532767D01*
X101134333Y-105532767D01*
X100753333Y-105532767D01*
X100711000Y-105532767D01*
X100308833Y-105532767D01*
X100287666Y-105532767D01*
X99885500Y-105532767D01*
X99864333Y-105532767D01*
X99462166Y-105532767D01*
X99419833Y-105532767D01*
X99229333Y-105532767D01*
X99135833Y-105533750D01*
X99075522Y-105540900D01*
X99045339Y-105560520D01*
X99042222Y-105598912D01*
X98881118Y-105598912D01*
X98847860Y-105532767D01*
X98615500Y-105532767D01*
X98594333Y-105532767D01*
X98192166Y-105532767D01*
X98171000Y-105532767D01*
X97963619Y-105532767D01*
X97866226Y-105721337D01*
X97825172Y-105801997D01*
X97792666Y-105868097D01*
X97772886Y-105911007D01*
X97768833Y-105922420D01*
X97617750Y-105922420D01*
X97679623Y-105796949D01*
X97713865Y-105718881D01*
X97738304Y-105646693D01*
X97747666Y-105595976D01*
X97747666Y-105564517D01*
X97768833Y-105564517D01*
X97773361Y-105592757D01*
X97777152Y-105596267D01*
X97790800Y-105579715D01*
X97797654Y-105564517D01*
X97798094Y-105537261D01*
X97789335Y-105532767D01*
X97771143Y-105549921D01*
X97768833Y-105564517D01*
X97747666Y-105564517D01*
X97747666Y-105532767D01*
X97345500Y-105532767D01*
X97325064Y-105532767D01*
X97329928Y-105109433D01*
X97345500Y-105109433D01*
X97345500Y-105511600D01*
X97747666Y-105511600D01*
X97978466Y-105511600D01*
X98171000Y-105511600D01*
X98171000Y-105392591D01*
X98170681Y-105375553D01*
X98192166Y-105375553D01*
X98192166Y-105511600D01*
X98594333Y-105511600D01*
X98594333Y-105348617D01*
X98615500Y-105348617D01*
X98615500Y-105511600D01*
X98721333Y-105511600D01*
X98781712Y-105508423D01*
X98820031Y-105500300D01*
X98827166Y-105493942D01*
X98815958Y-105470198D01*
X98787064Y-105422740D01*
X98747577Y-105362176D01*
X98704590Y-105299115D01*
X98665196Y-105244166D01*
X98636489Y-105207938D01*
X98634468Y-105205742D01*
X98624940Y-105214501D01*
X98618372Y-105259603D01*
X98615551Y-105335114D01*
X98615500Y-105348617D01*
X98594333Y-105348617D01*
X98594333Y-105170773D01*
X98523118Y-105141017D01*
X98430907Y-105124472D01*
X98333059Y-105145774D01*
X98247532Y-105195955D01*
X98216920Y-105224706D01*
X98200213Y-105258541D01*
X98193333Y-105310685D01*
X98192166Y-105375553D01*
X98170681Y-105375553D01*
X98169758Y-105326353D01*
X98164238Y-105295090D01*
X98151742Y-105291473D01*
X98137463Y-105301416D01*
X98106211Y-105334686D01*
X98064172Y-105388245D01*
X98041196Y-105420424D01*
X97978466Y-105511600D01*
X97747666Y-105511600D01*
X97747666Y-105109433D01*
X97768833Y-105109433D01*
X97768833Y-105310517D01*
X97771035Y-105416719D01*
X97779378Y-105481952D01*
X97796466Y-105507430D01*
X97824904Y-105494370D01*
X97867298Y-105443986D01*
X97912924Y-105377756D01*
X97964136Y-105304464D01*
X98014482Y-105239051D01*
X98053374Y-105195247D01*
X98054530Y-105194150D01*
X98090354Y-105155863D01*
X98107294Y-105128643D01*
X98107500Y-105126910D01*
X98090504Y-105119833D01*
X98742500Y-105119833D01*
X98754336Y-105140861D01*
X98785056Y-105184866D01*
X98819409Y-105230958D01*
X98871370Y-105304937D01*
X98919455Y-105383058D01*
X98940044Y-105421642D01*
X98969043Y-105474581D01*
X98993052Y-105506914D01*
X99000717Y-105511600D01*
X99008000Y-105491969D01*
X99013715Y-105439204D01*
X99017088Y-105362496D01*
X99017666Y-105310517D01*
X99017666Y-105109433D01*
X99038833Y-105109433D01*
X99038833Y-105511600D01*
X99419833Y-105511600D01*
X99419833Y-105109433D01*
X99462166Y-105109433D01*
X99462166Y-105511600D01*
X99864333Y-105511600D01*
X99864333Y-105109433D01*
X99885500Y-105109433D01*
X99885500Y-105511600D01*
X100287666Y-105511600D01*
X100287666Y-105109433D01*
X100308833Y-105109433D01*
X100308833Y-105511600D01*
X100711000Y-105511600D01*
X100711000Y-105109433D01*
X100753333Y-105109433D01*
X100753333Y-105511600D01*
X101134333Y-105511600D01*
X101134333Y-105109433D01*
X101176666Y-105109433D01*
X101176666Y-105511600D01*
X101557666Y-105511600D01*
X101557666Y-105109433D01*
X101176666Y-105109433D01*
X101134333Y-105109433D01*
X100753333Y-105109433D01*
X100711000Y-105109433D01*
X100308833Y-105109433D01*
X100287666Y-105109433D01*
X99885500Y-105109433D01*
X99864333Y-105109433D01*
X99462166Y-105109433D01*
X99419833Y-105109433D01*
X99038833Y-105109433D01*
X99017666Y-105109433D01*
X98880083Y-105109433D01*
X98810009Y-105110893D01*
X98760453Y-105114712D01*
X98742500Y-105119833D01*
X98090504Y-105119833D01*
X98088008Y-105118794D01*
X98036209Y-105112682D01*
X97962117Y-105109609D01*
X97938166Y-105109433D01*
X97768833Y-105109433D01*
X97747666Y-105109433D01*
X97345500Y-105109433D01*
X97329928Y-105109433D01*
X97330172Y-105088267D01*
X97343911Y-105088267D01*
X97747666Y-105088267D01*
X97767244Y-105088267D01*
X98171000Y-105088267D01*
X98171000Y-104686100D01*
X98192166Y-104686100D01*
X98192166Y-105068187D01*
X98253444Y-105036499D01*
X98317494Y-105011344D01*
X98390670Y-104992880D01*
X98396319Y-104991938D01*
X98466488Y-104989124D01*
X98530065Y-104999278D01*
X98536125Y-105001392D01*
X98594333Y-105023719D01*
X98594333Y-104686100D01*
X98615500Y-104686100D01*
X98615500Y-104858391D01*
X98618002Y-104957265D01*
X98630330Y-105022596D01*
X98659716Y-105061345D01*
X98713389Y-105080473D01*
X98798581Y-105086940D01*
X98853625Y-105087593D01*
X99017666Y-105088267D01*
X99017666Y-104686100D01*
X99038833Y-104686100D01*
X99038833Y-105088267D01*
X99419833Y-105088267D01*
X99419833Y-104686100D01*
X99462166Y-104686100D01*
X99462166Y-105088267D01*
X99864333Y-105088267D01*
X99885500Y-105088267D01*
X100289255Y-105088267D01*
X100308833Y-105088267D01*
X100712588Y-105088267D01*
X100700416Y-104696683D01*
X100504625Y-104690597D01*
X100359953Y-104686100D01*
X100753333Y-104686100D01*
X100753333Y-105088267D01*
X101134333Y-105088267D01*
X101134333Y-104686100D01*
X101176666Y-104686100D01*
X101176666Y-105088267D01*
X101557666Y-105088267D01*
X101557666Y-104686100D01*
X101176666Y-104686100D01*
X101134333Y-104686100D01*
X100753333Y-104686100D01*
X100359953Y-104686100D01*
X100308833Y-104684511D01*
X100308833Y-105088267D01*
X100289255Y-105088267D01*
X100277083Y-104696683D01*
X100081291Y-104690597D01*
X99885500Y-104684511D01*
X99885500Y-105088267D01*
X99864333Y-105088267D01*
X99864333Y-104686100D01*
X99462166Y-104686100D01*
X99419833Y-104686100D01*
X99038833Y-104686100D01*
X99017666Y-104686100D01*
X98615500Y-104686100D01*
X98594333Y-104686100D01*
X98192166Y-104686100D01*
X98171000Y-104686100D01*
X98171000Y-104684511D01*
X97779416Y-104696683D01*
X97767244Y-105088267D01*
X97747666Y-105088267D01*
X97747666Y-104684511D01*
X97551875Y-104690597D01*
X97356083Y-104696683D01*
X97343911Y-105088267D01*
X97330172Y-105088267D01*
X97334916Y-104675517D01*
X98377375Y-104670025D01*
X99419833Y-104664534D01*
X99419833Y-104516567D01*
X99422633Y-104440637D01*
X99430137Y-104388180D01*
X99440998Y-104368600D01*
X99441000Y-104368600D01*
X99451861Y-104388175D01*
D13*
X115911207Y-100896400D02*
X117111207Y-100896400D01*
X117111207Y-102656400D02*
X115911207Y-102656400D01*
X117097400Y-105006400D02*
X115897400Y-105006400D01*
X115897400Y-103246400D02*
X117097400Y-103246400D01*
X129398600Y-100625000D02*
X126948600Y-100625000D01*
X127598600Y-103845000D02*
X129398600Y-103845000D01*
X114350000Y-111650000D02*
X114350000Y-112650000D01*
X116050000Y-112650000D02*
X116050000Y-111650000D01*
D10*
X126263447Y-105644190D02*
X126263447Y-106048952D01*
X126287257Y-106096571D01*
X126311066Y-106120380D01*
X126358685Y-106144190D01*
X126453923Y-106144190D01*
X126501542Y-106120380D01*
X126525352Y-106096571D01*
X126549161Y-106048952D01*
X126549161Y-105644190D01*
X127049161Y-106144190D02*
X126763447Y-106144190D01*
X126906304Y-106144190D02*
X126906304Y-105644190D01*
X126858685Y-105715619D01*
X126811066Y-105763238D01*
X126763447Y-105787047D01*
X127532771Y-106001333D02*
X127770866Y-106001333D01*
X127485152Y-106144190D02*
X127651819Y-105644190D01*
X127818485Y-106144190D01*
X127985152Y-106144190D02*
X127985152Y-105644190D01*
X128104200Y-105644190D01*
X128175628Y-105668000D01*
X128223247Y-105715619D01*
X128247057Y-105763238D01*
X128270866Y-105858476D01*
X128270866Y-105929904D01*
X128247057Y-106025142D01*
X128223247Y-106072761D01*
X128175628Y-106120380D01*
X128104200Y-106144190D01*
X127985152Y-106144190D01*
X128508961Y-106144190D02*
X128604200Y-106144190D01*
X128651819Y-106120380D01*
X128675628Y-106096571D01*
X128723247Y-106025142D01*
X128747057Y-105929904D01*
X128747057Y-105739428D01*
X128723247Y-105691809D01*
X128699438Y-105668000D01*
X128651819Y-105644190D01*
X128556580Y-105644190D01*
X128508961Y-105668000D01*
X128485152Y-105691809D01*
X128461342Y-105739428D01*
X128461342Y-105858476D01*
X128485152Y-105906095D01*
X128508961Y-105929904D01*
X128556580Y-105953714D01*
X128651819Y-105953714D01*
X128699438Y-105929904D01*
X128723247Y-105906095D01*
X128747057Y-105858476D01*
X129032771Y-105858476D02*
X128985152Y-105834666D01*
X128961342Y-105810857D01*
X128937533Y-105763238D01*
X128937533Y-105739428D01*
X128961342Y-105691809D01*
X128985152Y-105668000D01*
X129032771Y-105644190D01*
X129128009Y-105644190D01*
X129175628Y-105668000D01*
X129199438Y-105691809D01*
X129223247Y-105739428D01*
X129223247Y-105763238D01*
X129199438Y-105810857D01*
X129175628Y-105834666D01*
X129128009Y-105858476D01*
X129032771Y-105858476D01*
X128985152Y-105882285D01*
X128961342Y-105906095D01*
X128937533Y-105953714D01*
X128937533Y-106048952D01*
X128961342Y-106096571D01*
X128985152Y-106120380D01*
X129032771Y-106144190D01*
X129128009Y-106144190D01*
X129175628Y-106120380D01*
X129199438Y-106096571D01*
X129223247Y-106048952D01*
X129223247Y-105953714D01*
X129199438Y-105906095D01*
X129175628Y-105882285D01*
X129128009Y-105858476D01*
X129389914Y-105644190D02*
X129699438Y-105644190D01*
X129532771Y-105834666D01*
X129604200Y-105834666D01*
X129651819Y-105858476D01*
X129675628Y-105882285D01*
X129699438Y-105929904D01*
X129699438Y-106048952D01*
X129675628Y-106096571D01*
X129651819Y-106120380D01*
X129604200Y-106144190D01*
X129461342Y-106144190D01*
X129413723Y-106120380D01*
X129389914Y-106096571D01*
X129866104Y-105644190D02*
X130175628Y-105644190D01*
X130008961Y-105834666D01*
X130080390Y-105834666D01*
X130128009Y-105858476D01*
X130151819Y-105882285D01*
X130175628Y-105929904D01*
X130175628Y-106048952D01*
X130151819Y-106096571D01*
X130128009Y-106120380D01*
X130080390Y-106144190D01*
X129937533Y-106144190D01*
X129889914Y-106120380D01*
X129866104Y-106096571D01*
X102992666Y-109208571D02*
X102968857Y-109232380D01*
X102897428Y-109256190D01*
X102849809Y-109256190D01*
X102778380Y-109232380D01*
X102730761Y-109184761D01*
X102706952Y-109137142D01*
X102683142Y-109041904D01*
X102683142Y-108970476D01*
X102706952Y-108875238D01*
X102730761Y-108827619D01*
X102778380Y-108780000D01*
X102849809Y-108756190D01*
X102897428Y-108756190D01*
X102968857Y-108780000D01*
X102992666Y-108803809D01*
X103445047Y-108756190D02*
X103206952Y-108756190D01*
X103183142Y-108994285D01*
X103206952Y-108970476D01*
X103254571Y-108946666D01*
X103373619Y-108946666D01*
X103421238Y-108970476D01*
X103445047Y-108994285D01*
X103468857Y-109041904D01*
X103468857Y-109160952D01*
X103445047Y-109208571D01*
X103421238Y-109232380D01*
X103373619Y-109256190D01*
X103254571Y-109256190D01*
X103206952Y-109232380D01*
X103183142Y-109208571D01*
X102905476Y-107867190D02*
X102953095Y-107867190D01*
X103000714Y-107891000D01*
X103024523Y-107914809D01*
X103048333Y-107962428D01*
X103072142Y-108057666D01*
X103072142Y-108176714D01*
X103048333Y-108271952D01*
X103024523Y-108319571D01*
X103000714Y-108343380D01*
X102953095Y-108367190D01*
X102905476Y-108367190D01*
X102857857Y-108343380D01*
X102834047Y-108319571D01*
X102810238Y-108271952D01*
X102786428Y-108176714D01*
X102786428Y-108057666D01*
X102810238Y-107962428D01*
X102834047Y-107914809D01*
X102857857Y-107891000D01*
X102905476Y-107867190D01*
X103286428Y-108319571D02*
X103310238Y-108343380D01*
X103286428Y-108367190D01*
X103262619Y-108343380D01*
X103286428Y-108319571D01*
X103286428Y-108367190D01*
X103619761Y-107867190D02*
X103667380Y-107867190D01*
X103715000Y-107891000D01*
X103738809Y-107914809D01*
X103762619Y-107962428D01*
X103786428Y-108057666D01*
X103786428Y-108176714D01*
X103762619Y-108271952D01*
X103738809Y-108319571D01*
X103715000Y-108343380D01*
X103667380Y-108367190D01*
X103619761Y-108367190D01*
X103572142Y-108343380D01*
X103548333Y-108319571D01*
X103524523Y-108271952D01*
X103500714Y-108176714D01*
X103500714Y-108057666D01*
X103524523Y-107962428D01*
X103548333Y-107914809D01*
X103572142Y-107891000D01*
X103619761Y-107867190D01*
X104262619Y-108367190D02*
X103976904Y-108367190D01*
X104119761Y-108367190D02*
X104119761Y-107867190D01*
X104072142Y-107938619D01*
X104024523Y-107986238D01*
X103976904Y-108010047D01*
X104691190Y-108033857D02*
X104691190Y-108367190D01*
X104476904Y-108033857D02*
X104476904Y-108295761D01*
X104500714Y-108343380D01*
X104548333Y-108367190D01*
X104619761Y-108367190D01*
X104667380Y-108343380D01*
X104691190Y-108319571D01*
X105095952Y-108105285D02*
X104929285Y-108105285D01*
X104929285Y-108367190D02*
X104929285Y-107867190D01*
X105167380Y-107867190D01*
X121023866Y-109954190D02*
X120785771Y-109954190D01*
X120785771Y-109454190D01*
X121452438Y-109954190D02*
X121166723Y-109954190D01*
X121309580Y-109954190D02*
X121309580Y-109454190D01*
X121261961Y-109525619D01*
X121214342Y-109573238D01*
X121166723Y-109597047D01*
X120820666Y-115034190D02*
X120582571Y-115034190D01*
X120582571Y-114534190D01*
X120963523Y-114581809D02*
X120987333Y-114558000D01*
X121034952Y-114534190D01*
X121154000Y-114534190D01*
X121201619Y-114558000D01*
X121225428Y-114581809D01*
X121249238Y-114629428D01*
X121249238Y-114677047D01*
X121225428Y-114748476D01*
X120939714Y-115034190D01*
X121249238Y-115034190D01*
X144486333Y-99548190D02*
X144486333Y-99905333D01*
X144462523Y-99976761D01*
X144414904Y-100024380D01*
X144343476Y-100048190D01*
X144295857Y-100048190D01*
X144938714Y-99548190D02*
X144843476Y-99548190D01*
X144795857Y-99572000D01*
X144772047Y-99595809D01*
X144724428Y-99667238D01*
X144700619Y-99762476D01*
X144700619Y-99952952D01*
X144724428Y-100000571D01*
X144748238Y-100024380D01*
X144795857Y-100048190D01*
X144891095Y-100048190D01*
X144938714Y-100024380D01*
X144962523Y-100000571D01*
X144986333Y-99952952D01*
X144986333Y-99833904D01*
X144962523Y-99786285D01*
X144938714Y-99762476D01*
X144891095Y-99738666D01*
X144795857Y-99738666D01*
X144748238Y-99762476D01*
X144724428Y-99786285D01*
X144700619Y-99833904D01*
X141482190Y-100310190D02*
X141601238Y-100810190D01*
X141696476Y-100453047D01*
X141791714Y-100810190D01*
X141910761Y-100310190D01*
X142077428Y-100667333D02*
X142315523Y-100667333D01*
X142029809Y-100810190D02*
X142196476Y-100310190D01*
X142363142Y-100810190D01*
X142458380Y-100310190D02*
X142625047Y-100810190D01*
X142791714Y-100310190D01*
X142958380Y-100548285D02*
X143125047Y-100548285D01*
X143196476Y-100810190D02*
X142958380Y-100810190D01*
X142958380Y-100310190D01*
X143196476Y-100310190D01*
X143291714Y-100857809D02*
X143672666Y-100857809D01*
X143886952Y-100310190D02*
X143982190Y-100310190D01*
X144029809Y-100334000D01*
X144077428Y-100381619D01*
X144101238Y-100476857D01*
X144101238Y-100643523D01*
X144077428Y-100738761D01*
X144029809Y-100786380D01*
X143982190Y-100810190D01*
X143886952Y-100810190D01*
X143839333Y-100786380D01*
X143791714Y-100738761D01*
X143767904Y-100643523D01*
X143767904Y-100476857D01*
X143791714Y-100381619D01*
X143839333Y-100334000D01*
X143886952Y-100310190D01*
X144315523Y-100310190D02*
X144315523Y-100714952D01*
X144339333Y-100762571D01*
X144363142Y-100786380D01*
X144410761Y-100810190D01*
X144506000Y-100810190D01*
X144553619Y-100786380D01*
X144577428Y-100762571D01*
X144601238Y-100714952D01*
X144601238Y-100310190D01*
X144767904Y-100310190D02*
X145053619Y-100310190D01*
X144910761Y-100810190D02*
X144910761Y-100310190D01*
X135592380Y-107414190D02*
X135425714Y-107176095D01*
X135306666Y-107414190D02*
X135306666Y-106914190D01*
X135497142Y-106914190D01*
X135544761Y-106938000D01*
X135568571Y-106961809D01*
X135592380Y-107009428D01*
X135592380Y-107080857D01*
X135568571Y-107128476D01*
X135544761Y-107152285D01*
X135497142Y-107176095D01*
X135306666Y-107176095D01*
X135735238Y-106914190D02*
X135901904Y-107414190D01*
X136068571Y-106914190D01*
X136497142Y-107414190D02*
X136211428Y-107414190D01*
X136354285Y-107414190D02*
X136354285Y-106914190D01*
X136306666Y-106985619D01*
X136259047Y-107033238D01*
X136211428Y-107057047D01*
X136798952Y-106961809D02*
X136822761Y-106938000D01*
X136870380Y-106914190D01*
X136989428Y-106914190D01*
X137037047Y-106938000D01*
X137060857Y-106961809D01*
X137084666Y-107009428D01*
X137084666Y-107057047D01*
X137060857Y-107128476D01*
X136775142Y-107414190D01*
X137084666Y-107414190D01*
X137394190Y-106914190D02*
X137441809Y-106914190D01*
X137489428Y-106938000D01*
X137513238Y-106961809D01*
X137537047Y-107009428D01*
X137560857Y-107104666D01*
X137560857Y-107223714D01*
X137537047Y-107318952D01*
X137513238Y-107366571D01*
X137489428Y-107390380D01*
X137441809Y-107414190D01*
X137394190Y-107414190D01*
X137346571Y-107390380D01*
X137322761Y-107366571D01*
X137298952Y-107318952D01*
X137275142Y-107223714D01*
X137275142Y-107104666D01*
X137298952Y-107009428D01*
X137322761Y-106961809D01*
X137346571Y-106938000D01*
X137394190Y-106914190D01*
X137870380Y-106914190D02*
X137918000Y-106914190D01*
X137965619Y-106938000D01*
X137989428Y-106961809D01*
X138013238Y-107009428D01*
X138037047Y-107104666D01*
X138037047Y-107223714D01*
X138013238Y-107318952D01*
X137989428Y-107366571D01*
X137965619Y-107390380D01*
X137918000Y-107414190D01*
X137870380Y-107414190D01*
X137822761Y-107390380D01*
X137798952Y-107366571D01*
X137775142Y-107318952D01*
X137751333Y-107223714D01*
X137751333Y-107104666D01*
X137775142Y-107009428D01*
X137798952Y-106961809D01*
X137822761Y-106938000D01*
X137870380Y-106914190D01*
X138251333Y-107414190D02*
X138251333Y-106914190D01*
X138537047Y-107414190D02*
X138322761Y-107128476D01*
X138537047Y-106914190D02*
X138251333Y-107199904D01*
X109245238Y-104769190D02*
X109578571Y-105269190D01*
X109578571Y-104769190D02*
X109245238Y-105269190D01*
X110030952Y-105269190D02*
X109745238Y-105269190D01*
X109888095Y-105269190D02*
X109888095Y-104769190D01*
X109840476Y-104840619D01*
X109792857Y-104888238D01*
X109745238Y-104912047D01*
D12*
X106440476Y-105998666D02*
X106630952Y-105998666D01*
X106402380Y-106112952D02*
X106535714Y-105712952D01*
X106669047Y-106112952D01*
X106783333Y-106093904D02*
X106840476Y-106112952D01*
X106935714Y-106112952D01*
X106973809Y-106093904D01*
X106992857Y-106074857D01*
X107011904Y-106036761D01*
X107011904Y-105998666D01*
X106992857Y-105960571D01*
X106973809Y-105941523D01*
X106935714Y-105922476D01*
X106859523Y-105903428D01*
X106821428Y-105884380D01*
X106802380Y-105865333D01*
X106783333Y-105827238D01*
X106783333Y-105789142D01*
X106802380Y-105751047D01*
X106821428Y-105732000D01*
X106859523Y-105712952D01*
X106954761Y-105712952D01*
X107011904Y-105732000D01*
X107126190Y-105712952D02*
X107259523Y-106112952D01*
X107392857Y-105712952D01*
X107526190Y-105960571D02*
X107830952Y-105960571D01*
X108002380Y-105751047D02*
X108021428Y-105732000D01*
X108059523Y-105712952D01*
X108154761Y-105712952D01*
X108192857Y-105732000D01*
X108211904Y-105751047D01*
X108230952Y-105789142D01*
X108230952Y-105827238D01*
X108211904Y-105884380D01*
X107983333Y-106112952D01*
X108230952Y-106112952D01*
X108592857Y-105712952D02*
X108402380Y-105712952D01*
X108383333Y-105903428D01*
X108402380Y-105884380D01*
X108440476Y-105865333D01*
X108535714Y-105865333D01*
X108573809Y-105884380D01*
X108592857Y-105903428D01*
X108611904Y-105941523D01*
X108611904Y-106036761D01*
X108592857Y-106074857D01*
X108573809Y-106093904D01*
X108535714Y-106112952D01*
X108440476Y-106112952D01*
X108402380Y-106093904D01*
X108383333Y-106074857D01*
X108783333Y-106074857D02*
X108802380Y-106093904D01*
X108783333Y-106112952D01*
X108764285Y-106093904D01*
X108783333Y-106074857D01*
X108783333Y-106112952D01*
X109050000Y-105712952D02*
X109088095Y-105712952D01*
X109126190Y-105732000D01*
X109145238Y-105751047D01*
X109164285Y-105789142D01*
X109183333Y-105865333D01*
X109183333Y-105960571D01*
X109164285Y-106036761D01*
X109145238Y-106074857D01*
X109126190Y-106093904D01*
X109088095Y-106112952D01*
X109050000Y-106112952D01*
X109011904Y-106093904D01*
X108992857Y-106074857D01*
X108973809Y-106036761D01*
X108954761Y-105960571D01*
X108954761Y-105865333D01*
X108973809Y-105789142D01*
X108992857Y-105751047D01*
X109011904Y-105732000D01*
X109050000Y-105712952D01*
X109430952Y-105712952D02*
X109469047Y-105712952D01*
X109507142Y-105732000D01*
X109526190Y-105751047D01*
X109545238Y-105789142D01*
X109564285Y-105865333D01*
X109564285Y-105960571D01*
X109545238Y-106036761D01*
X109526190Y-106074857D01*
X109507142Y-106093904D01*
X109469047Y-106112952D01*
X109430952Y-106112952D01*
X109392857Y-106093904D01*
X109373809Y-106074857D01*
X109354761Y-106036761D01*
X109335714Y-105960571D01*
X109335714Y-105865333D01*
X109354761Y-105789142D01*
X109373809Y-105751047D01*
X109392857Y-105732000D01*
X109430952Y-105712952D01*
X109811904Y-105712952D02*
X109850000Y-105712952D01*
X109888095Y-105732000D01*
X109907142Y-105751047D01*
X109926190Y-105789142D01*
X109945238Y-105865333D01*
X109945238Y-105960571D01*
X109926190Y-106036761D01*
X109907142Y-106074857D01*
X109888095Y-106093904D01*
X109850000Y-106112952D01*
X109811904Y-106112952D01*
X109773809Y-106093904D01*
X109754761Y-106074857D01*
X109735714Y-106036761D01*
X109716666Y-105960571D01*
X109716666Y-105865333D01*
X109735714Y-105789142D01*
X109754761Y-105751047D01*
X109773809Y-105732000D01*
X109811904Y-105712952D01*
X110116666Y-106112952D02*
X110116666Y-105712952D01*
X110250000Y-105998666D01*
X110383333Y-105712952D01*
X110383333Y-106112952D01*
X110573809Y-106112952D02*
X110573809Y-105712952D01*
X110573809Y-105903428D02*
X110802380Y-105903428D01*
X110802380Y-106112952D02*
X110802380Y-105712952D01*
X110954761Y-105712952D02*
X111221428Y-105712952D01*
X110954761Y-106112952D01*
X111221428Y-106112952D01*
X111373809Y-105960571D02*
X111678571Y-105960571D01*
X111869047Y-105903428D02*
X112002380Y-105903428D01*
X112059523Y-106112952D02*
X111869047Y-106112952D01*
X111869047Y-105712952D01*
X112059523Y-105712952D01*
X112230952Y-105960571D02*
X112535714Y-105960571D01*
X112669047Y-105712952D02*
X112897619Y-105712952D01*
X112783333Y-106112952D02*
X112783333Y-105712952D01*
D10*
X136790952Y-114907190D02*
X136790952Y-114407190D01*
X136910000Y-114407190D01*
X136981428Y-114431000D01*
X137029047Y-114478619D01*
X137052857Y-114526238D01*
X137076666Y-114621476D01*
X137076666Y-114692904D01*
X137052857Y-114788142D01*
X137029047Y-114835761D01*
X136981428Y-114883380D01*
X136910000Y-114907190D01*
X136790952Y-114907190D01*
X137552857Y-114907190D02*
X137267142Y-114907190D01*
X137410000Y-114907190D02*
X137410000Y-114407190D01*
X137362380Y-114478619D01*
X137314761Y-114526238D01*
X137267142Y-114550047D01*
X134250952Y-114907190D02*
X134250952Y-114407190D01*
X134370000Y-114407190D01*
X134441428Y-114431000D01*
X134489047Y-114478619D01*
X134512857Y-114526238D01*
X134536666Y-114621476D01*
X134536666Y-114692904D01*
X134512857Y-114788142D01*
X134489047Y-114835761D01*
X134441428Y-114883380D01*
X134370000Y-114907190D01*
X134250952Y-114907190D01*
X134846190Y-114407190D02*
X134893809Y-114407190D01*
X134941428Y-114431000D01*
X134965238Y-114454809D01*
X134989047Y-114502428D01*
X135012857Y-114597666D01*
X135012857Y-114716714D01*
X134989047Y-114811952D01*
X134965238Y-114859571D01*
X134941428Y-114883380D01*
X134893809Y-114907190D01*
X134846190Y-114907190D01*
X134798571Y-114883380D01*
X134774761Y-114859571D01*
X134750952Y-114811952D01*
X134727142Y-114716714D01*
X134727142Y-114597666D01*
X134750952Y-114502428D01*
X134774761Y-114454809D01*
X134798571Y-114431000D01*
X134846190Y-114407190D01*
X101326190Y-115542190D02*
X101159523Y-115304095D01*
X101040476Y-115542190D02*
X101040476Y-115042190D01*
X101230952Y-115042190D01*
X101278571Y-115066000D01*
X101302380Y-115089809D01*
X101326190Y-115137428D01*
X101326190Y-115208857D01*
X101302380Y-115256476D01*
X101278571Y-115280285D01*
X101230952Y-115304095D01*
X101040476Y-115304095D01*
X101516666Y-115518380D02*
X101588095Y-115542190D01*
X101707142Y-115542190D01*
X101754761Y-115518380D01*
X101778571Y-115494571D01*
X101802380Y-115446952D01*
X101802380Y-115399333D01*
X101778571Y-115351714D01*
X101754761Y-115327904D01*
X101707142Y-115304095D01*
X101611904Y-115280285D01*
X101564285Y-115256476D01*
X101540476Y-115232666D01*
X101516666Y-115185047D01*
X101516666Y-115137428D01*
X101540476Y-115089809D01*
X101564285Y-115066000D01*
X101611904Y-115042190D01*
X101730952Y-115042190D01*
X101802380Y-115066000D01*
X101945238Y-115042190D02*
X102230952Y-115042190D01*
X102088095Y-115542190D02*
X102088095Y-115042190D01*
X103759047Y-115042190D02*
X104068571Y-115042190D01*
X103901904Y-115232666D01*
X103973333Y-115232666D01*
X104020952Y-115256476D01*
X104044761Y-115280285D01*
X104068571Y-115327904D01*
X104068571Y-115446952D01*
X104044761Y-115494571D01*
X104020952Y-115518380D01*
X103973333Y-115542190D01*
X103830476Y-115542190D01*
X103782857Y-115518380D01*
X103759047Y-115494571D01*
X104211428Y-115042190D02*
X104378095Y-115542190D01*
X104544761Y-115042190D01*
X105870476Y-115399333D02*
X106108571Y-115399333D01*
X105822857Y-115542190D02*
X105989523Y-115042190D01*
X106156190Y-115542190D01*
X106608571Y-115542190D02*
X106441904Y-115304095D01*
X106322857Y-115542190D02*
X106322857Y-115042190D01*
X106513333Y-115042190D01*
X106560952Y-115066000D01*
X106584761Y-115089809D01*
X106608571Y-115137428D01*
X106608571Y-115208857D01*
X106584761Y-115256476D01*
X106560952Y-115280285D01*
X106513333Y-115304095D01*
X106322857Y-115304095D01*
X106822857Y-115280285D02*
X106989523Y-115280285D01*
X107060952Y-115542190D02*
X106822857Y-115542190D01*
X106822857Y-115042190D01*
X107060952Y-115042190D01*
X107441904Y-115280285D02*
X107275238Y-115280285D01*
X107275238Y-115542190D02*
X107275238Y-115042190D01*
X107513333Y-115042190D01*
X108839047Y-115066000D02*
X108791428Y-115042190D01*
X108720000Y-115042190D01*
X108648571Y-115066000D01*
X108600952Y-115113619D01*
X108577142Y-115161238D01*
X108553333Y-115256476D01*
X108553333Y-115327904D01*
X108577142Y-115423142D01*
X108600952Y-115470761D01*
X108648571Y-115518380D01*
X108720000Y-115542190D01*
X108767619Y-115542190D01*
X108839047Y-115518380D01*
X108862857Y-115494571D01*
X108862857Y-115327904D01*
X108767619Y-115327904D01*
X109077142Y-115542190D02*
X109077142Y-115042190D01*
X109362857Y-115542190D01*
X109362857Y-115042190D01*
X109600952Y-115542190D02*
X109600952Y-115042190D01*
X109720000Y-115042190D01*
X109791428Y-115066000D01*
X109839047Y-115113619D01*
X109862857Y-115161238D01*
X109886666Y-115256476D01*
X109886666Y-115327904D01*
X109862857Y-115423142D01*
X109839047Y-115470761D01*
X109791428Y-115518380D01*
X109720000Y-115542190D01*
X109600952Y-115542190D01*
X111176666Y-115351714D02*
X111200476Y-115327904D01*
X111248095Y-115304095D01*
X111343333Y-115351714D01*
X111390952Y-115327904D01*
X111414761Y-115304095D01*
X111581428Y-115399333D02*
X111819523Y-115399333D01*
X111533809Y-115542190D02*
X111700476Y-115042190D01*
X111867142Y-115542190D01*
X112129047Y-115042190D02*
X112176666Y-115042190D01*
X112224285Y-115066000D01*
X112248095Y-115089809D01*
X112271904Y-115137428D01*
X112295714Y-115232666D01*
X112295714Y-115351714D01*
X112271904Y-115446952D01*
X112248095Y-115494571D01*
X112224285Y-115518380D01*
X112176666Y-115542190D01*
X112129047Y-115542190D01*
X112081428Y-115518380D01*
X112057619Y-115494571D01*
X112033809Y-115446952D01*
X112010000Y-115351714D01*
X112010000Y-115232666D01*
X112033809Y-115137428D01*
X112057619Y-115089809D01*
X112081428Y-115066000D01*
X112129047Y-115042190D01*
X113716666Y-115351714D02*
X113740476Y-115327904D01*
X113788095Y-115304095D01*
X113883333Y-115351714D01*
X113930952Y-115327904D01*
X113954761Y-115304095D01*
X114121428Y-115399333D02*
X114359523Y-115399333D01*
X114073809Y-115542190D02*
X114240476Y-115042190D01*
X114407142Y-115542190D01*
X114835714Y-115542190D02*
X114550000Y-115542190D01*
X114692857Y-115542190D02*
X114692857Y-115042190D01*
X114645238Y-115113619D01*
X114597619Y-115161238D01*
X114550000Y-115185047D01*
X116482857Y-115399333D02*
X116720952Y-115399333D01*
X116435238Y-115542190D02*
X116601904Y-115042190D01*
X116768571Y-115542190D01*
X116911428Y-115089809D02*
X116935238Y-115066000D01*
X116982857Y-115042190D01*
X117101904Y-115042190D01*
X117149523Y-115066000D01*
X117173333Y-115089809D01*
X117197142Y-115137428D01*
X117197142Y-115185047D01*
X117173333Y-115256476D01*
X116887619Y-115542190D01*
X117197142Y-115542190D01*
X121562857Y-115399333D02*
X121800952Y-115399333D01*
X121515238Y-115542190D02*
X121681904Y-115042190D01*
X121848571Y-115542190D01*
X122229523Y-115208857D02*
X122229523Y-115542190D01*
X122110476Y-115018380D02*
X121991428Y-115375523D01*
X122300952Y-115375523D01*
X124102857Y-115399333D02*
X124340952Y-115399333D01*
X124055238Y-115542190D02*
X124221904Y-115042190D01*
X124388571Y-115542190D01*
X124793333Y-115042190D02*
X124555238Y-115042190D01*
X124531428Y-115280285D01*
X124555238Y-115256476D01*
X124602857Y-115232666D01*
X124721904Y-115232666D01*
X124769523Y-115256476D01*
X124793333Y-115280285D01*
X124817142Y-115327904D01*
X124817142Y-115446952D01*
X124793333Y-115494571D01*
X124769523Y-115518380D01*
X124721904Y-115542190D01*
X124602857Y-115542190D01*
X124555238Y-115518380D01*
X124531428Y-115494571D01*
X119022857Y-115399333D02*
X119260952Y-115399333D01*
X118975238Y-115542190D02*
X119141904Y-115042190D01*
X119308571Y-115542190D01*
X119427619Y-115042190D02*
X119737142Y-115042190D01*
X119570476Y-115232666D01*
X119641904Y-115232666D01*
X119689523Y-115256476D01*
X119713333Y-115280285D01*
X119737142Y-115327904D01*
X119737142Y-115446952D01*
X119713333Y-115494571D01*
X119689523Y-115518380D01*
X119641904Y-115542190D01*
X119499047Y-115542190D01*
X119451428Y-115518380D01*
X119427619Y-115494571D01*
X126357142Y-115518380D02*
X126428571Y-115542190D01*
X126547619Y-115542190D01*
X126595238Y-115518380D01*
X126619047Y-115494571D01*
X126642857Y-115446952D01*
X126642857Y-115399333D01*
X126619047Y-115351714D01*
X126595238Y-115327904D01*
X126547619Y-115304095D01*
X126452380Y-115280285D01*
X126404761Y-115256476D01*
X126380952Y-115232666D01*
X126357142Y-115185047D01*
X126357142Y-115137428D01*
X126380952Y-115089809D01*
X126404761Y-115066000D01*
X126452380Y-115042190D01*
X126571428Y-115042190D01*
X126642857Y-115066000D01*
X127142857Y-115494571D02*
X127119047Y-115518380D01*
X127047619Y-115542190D01*
X127000000Y-115542190D01*
X126928571Y-115518380D01*
X126880952Y-115470761D01*
X126857142Y-115423142D01*
X126833333Y-115327904D01*
X126833333Y-115256476D01*
X126857142Y-115161238D01*
X126880952Y-115113619D01*
X126928571Y-115066000D01*
X127000000Y-115042190D01*
X127047619Y-115042190D01*
X127119047Y-115066000D01*
X127142857Y-115089809D01*
X127357142Y-115542190D02*
X127357142Y-115042190D01*
X127642857Y-115542190D02*
X127428571Y-115256476D01*
X127642857Y-115042190D02*
X127357142Y-115327904D01*
X131794285Y-115542190D02*
X131794285Y-115042190D01*
X131960952Y-115399333D01*
X132127619Y-115042190D01*
X132127619Y-115542190D01*
X132365714Y-115542190D02*
X132365714Y-115042190D01*
X129111428Y-115542190D02*
X129111428Y-115042190D01*
X129278095Y-115399333D01*
X129444761Y-115042190D01*
X129444761Y-115542190D01*
X129778095Y-115042190D02*
X129873333Y-115042190D01*
X129920952Y-115066000D01*
X129968571Y-115113619D01*
X129992380Y-115208857D01*
X129992380Y-115375523D01*
X129968571Y-115470761D01*
X129920952Y-115518380D01*
X129873333Y-115542190D01*
X129778095Y-115542190D01*
X129730476Y-115518380D01*
X129682857Y-115470761D01*
X129659047Y-115375523D01*
X129659047Y-115208857D01*
X129682857Y-115113619D01*
X129730476Y-115066000D01*
X129778095Y-115042190D01*
X134536666Y-115542190D02*
X134370000Y-115304095D01*
X134250952Y-115542190D02*
X134250952Y-115042190D01*
X134441428Y-115042190D01*
X134489047Y-115066000D01*
X134512857Y-115089809D01*
X134536666Y-115137428D01*
X134536666Y-115208857D01*
X134512857Y-115256476D01*
X134489047Y-115280285D01*
X134441428Y-115304095D01*
X134250952Y-115304095D01*
X134703333Y-115042190D02*
X135036666Y-115542190D01*
X135036666Y-115042190D02*
X134703333Y-115542190D01*
X118772857Y-98270190D02*
X118772857Y-97770190D01*
X118891904Y-97770190D01*
X118963333Y-97794000D01*
X119010952Y-97841619D01*
X119034761Y-97889238D01*
X119058571Y-97984476D01*
X119058571Y-98055904D01*
X119034761Y-98151142D01*
X119010952Y-98198761D01*
X118963333Y-98246380D01*
X118891904Y-98270190D01*
X118772857Y-98270190D01*
X119534761Y-98270190D02*
X119249047Y-98270190D01*
X119391904Y-98270190D02*
X119391904Y-97770190D01*
X119344285Y-97841619D01*
X119296666Y-97889238D01*
X119249047Y-97913047D01*
X119701428Y-97770190D02*
X120010952Y-97770190D01*
X119844285Y-97960666D01*
X119915714Y-97960666D01*
X119963333Y-97984476D01*
X119987142Y-98008285D01*
X120010952Y-98055904D01*
X120010952Y-98174952D01*
X119987142Y-98222571D01*
X119963333Y-98246380D01*
X119915714Y-98270190D01*
X119772857Y-98270190D01*
X119725238Y-98246380D01*
X119701428Y-98222571D01*
X123852857Y-98270190D02*
X123852857Y-97770190D01*
X123971904Y-97770190D01*
X124043333Y-97794000D01*
X124090952Y-97841619D01*
X124114761Y-97889238D01*
X124138571Y-97984476D01*
X124138571Y-98055904D01*
X124114761Y-98151142D01*
X124090952Y-98198761D01*
X124043333Y-98246380D01*
X123971904Y-98270190D01*
X123852857Y-98270190D01*
X124614761Y-98270190D02*
X124329047Y-98270190D01*
X124471904Y-98270190D02*
X124471904Y-97770190D01*
X124424285Y-97841619D01*
X124376666Y-97889238D01*
X124329047Y-97913047D01*
X125090952Y-98270190D02*
X124805238Y-98270190D01*
X124948095Y-98270190D02*
X124948095Y-97770190D01*
X124900476Y-97841619D01*
X124852857Y-97889238D01*
X124805238Y-97913047D01*
X126392857Y-98270190D02*
X126392857Y-97770190D01*
X126511904Y-97770190D01*
X126583333Y-97794000D01*
X126630952Y-97841619D01*
X126654761Y-97889238D01*
X126678571Y-97984476D01*
X126678571Y-98055904D01*
X126654761Y-98151142D01*
X126630952Y-98198761D01*
X126583333Y-98246380D01*
X126511904Y-98270190D01*
X126392857Y-98270190D01*
X127154761Y-98270190D02*
X126869047Y-98270190D01*
X127011904Y-98270190D02*
X127011904Y-97770190D01*
X126964285Y-97841619D01*
X126916666Y-97889238D01*
X126869047Y-97913047D01*
X127464285Y-97770190D02*
X127511904Y-97770190D01*
X127559523Y-97794000D01*
X127583333Y-97817809D01*
X127607142Y-97865428D01*
X127630952Y-97960666D01*
X127630952Y-98079714D01*
X127607142Y-98174952D01*
X127583333Y-98222571D01*
X127559523Y-98246380D01*
X127511904Y-98270190D01*
X127464285Y-98270190D01*
X127416666Y-98246380D01*
X127392857Y-98222571D01*
X127369047Y-98174952D01*
X127345238Y-98079714D01*
X127345238Y-97960666D01*
X127369047Y-97865428D01*
X127392857Y-97817809D01*
X127416666Y-97794000D01*
X127464285Y-97770190D01*
X113930952Y-98008285D02*
X114097619Y-98008285D01*
X114169047Y-98270190D02*
X113930952Y-98270190D01*
X113930952Y-97770190D01*
X114169047Y-97770190D01*
X114383333Y-98270190D02*
X114383333Y-97770190D01*
X114669047Y-98270190D01*
X114669047Y-97770190D01*
X116209047Y-97770190D02*
X116209047Y-98174952D01*
X116232857Y-98222571D01*
X116256666Y-98246380D01*
X116304285Y-98270190D01*
X116399523Y-98270190D01*
X116447142Y-98246380D01*
X116470952Y-98222571D01*
X116494761Y-98174952D01*
X116494761Y-97770190D01*
X116709047Y-98246380D02*
X116780476Y-98270190D01*
X116899523Y-98270190D01*
X116947142Y-98246380D01*
X116970952Y-98222571D01*
X116994761Y-98174952D01*
X116994761Y-98127333D01*
X116970952Y-98079714D01*
X116947142Y-98055904D01*
X116899523Y-98032095D01*
X116804285Y-98008285D01*
X116756666Y-97984476D01*
X116732857Y-97960666D01*
X116709047Y-97913047D01*
X116709047Y-97865428D01*
X116732857Y-97817809D01*
X116756666Y-97794000D01*
X116804285Y-97770190D01*
X116923333Y-97770190D01*
X116994761Y-97794000D01*
X117375714Y-98008285D02*
X117447142Y-98032095D01*
X117470952Y-98055904D01*
X117494761Y-98103523D01*
X117494761Y-98174952D01*
X117470952Y-98222571D01*
X117447142Y-98246380D01*
X117399523Y-98270190D01*
X117209047Y-98270190D01*
X117209047Y-97770190D01*
X117375714Y-97770190D01*
X117423333Y-97794000D01*
X117447142Y-97817809D01*
X117470952Y-97865428D01*
X117470952Y-97913047D01*
X117447142Y-97960666D01*
X117423333Y-97984476D01*
X117375714Y-98008285D01*
X117209047Y-98008285D01*
X121312857Y-98270190D02*
X121312857Y-97770190D01*
X121431904Y-97770190D01*
X121503333Y-97794000D01*
X121550952Y-97841619D01*
X121574761Y-97889238D01*
X121598571Y-97984476D01*
X121598571Y-98055904D01*
X121574761Y-98151142D01*
X121550952Y-98198761D01*
X121503333Y-98246380D01*
X121431904Y-98270190D01*
X121312857Y-98270190D01*
X122074761Y-98270190D02*
X121789047Y-98270190D01*
X121931904Y-98270190D02*
X121931904Y-97770190D01*
X121884285Y-97841619D01*
X121836666Y-97889238D01*
X121789047Y-97913047D01*
X122265238Y-97817809D02*
X122289047Y-97794000D01*
X122336666Y-97770190D01*
X122455714Y-97770190D01*
X122503333Y-97794000D01*
X122527142Y-97817809D01*
X122550952Y-97865428D01*
X122550952Y-97913047D01*
X122527142Y-97984476D01*
X122241428Y-98270190D01*
X122550952Y-98270190D01*
X111390952Y-98008285D02*
X111462380Y-98032095D01*
X111486190Y-98055904D01*
X111510000Y-98103523D01*
X111510000Y-98174952D01*
X111486190Y-98222571D01*
X111462380Y-98246380D01*
X111414761Y-98270190D01*
X111224285Y-98270190D01*
X111224285Y-97770190D01*
X111390952Y-97770190D01*
X111438571Y-97794000D01*
X111462380Y-97817809D01*
X111486190Y-97865428D01*
X111486190Y-97913047D01*
X111462380Y-97960666D01*
X111438571Y-97984476D01*
X111390952Y-98008285D01*
X111224285Y-98008285D01*
X111700476Y-98127333D02*
X111938571Y-98127333D01*
X111652857Y-98270190D02*
X111819523Y-97770190D01*
X111986190Y-98270190D01*
X112081428Y-97770190D02*
X112367142Y-97770190D01*
X112224285Y-98270190D02*
X112224285Y-97770190D01*
X139092857Y-98246380D02*
X139164285Y-98270190D01*
X139283333Y-98270190D01*
X139330952Y-98246380D01*
X139354761Y-98222571D01*
X139378571Y-98174952D01*
X139378571Y-98127333D01*
X139354761Y-98079714D01*
X139330952Y-98055904D01*
X139283333Y-98032095D01*
X139188095Y-98008285D01*
X139140476Y-97984476D01*
X139116666Y-97960666D01*
X139092857Y-97913047D01*
X139092857Y-97865428D01*
X139116666Y-97817809D01*
X139140476Y-97794000D01*
X139188095Y-97770190D01*
X139307142Y-97770190D01*
X139378571Y-97794000D01*
X139592857Y-98270190D02*
X139592857Y-97770190D01*
X139711904Y-97770190D01*
X139783333Y-97794000D01*
X139830952Y-97841619D01*
X139854761Y-97889238D01*
X139878571Y-97984476D01*
X139878571Y-98055904D01*
X139854761Y-98151142D01*
X139830952Y-98198761D01*
X139783333Y-98246380D01*
X139711904Y-98270190D01*
X139592857Y-98270190D01*
X140069047Y-98127333D02*
X140307142Y-98127333D01*
X140021428Y-98270190D02*
X140188095Y-97770190D01*
X140354761Y-98270190D01*
X136564761Y-98246380D02*
X136636190Y-98270190D01*
X136755238Y-98270190D01*
X136802857Y-98246380D01*
X136826666Y-98222571D01*
X136850476Y-98174952D01*
X136850476Y-98127333D01*
X136826666Y-98079714D01*
X136802857Y-98055904D01*
X136755238Y-98032095D01*
X136660000Y-98008285D01*
X136612380Y-97984476D01*
X136588571Y-97960666D01*
X136564761Y-97913047D01*
X136564761Y-97865428D01*
X136588571Y-97817809D01*
X136612380Y-97794000D01*
X136660000Y-97770190D01*
X136779047Y-97770190D01*
X136850476Y-97794000D01*
X137350476Y-98222571D02*
X137326666Y-98246380D01*
X137255238Y-98270190D01*
X137207619Y-98270190D01*
X137136190Y-98246380D01*
X137088571Y-98198761D01*
X137064761Y-98151142D01*
X137040952Y-98055904D01*
X137040952Y-97984476D01*
X137064761Y-97889238D01*
X137088571Y-97841619D01*
X137136190Y-97794000D01*
X137207619Y-97770190D01*
X137255238Y-97770190D01*
X137326666Y-97794000D01*
X137350476Y-97817809D01*
X137802857Y-98270190D02*
X137564761Y-98270190D01*
X137564761Y-97770190D01*
X131710952Y-98219390D02*
X131710952Y-97719390D01*
X131830000Y-97719390D01*
X131901428Y-97743200D01*
X131949047Y-97790819D01*
X131972857Y-97838438D01*
X131996666Y-97933676D01*
X131996666Y-98005104D01*
X131972857Y-98100342D01*
X131949047Y-98147961D01*
X131901428Y-98195580D01*
X131830000Y-98219390D01*
X131710952Y-98219390D01*
X132425238Y-97719390D02*
X132330000Y-97719390D01*
X132282380Y-97743200D01*
X132258571Y-97767009D01*
X132210952Y-97838438D01*
X132187142Y-97933676D01*
X132187142Y-98124152D01*
X132210952Y-98171771D01*
X132234761Y-98195580D01*
X132282380Y-98219390D01*
X132377619Y-98219390D01*
X132425238Y-98195580D01*
X132449047Y-98171771D01*
X132472857Y-98124152D01*
X132472857Y-98005104D01*
X132449047Y-97957485D01*
X132425238Y-97933676D01*
X132377619Y-97909866D01*
X132282380Y-97909866D01*
X132234761Y-97933676D01*
X132210952Y-97957485D01*
X132187142Y-98005104D01*
X129170952Y-98270190D02*
X129170952Y-97770190D01*
X129290000Y-97770190D01*
X129361428Y-97794000D01*
X129409047Y-97841619D01*
X129432857Y-97889238D01*
X129456666Y-97984476D01*
X129456666Y-98055904D01*
X129432857Y-98151142D01*
X129409047Y-98198761D01*
X129361428Y-98246380D01*
X129290000Y-98270190D01*
X129170952Y-98270190D01*
X129694761Y-98270190D02*
X129790000Y-98270190D01*
X129837619Y-98246380D01*
X129861428Y-98222571D01*
X129909047Y-98151142D01*
X129932857Y-98055904D01*
X129932857Y-97865428D01*
X129909047Y-97817809D01*
X129885238Y-97794000D01*
X129837619Y-97770190D01*
X129742380Y-97770190D01*
X129694761Y-97794000D01*
X129670952Y-97817809D01*
X129647142Y-97865428D01*
X129647142Y-97984476D01*
X129670952Y-98032095D01*
X129694761Y-98055904D01*
X129742380Y-98079714D01*
X129837619Y-98079714D01*
X129885238Y-98055904D01*
X129909047Y-98032095D01*
X129932857Y-97984476D01*
X134250952Y-98270190D02*
X134250952Y-97770190D01*
X134370000Y-97770190D01*
X134441428Y-97794000D01*
X134489047Y-97841619D01*
X134512857Y-97889238D01*
X134536666Y-97984476D01*
X134536666Y-98055904D01*
X134512857Y-98151142D01*
X134489047Y-98198761D01*
X134441428Y-98246380D01*
X134370000Y-98270190D01*
X134250952Y-98270190D01*
X134989047Y-97770190D02*
X134750952Y-97770190D01*
X134727142Y-98008285D01*
X134750952Y-97984476D01*
X134798571Y-97960666D01*
X134917619Y-97960666D01*
X134965238Y-97984476D01*
X134989047Y-98008285D01*
X135012857Y-98055904D01*
X135012857Y-98174952D01*
X134989047Y-98222571D01*
X134965238Y-98246380D01*
X134917619Y-98270190D01*
X134798571Y-98270190D01*
X134750952Y-98246380D01*
X134727142Y-98222571D01*
X136779047Y-115042190D02*
X137064761Y-115042190D01*
X136921904Y-115542190D02*
X136921904Y-115042190D01*
X137183809Y-115042190D02*
X137517142Y-115542190D01*
X137517142Y-115042190D02*
X137183809Y-115542190D01*
X139330952Y-115542190D02*
X139330952Y-115042190D01*
X139450000Y-115042190D01*
X139521428Y-115066000D01*
X139569047Y-115113619D01*
X139592857Y-115161238D01*
X139616666Y-115256476D01*
X139616666Y-115327904D01*
X139592857Y-115423142D01*
X139569047Y-115470761D01*
X139521428Y-115518380D01*
X139450000Y-115542190D01*
X139330952Y-115542190D01*
X140045238Y-115208857D02*
X140045238Y-115542190D01*
X139926190Y-115018380D02*
X139807142Y-115375523D01*
X140116666Y-115375523D01*
X113632466Y-109042971D02*
X113608657Y-109066780D01*
X113537228Y-109090590D01*
X113489609Y-109090590D01*
X113418180Y-109066780D01*
X113370561Y-109019161D01*
X113346752Y-108971542D01*
X113322942Y-108876304D01*
X113322942Y-108804876D01*
X113346752Y-108709638D01*
X113370561Y-108662019D01*
X113418180Y-108614400D01*
X113489609Y-108590590D01*
X113537228Y-108590590D01*
X113608657Y-108614400D01*
X113632466Y-108638209D01*
X114108657Y-109090590D02*
X113822942Y-109090590D01*
X113965800Y-109090590D02*
X113965800Y-108590590D01*
X113918180Y-108662019D01*
X113870561Y-108709638D01*
X113822942Y-108733447D01*
X113478571Y-109504990D02*
X113526190Y-109504990D01*
X113573809Y-109528800D01*
X113597619Y-109552609D01*
X113621428Y-109600228D01*
X113645238Y-109695466D01*
X113645238Y-109814514D01*
X113621428Y-109909752D01*
X113597619Y-109957371D01*
X113573809Y-109981180D01*
X113526190Y-110004990D01*
X113478571Y-110004990D01*
X113430952Y-109981180D01*
X113407142Y-109957371D01*
X113383333Y-109909752D01*
X113359523Y-109814514D01*
X113359523Y-109695466D01*
X113383333Y-109600228D01*
X113407142Y-109552609D01*
X113430952Y-109528800D01*
X113478571Y-109504990D01*
X113859523Y-109957371D02*
X113883333Y-109981180D01*
X113859523Y-110004990D01*
X113835714Y-109981180D01*
X113859523Y-109957371D01*
X113859523Y-110004990D01*
X114359523Y-110004990D02*
X114073809Y-110004990D01*
X114216666Y-110004990D02*
X114216666Y-109504990D01*
X114169047Y-109576419D01*
X114121428Y-109624038D01*
X114073809Y-109647847D01*
X114788095Y-109671657D02*
X114788095Y-110004990D01*
X114573809Y-109671657D02*
X114573809Y-109933561D01*
X114597619Y-109981180D01*
X114645238Y-110004990D01*
X114716666Y-110004990D01*
X114764285Y-109981180D01*
X114788095Y-109957371D01*
X115192857Y-109743085D02*
X115026190Y-109743085D01*
X115026190Y-110004990D02*
X115026190Y-109504990D01*
X115264285Y-109504990D01*
X131742666Y-104445571D02*
X131718857Y-104469380D01*
X131647428Y-104493190D01*
X131599809Y-104493190D01*
X131528380Y-104469380D01*
X131480761Y-104421761D01*
X131456952Y-104374142D01*
X131433142Y-104278904D01*
X131433142Y-104207476D01*
X131456952Y-104112238D01*
X131480761Y-104064619D01*
X131528380Y-104017000D01*
X131599809Y-103993190D01*
X131647428Y-103993190D01*
X131718857Y-104017000D01*
X131742666Y-104040809D01*
X131933142Y-104040809D02*
X131956952Y-104017000D01*
X132004571Y-103993190D01*
X132123619Y-103993190D01*
X132171238Y-104017000D01*
X132195047Y-104040809D01*
X132218857Y-104088428D01*
X132218857Y-104136047D01*
X132195047Y-104207476D01*
X131909333Y-104493190D01*
X132218857Y-104493190D01*
X132274571Y-105517190D02*
X132322190Y-105517190D01*
X132369809Y-105541000D01*
X132393619Y-105564809D01*
X132417428Y-105612428D01*
X132441238Y-105707666D01*
X132441238Y-105826714D01*
X132417428Y-105921952D01*
X132393619Y-105969571D01*
X132369809Y-105993380D01*
X132322190Y-106017190D01*
X132274571Y-106017190D01*
X132226952Y-105993380D01*
X132203142Y-105969571D01*
X132179333Y-105921952D01*
X132155523Y-105826714D01*
X132155523Y-105707666D01*
X132179333Y-105612428D01*
X132203142Y-105564809D01*
X132226952Y-105541000D01*
X132274571Y-105517190D01*
X132655523Y-105969571D02*
X132679333Y-105993380D01*
X132655523Y-106017190D01*
X132631714Y-105993380D01*
X132655523Y-105969571D01*
X132655523Y-106017190D01*
X133155523Y-106017190D02*
X132869809Y-106017190D01*
X133012666Y-106017190D02*
X133012666Y-105517190D01*
X132965047Y-105588619D01*
X132917428Y-105636238D01*
X132869809Y-105660047D01*
X133584095Y-105683857D02*
X133584095Y-106017190D01*
X133369809Y-105683857D02*
X133369809Y-105945761D01*
X133393619Y-105993380D01*
X133441238Y-106017190D01*
X133512666Y-106017190D01*
X133560285Y-105993380D01*
X133584095Y-105969571D01*
X133988857Y-105755285D02*
X133822190Y-105755285D01*
X133822190Y-106017190D02*
X133822190Y-105517190D01*
X134060285Y-105517190D01*
X122344666Y-107112571D02*
X122320857Y-107136380D01*
X122249428Y-107160190D01*
X122201809Y-107160190D01*
X122130380Y-107136380D01*
X122082761Y-107088761D01*
X122058952Y-107041142D01*
X122035142Y-106945904D01*
X122035142Y-106874476D01*
X122058952Y-106779238D01*
X122082761Y-106731619D01*
X122130380Y-106684000D01*
X122201809Y-106660190D01*
X122249428Y-106660190D01*
X122320857Y-106684000D01*
X122344666Y-106707809D01*
X122511333Y-106660190D02*
X122820857Y-106660190D01*
X122654190Y-106850666D01*
X122725619Y-106850666D01*
X122773238Y-106874476D01*
X122797047Y-106898285D01*
X122820857Y-106945904D01*
X122820857Y-107064952D01*
X122797047Y-107112571D01*
X122773238Y-107136380D01*
X122725619Y-107160190D01*
X122582761Y-107160190D01*
X122535142Y-107136380D01*
X122511333Y-107112571D01*
X123400476Y-106660190D02*
X123448095Y-106660190D01*
X123495714Y-106684000D01*
X123519523Y-106707809D01*
X123543333Y-106755428D01*
X123567142Y-106850666D01*
X123567142Y-106969714D01*
X123543333Y-107064952D01*
X123519523Y-107112571D01*
X123495714Y-107136380D01*
X123448095Y-107160190D01*
X123400476Y-107160190D01*
X123352857Y-107136380D01*
X123329047Y-107112571D01*
X123305238Y-107064952D01*
X123281428Y-106969714D01*
X123281428Y-106850666D01*
X123305238Y-106755428D01*
X123329047Y-106707809D01*
X123352857Y-106684000D01*
X123400476Y-106660190D01*
X123781428Y-107112571D02*
X123805238Y-107136380D01*
X123781428Y-107160190D01*
X123757619Y-107136380D01*
X123781428Y-107112571D01*
X123781428Y-107160190D01*
X124114761Y-106660190D02*
X124162380Y-106660190D01*
X124210000Y-106684000D01*
X124233809Y-106707809D01*
X124257619Y-106755428D01*
X124281428Y-106850666D01*
X124281428Y-106969714D01*
X124257619Y-107064952D01*
X124233809Y-107112571D01*
X124210000Y-107136380D01*
X124162380Y-107160190D01*
X124114761Y-107160190D01*
X124067142Y-107136380D01*
X124043333Y-107112571D01*
X124019523Y-107064952D01*
X123995714Y-106969714D01*
X123995714Y-106850666D01*
X124019523Y-106755428D01*
X124043333Y-106707809D01*
X124067142Y-106684000D01*
X124114761Y-106660190D01*
X124757619Y-107160190D02*
X124471904Y-107160190D01*
X124614761Y-107160190D02*
X124614761Y-106660190D01*
X124567142Y-106731619D01*
X124519523Y-106779238D01*
X124471904Y-106803047D01*
X125186190Y-106826857D02*
X125186190Y-107160190D01*
X124971904Y-106826857D02*
X124971904Y-107088761D01*
X124995714Y-107136380D01*
X125043333Y-107160190D01*
X125114761Y-107160190D01*
X125162380Y-107136380D01*
X125186190Y-107112571D01*
X125590952Y-106898285D02*
X125424285Y-106898285D01*
X125424285Y-107160190D02*
X125424285Y-106660190D01*
X125662380Y-106660190D01*
X132885666Y-100508571D02*
X132861857Y-100532380D01*
X132790428Y-100556190D01*
X132742809Y-100556190D01*
X132671380Y-100532380D01*
X132623761Y-100484761D01*
X132599952Y-100437142D01*
X132576142Y-100341904D01*
X132576142Y-100270476D01*
X132599952Y-100175238D01*
X132623761Y-100127619D01*
X132671380Y-100080000D01*
X132742809Y-100056190D01*
X132790428Y-100056190D01*
X132861857Y-100080000D01*
X132885666Y-100103809D01*
X133314238Y-100222857D02*
X133314238Y-100556190D01*
X133195190Y-100032380D02*
X133076142Y-100389523D01*
X133385666Y-100389523D01*
X133798571Y-100103809D02*
X133822380Y-100080000D01*
X133870000Y-100056190D01*
X133989047Y-100056190D01*
X134036666Y-100080000D01*
X134060476Y-100103809D01*
X134084285Y-100151428D01*
X134084285Y-100199047D01*
X134060476Y-100270476D01*
X133774761Y-100556190D01*
X134084285Y-100556190D01*
X134393809Y-100056190D02*
X134441428Y-100056190D01*
X134489047Y-100080000D01*
X134512857Y-100103809D01*
X134536666Y-100151428D01*
X134560476Y-100246666D01*
X134560476Y-100365714D01*
X134536666Y-100460952D01*
X134512857Y-100508571D01*
X134489047Y-100532380D01*
X134441428Y-100556190D01*
X134393809Y-100556190D01*
X134346190Y-100532380D01*
X134322380Y-100508571D01*
X134298571Y-100460952D01*
X134274761Y-100365714D01*
X134274761Y-100246666D01*
X134298571Y-100151428D01*
X134322380Y-100103809D01*
X134346190Y-100080000D01*
X134393809Y-100056190D01*
X134774761Y-100222857D02*
X134774761Y-100722857D01*
X134774761Y-100246666D02*
X134822380Y-100222857D01*
X134917619Y-100222857D01*
X134965238Y-100246666D01*
X134989047Y-100270476D01*
X135012857Y-100318095D01*
X135012857Y-100460952D01*
X134989047Y-100508571D01*
X134965238Y-100532380D01*
X134917619Y-100556190D01*
X134822380Y-100556190D01*
X134774761Y-100532380D01*
X135393809Y-100294285D02*
X135227142Y-100294285D01*
X135227142Y-100556190D02*
X135227142Y-100056190D01*
X135465238Y-100056190D01*
X118483866Y-113589571D02*
X118460057Y-113613380D01*
X118388628Y-113637190D01*
X118341009Y-113637190D01*
X118269580Y-113613380D01*
X118221961Y-113565761D01*
X118198152Y-113518142D01*
X118174342Y-113422904D01*
X118174342Y-113351476D01*
X118198152Y-113256238D01*
X118221961Y-113208619D01*
X118269580Y-113161000D01*
X118341009Y-113137190D01*
X118388628Y-113137190D01*
X118460057Y-113161000D01*
X118483866Y-113184809D01*
X118650533Y-113137190D02*
X118983866Y-113137190D01*
X118769580Y-113637190D01*
X117599685Y-114500790D02*
X117313971Y-114500790D01*
X117456828Y-114500790D02*
X117456828Y-114000790D01*
X117409209Y-114072219D01*
X117361590Y-114119838D01*
X117313971Y-114143647D01*
X117909209Y-114000790D02*
X117956828Y-114000790D01*
X118004447Y-114024600D01*
X118028257Y-114048409D01*
X118052066Y-114096028D01*
X118075876Y-114191266D01*
X118075876Y-114310314D01*
X118052066Y-114405552D01*
X118028257Y-114453171D01*
X118004447Y-114476980D01*
X117956828Y-114500790D01*
X117909209Y-114500790D01*
X117861590Y-114476980D01*
X117837780Y-114453171D01*
X117813971Y-114405552D01*
X117790161Y-114310314D01*
X117790161Y-114191266D01*
X117813971Y-114096028D01*
X117837780Y-114048409D01*
X117861590Y-114024600D01*
X117909209Y-114000790D01*
X118504447Y-114167457D02*
X118504447Y-114500790D01*
X118290161Y-114167457D02*
X118290161Y-114429361D01*
X118313971Y-114476980D01*
X118361590Y-114500790D01*
X118433019Y-114500790D01*
X118480638Y-114476980D01*
X118504447Y-114453171D01*
X118909209Y-114238885D02*
X118742542Y-114238885D01*
X118742542Y-114500790D02*
X118742542Y-114000790D01*
X118980638Y-114000790D01*
X124884666Y-109449371D02*
X124860857Y-109473180D01*
X124789428Y-109496990D01*
X124741809Y-109496990D01*
X124670380Y-109473180D01*
X124622761Y-109425561D01*
X124598952Y-109377942D01*
X124575142Y-109282704D01*
X124575142Y-109211276D01*
X124598952Y-109116038D01*
X124622761Y-109068419D01*
X124670380Y-109020800D01*
X124741809Y-108996990D01*
X124789428Y-108996990D01*
X124860857Y-109020800D01*
X124884666Y-109044609D01*
X125122761Y-109496990D02*
X125218000Y-109496990D01*
X125265619Y-109473180D01*
X125289428Y-109449371D01*
X125337047Y-109377942D01*
X125360857Y-109282704D01*
X125360857Y-109092228D01*
X125337047Y-109044609D01*
X125313238Y-109020800D01*
X125265619Y-108996990D01*
X125170380Y-108996990D01*
X125122761Y-109020800D01*
X125098952Y-109044609D01*
X125075142Y-109092228D01*
X125075142Y-109211276D01*
X125098952Y-109258895D01*
X125122761Y-109282704D01*
X125170380Y-109306514D01*
X125265619Y-109306514D01*
X125313238Y-109282704D01*
X125337047Y-109258895D01*
X125360857Y-109211276D01*
X124914885Y-110182790D02*
X124629171Y-110182790D01*
X124772028Y-110182790D02*
X124772028Y-109682790D01*
X124724409Y-109754219D01*
X124676790Y-109801838D01*
X124629171Y-109825647D01*
X125224409Y-109682790D02*
X125272028Y-109682790D01*
X125319647Y-109706600D01*
X125343457Y-109730409D01*
X125367266Y-109778028D01*
X125391076Y-109873266D01*
X125391076Y-109992314D01*
X125367266Y-110087552D01*
X125343457Y-110135171D01*
X125319647Y-110158980D01*
X125272028Y-110182790D01*
X125224409Y-110182790D01*
X125176790Y-110158980D01*
X125152980Y-110135171D01*
X125129171Y-110087552D01*
X125105361Y-109992314D01*
X125105361Y-109873266D01*
X125129171Y-109778028D01*
X125152980Y-109730409D01*
X125176790Y-109706600D01*
X125224409Y-109682790D01*
X125819647Y-109849457D02*
X125819647Y-110182790D01*
X125605361Y-109849457D02*
X125605361Y-110111361D01*
X125629171Y-110158980D01*
X125676790Y-110182790D01*
X125748219Y-110182790D01*
X125795838Y-110158980D01*
X125819647Y-110135171D01*
X126224409Y-109920885D02*
X126057742Y-109920885D01*
X126057742Y-110182790D02*
X126057742Y-109682790D01*
X126295838Y-109682790D01*
X131783971Y-113259371D02*
X131760161Y-113283180D01*
X131688733Y-113306990D01*
X131641114Y-113306990D01*
X131569685Y-113283180D01*
X131522066Y-113235561D01*
X131498257Y-113187942D01*
X131474447Y-113092704D01*
X131474447Y-113021276D01*
X131498257Y-112926038D01*
X131522066Y-112878419D01*
X131569685Y-112830800D01*
X131641114Y-112806990D01*
X131688733Y-112806990D01*
X131760161Y-112830800D01*
X131783971Y-112854609D01*
X132260161Y-113306990D02*
X131974447Y-113306990D01*
X132117304Y-113306990D02*
X132117304Y-112806990D01*
X132069685Y-112878419D01*
X132022066Y-112926038D01*
X131974447Y-112949847D01*
X132569685Y-112806990D02*
X132617304Y-112806990D01*
X132664923Y-112830800D01*
X132688733Y-112854609D01*
X132712542Y-112902228D01*
X132736352Y-112997466D01*
X132736352Y-113116514D01*
X132712542Y-113211752D01*
X132688733Y-113259371D01*
X132664923Y-113283180D01*
X132617304Y-113306990D01*
X132569685Y-113306990D01*
X132522066Y-113283180D01*
X132498257Y-113259371D01*
X132474447Y-113211752D01*
X132450638Y-113116514D01*
X132450638Y-112997466D01*
X132474447Y-112902228D01*
X132498257Y-112854609D01*
X132522066Y-112830800D01*
X132569685Y-112806990D01*
X131614171Y-113565809D02*
X131637980Y-113542000D01*
X131685600Y-113518190D01*
X131804647Y-113518190D01*
X131852266Y-113542000D01*
X131876076Y-113565809D01*
X131899885Y-113613428D01*
X131899885Y-113661047D01*
X131876076Y-113732476D01*
X131590361Y-114018190D01*
X131899885Y-114018190D01*
X132209409Y-113518190D02*
X132257028Y-113518190D01*
X132304647Y-113542000D01*
X132328457Y-113565809D01*
X132352266Y-113613428D01*
X132376076Y-113708666D01*
X132376076Y-113827714D01*
X132352266Y-113922952D01*
X132328457Y-113970571D01*
X132304647Y-113994380D01*
X132257028Y-114018190D01*
X132209409Y-114018190D01*
X132161790Y-113994380D01*
X132137980Y-113970571D01*
X132114171Y-113922952D01*
X132090361Y-113827714D01*
X132090361Y-113708666D01*
X132114171Y-113613428D01*
X132137980Y-113565809D01*
X132161790Y-113542000D01*
X132209409Y-113518190D01*
X132590361Y-113684857D02*
X132590361Y-114184857D01*
X132590361Y-113708666D02*
X132637980Y-113684857D01*
X132733219Y-113684857D01*
X132780838Y-113708666D01*
X132804647Y-113732476D01*
X132828457Y-113780095D01*
X132828457Y-113922952D01*
X132804647Y-113970571D01*
X132780838Y-113994380D01*
X132733219Y-114018190D01*
X132637980Y-114018190D01*
X132590361Y-113994380D01*
X133209409Y-113756285D02*
X133042742Y-113756285D01*
X133042742Y-114018190D02*
X133042742Y-113518190D01*
X133280838Y-113518190D01*
X118677571Y-107137971D02*
X118653761Y-107161780D01*
X118582333Y-107185590D01*
X118534714Y-107185590D01*
X118463285Y-107161780D01*
X118415666Y-107114161D01*
X118391857Y-107066542D01*
X118368047Y-106971304D01*
X118368047Y-106899876D01*
X118391857Y-106804638D01*
X118415666Y-106757019D01*
X118463285Y-106709400D01*
X118534714Y-106685590D01*
X118582333Y-106685590D01*
X118653761Y-106709400D01*
X118677571Y-106733209D01*
X119153761Y-107185590D02*
X118868047Y-107185590D01*
X119010904Y-107185590D02*
X119010904Y-106685590D01*
X118963285Y-106757019D01*
X118915666Y-106804638D01*
X118868047Y-106828447D01*
X119629952Y-107185590D02*
X119344238Y-107185590D01*
X119487095Y-107185590D02*
X119487095Y-106685590D01*
X119439476Y-106757019D01*
X119391857Y-106804638D01*
X119344238Y-106828447D01*
X118641085Y-107998390D02*
X118355371Y-107998390D01*
X118498228Y-107998390D02*
X118498228Y-107498390D01*
X118450609Y-107569819D01*
X118402990Y-107617438D01*
X118355371Y-107641247D01*
X118950609Y-107498390D02*
X118998228Y-107498390D01*
X119045847Y-107522200D01*
X119069657Y-107546009D01*
X119093466Y-107593628D01*
X119117276Y-107688866D01*
X119117276Y-107807914D01*
X119093466Y-107903152D01*
X119069657Y-107950771D01*
X119045847Y-107974580D01*
X118998228Y-107998390D01*
X118950609Y-107998390D01*
X118902990Y-107974580D01*
X118879180Y-107950771D01*
X118855371Y-107903152D01*
X118831561Y-107807914D01*
X118831561Y-107688866D01*
X118855371Y-107593628D01*
X118879180Y-107546009D01*
X118902990Y-107522200D01*
X118950609Y-107498390D01*
X119545847Y-107665057D02*
X119545847Y-107998390D01*
X119331561Y-107665057D02*
X119331561Y-107926961D01*
X119355371Y-107974580D01*
X119402990Y-107998390D01*
X119474419Y-107998390D01*
X119522038Y-107974580D01*
X119545847Y-107950771D01*
X119950609Y-107736485D02*
X119783942Y-107736485D01*
X119783942Y-107998390D02*
X119783942Y-107498390D01*
X120022038Y-107498390D01*
X112311666Y-99641790D02*
X112145000Y-99403695D01*
X112025952Y-99641790D02*
X112025952Y-99141790D01*
X112216428Y-99141790D01*
X112264047Y-99165600D01*
X112287857Y-99189409D01*
X112311666Y-99237028D01*
X112311666Y-99308457D01*
X112287857Y-99356076D01*
X112264047Y-99379885D01*
X112216428Y-99403695D01*
X112025952Y-99403695D01*
X112787857Y-99641790D02*
X112502142Y-99641790D01*
X112645000Y-99641790D02*
X112645000Y-99141790D01*
X112597380Y-99213219D01*
X112549761Y-99260838D01*
X112502142Y-99284647D01*
X111734647Y-99994257D02*
X111734647Y-100327590D01*
X111615600Y-99803780D02*
X111496552Y-100160923D01*
X111806076Y-100160923D01*
X111948933Y-99827590D02*
X112282266Y-99827590D01*
X112067980Y-100327590D01*
X112567980Y-99827590D02*
X112615600Y-99827590D01*
X112663219Y-99851400D01*
X112687028Y-99875209D01*
X112710838Y-99922828D01*
X112734647Y-100018066D01*
X112734647Y-100137114D01*
X112710838Y-100232352D01*
X112687028Y-100279971D01*
X112663219Y-100303780D01*
X112615600Y-100327590D01*
X112567980Y-100327590D01*
X112520361Y-100303780D01*
X112496552Y-100279971D01*
X112472742Y-100232352D01*
X112448933Y-100137114D01*
X112448933Y-100018066D01*
X112472742Y-99922828D01*
X112496552Y-99875209D01*
X112520361Y-99851400D01*
X112567980Y-99827590D01*
X137584666Y-105636190D02*
X137418000Y-105398095D01*
X137298952Y-105636190D02*
X137298952Y-105136190D01*
X137489428Y-105136190D01*
X137537047Y-105160000D01*
X137560857Y-105183809D01*
X137584666Y-105231428D01*
X137584666Y-105302857D01*
X137560857Y-105350476D01*
X137537047Y-105374285D01*
X137489428Y-105398095D01*
X137298952Y-105398095D01*
X138013238Y-105302857D02*
X138013238Y-105636190D01*
X137894190Y-105112380D02*
X137775142Y-105469523D01*
X138084666Y-105469523D01*
X136171904Y-105945809D02*
X136195714Y-105922000D01*
X136243333Y-105898190D01*
X136362380Y-105898190D01*
X136410000Y-105922000D01*
X136433809Y-105945809D01*
X136457619Y-105993428D01*
X136457619Y-106041047D01*
X136433809Y-106112476D01*
X136148095Y-106398190D01*
X136457619Y-106398190D01*
X136910000Y-105898190D02*
X136671904Y-105898190D01*
X136648095Y-106136285D01*
X136671904Y-106112476D01*
X136719523Y-106088666D01*
X136838571Y-106088666D01*
X136886190Y-106112476D01*
X136910000Y-106136285D01*
X136933809Y-106183904D01*
X136933809Y-106302952D01*
X136910000Y-106350571D01*
X136886190Y-106374380D01*
X136838571Y-106398190D01*
X136719523Y-106398190D01*
X136671904Y-106374380D01*
X136648095Y-106350571D01*
X137148095Y-106350571D02*
X137171904Y-106374380D01*
X137148095Y-106398190D01*
X137124285Y-106374380D01*
X137148095Y-106350571D01*
X137148095Y-106398190D01*
X137624285Y-105898190D02*
X137386190Y-105898190D01*
X137362380Y-106136285D01*
X137386190Y-106112476D01*
X137433809Y-106088666D01*
X137552857Y-106088666D01*
X137600476Y-106112476D01*
X137624285Y-106136285D01*
X137648095Y-106183904D01*
X137648095Y-106302952D01*
X137624285Y-106350571D01*
X137600476Y-106374380D01*
X137552857Y-106398190D01*
X137433809Y-106398190D01*
X137386190Y-106374380D01*
X137362380Y-106350571D01*
X137862380Y-106398190D02*
X137862380Y-105898190D01*
X138148095Y-106398190D02*
X137933809Y-106112476D01*
X138148095Y-105898190D02*
X137862380Y-106183904D01*
X122471666Y-109449371D02*
X122447857Y-109473180D01*
X122376428Y-109496990D01*
X122328809Y-109496990D01*
X122257380Y-109473180D01*
X122209761Y-109425561D01*
X122185952Y-109377942D01*
X122162142Y-109282704D01*
X122162142Y-109211276D01*
X122185952Y-109116038D01*
X122209761Y-109068419D01*
X122257380Y-109020800D01*
X122328809Y-108996990D01*
X122376428Y-108996990D01*
X122447857Y-109020800D01*
X122471666Y-109044609D01*
X122757380Y-109211276D02*
X122709761Y-109187466D01*
X122685952Y-109163657D01*
X122662142Y-109116038D01*
X122662142Y-109092228D01*
X122685952Y-109044609D01*
X122709761Y-109020800D01*
X122757380Y-108996990D01*
X122852619Y-108996990D01*
X122900238Y-109020800D01*
X122924047Y-109044609D01*
X122947857Y-109092228D01*
X122947857Y-109116038D01*
X122924047Y-109163657D01*
X122900238Y-109187466D01*
X122852619Y-109211276D01*
X122757380Y-109211276D01*
X122709761Y-109235085D01*
X122685952Y-109258895D01*
X122662142Y-109306514D01*
X122662142Y-109401752D01*
X122685952Y-109449371D01*
X122709761Y-109473180D01*
X122757380Y-109496990D01*
X122852619Y-109496990D01*
X122900238Y-109473180D01*
X122924047Y-109449371D01*
X122947857Y-109401752D01*
X122947857Y-109306514D01*
X122924047Y-109258895D01*
X122900238Y-109235085D01*
X122852619Y-109211276D01*
X122317771Y-109682790D02*
X122365390Y-109682790D01*
X122413009Y-109706600D01*
X122436819Y-109730409D01*
X122460628Y-109778028D01*
X122484438Y-109873266D01*
X122484438Y-109992314D01*
X122460628Y-110087552D01*
X122436819Y-110135171D01*
X122413009Y-110158980D01*
X122365390Y-110182790D01*
X122317771Y-110182790D01*
X122270152Y-110158980D01*
X122246342Y-110135171D01*
X122222533Y-110087552D01*
X122198723Y-109992314D01*
X122198723Y-109873266D01*
X122222533Y-109778028D01*
X122246342Y-109730409D01*
X122270152Y-109706600D01*
X122317771Y-109682790D01*
X122698723Y-110135171D02*
X122722533Y-110158980D01*
X122698723Y-110182790D01*
X122674914Y-110158980D01*
X122698723Y-110135171D01*
X122698723Y-110182790D01*
X123198723Y-110182790D02*
X122913009Y-110182790D01*
X123055866Y-110182790D02*
X123055866Y-109682790D01*
X123008247Y-109754219D01*
X122960628Y-109801838D01*
X122913009Y-109825647D01*
X123627295Y-109849457D02*
X123627295Y-110182790D01*
X123413009Y-109849457D02*
X123413009Y-110111361D01*
X123436819Y-110158980D01*
X123484438Y-110182790D01*
X123555866Y-110182790D01*
X123603485Y-110158980D01*
X123627295Y-110135171D01*
X124032057Y-109920885D02*
X123865390Y-109920885D01*
X123865390Y-110182790D02*
X123865390Y-109682790D01*
X124103485Y-109682790D01*
X136525047Y-100310190D02*
X136525047Y-100714952D01*
X136548857Y-100762571D01*
X136572666Y-100786380D01*
X136620285Y-100810190D01*
X136715523Y-100810190D01*
X136763142Y-100786380D01*
X136786952Y-100762571D01*
X136810761Y-100714952D01*
X136810761Y-100310190D01*
X137025047Y-100357809D02*
X137048857Y-100334000D01*
X137096476Y-100310190D01*
X137215523Y-100310190D01*
X137263142Y-100334000D01*
X137286952Y-100357809D01*
X137310761Y-100405428D01*
X137310761Y-100453047D01*
X137286952Y-100524476D01*
X137001238Y-100810190D01*
X137310761Y-100810190D01*
X138132476Y-100840190D02*
X137894380Y-100840190D01*
X137894380Y-100340190D01*
X138299142Y-100840190D02*
X138299142Y-100340190D01*
X138465809Y-100697333D01*
X138632476Y-100340190D01*
X138632476Y-100840190D01*
X138799142Y-100340190D02*
X138965809Y-100840190D01*
X139132476Y-100340190D01*
X139561047Y-100840190D02*
X139275333Y-100840190D01*
X139418190Y-100840190D02*
X139418190Y-100340190D01*
X139370571Y-100411619D01*
X139322952Y-100459238D01*
X139275333Y-100483047D01*
X140037238Y-100840190D02*
X139751523Y-100840190D01*
X139894380Y-100840190D02*
X139894380Y-100340190D01*
X139846761Y-100411619D01*
X139799142Y-100459238D01*
X139751523Y-100483047D01*
X140465809Y-100340190D02*
X140370571Y-100340190D01*
X140322952Y-100364000D01*
X140299142Y-100387809D01*
X140251523Y-100459238D01*
X140227714Y-100554476D01*
X140227714Y-100744952D01*
X140251523Y-100792571D01*
X140275333Y-100816380D01*
X140322952Y-100840190D01*
X140418190Y-100840190D01*
X140465809Y-100816380D01*
X140489619Y-100792571D01*
X140513428Y-100744952D01*
X140513428Y-100625904D01*
X140489619Y-100578285D01*
X140465809Y-100554476D01*
X140418190Y-100530666D01*
X140322952Y-100530666D01*
X140275333Y-100554476D01*
X140251523Y-100578285D01*
X140227714Y-100625904D01*
X117696466Y-100022790D02*
X117529800Y-99784695D01*
X117410752Y-100022790D02*
X117410752Y-99522790D01*
X117601228Y-99522790D01*
X117648847Y-99546600D01*
X117672657Y-99570409D01*
X117696466Y-99618028D01*
X117696466Y-99689457D01*
X117672657Y-99737076D01*
X117648847Y-99760885D01*
X117601228Y-99784695D01*
X117410752Y-99784695D01*
X118125038Y-99522790D02*
X118029800Y-99522790D01*
X117982180Y-99546600D01*
X117958371Y-99570409D01*
X117910752Y-99641838D01*
X117886942Y-99737076D01*
X117886942Y-99927552D01*
X117910752Y-99975171D01*
X117934561Y-99998980D01*
X117982180Y-100022790D01*
X118077419Y-100022790D01*
X118125038Y-99998980D01*
X118148847Y-99975171D01*
X118172657Y-99927552D01*
X118172657Y-99808504D01*
X118148847Y-99760885D01*
X118125038Y-99737076D01*
X118077419Y-99713266D01*
X117982180Y-99713266D01*
X117934561Y-99737076D01*
X117910752Y-99760885D01*
X117886942Y-99808504D01*
X117104361Y-100657790D02*
X116818647Y-100657790D01*
X116961504Y-100657790D02*
X116961504Y-100157790D01*
X116913885Y-100229219D01*
X116866266Y-100276838D01*
X116818647Y-100300647D01*
X117413885Y-100157790D02*
X117461504Y-100157790D01*
X117509123Y-100181600D01*
X117532933Y-100205409D01*
X117556742Y-100253028D01*
X117580552Y-100348266D01*
X117580552Y-100467314D01*
X117556742Y-100562552D01*
X117532933Y-100610171D01*
X117509123Y-100633980D01*
X117461504Y-100657790D01*
X117413885Y-100657790D01*
X117366266Y-100633980D01*
X117342457Y-100610171D01*
X117318647Y-100562552D01*
X117294838Y-100467314D01*
X117294838Y-100348266D01*
X117318647Y-100253028D01*
X117342457Y-100205409D01*
X117366266Y-100181600D01*
X117413885Y-100157790D01*
X117794838Y-100657790D02*
X117794838Y-100157790D01*
X118080552Y-100657790D02*
X117866266Y-100372076D01*
X118080552Y-100157790D02*
X117794838Y-100443504D01*
X114242066Y-103756590D02*
X114075400Y-103518495D01*
X113956352Y-103756590D02*
X113956352Y-103256590D01*
X114146828Y-103256590D01*
X114194447Y-103280400D01*
X114218257Y-103304209D01*
X114242066Y-103351828D01*
X114242066Y-103423257D01*
X114218257Y-103470876D01*
X114194447Y-103494685D01*
X114146828Y-103518495D01*
X113956352Y-103518495D01*
X114408733Y-103256590D02*
X114742066Y-103256590D01*
X114527780Y-103756590D01*
X113827761Y-104467790D02*
X113542047Y-104467790D01*
X113684904Y-104467790D02*
X113684904Y-103967790D01*
X113637285Y-104039219D01*
X113589666Y-104086838D01*
X113542047Y-104110647D01*
X114137285Y-103967790D02*
X114184904Y-103967790D01*
X114232523Y-103991600D01*
X114256333Y-104015409D01*
X114280142Y-104063028D01*
X114303952Y-104158266D01*
X114303952Y-104277314D01*
X114280142Y-104372552D01*
X114256333Y-104420171D01*
X114232523Y-104443980D01*
X114184904Y-104467790D01*
X114137285Y-104467790D01*
X114089666Y-104443980D01*
X114065857Y-104420171D01*
X114042047Y-104372552D01*
X114018238Y-104277314D01*
X114018238Y-104158266D01*
X114042047Y-104063028D01*
X114065857Y-104015409D01*
X114089666Y-103991600D01*
X114137285Y-103967790D01*
X114518238Y-104467790D02*
X114518238Y-103967790D01*
X114803952Y-104467790D02*
X114589666Y-104182076D01*
X114803952Y-103967790D02*
X114518238Y-104253504D01*
X126619047Y-99802190D02*
X126619047Y-100206952D01*
X126642857Y-100254571D01*
X126666666Y-100278380D01*
X126714285Y-100302190D01*
X126809523Y-100302190D01*
X126857142Y-100278380D01*
X126880952Y-100254571D01*
X126904761Y-100206952D01*
X126904761Y-99802190D01*
X127095238Y-99802190D02*
X127404761Y-99802190D01*
X127238095Y-99992666D01*
X127309523Y-99992666D01*
X127357142Y-100016476D01*
X127380952Y-100040285D01*
X127404761Y-100087904D01*
X127404761Y-100206952D01*
X127380952Y-100254571D01*
X127357142Y-100278380D01*
X127309523Y-100302190D01*
X127166666Y-100302190D01*
X127119047Y-100278380D01*
X127095238Y-100254571D01*
X127964571Y-100159333D02*
X128202666Y-100159333D01*
X127916952Y-100302190D02*
X128083619Y-99802190D01*
X128250285Y-100302190D01*
X128416952Y-100302190D02*
X128416952Y-99802190D01*
X128536000Y-99802190D01*
X128607428Y-99826000D01*
X128655047Y-99873619D01*
X128678857Y-99921238D01*
X128702666Y-100016476D01*
X128702666Y-100087904D01*
X128678857Y-100183142D01*
X128655047Y-100230761D01*
X128607428Y-100278380D01*
X128536000Y-100302190D01*
X128416952Y-100302190D01*
X129155047Y-99802190D02*
X128916952Y-99802190D01*
X128893142Y-100040285D01*
X128916952Y-100016476D01*
X128964571Y-99992666D01*
X129083619Y-99992666D01*
X129131238Y-100016476D01*
X129155047Y-100040285D01*
X129178857Y-100087904D01*
X129178857Y-100206952D01*
X129155047Y-100254571D01*
X129131238Y-100278380D01*
X129083619Y-100302190D01*
X128964571Y-100302190D01*
X128916952Y-100278380D01*
X128893142Y-100254571D01*
X129369333Y-99849809D02*
X129393142Y-99826000D01*
X129440761Y-99802190D01*
X129559809Y-99802190D01*
X129607428Y-99826000D01*
X129631238Y-99849809D01*
X129655047Y-99897428D01*
X129655047Y-99945047D01*
X129631238Y-100016476D01*
X129345523Y-100302190D01*
X129655047Y-100302190D01*
X130083619Y-99968857D02*
X130083619Y-100302190D01*
X129964571Y-99778380D02*
X129845523Y-100135523D01*
X130155047Y-100135523D01*
X130583619Y-99802190D02*
X130345523Y-99802190D01*
X130321714Y-100040285D01*
X130345523Y-100016476D01*
X130393142Y-99992666D01*
X130512190Y-99992666D01*
X130559809Y-100016476D01*
X130583619Y-100040285D01*
X130607428Y-100087904D01*
X130607428Y-100206952D01*
X130583619Y-100254571D01*
X130559809Y-100278380D01*
X130512190Y-100302190D01*
X130393142Y-100302190D01*
X130345523Y-100278380D01*
X130321714Y-100254571D01*
X113734066Y-113589571D02*
X113710257Y-113613380D01*
X113638828Y-113637190D01*
X113591209Y-113637190D01*
X113519780Y-113613380D01*
X113472161Y-113565761D01*
X113448352Y-113518142D01*
X113424542Y-113422904D01*
X113424542Y-113351476D01*
X113448352Y-113256238D01*
X113472161Y-113208619D01*
X113519780Y-113161000D01*
X113591209Y-113137190D01*
X113638828Y-113137190D01*
X113710257Y-113161000D01*
X113734066Y-113184809D01*
X114162638Y-113137190D02*
X114067400Y-113137190D01*
X114019780Y-113161000D01*
X113995971Y-113184809D01*
X113948352Y-113256238D01*
X113924542Y-113351476D01*
X113924542Y-113541952D01*
X113948352Y-113589571D01*
X113972161Y-113613380D01*
X114019780Y-113637190D01*
X114115019Y-113637190D01*
X114162638Y-113613380D01*
X114186447Y-113589571D01*
X114210257Y-113541952D01*
X114210257Y-113422904D01*
X114186447Y-113375285D01*
X114162638Y-113351476D01*
X114115019Y-113327666D01*
X114019780Y-113327666D01*
X113972161Y-113351476D01*
X113948352Y-113375285D01*
X113924542Y-113422904D01*
X113580171Y-114000790D02*
X113627790Y-114000790D01*
X113675409Y-114024600D01*
X113699219Y-114048409D01*
X113723028Y-114096028D01*
X113746838Y-114191266D01*
X113746838Y-114310314D01*
X113723028Y-114405552D01*
X113699219Y-114453171D01*
X113675409Y-114476980D01*
X113627790Y-114500790D01*
X113580171Y-114500790D01*
X113532552Y-114476980D01*
X113508742Y-114453171D01*
X113484933Y-114405552D01*
X113461123Y-114310314D01*
X113461123Y-114191266D01*
X113484933Y-114096028D01*
X113508742Y-114048409D01*
X113532552Y-114024600D01*
X113580171Y-114000790D01*
X113961123Y-114453171D02*
X113984933Y-114476980D01*
X113961123Y-114500790D01*
X113937314Y-114476980D01*
X113961123Y-114453171D01*
X113961123Y-114500790D01*
X114461123Y-114500790D02*
X114175409Y-114500790D01*
X114318266Y-114500790D02*
X114318266Y-114000790D01*
X114270647Y-114072219D01*
X114223028Y-114119838D01*
X114175409Y-114143647D01*
X114889695Y-114167457D02*
X114889695Y-114500790D01*
X114675409Y-114167457D02*
X114675409Y-114429361D01*
X114699219Y-114476980D01*
X114746838Y-114500790D01*
X114818266Y-114500790D01*
X114865885Y-114476980D01*
X114889695Y-114453171D01*
X115294457Y-114238885D02*
X115127790Y-114238885D01*
X115127790Y-114500790D02*
X115127790Y-114000790D01*
X115365885Y-114000790D01*
M02*
