G04 #@! TF.GenerationSoftware,KiCad,Pcbnew,(5.0.0-rc2-dev-444-g2974a2c10)*
G04 #@! TF.CreationDate,2019-09-13T20:51:01-07:00*
G04 #@! TF.ProjectId,Waveform_Gen_ADSR,57617665666F726D5F47656E5F414453,v00*
G04 #@! TF.SameCoordinates,Original*
G04 #@! TF.FileFunction,Soldermask,Bot*
G04 #@! TF.FilePolarity,Negative*
%FSLAX46Y46*%
G04 Gerber Fmt 4.6, Leading zero omitted, Abs format (unit mm)*
G04 Created by KiCad (PCBNEW (5.0.0-rc2-dev-444-g2974a2c10)) date 09/13/19 20:51:01*
%MOMM*%
%LPD*%
G01*
G04 APERTURE LIST*
%ADD10C,0.150000*%
%ADD11R,1.701600X1.301600*%
%ADD12O,1.801600X1.801600*%
%ADD13R,1.801600X1.801600*%
%ADD14C,1.721600*%
%ADD15R,1.721600X1.721600*%
%ADD16C,1.801600*%
%ADD17C,2.601600*%
%ADD18C,3.101600*%
%ADD19R,0.801600X1.401600*%
G04 APERTURE END LIST*
D10*
G36*
X104571600Y-101411400D02*
X104571600Y-103211400D01*
X106581600Y-103231400D01*
X106581600Y-101431400D01*
X104571600Y-101411400D01*
G37*
X104571600Y-101411400D02*
X104571600Y-103211400D01*
X106581600Y-103231400D01*
X106581600Y-101431400D01*
X104571600Y-101411400D01*
G36*
X106991600Y-101231400D02*
X106102600Y-102120400D01*
X106864600Y-101866400D01*
X105975600Y-102755400D01*
X106864600Y-102501400D01*
X105975600Y-103517400D01*
X106864600Y-103263400D01*
X106864600Y-104533400D01*
X107118600Y-104533400D01*
X107118600Y-103263400D01*
X108007600Y-103517400D01*
X107118600Y-102501400D01*
X108007600Y-102755400D01*
X107118600Y-101866400D01*
X107880600Y-102120400D01*
X106991600Y-101231400D01*
G37*
X106991600Y-101231400D02*
X106102600Y-102120400D01*
X106864600Y-101866400D01*
X105975600Y-102755400D01*
X106864600Y-102501400D01*
X105975600Y-103517400D01*
X106864600Y-103263400D01*
X106864600Y-104533400D01*
X107118600Y-104533400D01*
X107118600Y-103263400D01*
X108007600Y-103517400D01*
X107118600Y-102501400D01*
X108007600Y-102755400D01*
X107118600Y-101866400D01*
X107880600Y-102120400D01*
X106991600Y-101231400D01*
G36*
X105594600Y-100469400D02*
X104705600Y-101358400D01*
X105467600Y-101104400D01*
X104578600Y-101993400D01*
X105467600Y-101739400D01*
X104578600Y-102755400D01*
X105467600Y-102501400D01*
X105467600Y-103771400D01*
X105721600Y-103771400D01*
X105721600Y-102501400D01*
X106610600Y-102755400D01*
X105721600Y-101739400D01*
X106610600Y-101993400D01*
X105721600Y-101104400D01*
X106483600Y-101358400D01*
X105594600Y-100469400D01*
G37*
X105594600Y-100469400D02*
X104705600Y-101358400D01*
X105467600Y-101104400D01*
X104578600Y-101993400D01*
X105467600Y-101739400D01*
X104578600Y-102755400D01*
X105467600Y-102501400D01*
X105467600Y-103771400D01*
X105721600Y-103771400D01*
X105721600Y-102501400D01*
X106610600Y-102755400D01*
X105721600Y-101739400D01*
X106610600Y-101993400D01*
X105721600Y-101104400D01*
X106483600Y-101358400D01*
X105594600Y-100469400D01*
G36*
X104197600Y-101231400D02*
X103308600Y-102120400D01*
X104070600Y-101866400D01*
X103181600Y-102755400D01*
X104070600Y-102501400D01*
X103181600Y-103517400D01*
X104070600Y-103263400D01*
X104070600Y-104533400D01*
X104324600Y-104533400D01*
X104324600Y-103263400D01*
X105213600Y-103517400D01*
X104324600Y-102501400D01*
X105213600Y-102755400D01*
X104324600Y-101866400D01*
X105086600Y-102120400D01*
X104197600Y-101231400D01*
G37*
X104197600Y-101231400D02*
X103308600Y-102120400D01*
X104070600Y-101866400D01*
X103181600Y-102755400D01*
X104070600Y-102501400D01*
X103181600Y-103517400D01*
X104070600Y-103263400D01*
X104070600Y-104533400D01*
X104324600Y-104533400D01*
X104324600Y-103263400D01*
X105213600Y-103517400D01*
X104324600Y-102501400D01*
X105213600Y-102755400D01*
X104324600Y-101866400D01*
X105086600Y-102120400D01*
X104197600Y-101231400D01*
D11*
X105591600Y-100681400D03*
X105591600Y-103881400D03*
D12*
X143510000Y-105410000D03*
D13*
X143510000Y-102870000D03*
D14*
X142980000Y-110400000D03*
X140440000Y-110400000D03*
D15*
X137900000Y-110400000D03*
D16*
X101600000Y-116840000D03*
X104140000Y-116840000D03*
X106680000Y-116840000D03*
X109220000Y-116840000D03*
X111760000Y-116840000D03*
X114300000Y-116840000D03*
X116840000Y-116840000D03*
X119380000Y-116840000D03*
X121920000Y-116840000D03*
X124460000Y-116840000D03*
X127000000Y-116840000D03*
X129540000Y-116840000D03*
X132080000Y-116840000D03*
X134620000Y-116840000D03*
X137160000Y-116840000D03*
X139700000Y-116840000D03*
X111760000Y-96520000D03*
X114300000Y-96520000D03*
X116840000Y-96520000D03*
X119380000Y-96520000D03*
X121920000Y-96520000D03*
X124460000Y-96520000D03*
X127000000Y-96520000D03*
X129540000Y-96520000D03*
X132080000Y-96520000D03*
X134620000Y-96520000D03*
X137160000Y-96520000D03*
X139700000Y-96520000D03*
D17*
X143510000Y-97790000D03*
X143510000Y-115570000D03*
D18*
X97790000Y-115570000D03*
X97790000Y-97790000D03*
D19*
X134935000Y-112801400D03*
X133035000Y-112801400D03*
M02*
